M48
; DRILL file {KiCad 8.0.5} date 2024-10-17T20:52:01+0200
; FORMAT={-:-/ absolute / inch / decimal}
; #@! TF.CreationDate,2024-10-17T20:52:01+02:00
; #@! TF.GenerationSoftware,Kicad,Pcbnew,8.0.5
; #@! TF.FileFunction,Plated,1,2,PTH
FMAT,2
INCH
; #@! TA.AperFunction,Plated,PTH,ViaDrill
T1C0.0118
; #@! TA.AperFunction,Plated,PTH,ViaDrill
T2C0.0157
; #@! TA.AperFunction,Plated,PTH,ComponentDrill
T3C0.0390
; #@! TA.AperFunction,Plated,PTH,ComponentDrill
T4C0.0430
; #@! TA.AperFunction,Plated,PTH,ComponentDrill
T5C0.0590
; #@! TA.AperFunction,Plated,PTH,ComponentDrill
T6C0.0866
%
G90
G05
T1
X10.2795Y-6.5906
T2
X4.1142Y-1.8701
X4.3031Y-1.8268
X4.4055Y-2.6772
X4.437Y-2.7953
X4.4685Y-2.8819
X4.5079Y-2.9173
X4.5394Y-2.9606
X4.5748Y-3.0039
X4.5945Y-3.0551
X4.6457Y-3.063
X4.6772Y-3.1102
X4.7126Y-3.1654
X5.3701Y-3.2205
X5.5512Y-2.689
X5.5512Y-2.8858
X5.6142Y-2.685
X5.6142Y-2.8346
X5.6772Y-1.4882
X5.6772Y-1.7205
X5.6772Y-2.689
X5.6772Y-2.9173
X5.7244Y-1.811
X5.7244Y-2.685
X5.7244Y-2.9606
X5.7756Y-1.748
X5.7795Y-2.6811
X5.7795Y-2.9685
X6.2008Y-5.8071
X6.3465Y-3.0276
T3
X4.7046Y-8.2147
X4.9644Y-8.0647
X5.7275Y-7.6241
X5.9873Y-7.4741
X6.4395Y-6.4247
X6.7395Y-6.4247
X6.7938Y-2.4089
X6.7938Y-3.3538
X6.7938Y-4.1018
X6.7938Y-4.8498
X6.7938Y-5.5979
X7.0938Y-2.4089
X7.0938Y-3.3538
X7.0938Y-4.1018
X7.0938Y-4.8498
X7.0938Y-5.5979
X7.5419Y-2.4089
X7.5419Y-3.3538
X7.5419Y-4.1018
X7.5419Y-4.8498
X7.5419Y-5.5979
X7.8419Y-2.4089
X7.8419Y-3.3538
X7.8419Y-4.1018
X7.8419Y-4.8498
X7.8419Y-5.5979
X8.0537Y-6.4247
X8.2899Y-2.4089
X8.2899Y-3.3538
X8.2899Y-4.1018
X8.2899Y-4.8498
X8.2899Y-5.5979
X8.3537Y-6.4247
X8.5899Y-2.4089
X8.5899Y-3.3538
X8.5899Y-4.1018
X8.5899Y-4.8498
X8.5899Y-5.5979
X9.0379Y-2.4089
X9.0379Y-3.3538
X9.0379Y-4.1018
X9.0379Y-4.8498
X9.0379Y-5.5979
X9.2348Y-6.4247
X9.3379Y-2.4089
X9.3379Y-3.3538
X9.3379Y-4.1018
X9.3379Y-4.8498
X9.3379Y-5.5979
X9.5348Y-6.4247
X9.786Y-2.4089
X9.786Y-3.3538
X9.786Y-4.1018
X9.786Y-4.8498
X9.786Y-5.5979
X10.086Y-2.4089
X10.086Y-3.3538
X10.086Y-4.1018
X10.086Y-4.8498
X10.086Y-5.5979
X10.4159Y-6.4247
X10.534Y-2.4089
X10.534Y-3.3538
X10.534Y-4.1018
X10.534Y-4.8498
X10.534Y-5.5979
X10.7159Y-6.4247
X10.834Y-2.4089
X10.834Y-3.3538
X10.834Y-4.1018
X10.834Y-4.8498
X10.834Y-5.5979
X11.282Y-2.4089
X11.282Y-3.3538
X11.282Y-4.1018
X11.282Y-4.8498
X11.282Y-5.5979
X11.582Y-2.4089
X11.582Y-3.3538
X11.582Y-4.1018
X11.582Y-4.8498
X11.582Y-5.5979
X12.1482Y-2.6058
X12.1482Y-3.3538
X12.1482Y-4.1018
X12.1482Y-6.3459
X12.4482Y-2.6058
X12.4482Y-3.3538
X12.4482Y-4.1018
X12.4482Y-6.3459
X12.8962Y-2.6058
X12.8962Y-3.3538
X12.8962Y-4.1018
X12.8962Y-5.5979
X12.8962Y-6.3459
X13.1962Y-2.6058
X13.1962Y-3.3538
X13.1962Y-4.1018
X13.1962Y-5.5979
X13.1962Y-6.3459
X13.6442Y-2.6058
X13.6442Y-3.3538
X13.6442Y-4.1018
X13.6442Y-6.3459
X13.9442Y-2.6058
X13.9442Y-3.3538
X13.9442Y-4.1018
X13.9442Y-6.3459
T4
X4.8378Y-1.5472
X4.8378Y-1.6472
X4.8378Y-1.7472
X4.8378Y-1.8472
X4.8378Y-1.9472
X4.8378Y-2.0472
X4.8378Y-2.1472
X4.8378Y-2.2472
X4.8378Y-2.3472
X4.8378Y-2.4472
X4.8378Y-2.5472
X4.8378Y-2.6472
X5.4378Y-1.5472
X5.4378Y-1.6472
X5.4378Y-1.7472
X5.4378Y-1.8472
X5.4378Y-1.9472
X5.4378Y-2.0472
X5.4378Y-2.1472
X5.4378Y-2.2472
X5.4378Y-2.3472
X5.4378Y-2.4472
X5.4378Y-2.5472
X5.4378Y-2.6472
T5
X4.5551Y-4.2992
X4.6532Y-7.8107
X4.8197Y-7.5991
X5.3701Y-4.2992
X5.6761Y-7.2201
X5.8426Y-7.0085
X6.597Y-6.0491
X6.6364Y-2.0333
X6.6364Y-2.9782
X6.6364Y-3.7262
X6.6364Y-4.4743
X6.6364Y-5.2223
X6.847Y-5.9491
X6.8864Y-1.9333
X6.8864Y-2.8782
X6.8864Y-3.6262
X6.8864Y-4.3743
X6.8864Y-5.1223
X7.3844Y-2.0333
X7.3844Y-2.9782
X7.3844Y-3.7262
X7.3844Y-4.4743
X7.3844Y-5.2223
X7.6344Y-1.9333
X7.6344Y-2.8782
X7.6344Y-3.6262
X7.6344Y-4.3743
X7.6344Y-5.1223
X8.1324Y-2.0333
X8.1324Y-2.9782
X8.1324Y-3.7262
X8.1324Y-4.4743
X8.1324Y-5.2223
X8.2112Y-6.0491
X8.3824Y-1.9333
X8.3824Y-2.8782
X8.3824Y-3.6262
X8.3824Y-4.3743
X8.3824Y-5.1223
X8.4612Y-5.9491
X8.8804Y-2.0333
X8.8804Y-2.9782
X8.8804Y-3.7262
X8.8804Y-4.4743
X8.8804Y-5.2223
X9.1304Y-1.9333
X9.1304Y-2.8782
X9.1304Y-3.6262
X9.1304Y-4.3743
X9.1304Y-5.1223
X9.3923Y-6.0491
X9.6285Y-2.0333
X9.6285Y-2.9782
X9.6285Y-3.7262
X9.6285Y-4.4743
X9.6285Y-5.2223
X9.6423Y-5.9491
X9.8785Y-1.9333
X9.8785Y-2.8782
X9.8785Y-3.6262
X9.8785Y-4.3743
X9.8785Y-5.1223
X10.3765Y-2.0333
X10.3765Y-2.9782
X10.3765Y-3.7262
X10.3765Y-4.4743
X10.3765Y-5.2223
X10.5734Y-6.0491
X10.6265Y-1.9333
X10.6265Y-2.8782
X10.6265Y-3.6262
X10.6265Y-4.3743
X10.6265Y-5.1223
X10.8234Y-5.9491
X11.1245Y-2.0333
X11.1245Y-2.9782
X11.1245Y-3.7262
X11.1245Y-4.4743
X11.1245Y-5.2223
X11.3745Y-1.9333
X11.3745Y-2.8782
X11.3745Y-3.6262
X11.3745Y-4.3743
X11.3745Y-5.1223
X11.9907Y-2.2302
X11.9907Y-2.9782
X11.9907Y-3.7262
X11.9907Y-5.9703
X12.2407Y-2.1302
X12.2407Y-2.8782
X12.2407Y-3.6262
X12.2407Y-5.8703
X12.7387Y-2.2302
X12.7387Y-2.9782
X12.7387Y-3.7262
X12.7387Y-5.2223
X12.7387Y-5.9703
X12.9887Y-2.1302
X12.9887Y-2.8782
X12.9887Y-3.6262
X12.9887Y-5.1223
X12.9887Y-5.8703
X13.4867Y-2.2302
X13.4867Y-2.9782
X13.4867Y-3.7262
X13.4867Y-5.9703
X13.7367Y-2.1302
X13.7367Y-2.8782
X13.7367Y-3.6262
X13.7367Y-5.8703
T6
X4.0984Y-8.2244
X4.2283Y-1.9567
X10.1614Y-6.189
X10.1732Y-1.5787
X14.1693Y-1.5984
X14.1732Y-6.689
M30
