M48
; DRILL file {KiCad 8.0.5} date 2024-10-17T20:52:01+0200
; FORMAT={-:-/ absolute / inch / decimal}
; #@! TF.CreationDate,2024-10-17T20:52:01+02:00
; #@! TF.GenerationSoftware,Kicad,Pcbnew,8.0.5
; #@! TF.FileFunction,NonPlated,1,2,NPTH
FMAT,2
INCH
; #@! TA.AperFunction,NonPlated,NPTH,ComponentDrill
T1C0.0354
; #@! TA.AperFunction,NonPlated,NPTH,ComponentDrill
T2C0.0670
; #@! TA.AperFunction,NonPlated,NPTH,ComponentDrill
T3C0.1570
%
G90
G05
T1
X3.9419Y-1.5945
X3.9419Y-1.7126
T2
X4.6599Y-7.9223
X5.0063Y-7.7223
X5.6828Y-7.3317
X6.0292Y-7.1317
X6.547Y-6.1491
X6.5864Y-2.1333
X6.5864Y-3.0782
X6.5864Y-3.8262
X6.5864Y-4.5743
X6.5864Y-5.3223
X6.947Y-6.1491
X6.9864Y-2.1333
X6.9864Y-3.0782
X6.9864Y-3.8262
X6.9864Y-4.5743
X6.9864Y-5.3223
X7.3344Y-2.1333
X7.3344Y-3.0782
X7.3344Y-3.8262
X7.3344Y-4.5743
X7.3344Y-5.3223
X7.7344Y-2.1333
X7.7344Y-3.0782
X7.7344Y-3.8262
X7.7344Y-4.5743
X7.7344Y-5.3223
X8.0824Y-2.1333
X8.0824Y-3.0782
X8.0824Y-3.8262
X8.0824Y-4.5743
X8.0824Y-5.3223
X8.1612Y-6.1491
X8.4824Y-2.1333
X8.4824Y-3.0782
X8.4824Y-3.8262
X8.4824Y-4.5743
X8.4824Y-5.3223
X8.5612Y-6.1491
X8.8304Y-2.1333
X8.8304Y-3.0782
X8.8304Y-3.8262
X8.8304Y-4.5743
X8.8304Y-5.3223
X9.2304Y-2.1333
X9.2304Y-3.0782
X9.2304Y-3.8262
X9.2304Y-4.5743
X9.2304Y-5.3223
X9.3423Y-6.1491
X9.5785Y-2.1333
X9.5785Y-3.0782
X9.5785Y-3.8262
X9.5785Y-4.5743
X9.5785Y-5.3223
X9.7423Y-6.1491
X9.9785Y-2.1333
X9.9785Y-3.0782
X9.9785Y-3.8262
X9.9785Y-4.5743
X9.9785Y-5.3223
X10.3265Y-2.1333
X10.3265Y-3.0782
X10.3265Y-3.8262
X10.3265Y-4.5743
X10.3265Y-5.3223
X10.5234Y-6.1491
X10.7265Y-2.1333
X10.7265Y-3.0782
X10.7265Y-3.8262
X10.7265Y-4.5743
X10.7265Y-5.3223
X10.9234Y-6.1491
X11.0745Y-2.1333
X11.0745Y-3.0782
X11.0745Y-3.8262
X11.0745Y-4.5743
X11.0745Y-5.3223
X11.4745Y-2.1333
X11.4745Y-3.0782
X11.4745Y-3.8262
X11.4745Y-4.5743
X11.4745Y-5.3223
X11.9407Y-2.3302
X11.9407Y-3.0782
X11.9407Y-3.8262
X11.9407Y-6.0703
X12.3407Y-2.3302
X12.3407Y-3.0782
X12.3407Y-3.8262
X12.3407Y-6.0703
X12.6887Y-2.3302
X12.6887Y-3.0782
X12.6887Y-3.8262
X12.6887Y-5.3223
X12.6887Y-6.0703
X13.0887Y-2.3302
X13.0887Y-3.0782
X13.0887Y-3.8262
X13.0887Y-5.3223
X13.0887Y-6.0703
X13.4367Y-2.3302
X13.4367Y-3.0782
X13.4367Y-3.8262
X13.4367Y-6.0703
X13.8367Y-2.3302
X13.8367Y-3.0782
X13.8367Y-3.8262
X13.8367Y-6.0703
T3
X4.8331Y-7.8223
X5.856Y-7.2317
X6.747Y-6.1491
X6.7864Y-2.1333
X6.7864Y-3.0782
X6.7864Y-3.8262
X6.7864Y-4.5743
X6.7864Y-5.3223
X7.5344Y-2.1333
X7.5344Y-3.0782
X7.5344Y-3.8262
X7.5344Y-4.5743
X7.5344Y-5.3223
X8.2824Y-2.1333
X8.2824Y-3.0782
X8.2824Y-3.8262
X8.2824Y-4.5743
X8.2824Y-5.3223
X8.3612Y-6.1491
X9.0304Y-2.1333
X9.0304Y-3.0782
X9.0304Y-3.8262
X9.0304Y-4.5743
X9.0304Y-5.3223
X9.5423Y-6.1491
X9.7785Y-2.1333
X9.7785Y-3.0782
X9.7785Y-3.8262
X9.7785Y-4.5743
X9.7785Y-5.3223
X10.5265Y-2.1333
X10.5265Y-3.0782
X10.5265Y-3.8262
X10.5265Y-4.5743
X10.5265Y-5.3223
X10.7234Y-6.1491
X11.2745Y-2.1333
X11.2745Y-3.0782
X11.2745Y-3.8262
X11.2745Y-4.5743
X11.2745Y-5.3223
X12.1407Y-2.3302
X12.1407Y-3.0782
X12.1407Y-3.8262
X12.1407Y-6.0703
X12.8887Y-2.3302
X12.8887Y-3.0782
X12.8887Y-3.8262
X12.8887Y-5.3223
X12.8887Y-6.0703
X13.6367Y-2.3302
X13.6367Y-3.0782
X13.6367Y-3.8262
X13.6367Y-6.0703
M30
