%TF.GenerationSoftware,KiCad,Pcbnew,8.0.5*%
%TF.CreationDate,2024-10-17T20:52:03+02:00*%
%TF.ProjectId,backup right,6261636b-7570-4207-9269-6768742e6b69,v1.0.0*%
%TF.SameCoordinates,Original*%
%TF.FileFunction,Legend,Top*%
%TF.FilePolarity,Positive*%
%FSLAX46Y46*%
G04 Gerber Fmt 4.6, Leading zero omitted, Abs format (unit mm)*
G04 Created by KiCad (PCBNEW 8.0.5) date 2024-10-17 20:52:03*
%MOMM*%
%LPD*%
G01*
G04 APERTURE LIST*
%ADD10C,0.150000*%
%ADD11C,0.300000*%
%ADD12C,0.100000*%
%ADD13C,0.120000*%
%ADD14C,0.381000*%
%ADD15C,1.752600*%
G04 APERTURE END LIST*
D10*
X124162810Y-49032295D02*
X124239000Y-49032295D01*
X124239000Y-49032295D02*
X124315191Y-49070390D01*
X124315191Y-49070390D02*
X124353286Y-49108485D01*
X124353286Y-49108485D02*
X124391381Y-49184676D01*
X124391381Y-49184676D02*
X124429476Y-49337057D01*
X124429476Y-49337057D02*
X124429476Y-49527533D01*
X124429476Y-49527533D02*
X124391381Y-49679914D01*
X124391381Y-49679914D02*
X124353286Y-49756104D01*
X124353286Y-49756104D02*
X124315191Y-49794200D01*
X124315191Y-49794200D02*
X124239000Y-49832295D01*
X124239000Y-49832295D02*
X124162810Y-49832295D01*
X124162810Y-49832295D02*
X124086619Y-49794200D01*
X124086619Y-49794200D02*
X124048524Y-49756104D01*
X124048524Y-49756104D02*
X124010429Y-49679914D01*
X124010429Y-49679914D02*
X123972333Y-49527533D01*
X123972333Y-49527533D02*
X123972333Y-49337057D01*
X123972333Y-49337057D02*
X124010429Y-49184676D01*
X124010429Y-49184676D02*
X124048524Y-49108485D01*
X124048524Y-49108485D02*
X124086619Y-49070390D01*
X124086619Y-49070390D02*
X124162810Y-49032295D01*
X125191381Y-49832295D02*
X124734238Y-49832295D01*
X124962810Y-49832295D02*
X124962810Y-49032295D01*
X124962810Y-49032295D02*
X124886619Y-49146580D01*
X124886619Y-49146580D02*
X124810429Y-49222771D01*
X124810429Y-49222771D02*
X124734238Y-49260866D01*
X125458048Y-49032295D02*
X125991382Y-49032295D01*
X125991382Y-49032295D02*
X125648524Y-49832295D01*
D11*
X125718285Y-66410328D02*
X125718285Y-67410328D01*
X125718285Y-66553185D02*
X125789714Y-66481757D01*
X125789714Y-66481757D02*
X125932571Y-66410328D01*
X125932571Y-66410328D02*
X126146857Y-66410328D01*
X126146857Y-66410328D02*
X126289714Y-66481757D01*
X126289714Y-66481757D02*
X126361143Y-66624614D01*
X126361143Y-66624614D02*
X126361143Y-67410328D01*
X127075428Y-67410328D02*
X127075428Y-66410328D01*
X127075428Y-65910328D02*
X127004000Y-65981757D01*
X127004000Y-65981757D02*
X127075428Y-66053185D01*
X127075428Y-66053185D02*
X127146857Y-65981757D01*
X127146857Y-65981757D02*
X127075428Y-65910328D01*
X127075428Y-65910328D02*
X127075428Y-66053185D01*
X128432572Y-67338900D02*
X128289714Y-67410328D01*
X128289714Y-67410328D02*
X128004000Y-67410328D01*
X128004000Y-67410328D02*
X127861143Y-67338900D01*
X127861143Y-67338900D02*
X127789714Y-67267471D01*
X127789714Y-67267471D02*
X127718286Y-67124614D01*
X127718286Y-67124614D02*
X127718286Y-66696042D01*
X127718286Y-66696042D02*
X127789714Y-66553185D01*
X127789714Y-66553185D02*
X127861143Y-66481757D01*
X127861143Y-66481757D02*
X128004000Y-66410328D01*
X128004000Y-66410328D02*
X128289714Y-66410328D01*
X128289714Y-66410328D02*
X128432572Y-66481757D01*
X129646857Y-67338900D02*
X129504000Y-67410328D01*
X129504000Y-67410328D02*
X129218286Y-67410328D01*
X129218286Y-67410328D02*
X129075428Y-67338900D01*
X129075428Y-67338900D02*
X129004000Y-67196042D01*
X129004000Y-67196042D02*
X129004000Y-66624614D01*
X129004000Y-66624614D02*
X129075428Y-66481757D01*
X129075428Y-66481757D02*
X129218286Y-66410328D01*
X129218286Y-66410328D02*
X129504000Y-66410328D01*
X129504000Y-66410328D02*
X129646857Y-66481757D01*
X129646857Y-66481757D02*
X129718286Y-66624614D01*
X129718286Y-66624614D02*
X129718286Y-66767471D01*
X129718286Y-66767471D02*
X129004000Y-66910328D01*
X130361142Y-67267471D02*
X130432571Y-67338900D01*
X130432571Y-67338900D02*
X130361142Y-67410328D01*
X130361142Y-67410328D02*
X130289714Y-67338900D01*
X130289714Y-67338900D02*
X130361142Y-67267471D01*
X130361142Y-67267471D02*
X130361142Y-67410328D01*
X130361142Y-66838900D02*
X130289714Y-65981757D01*
X130289714Y-65981757D02*
X130361142Y-65910328D01*
X130361142Y-65910328D02*
X130432571Y-65981757D01*
X130432571Y-65981757D02*
X130361142Y-66838900D01*
X130361142Y-66838900D02*
X130361142Y-65910328D01*
X131075428Y-66410328D02*
X131075428Y-67410328D01*
X131075428Y-66553185D02*
X131146857Y-66481757D01*
X131146857Y-66481757D02*
X131289714Y-66410328D01*
X131289714Y-66410328D02*
X131504000Y-66410328D01*
X131504000Y-66410328D02*
X131646857Y-66481757D01*
X131646857Y-66481757D02*
X131718286Y-66624614D01*
X131718286Y-66624614D02*
X131718286Y-67410328D01*
X133075429Y-67410328D02*
X133075429Y-66624614D01*
X133075429Y-66624614D02*
X133004000Y-66481757D01*
X133004000Y-66481757D02*
X132861143Y-66410328D01*
X132861143Y-66410328D02*
X132575429Y-66410328D01*
X132575429Y-66410328D02*
X132432571Y-66481757D01*
X133075429Y-67338900D02*
X132932571Y-67410328D01*
X132932571Y-67410328D02*
X132575429Y-67410328D01*
X132575429Y-67410328D02*
X132432571Y-67338900D01*
X132432571Y-67338900D02*
X132361143Y-67196042D01*
X132361143Y-67196042D02*
X132361143Y-67053185D01*
X132361143Y-67053185D02*
X132432571Y-66910328D01*
X132432571Y-66910328D02*
X132575429Y-66838900D01*
X132575429Y-66838900D02*
X132932571Y-66838900D01*
X132932571Y-66838900D02*
X133075429Y-66767471D01*
X133789714Y-66410328D02*
X133789714Y-67410328D01*
X133789714Y-66553185D02*
X133861143Y-66481757D01*
X133861143Y-66481757D02*
X134004000Y-66410328D01*
X134004000Y-66410328D02*
X134218286Y-66410328D01*
X134218286Y-66410328D02*
X134361143Y-66481757D01*
X134361143Y-66481757D02*
X134432572Y-66624614D01*
X134432572Y-66624614D02*
X134432572Y-67410328D01*
X135361143Y-67410328D02*
X135218286Y-67338900D01*
X135218286Y-67338900D02*
X135146857Y-67267471D01*
X135146857Y-67267471D02*
X135075429Y-67124614D01*
X135075429Y-67124614D02*
X135075429Y-66696042D01*
X135075429Y-66696042D02*
X135146857Y-66553185D01*
X135146857Y-66553185D02*
X135218286Y-66481757D01*
X135218286Y-66481757D02*
X135361143Y-66410328D01*
X135361143Y-66410328D02*
X135575429Y-66410328D01*
X135575429Y-66410328D02*
X135718286Y-66481757D01*
X135718286Y-66481757D02*
X135789715Y-66553185D01*
X135789715Y-66553185D02*
X135861143Y-66696042D01*
X135861143Y-66696042D02*
X135861143Y-67124614D01*
X135861143Y-67124614D02*
X135789715Y-67267471D01*
X135789715Y-67267471D02*
X135718286Y-67338900D01*
X135718286Y-67338900D02*
X135575429Y-67410328D01*
X135575429Y-67410328D02*
X135361143Y-67410328D01*
D10*
X135345143Y-41440390D02*
X135268953Y-41402295D01*
X135268953Y-41402295D02*
X135154667Y-41402295D01*
X135154667Y-41402295D02*
X135040381Y-41440390D01*
X135040381Y-41440390D02*
X134964191Y-41516580D01*
X134964191Y-41516580D02*
X134926096Y-41592771D01*
X134926096Y-41592771D02*
X134888000Y-41745152D01*
X134888000Y-41745152D02*
X134888000Y-41859438D01*
X134888000Y-41859438D02*
X134926096Y-42011819D01*
X134926096Y-42011819D02*
X134964191Y-42088009D01*
X134964191Y-42088009D02*
X135040381Y-42164200D01*
X135040381Y-42164200D02*
X135154667Y-42202295D01*
X135154667Y-42202295D02*
X135230858Y-42202295D01*
X135230858Y-42202295D02*
X135345143Y-42164200D01*
X135345143Y-42164200D02*
X135383239Y-42126104D01*
X135383239Y-42126104D02*
X135383239Y-41859438D01*
X135383239Y-41859438D02*
X135230858Y-41859438D01*
X135726096Y-42202295D02*
X135726096Y-41402295D01*
X135726096Y-41402295D02*
X136183239Y-42202295D01*
X136183239Y-42202295D02*
X136183239Y-41402295D01*
X136564191Y-42202295D02*
X136564191Y-41402295D01*
X136564191Y-41402295D02*
X136754667Y-41402295D01*
X136754667Y-41402295D02*
X136868953Y-41440390D01*
X136868953Y-41440390D02*
X136945143Y-41516580D01*
X136945143Y-41516580D02*
X136983238Y-41592771D01*
X136983238Y-41592771D02*
X137021334Y-41745152D01*
X137021334Y-41745152D02*
X137021334Y-41859438D01*
X137021334Y-41859438D02*
X136983238Y-42011819D01*
X136983238Y-42011819D02*
X136945143Y-42088009D01*
X136945143Y-42088009D02*
X136868953Y-42164200D01*
X136868953Y-42164200D02*
X136754667Y-42202295D01*
X136754667Y-42202295D02*
X136564191Y-42202295D01*
X124162810Y-54132295D02*
X124239000Y-54132295D01*
X124239000Y-54132295D02*
X124315191Y-54170390D01*
X124315191Y-54170390D02*
X124353286Y-54208485D01*
X124353286Y-54208485D02*
X124391381Y-54284676D01*
X124391381Y-54284676D02*
X124429476Y-54437057D01*
X124429476Y-54437057D02*
X124429476Y-54627533D01*
X124429476Y-54627533D02*
X124391381Y-54779914D01*
X124391381Y-54779914D02*
X124353286Y-54856104D01*
X124353286Y-54856104D02*
X124315191Y-54894200D01*
X124315191Y-54894200D02*
X124239000Y-54932295D01*
X124239000Y-54932295D02*
X124162810Y-54932295D01*
X124162810Y-54932295D02*
X124086619Y-54894200D01*
X124086619Y-54894200D02*
X124048524Y-54856104D01*
X124048524Y-54856104D02*
X124010429Y-54779914D01*
X124010429Y-54779914D02*
X123972333Y-54627533D01*
X123972333Y-54627533D02*
X123972333Y-54437057D01*
X123972333Y-54437057D02*
X124010429Y-54284676D01*
X124010429Y-54284676D02*
X124048524Y-54208485D01*
X124048524Y-54208485D02*
X124086619Y-54170390D01*
X124086619Y-54170390D02*
X124162810Y-54132295D01*
X124734238Y-54208485D02*
X124772334Y-54170390D01*
X124772334Y-54170390D02*
X124848524Y-54132295D01*
X124848524Y-54132295D02*
X125039000Y-54132295D01*
X125039000Y-54132295D02*
X125115191Y-54170390D01*
X125115191Y-54170390D02*
X125153286Y-54208485D01*
X125153286Y-54208485D02*
X125191381Y-54284676D01*
X125191381Y-54284676D02*
X125191381Y-54360866D01*
X125191381Y-54360866D02*
X125153286Y-54475152D01*
X125153286Y-54475152D02*
X124696143Y-54932295D01*
X124696143Y-54932295D02*
X125191381Y-54932295D01*
X125496143Y-54208485D02*
X125534239Y-54170390D01*
X125534239Y-54170390D02*
X125610429Y-54132295D01*
X125610429Y-54132295D02*
X125800905Y-54132295D01*
X125800905Y-54132295D02*
X125877096Y-54170390D01*
X125877096Y-54170390D02*
X125915191Y-54208485D01*
X125915191Y-54208485D02*
X125953286Y-54284676D01*
X125953286Y-54284676D02*
X125953286Y-54360866D01*
X125953286Y-54360866D02*
X125915191Y-54475152D01*
X125915191Y-54475152D02*
X125458048Y-54932295D01*
X125458048Y-54932295D02*
X125953286Y-54932295D01*
X124162810Y-51632295D02*
X124239000Y-51632295D01*
X124239000Y-51632295D02*
X124315191Y-51670390D01*
X124315191Y-51670390D02*
X124353286Y-51708485D01*
X124353286Y-51708485D02*
X124391381Y-51784676D01*
X124391381Y-51784676D02*
X124429476Y-51937057D01*
X124429476Y-51937057D02*
X124429476Y-52127533D01*
X124429476Y-52127533D02*
X124391381Y-52279914D01*
X124391381Y-52279914D02*
X124353286Y-52356104D01*
X124353286Y-52356104D02*
X124315191Y-52394200D01*
X124315191Y-52394200D02*
X124239000Y-52432295D01*
X124239000Y-52432295D02*
X124162810Y-52432295D01*
X124162810Y-52432295D02*
X124086619Y-52394200D01*
X124086619Y-52394200D02*
X124048524Y-52356104D01*
X124048524Y-52356104D02*
X124010429Y-52279914D01*
X124010429Y-52279914D02*
X123972333Y-52127533D01*
X123972333Y-52127533D02*
X123972333Y-51937057D01*
X123972333Y-51937057D02*
X124010429Y-51784676D01*
X124010429Y-51784676D02*
X124048524Y-51708485D01*
X124048524Y-51708485D02*
X124086619Y-51670390D01*
X124086619Y-51670390D02*
X124162810Y-51632295D01*
X124734238Y-51708485D02*
X124772334Y-51670390D01*
X124772334Y-51670390D02*
X124848524Y-51632295D01*
X124848524Y-51632295D02*
X125039000Y-51632295D01*
X125039000Y-51632295D02*
X125115191Y-51670390D01*
X125115191Y-51670390D02*
X125153286Y-51708485D01*
X125153286Y-51708485D02*
X125191381Y-51784676D01*
X125191381Y-51784676D02*
X125191381Y-51860866D01*
X125191381Y-51860866D02*
X125153286Y-51975152D01*
X125153286Y-51975152D02*
X124696143Y-52432295D01*
X124696143Y-52432295D02*
X125191381Y-52432295D01*
X125686620Y-51632295D02*
X125762810Y-51632295D01*
X125762810Y-51632295D02*
X125839001Y-51670390D01*
X125839001Y-51670390D02*
X125877096Y-51708485D01*
X125877096Y-51708485D02*
X125915191Y-51784676D01*
X125915191Y-51784676D02*
X125953286Y-51937057D01*
X125953286Y-51937057D02*
X125953286Y-52127533D01*
X125953286Y-52127533D02*
X125915191Y-52279914D01*
X125915191Y-52279914D02*
X125877096Y-52356104D01*
X125877096Y-52356104D02*
X125839001Y-52394200D01*
X125839001Y-52394200D02*
X125762810Y-52432295D01*
X125762810Y-52432295D02*
X125686620Y-52432295D01*
X125686620Y-52432295D02*
X125610429Y-52394200D01*
X125610429Y-52394200D02*
X125572334Y-52356104D01*
X125572334Y-52356104D02*
X125534239Y-52279914D01*
X125534239Y-52279914D02*
X125496143Y-52127533D01*
X125496143Y-52127533D02*
X125496143Y-51937057D01*
X125496143Y-51937057D02*
X125534239Y-51784676D01*
X125534239Y-51784676D02*
X125572334Y-51708485D01*
X125572334Y-51708485D02*
X125610429Y-51670390D01*
X125610429Y-51670390D02*
X125686620Y-51632295D01*
X135237191Y-49022295D02*
X135313381Y-49022295D01*
X135313381Y-49022295D02*
X135389572Y-49060390D01*
X135389572Y-49060390D02*
X135427667Y-49098485D01*
X135427667Y-49098485D02*
X135465762Y-49174676D01*
X135465762Y-49174676D02*
X135503857Y-49327057D01*
X135503857Y-49327057D02*
X135503857Y-49517533D01*
X135503857Y-49517533D02*
X135465762Y-49669914D01*
X135465762Y-49669914D02*
X135427667Y-49746104D01*
X135427667Y-49746104D02*
X135389572Y-49784200D01*
X135389572Y-49784200D02*
X135313381Y-49822295D01*
X135313381Y-49822295D02*
X135237191Y-49822295D01*
X135237191Y-49822295D02*
X135161000Y-49784200D01*
X135161000Y-49784200D02*
X135122905Y-49746104D01*
X135122905Y-49746104D02*
X135084810Y-49669914D01*
X135084810Y-49669914D02*
X135046714Y-49517533D01*
X135046714Y-49517533D02*
X135046714Y-49327057D01*
X135046714Y-49327057D02*
X135084810Y-49174676D01*
X135084810Y-49174676D02*
X135122905Y-49098485D01*
X135122905Y-49098485D02*
X135161000Y-49060390D01*
X135161000Y-49060390D02*
X135237191Y-49022295D01*
X135770524Y-49022295D02*
X136265762Y-49022295D01*
X136265762Y-49022295D02*
X135999096Y-49327057D01*
X135999096Y-49327057D02*
X136113381Y-49327057D01*
X136113381Y-49327057D02*
X136189572Y-49365152D01*
X136189572Y-49365152D02*
X136227667Y-49403247D01*
X136227667Y-49403247D02*
X136265762Y-49479438D01*
X136265762Y-49479438D02*
X136265762Y-49669914D01*
X136265762Y-49669914D02*
X136227667Y-49746104D01*
X136227667Y-49746104D02*
X136189572Y-49784200D01*
X136189572Y-49784200D02*
X136113381Y-49822295D01*
X136113381Y-49822295D02*
X135884810Y-49822295D01*
X135884810Y-49822295D02*
X135808619Y-49784200D01*
X135808619Y-49784200D02*
X135770524Y-49746104D01*
X137027667Y-49822295D02*
X136570524Y-49822295D01*
X136799096Y-49822295D02*
X136799096Y-49022295D01*
X136799096Y-49022295D02*
X136722905Y-49136580D01*
X136722905Y-49136580D02*
X136646715Y-49212771D01*
X136646715Y-49212771D02*
X136570524Y-49250866D01*
X124429476Y-65062295D02*
X123972333Y-65062295D01*
X124200905Y-65062295D02*
X124200905Y-64262295D01*
X124200905Y-64262295D02*
X124124714Y-64376580D01*
X124124714Y-64376580D02*
X124048524Y-64452771D01*
X124048524Y-64452771D02*
X123972333Y-64490866D01*
X124924715Y-64262295D02*
X125000905Y-64262295D01*
X125000905Y-64262295D02*
X125077096Y-64300390D01*
X125077096Y-64300390D02*
X125115191Y-64338485D01*
X125115191Y-64338485D02*
X125153286Y-64414676D01*
X125153286Y-64414676D02*
X125191381Y-64567057D01*
X125191381Y-64567057D02*
X125191381Y-64757533D01*
X125191381Y-64757533D02*
X125153286Y-64909914D01*
X125153286Y-64909914D02*
X125115191Y-64986104D01*
X125115191Y-64986104D02*
X125077096Y-65024200D01*
X125077096Y-65024200D02*
X125000905Y-65062295D01*
X125000905Y-65062295D02*
X124924715Y-65062295D01*
X124924715Y-65062295D02*
X124848524Y-65024200D01*
X124848524Y-65024200D02*
X124810429Y-64986104D01*
X124810429Y-64986104D02*
X124772334Y-64909914D01*
X124772334Y-64909914D02*
X124734238Y-64757533D01*
X124734238Y-64757533D02*
X124734238Y-64567057D01*
X124734238Y-64567057D02*
X124772334Y-64414676D01*
X124772334Y-64414676D02*
X124810429Y-64338485D01*
X124810429Y-64338485D02*
X124848524Y-64300390D01*
X124848524Y-64300390D02*
X124924715Y-64262295D01*
X125877096Y-64528961D02*
X125877096Y-65062295D01*
X125686620Y-64224200D02*
X125496143Y-64795628D01*
X125496143Y-64795628D02*
X125991382Y-64795628D01*
X124429476Y-43980390D02*
X124353286Y-43942295D01*
X124353286Y-43942295D02*
X124239000Y-43942295D01*
X124239000Y-43942295D02*
X124124714Y-43980390D01*
X124124714Y-43980390D02*
X124048524Y-44056580D01*
X124048524Y-44056580D02*
X124010429Y-44132771D01*
X124010429Y-44132771D02*
X123972333Y-44285152D01*
X123972333Y-44285152D02*
X123972333Y-44399438D01*
X123972333Y-44399438D02*
X124010429Y-44551819D01*
X124010429Y-44551819D02*
X124048524Y-44628009D01*
X124048524Y-44628009D02*
X124124714Y-44704200D01*
X124124714Y-44704200D02*
X124239000Y-44742295D01*
X124239000Y-44742295D02*
X124315191Y-44742295D01*
X124315191Y-44742295D02*
X124429476Y-44704200D01*
X124429476Y-44704200D02*
X124467572Y-44666104D01*
X124467572Y-44666104D02*
X124467572Y-44399438D01*
X124467572Y-44399438D02*
X124315191Y-44399438D01*
X124810429Y-44742295D02*
X124810429Y-43942295D01*
X124810429Y-43942295D02*
X125267572Y-44742295D01*
X125267572Y-44742295D02*
X125267572Y-43942295D01*
X125648524Y-44742295D02*
X125648524Y-43942295D01*
X125648524Y-43942295D02*
X125839000Y-43942295D01*
X125839000Y-43942295D02*
X125953286Y-43980390D01*
X125953286Y-43980390D02*
X126029476Y-44056580D01*
X126029476Y-44056580D02*
X126067571Y-44132771D01*
X126067571Y-44132771D02*
X126105667Y-44285152D01*
X126105667Y-44285152D02*
X126105667Y-44399438D01*
X126105667Y-44399438D02*
X126067571Y-44551819D01*
X126067571Y-44551819D02*
X126029476Y-44628009D01*
X126029476Y-44628009D02*
X125953286Y-44704200D01*
X125953286Y-44704200D02*
X125839000Y-44742295D01*
X125839000Y-44742295D02*
X125648524Y-44742295D01*
X135503857Y-57442295D02*
X135046714Y-57442295D01*
X135275286Y-57442295D02*
X135275286Y-56642295D01*
X135275286Y-56642295D02*
X135199095Y-56756580D01*
X135199095Y-56756580D02*
X135122905Y-56832771D01*
X135122905Y-56832771D02*
X135046714Y-56870866D01*
X136265762Y-57442295D02*
X135808619Y-57442295D01*
X136037191Y-57442295D02*
X136037191Y-56642295D01*
X136037191Y-56642295D02*
X135961000Y-56756580D01*
X135961000Y-56756580D02*
X135884810Y-56832771D01*
X135884810Y-56832771D02*
X135808619Y-56870866D01*
X136989572Y-56642295D02*
X136608620Y-56642295D01*
X136608620Y-56642295D02*
X136570524Y-57023247D01*
X136570524Y-57023247D02*
X136608620Y-56985152D01*
X136608620Y-56985152D02*
X136684810Y-56947057D01*
X136684810Y-56947057D02*
X136875286Y-56947057D01*
X136875286Y-56947057D02*
X136951477Y-56985152D01*
X136951477Y-56985152D02*
X136989572Y-57023247D01*
X136989572Y-57023247D02*
X137027667Y-57099438D01*
X137027667Y-57099438D02*
X137027667Y-57289914D01*
X137027667Y-57289914D02*
X136989572Y-57366104D01*
X136989572Y-57366104D02*
X136951477Y-57404200D01*
X136951477Y-57404200D02*
X136875286Y-57442295D01*
X136875286Y-57442295D02*
X136684810Y-57442295D01*
X136684810Y-57442295D02*
X136608620Y-57404200D01*
X136608620Y-57404200D02*
X136570524Y-57366104D01*
X135237191Y-54102295D02*
X135313381Y-54102295D01*
X135313381Y-54102295D02*
X135389572Y-54140390D01*
X135389572Y-54140390D02*
X135427667Y-54178485D01*
X135427667Y-54178485D02*
X135465762Y-54254676D01*
X135465762Y-54254676D02*
X135503857Y-54407057D01*
X135503857Y-54407057D02*
X135503857Y-54597533D01*
X135503857Y-54597533D02*
X135465762Y-54749914D01*
X135465762Y-54749914D02*
X135427667Y-54826104D01*
X135427667Y-54826104D02*
X135389572Y-54864200D01*
X135389572Y-54864200D02*
X135313381Y-54902295D01*
X135313381Y-54902295D02*
X135237191Y-54902295D01*
X135237191Y-54902295D02*
X135161000Y-54864200D01*
X135161000Y-54864200D02*
X135122905Y-54826104D01*
X135122905Y-54826104D02*
X135084810Y-54749914D01*
X135084810Y-54749914D02*
X135046714Y-54597533D01*
X135046714Y-54597533D02*
X135046714Y-54407057D01*
X135046714Y-54407057D02*
X135084810Y-54254676D01*
X135084810Y-54254676D02*
X135122905Y-54178485D01*
X135122905Y-54178485D02*
X135161000Y-54140390D01*
X135161000Y-54140390D02*
X135237191Y-54102295D01*
X135999096Y-54102295D02*
X136075286Y-54102295D01*
X136075286Y-54102295D02*
X136151477Y-54140390D01*
X136151477Y-54140390D02*
X136189572Y-54178485D01*
X136189572Y-54178485D02*
X136227667Y-54254676D01*
X136227667Y-54254676D02*
X136265762Y-54407057D01*
X136265762Y-54407057D02*
X136265762Y-54597533D01*
X136265762Y-54597533D02*
X136227667Y-54749914D01*
X136227667Y-54749914D02*
X136189572Y-54826104D01*
X136189572Y-54826104D02*
X136151477Y-54864200D01*
X136151477Y-54864200D02*
X136075286Y-54902295D01*
X136075286Y-54902295D02*
X135999096Y-54902295D01*
X135999096Y-54902295D02*
X135922905Y-54864200D01*
X135922905Y-54864200D02*
X135884810Y-54826104D01*
X135884810Y-54826104D02*
X135846715Y-54749914D01*
X135846715Y-54749914D02*
X135808619Y-54597533D01*
X135808619Y-54597533D02*
X135808619Y-54407057D01*
X135808619Y-54407057D02*
X135846715Y-54254676D01*
X135846715Y-54254676D02*
X135884810Y-54178485D01*
X135884810Y-54178485D02*
X135922905Y-54140390D01*
X135922905Y-54140390D02*
X135999096Y-54102295D01*
X136570524Y-54178485D02*
X136608620Y-54140390D01*
X136608620Y-54140390D02*
X136684810Y-54102295D01*
X136684810Y-54102295D02*
X136875286Y-54102295D01*
X136875286Y-54102295D02*
X136951477Y-54140390D01*
X136951477Y-54140390D02*
X136989572Y-54178485D01*
X136989572Y-54178485D02*
X137027667Y-54254676D01*
X137027667Y-54254676D02*
X137027667Y-54330866D01*
X137027667Y-54330866D02*
X136989572Y-54445152D01*
X136989572Y-54445152D02*
X136532429Y-54902295D01*
X136532429Y-54902295D02*
X137027667Y-54902295D01*
X124429476Y-46520390D02*
X124353286Y-46482295D01*
X124353286Y-46482295D02*
X124239000Y-46482295D01*
X124239000Y-46482295D02*
X124124714Y-46520390D01*
X124124714Y-46520390D02*
X124048524Y-46596580D01*
X124048524Y-46596580D02*
X124010429Y-46672771D01*
X124010429Y-46672771D02*
X123972333Y-46825152D01*
X123972333Y-46825152D02*
X123972333Y-46939438D01*
X123972333Y-46939438D02*
X124010429Y-47091819D01*
X124010429Y-47091819D02*
X124048524Y-47168009D01*
X124048524Y-47168009D02*
X124124714Y-47244200D01*
X124124714Y-47244200D02*
X124239000Y-47282295D01*
X124239000Y-47282295D02*
X124315191Y-47282295D01*
X124315191Y-47282295D02*
X124429476Y-47244200D01*
X124429476Y-47244200D02*
X124467572Y-47206104D01*
X124467572Y-47206104D02*
X124467572Y-46939438D01*
X124467572Y-46939438D02*
X124315191Y-46939438D01*
X124810429Y-47282295D02*
X124810429Y-46482295D01*
X124810429Y-46482295D02*
X125267572Y-47282295D01*
X125267572Y-47282295D02*
X125267572Y-46482295D01*
X125648524Y-47282295D02*
X125648524Y-46482295D01*
X125648524Y-46482295D02*
X125839000Y-46482295D01*
X125839000Y-46482295D02*
X125953286Y-46520390D01*
X125953286Y-46520390D02*
X126029476Y-46596580D01*
X126029476Y-46596580D02*
X126067571Y-46672771D01*
X126067571Y-46672771D02*
X126105667Y-46825152D01*
X126105667Y-46825152D02*
X126105667Y-46939438D01*
X126105667Y-46939438D02*
X126067571Y-47091819D01*
X126067571Y-47091819D02*
X126029476Y-47168009D01*
X126029476Y-47168009D02*
X125953286Y-47244200D01*
X125953286Y-47244200D02*
X125839000Y-47282295D01*
X125839000Y-47282295D02*
X125648524Y-47282295D01*
X124162810Y-41332295D02*
X124239000Y-41332295D01*
X124239000Y-41332295D02*
X124315191Y-41370390D01*
X124315191Y-41370390D02*
X124353286Y-41408485D01*
X124353286Y-41408485D02*
X124391381Y-41484676D01*
X124391381Y-41484676D02*
X124429476Y-41637057D01*
X124429476Y-41637057D02*
X124429476Y-41827533D01*
X124429476Y-41827533D02*
X124391381Y-41979914D01*
X124391381Y-41979914D02*
X124353286Y-42056104D01*
X124353286Y-42056104D02*
X124315191Y-42094200D01*
X124315191Y-42094200D02*
X124239000Y-42132295D01*
X124239000Y-42132295D02*
X124162810Y-42132295D01*
X124162810Y-42132295D02*
X124086619Y-42094200D01*
X124086619Y-42094200D02*
X124048524Y-42056104D01*
X124048524Y-42056104D02*
X124010429Y-41979914D01*
X124010429Y-41979914D02*
X123972333Y-41827533D01*
X123972333Y-41827533D02*
X123972333Y-41637057D01*
X123972333Y-41637057D02*
X124010429Y-41484676D01*
X124010429Y-41484676D02*
X124048524Y-41408485D01*
X124048524Y-41408485D02*
X124086619Y-41370390D01*
X124086619Y-41370390D02*
X124162810Y-41332295D01*
X124924715Y-41332295D02*
X125000905Y-41332295D01*
X125000905Y-41332295D02*
X125077096Y-41370390D01*
X125077096Y-41370390D02*
X125115191Y-41408485D01*
X125115191Y-41408485D02*
X125153286Y-41484676D01*
X125153286Y-41484676D02*
X125191381Y-41637057D01*
X125191381Y-41637057D02*
X125191381Y-41827533D01*
X125191381Y-41827533D02*
X125153286Y-41979914D01*
X125153286Y-41979914D02*
X125115191Y-42056104D01*
X125115191Y-42056104D02*
X125077096Y-42094200D01*
X125077096Y-42094200D02*
X125000905Y-42132295D01*
X125000905Y-42132295D02*
X124924715Y-42132295D01*
X124924715Y-42132295D02*
X124848524Y-42094200D01*
X124848524Y-42094200D02*
X124810429Y-42056104D01*
X124810429Y-42056104D02*
X124772334Y-41979914D01*
X124772334Y-41979914D02*
X124734238Y-41827533D01*
X124734238Y-41827533D02*
X124734238Y-41637057D01*
X124734238Y-41637057D02*
X124772334Y-41484676D01*
X124772334Y-41484676D02*
X124810429Y-41408485D01*
X124810429Y-41408485D02*
X124848524Y-41370390D01*
X124848524Y-41370390D02*
X124924715Y-41332295D01*
X125648524Y-41675152D02*
X125572334Y-41637057D01*
X125572334Y-41637057D02*
X125534239Y-41598961D01*
X125534239Y-41598961D02*
X125496143Y-41522771D01*
X125496143Y-41522771D02*
X125496143Y-41484676D01*
X125496143Y-41484676D02*
X125534239Y-41408485D01*
X125534239Y-41408485D02*
X125572334Y-41370390D01*
X125572334Y-41370390D02*
X125648524Y-41332295D01*
X125648524Y-41332295D02*
X125800905Y-41332295D01*
X125800905Y-41332295D02*
X125877096Y-41370390D01*
X125877096Y-41370390D02*
X125915191Y-41408485D01*
X125915191Y-41408485D02*
X125953286Y-41484676D01*
X125953286Y-41484676D02*
X125953286Y-41522771D01*
X125953286Y-41522771D02*
X125915191Y-41598961D01*
X125915191Y-41598961D02*
X125877096Y-41637057D01*
X125877096Y-41637057D02*
X125800905Y-41675152D01*
X125800905Y-41675152D02*
X125648524Y-41675152D01*
X125648524Y-41675152D02*
X125572334Y-41713247D01*
X125572334Y-41713247D02*
X125534239Y-41751342D01*
X125534239Y-41751342D02*
X125496143Y-41827533D01*
X125496143Y-41827533D02*
X125496143Y-41979914D01*
X125496143Y-41979914D02*
X125534239Y-42056104D01*
X125534239Y-42056104D02*
X125572334Y-42094200D01*
X125572334Y-42094200D02*
X125648524Y-42132295D01*
X125648524Y-42132295D02*
X125800905Y-42132295D01*
X125800905Y-42132295D02*
X125877096Y-42094200D01*
X125877096Y-42094200D02*
X125915191Y-42056104D01*
X125915191Y-42056104D02*
X125953286Y-41979914D01*
X125953286Y-41979914D02*
X125953286Y-41827533D01*
X125953286Y-41827533D02*
X125915191Y-41751342D01*
X125915191Y-41751342D02*
X125877096Y-41713247D01*
X125877096Y-41713247D02*
X125800905Y-41675152D01*
X124162810Y-38862295D02*
X124239000Y-38862295D01*
X124239000Y-38862295D02*
X124315191Y-38900390D01*
X124315191Y-38900390D02*
X124353286Y-38938485D01*
X124353286Y-38938485D02*
X124391381Y-39014676D01*
X124391381Y-39014676D02*
X124429476Y-39167057D01*
X124429476Y-39167057D02*
X124429476Y-39357533D01*
X124429476Y-39357533D02*
X124391381Y-39509914D01*
X124391381Y-39509914D02*
X124353286Y-39586104D01*
X124353286Y-39586104D02*
X124315191Y-39624200D01*
X124315191Y-39624200D02*
X124239000Y-39662295D01*
X124239000Y-39662295D02*
X124162810Y-39662295D01*
X124162810Y-39662295D02*
X124086619Y-39624200D01*
X124086619Y-39624200D02*
X124048524Y-39586104D01*
X124048524Y-39586104D02*
X124010429Y-39509914D01*
X124010429Y-39509914D02*
X123972333Y-39357533D01*
X123972333Y-39357533D02*
X123972333Y-39167057D01*
X123972333Y-39167057D02*
X124010429Y-39014676D01*
X124010429Y-39014676D02*
X124048524Y-38938485D01*
X124048524Y-38938485D02*
X124086619Y-38900390D01*
X124086619Y-38900390D02*
X124162810Y-38862295D01*
X124924715Y-38862295D02*
X125000905Y-38862295D01*
X125000905Y-38862295D02*
X125077096Y-38900390D01*
X125077096Y-38900390D02*
X125115191Y-38938485D01*
X125115191Y-38938485D02*
X125153286Y-39014676D01*
X125153286Y-39014676D02*
X125191381Y-39167057D01*
X125191381Y-39167057D02*
X125191381Y-39357533D01*
X125191381Y-39357533D02*
X125153286Y-39509914D01*
X125153286Y-39509914D02*
X125115191Y-39586104D01*
X125115191Y-39586104D02*
X125077096Y-39624200D01*
X125077096Y-39624200D02*
X125000905Y-39662295D01*
X125000905Y-39662295D02*
X124924715Y-39662295D01*
X124924715Y-39662295D02*
X124848524Y-39624200D01*
X124848524Y-39624200D02*
X124810429Y-39586104D01*
X124810429Y-39586104D02*
X124772334Y-39509914D01*
X124772334Y-39509914D02*
X124734238Y-39357533D01*
X124734238Y-39357533D02*
X124734238Y-39167057D01*
X124734238Y-39167057D02*
X124772334Y-39014676D01*
X124772334Y-39014676D02*
X124810429Y-38938485D01*
X124810429Y-38938485D02*
X124848524Y-38900390D01*
X124848524Y-38900390D02*
X124924715Y-38862295D01*
X125877096Y-38862295D02*
X125724715Y-38862295D01*
X125724715Y-38862295D02*
X125648524Y-38900390D01*
X125648524Y-38900390D02*
X125610429Y-38938485D01*
X125610429Y-38938485D02*
X125534239Y-39052771D01*
X125534239Y-39052771D02*
X125496143Y-39205152D01*
X125496143Y-39205152D02*
X125496143Y-39509914D01*
X125496143Y-39509914D02*
X125534239Y-39586104D01*
X125534239Y-39586104D02*
X125572334Y-39624200D01*
X125572334Y-39624200D02*
X125648524Y-39662295D01*
X125648524Y-39662295D02*
X125800905Y-39662295D01*
X125800905Y-39662295D02*
X125877096Y-39624200D01*
X125877096Y-39624200D02*
X125915191Y-39586104D01*
X125915191Y-39586104D02*
X125953286Y-39509914D01*
X125953286Y-39509914D02*
X125953286Y-39319438D01*
X125953286Y-39319438D02*
X125915191Y-39243247D01*
X125915191Y-39243247D02*
X125877096Y-39205152D01*
X125877096Y-39205152D02*
X125800905Y-39167057D01*
X125800905Y-39167057D02*
X125648524Y-39167057D01*
X125648524Y-39167057D02*
X125572334Y-39205152D01*
X125572334Y-39205152D02*
X125534239Y-39243247D01*
X125534239Y-39243247D02*
X125496143Y-39319438D01*
X124162810Y-56642295D02*
X124239000Y-56642295D01*
X124239000Y-56642295D02*
X124315191Y-56680390D01*
X124315191Y-56680390D02*
X124353286Y-56718485D01*
X124353286Y-56718485D02*
X124391381Y-56794676D01*
X124391381Y-56794676D02*
X124429476Y-56947057D01*
X124429476Y-56947057D02*
X124429476Y-57137533D01*
X124429476Y-57137533D02*
X124391381Y-57289914D01*
X124391381Y-57289914D02*
X124353286Y-57366104D01*
X124353286Y-57366104D02*
X124315191Y-57404200D01*
X124315191Y-57404200D02*
X124239000Y-57442295D01*
X124239000Y-57442295D02*
X124162810Y-57442295D01*
X124162810Y-57442295D02*
X124086619Y-57404200D01*
X124086619Y-57404200D02*
X124048524Y-57366104D01*
X124048524Y-57366104D02*
X124010429Y-57289914D01*
X124010429Y-57289914D02*
X123972333Y-57137533D01*
X123972333Y-57137533D02*
X123972333Y-56947057D01*
X123972333Y-56947057D02*
X124010429Y-56794676D01*
X124010429Y-56794676D02*
X124048524Y-56718485D01*
X124048524Y-56718485D02*
X124086619Y-56680390D01*
X124086619Y-56680390D02*
X124162810Y-56642295D01*
X124734238Y-56718485D02*
X124772334Y-56680390D01*
X124772334Y-56680390D02*
X124848524Y-56642295D01*
X124848524Y-56642295D02*
X125039000Y-56642295D01*
X125039000Y-56642295D02*
X125115191Y-56680390D01*
X125115191Y-56680390D02*
X125153286Y-56718485D01*
X125153286Y-56718485D02*
X125191381Y-56794676D01*
X125191381Y-56794676D02*
X125191381Y-56870866D01*
X125191381Y-56870866D02*
X125153286Y-56985152D01*
X125153286Y-56985152D02*
X124696143Y-57442295D01*
X124696143Y-57442295D02*
X125191381Y-57442295D01*
X125877096Y-56908961D02*
X125877096Y-57442295D01*
X125686620Y-56604200D02*
X125496143Y-57175628D01*
X125496143Y-57175628D02*
X125991382Y-57175628D01*
X134970524Y-46482295D02*
X135237191Y-47282295D01*
X135237191Y-47282295D02*
X135503857Y-46482295D01*
X136227667Y-47206104D02*
X136189571Y-47244200D01*
X136189571Y-47244200D02*
X136075286Y-47282295D01*
X136075286Y-47282295D02*
X135999095Y-47282295D01*
X135999095Y-47282295D02*
X135884809Y-47244200D01*
X135884809Y-47244200D02*
X135808619Y-47168009D01*
X135808619Y-47168009D02*
X135770524Y-47091819D01*
X135770524Y-47091819D02*
X135732428Y-46939438D01*
X135732428Y-46939438D02*
X135732428Y-46825152D01*
X135732428Y-46825152D02*
X135770524Y-46672771D01*
X135770524Y-46672771D02*
X135808619Y-46596580D01*
X135808619Y-46596580D02*
X135884809Y-46520390D01*
X135884809Y-46520390D02*
X135999095Y-46482295D01*
X135999095Y-46482295D02*
X136075286Y-46482295D01*
X136075286Y-46482295D02*
X136189571Y-46520390D01*
X136189571Y-46520390D02*
X136227667Y-46558485D01*
X137027667Y-47206104D02*
X136989571Y-47244200D01*
X136989571Y-47244200D02*
X136875286Y-47282295D01*
X136875286Y-47282295D02*
X136799095Y-47282295D01*
X136799095Y-47282295D02*
X136684809Y-47244200D01*
X136684809Y-47244200D02*
X136608619Y-47168009D01*
X136608619Y-47168009D02*
X136570524Y-47091819D01*
X136570524Y-47091819D02*
X136532428Y-46939438D01*
X136532428Y-46939438D02*
X136532428Y-46825152D01*
X136532428Y-46825152D02*
X136570524Y-46672771D01*
X136570524Y-46672771D02*
X136608619Y-46596580D01*
X136608619Y-46596580D02*
X136684809Y-46520390D01*
X136684809Y-46520390D02*
X136799095Y-46482295D01*
X136799095Y-46482295D02*
X136875286Y-46482295D01*
X136875286Y-46482295D02*
X136989571Y-46520390D01*
X136989571Y-46520390D02*
X137027667Y-46558485D01*
X135649905Y-44742295D02*
X135383238Y-44361342D01*
X135192762Y-44742295D02*
X135192762Y-43942295D01*
X135192762Y-43942295D02*
X135497524Y-43942295D01*
X135497524Y-43942295D02*
X135573714Y-43980390D01*
X135573714Y-43980390D02*
X135611809Y-44018485D01*
X135611809Y-44018485D02*
X135649905Y-44094676D01*
X135649905Y-44094676D02*
X135649905Y-44208961D01*
X135649905Y-44208961D02*
X135611809Y-44285152D01*
X135611809Y-44285152D02*
X135573714Y-44323247D01*
X135573714Y-44323247D02*
X135497524Y-44361342D01*
X135497524Y-44361342D02*
X135192762Y-44361342D01*
X135954666Y-44704200D02*
X136068952Y-44742295D01*
X136068952Y-44742295D02*
X136259428Y-44742295D01*
X136259428Y-44742295D02*
X136335619Y-44704200D01*
X136335619Y-44704200D02*
X136373714Y-44666104D01*
X136373714Y-44666104D02*
X136411809Y-44589914D01*
X136411809Y-44589914D02*
X136411809Y-44513723D01*
X136411809Y-44513723D02*
X136373714Y-44437533D01*
X136373714Y-44437533D02*
X136335619Y-44399438D01*
X136335619Y-44399438D02*
X136259428Y-44361342D01*
X136259428Y-44361342D02*
X136107047Y-44323247D01*
X136107047Y-44323247D02*
X136030857Y-44285152D01*
X136030857Y-44285152D02*
X135992762Y-44247057D01*
X135992762Y-44247057D02*
X135954666Y-44170866D01*
X135954666Y-44170866D02*
X135954666Y-44094676D01*
X135954666Y-44094676D02*
X135992762Y-44018485D01*
X135992762Y-44018485D02*
X136030857Y-43980390D01*
X136030857Y-43980390D02*
X136107047Y-43942295D01*
X136107047Y-43942295D02*
X136297524Y-43942295D01*
X136297524Y-43942295D02*
X136411809Y-43980390D01*
X136640381Y-43942295D02*
X137097524Y-43942295D01*
X136868952Y-44742295D02*
X136868952Y-43942295D01*
X135237191Y-64262295D02*
X135313381Y-64262295D01*
X135313381Y-64262295D02*
X135389572Y-64300390D01*
X135389572Y-64300390D02*
X135427667Y-64338485D01*
X135427667Y-64338485D02*
X135465762Y-64414676D01*
X135465762Y-64414676D02*
X135503857Y-64567057D01*
X135503857Y-64567057D02*
X135503857Y-64757533D01*
X135503857Y-64757533D02*
X135465762Y-64909914D01*
X135465762Y-64909914D02*
X135427667Y-64986104D01*
X135427667Y-64986104D02*
X135389572Y-65024200D01*
X135389572Y-65024200D02*
X135313381Y-65062295D01*
X135313381Y-65062295D02*
X135237191Y-65062295D01*
X135237191Y-65062295D02*
X135161000Y-65024200D01*
X135161000Y-65024200D02*
X135122905Y-64986104D01*
X135122905Y-64986104D02*
X135084810Y-64909914D01*
X135084810Y-64909914D02*
X135046714Y-64757533D01*
X135046714Y-64757533D02*
X135046714Y-64567057D01*
X135046714Y-64567057D02*
X135084810Y-64414676D01*
X135084810Y-64414676D02*
X135122905Y-64338485D01*
X135122905Y-64338485D02*
X135161000Y-64300390D01*
X135161000Y-64300390D02*
X135237191Y-64262295D01*
X136265762Y-65062295D02*
X135808619Y-65062295D01*
X136037191Y-65062295D02*
X136037191Y-64262295D01*
X136037191Y-64262295D02*
X135961000Y-64376580D01*
X135961000Y-64376580D02*
X135884810Y-64452771D01*
X135884810Y-64452771D02*
X135808619Y-64490866D01*
X136761001Y-64262295D02*
X136837191Y-64262295D01*
X136837191Y-64262295D02*
X136913382Y-64300390D01*
X136913382Y-64300390D02*
X136951477Y-64338485D01*
X136951477Y-64338485D02*
X136989572Y-64414676D01*
X136989572Y-64414676D02*
X137027667Y-64567057D01*
X137027667Y-64567057D02*
X137027667Y-64757533D01*
X137027667Y-64757533D02*
X136989572Y-64909914D01*
X136989572Y-64909914D02*
X136951477Y-64986104D01*
X136951477Y-64986104D02*
X136913382Y-65024200D01*
X136913382Y-65024200D02*
X136837191Y-65062295D01*
X136837191Y-65062295D02*
X136761001Y-65062295D01*
X136761001Y-65062295D02*
X136684810Y-65024200D01*
X136684810Y-65024200D02*
X136646715Y-64986104D01*
X136646715Y-64986104D02*
X136608620Y-64909914D01*
X136608620Y-64909914D02*
X136570524Y-64757533D01*
X136570524Y-64757533D02*
X136570524Y-64567057D01*
X136570524Y-64567057D02*
X136608620Y-64414676D01*
X136608620Y-64414676D02*
X136646715Y-64338485D01*
X136646715Y-64338485D02*
X136684810Y-64300390D01*
X136684810Y-64300390D02*
X136761001Y-64262295D01*
X135503857Y-62522295D02*
X135046714Y-62522295D01*
X135275286Y-62522295D02*
X135275286Y-61722295D01*
X135275286Y-61722295D02*
X135199095Y-61836580D01*
X135199095Y-61836580D02*
X135122905Y-61912771D01*
X135122905Y-61912771D02*
X135046714Y-61950866D01*
X136265762Y-62522295D02*
X135808619Y-62522295D01*
X136037191Y-62522295D02*
X136037191Y-61722295D01*
X136037191Y-61722295D02*
X135961000Y-61836580D01*
X135961000Y-61836580D02*
X135884810Y-61912771D01*
X135884810Y-61912771D02*
X135808619Y-61950866D01*
X137027667Y-62522295D02*
X136570524Y-62522295D01*
X136799096Y-62522295D02*
X136799096Y-61722295D01*
X136799096Y-61722295D02*
X136722905Y-61836580D01*
X136722905Y-61836580D02*
X136646715Y-61912771D01*
X136646715Y-61912771D02*
X136570524Y-61950866D01*
X135503857Y-59982295D02*
X135046714Y-59982295D01*
X135275286Y-59982295D02*
X135275286Y-59182295D01*
X135275286Y-59182295D02*
X135199095Y-59296580D01*
X135199095Y-59296580D02*
X135122905Y-59372771D01*
X135122905Y-59372771D02*
X135046714Y-59410866D01*
X136265762Y-59982295D02*
X135808619Y-59982295D01*
X136037191Y-59982295D02*
X136037191Y-59182295D01*
X136037191Y-59182295D02*
X135961000Y-59296580D01*
X135961000Y-59296580D02*
X135884810Y-59372771D01*
X135884810Y-59372771D02*
X135808619Y-59410866D01*
X136532429Y-59182295D02*
X137027667Y-59182295D01*
X137027667Y-59182295D02*
X136761001Y-59487057D01*
X136761001Y-59487057D02*
X136875286Y-59487057D01*
X136875286Y-59487057D02*
X136951477Y-59525152D01*
X136951477Y-59525152D02*
X136989572Y-59563247D01*
X136989572Y-59563247D02*
X137027667Y-59639438D01*
X137027667Y-59639438D02*
X137027667Y-59829914D01*
X137027667Y-59829914D02*
X136989572Y-59906104D01*
X136989572Y-59906104D02*
X136951477Y-59944200D01*
X136951477Y-59944200D02*
X136875286Y-59982295D01*
X136875286Y-59982295D02*
X136646715Y-59982295D01*
X136646715Y-59982295D02*
X136570524Y-59944200D01*
X136570524Y-59944200D02*
X136532429Y-59906104D01*
X135421334Y-39662295D02*
X135154667Y-39281342D01*
X134964191Y-39662295D02*
X134964191Y-38862295D01*
X134964191Y-38862295D02*
X135268953Y-38862295D01*
X135268953Y-38862295D02*
X135345143Y-38900390D01*
X135345143Y-38900390D02*
X135383238Y-38938485D01*
X135383238Y-38938485D02*
X135421334Y-39014676D01*
X135421334Y-39014676D02*
X135421334Y-39128961D01*
X135421334Y-39128961D02*
X135383238Y-39205152D01*
X135383238Y-39205152D02*
X135345143Y-39243247D01*
X135345143Y-39243247D02*
X135268953Y-39281342D01*
X135268953Y-39281342D02*
X134964191Y-39281342D01*
X135726095Y-39433723D02*
X136107048Y-39433723D01*
X135649905Y-39662295D02*
X135916572Y-38862295D01*
X135916572Y-38862295D02*
X136183238Y-39662295D01*
X136373714Y-38862295D02*
X136564190Y-39662295D01*
X136564190Y-39662295D02*
X136716571Y-39090866D01*
X136716571Y-39090866D02*
X136868952Y-39662295D01*
X136868952Y-39662295D02*
X137059429Y-38862295D01*
X124429476Y-59982295D02*
X123972333Y-59982295D01*
X124200905Y-59982295D02*
X124200905Y-59182295D01*
X124200905Y-59182295D02*
X124124714Y-59296580D01*
X124124714Y-59296580D02*
X124048524Y-59372771D01*
X124048524Y-59372771D02*
X123972333Y-59410866D01*
X124924715Y-59182295D02*
X125000905Y-59182295D01*
X125000905Y-59182295D02*
X125077096Y-59220390D01*
X125077096Y-59220390D02*
X125115191Y-59258485D01*
X125115191Y-59258485D02*
X125153286Y-59334676D01*
X125153286Y-59334676D02*
X125191381Y-59487057D01*
X125191381Y-59487057D02*
X125191381Y-59677533D01*
X125191381Y-59677533D02*
X125153286Y-59829914D01*
X125153286Y-59829914D02*
X125115191Y-59906104D01*
X125115191Y-59906104D02*
X125077096Y-59944200D01*
X125077096Y-59944200D02*
X125000905Y-59982295D01*
X125000905Y-59982295D02*
X124924715Y-59982295D01*
X124924715Y-59982295D02*
X124848524Y-59944200D01*
X124848524Y-59944200D02*
X124810429Y-59906104D01*
X124810429Y-59906104D02*
X124772334Y-59829914D01*
X124772334Y-59829914D02*
X124734238Y-59677533D01*
X124734238Y-59677533D02*
X124734238Y-59487057D01*
X124734238Y-59487057D02*
X124772334Y-59334676D01*
X124772334Y-59334676D02*
X124810429Y-59258485D01*
X124810429Y-59258485D02*
X124848524Y-59220390D01*
X124848524Y-59220390D02*
X124924715Y-59182295D01*
X125686620Y-59182295D02*
X125762810Y-59182295D01*
X125762810Y-59182295D02*
X125839001Y-59220390D01*
X125839001Y-59220390D02*
X125877096Y-59258485D01*
X125877096Y-59258485D02*
X125915191Y-59334676D01*
X125915191Y-59334676D02*
X125953286Y-59487057D01*
X125953286Y-59487057D02*
X125953286Y-59677533D01*
X125953286Y-59677533D02*
X125915191Y-59829914D01*
X125915191Y-59829914D02*
X125877096Y-59906104D01*
X125877096Y-59906104D02*
X125839001Y-59944200D01*
X125839001Y-59944200D02*
X125762810Y-59982295D01*
X125762810Y-59982295D02*
X125686620Y-59982295D01*
X125686620Y-59982295D02*
X125610429Y-59944200D01*
X125610429Y-59944200D02*
X125572334Y-59906104D01*
X125572334Y-59906104D02*
X125534239Y-59829914D01*
X125534239Y-59829914D02*
X125496143Y-59677533D01*
X125496143Y-59677533D02*
X125496143Y-59487057D01*
X125496143Y-59487057D02*
X125534239Y-59334676D01*
X125534239Y-59334676D02*
X125572334Y-59258485D01*
X125572334Y-59258485D02*
X125610429Y-59220390D01*
X125610429Y-59220390D02*
X125686620Y-59182295D01*
X135237191Y-51562295D02*
X135313381Y-51562295D01*
X135313381Y-51562295D02*
X135389572Y-51600390D01*
X135389572Y-51600390D02*
X135427667Y-51638485D01*
X135427667Y-51638485D02*
X135465762Y-51714676D01*
X135465762Y-51714676D02*
X135503857Y-51867057D01*
X135503857Y-51867057D02*
X135503857Y-52057533D01*
X135503857Y-52057533D02*
X135465762Y-52209914D01*
X135465762Y-52209914D02*
X135427667Y-52286104D01*
X135427667Y-52286104D02*
X135389572Y-52324200D01*
X135389572Y-52324200D02*
X135313381Y-52362295D01*
X135313381Y-52362295D02*
X135237191Y-52362295D01*
X135237191Y-52362295D02*
X135161000Y-52324200D01*
X135161000Y-52324200D02*
X135122905Y-52286104D01*
X135122905Y-52286104D02*
X135084810Y-52209914D01*
X135084810Y-52209914D02*
X135046714Y-52057533D01*
X135046714Y-52057533D02*
X135046714Y-51867057D01*
X135046714Y-51867057D02*
X135084810Y-51714676D01*
X135084810Y-51714676D02*
X135122905Y-51638485D01*
X135122905Y-51638485D02*
X135161000Y-51600390D01*
X135161000Y-51600390D02*
X135237191Y-51562295D01*
X135808619Y-51638485D02*
X135846715Y-51600390D01*
X135846715Y-51600390D02*
X135922905Y-51562295D01*
X135922905Y-51562295D02*
X136113381Y-51562295D01*
X136113381Y-51562295D02*
X136189572Y-51600390D01*
X136189572Y-51600390D02*
X136227667Y-51638485D01*
X136227667Y-51638485D02*
X136265762Y-51714676D01*
X136265762Y-51714676D02*
X136265762Y-51790866D01*
X136265762Y-51790866D02*
X136227667Y-51905152D01*
X136227667Y-51905152D02*
X135770524Y-52362295D01*
X135770524Y-52362295D02*
X136265762Y-52362295D01*
X136646715Y-52362295D02*
X136799096Y-52362295D01*
X136799096Y-52362295D02*
X136875286Y-52324200D01*
X136875286Y-52324200D02*
X136913382Y-52286104D01*
X136913382Y-52286104D02*
X136989572Y-52171819D01*
X136989572Y-52171819D02*
X137027667Y-52019438D01*
X137027667Y-52019438D02*
X137027667Y-51714676D01*
X137027667Y-51714676D02*
X136989572Y-51638485D01*
X136989572Y-51638485D02*
X136951477Y-51600390D01*
X136951477Y-51600390D02*
X136875286Y-51562295D01*
X136875286Y-51562295D02*
X136722905Y-51562295D01*
X136722905Y-51562295D02*
X136646715Y-51600390D01*
X136646715Y-51600390D02*
X136608620Y-51638485D01*
X136608620Y-51638485D02*
X136570524Y-51714676D01*
X136570524Y-51714676D02*
X136570524Y-51905152D01*
X136570524Y-51905152D02*
X136608620Y-51981342D01*
X136608620Y-51981342D02*
X136646715Y-52019438D01*
X136646715Y-52019438D02*
X136722905Y-52057533D01*
X136722905Y-52057533D02*
X136875286Y-52057533D01*
X136875286Y-52057533D02*
X136951477Y-52019438D01*
X136951477Y-52019438D02*
X136989572Y-51981342D01*
X136989572Y-51981342D02*
X137027667Y-51905152D01*
D12*
%TO.C,D84*%
X350123401Y-65786115D02*
X350723401Y-66186115D01*
X350123401Y-66186115D02*
X349623401Y-66186115D01*
X350123401Y-66586115D02*
X350123401Y-65786115D01*
X350723401Y-66186115D02*
X350123401Y-66586115D01*
X350723401Y-66186115D02*
X350723401Y-65636115D01*
X350723401Y-66186115D02*
X350723401Y-66736115D01*
X351123401Y-66186115D02*
X350723401Y-66186115D01*
%TO.C,D36*%
X214123401Y-84786115D02*
X214723401Y-85186115D01*
X214123401Y-85186115D02*
X213623401Y-85186115D01*
X214123401Y-85586115D02*
X214123401Y-84786115D01*
X214723401Y-85186115D02*
X214123401Y-85586115D01*
X214723401Y-85186115D02*
X214723401Y-84636115D01*
X214723401Y-85186115D02*
X214723401Y-85736115D01*
X215123401Y-85186115D02*
X214723401Y-85186115D01*
%TO.C,D45*%
X271123401Y-141786115D02*
X271723401Y-142186115D01*
X271123401Y-142186115D02*
X270623401Y-142186115D01*
X271123401Y-142586115D02*
X271123401Y-141786115D01*
X271723401Y-142186115D02*
X271123401Y-142586115D01*
X271723401Y-142186115D02*
X271723401Y-141636115D01*
X271723401Y-142186115D02*
X271723401Y-142736115D01*
X272123401Y-142186115D02*
X271723401Y-142186115D01*
%TO.C,D32*%
X195123401Y-84786115D02*
X195723401Y-85186115D01*
X195123401Y-85186115D02*
X194623401Y-85186115D01*
X195123401Y-85586115D02*
X195123401Y-84786115D01*
X195723401Y-85186115D02*
X195123401Y-85586115D01*
X195723401Y-85186115D02*
X195723401Y-84636115D01*
X195723401Y-85186115D02*
X195723401Y-85736115D01*
X196123401Y-85186115D02*
X195723401Y-85186115D01*
%TO.C,D75*%
X312123401Y-65786115D02*
X312723401Y-66186115D01*
X312123401Y-66186115D02*
X311623401Y-66186115D01*
X312123401Y-66586115D02*
X312123401Y-65786115D01*
X312723401Y-66186115D02*
X312123401Y-66586115D01*
X312723401Y-66186115D02*
X312723401Y-65636115D01*
X312723401Y-66186115D02*
X312723401Y-66736115D01*
X313123401Y-66186115D02*
X312723401Y-66186115D01*
%TO.C,D66*%
X195123401Y-60786115D02*
X195723401Y-61186115D01*
X195123401Y-61186115D02*
X194623401Y-61186115D01*
X195123401Y-61586115D02*
X195123401Y-60786115D01*
X195723401Y-61186115D02*
X195123401Y-61586115D01*
X195723401Y-61186115D02*
X195723401Y-60636115D01*
X195723401Y-61186115D02*
X195723401Y-61736115D01*
X196123401Y-61186115D02*
X195723401Y-61186115D01*
%TO.C,D74*%
X312123401Y-84786115D02*
X312723401Y-85186115D01*
X312123401Y-85186115D02*
X311623401Y-85186115D01*
X312123401Y-85586115D02*
X312123401Y-84786115D01*
X312723401Y-85186115D02*
X312123401Y-85586115D01*
X312723401Y-85186115D02*
X312723401Y-84636115D01*
X312723401Y-85186115D02*
X312723401Y-85736115D01*
X313123401Y-85186115D02*
X312723401Y-85186115D01*
%TO.C,D52*%
X290123401Y-84786115D02*
X290723401Y-85186115D01*
X290123401Y-85186115D02*
X289623401Y-85186115D01*
X290123401Y-85586115D02*
X290123401Y-84786115D01*
X290723401Y-85186115D02*
X290123401Y-85586115D01*
X290723401Y-85186115D02*
X290723401Y-84636115D01*
X290723401Y-85186115D02*
X290723401Y-85736115D01*
X291123401Y-85186115D02*
X290723401Y-85186115D01*
%TO.C,D87*%
X208123401Y-162786115D02*
X208723401Y-163186115D01*
X208123401Y-163186115D02*
X207623401Y-163186115D01*
X208123401Y-163586115D02*
X208123401Y-162786115D01*
X208723401Y-163186115D02*
X208123401Y-163586115D01*
X208723401Y-163186115D02*
X208723401Y-162636115D01*
X208723401Y-163186115D02*
X208723401Y-163736115D01*
X209123401Y-163186115D02*
X208723401Y-163186115D01*
%TO.C,D30*%
X195123401Y-122786115D02*
X195723401Y-123186115D01*
X195123401Y-123186115D02*
X194623401Y-123186115D01*
X195123401Y-123586115D02*
X195123401Y-122786115D01*
X195723401Y-123186115D02*
X195123401Y-123586115D01*
X195723401Y-123186115D02*
X195723401Y-122636115D01*
X195723401Y-123186115D02*
X195723401Y-123736115D01*
X196123401Y-123186115D02*
X195723401Y-123186115D01*
%TO.C,D50*%
X290123401Y-122786115D02*
X290723401Y-123186115D01*
X290123401Y-123186115D02*
X289623401Y-123186115D01*
X290123401Y-123586115D02*
X290123401Y-122786115D01*
X290723401Y-123186115D02*
X290123401Y-123586115D01*
X290723401Y-123186115D02*
X290723401Y-122636115D01*
X290723401Y-123186115D02*
X290723401Y-123736115D01*
X291123401Y-123186115D02*
X290723401Y-123186115D01*
D13*
%TO.C,REF\u002A\u002A*%
X99630000Y-49030000D02*
X99930000Y-49030000D01*
X99630000Y-53170000D02*
X99630000Y-49030000D01*
X99930000Y-53170000D02*
X99630000Y-53170000D01*
X102470000Y-49030000D02*
X102770000Y-49030000D01*
X102770000Y-49030000D02*
X102770000Y-53170000D01*
X102770000Y-53170000D02*
X102470000Y-53170000D01*
D12*
%TO.C,D39*%
X233123401Y-103786115D02*
X233723401Y-104186115D01*
X233123401Y-104186115D02*
X232623401Y-104186115D01*
X233123401Y-104586115D02*
X233123401Y-103786115D01*
X233723401Y-104186115D02*
X233123401Y-104586115D01*
X233723401Y-104186115D02*
X233723401Y-103636115D01*
X233723401Y-104186115D02*
X233723401Y-104736115D01*
X234123401Y-104186115D02*
X233723401Y-104186115D01*
%TO.C,D34*%
X214123401Y-122786115D02*
X214723401Y-123186115D01*
X214123401Y-123186115D02*
X213623401Y-123186115D01*
X214123401Y-123586115D02*
X214123401Y-122786115D01*
X214723401Y-123186115D02*
X214123401Y-123586115D01*
X214723401Y-123186115D02*
X214723401Y-122636115D01*
X214723401Y-123186115D02*
X214723401Y-123736115D01*
X215123401Y-123186115D02*
X214723401Y-123186115D01*
%TO.C,D28*%
X176123401Y-84786115D02*
X176723401Y-85186115D01*
X176123401Y-85186115D02*
X175623401Y-85186115D01*
X176123401Y-85586115D02*
X176123401Y-84786115D01*
X176723401Y-85186115D02*
X176123401Y-85586115D01*
X176723401Y-85186115D02*
X176723401Y-84636115D01*
X176723401Y-85186115D02*
X176723401Y-85736115D01*
X177123401Y-85186115D02*
X176723401Y-85186115D01*
%TO.C,D41*%
X252123401Y-141786115D02*
X252723401Y-142186115D01*
X252123401Y-142186115D02*
X251623401Y-142186115D01*
X252123401Y-142586115D02*
X252123401Y-141786115D01*
X252723401Y-142186115D02*
X252123401Y-142586115D01*
X252723401Y-142186115D02*
X252723401Y-141636115D01*
X252723401Y-142186115D02*
X252723401Y-142736115D01*
X253123401Y-142186115D02*
X252723401Y-142186115D01*
%TO.C,D76*%
X331123401Y-160786115D02*
X331723401Y-161186115D01*
X331123401Y-161186115D02*
X330623401Y-161186115D01*
X331123401Y-161586115D02*
X331123401Y-160786115D01*
X331723401Y-161186115D02*
X331123401Y-161586115D01*
X331723401Y-161186115D02*
X331723401Y-160636115D01*
X331723401Y-161186115D02*
X331723401Y-161736115D01*
X332123401Y-161186115D02*
X331723401Y-161186115D01*
%TO.C,D27*%
X176123401Y-103786115D02*
X176723401Y-104186115D01*
X176123401Y-104186115D02*
X175623401Y-104186115D01*
X176123401Y-104586115D02*
X176123401Y-103786115D01*
X176723401Y-104186115D02*
X176123401Y-104586115D01*
X176723401Y-104186115D02*
X176723401Y-103636115D01*
X176723401Y-104186115D02*
X176723401Y-104736115D01*
X177123401Y-104186115D02*
X176723401Y-104186115D01*
%TO.C,D49*%
X290123401Y-141786115D02*
X290723401Y-142186115D01*
X290123401Y-142186115D02*
X289623401Y-142186115D01*
X290123401Y-142586115D02*
X290123401Y-141786115D01*
X290723401Y-142186115D02*
X290123401Y-142586115D01*
X290723401Y-142186115D02*
X290723401Y-141636115D01*
X290723401Y-142186115D02*
X290723401Y-142736115D01*
X291123401Y-142186115D02*
X290723401Y-142186115D01*
%TO.C,D68*%
X233123401Y-60786115D02*
X233723401Y-61186115D01*
X233123401Y-61186115D02*
X232623401Y-61186115D01*
X233123401Y-61586115D02*
X233123401Y-60786115D01*
X233723401Y-61186115D02*
X233123401Y-61586115D01*
X233723401Y-61186115D02*
X233723401Y-60636115D01*
X233723401Y-61186115D02*
X233723401Y-61736115D01*
X234123401Y-61186115D02*
X233723401Y-61186115D01*
%TO.C,D37*%
X233123401Y-141786115D02*
X233723401Y-142186115D01*
X233123401Y-142186115D02*
X232623401Y-142186115D01*
X233123401Y-142586115D02*
X233123401Y-141786115D01*
X233723401Y-142186115D02*
X233123401Y-142586115D01*
X233723401Y-142186115D02*
X233723401Y-141636115D01*
X233723401Y-142186115D02*
X233723401Y-142736115D01*
X234123401Y-142186115D02*
X233723401Y-142186115D01*
%TO.C,D40*%
X233123401Y-84786115D02*
X233723401Y-85186115D01*
X233123401Y-85186115D02*
X232623401Y-85186115D01*
X233123401Y-85586115D02*
X233123401Y-84786115D01*
X233723401Y-85186115D02*
X233123401Y-85586115D01*
X233723401Y-85186115D02*
X233723401Y-84636115D01*
X233723401Y-85186115D02*
X233723401Y-85736115D01*
X234123401Y-85186115D02*
X233723401Y-85186115D01*
%TO.C,D35*%
X214123401Y-103786115D02*
X214723401Y-104186115D01*
X214123401Y-104186115D02*
X213623401Y-104186115D01*
X214123401Y-104586115D02*
X214123401Y-103786115D01*
X214723401Y-104186115D02*
X214123401Y-104586115D01*
X214723401Y-104186115D02*
X214723401Y-103636115D01*
X214723401Y-104186115D02*
X214723401Y-104736115D01*
X215123401Y-104186115D02*
X214723401Y-104186115D01*
%TO.C,D48*%
X271123401Y-84786115D02*
X271723401Y-85186115D01*
X271123401Y-85186115D02*
X270623401Y-85186115D01*
X271123401Y-85586115D02*
X271123401Y-84786115D01*
X271723401Y-85186115D02*
X271123401Y-85586115D01*
X271723401Y-85186115D02*
X271723401Y-84636115D01*
X271723401Y-85186115D02*
X271723401Y-85736115D01*
X272123401Y-85186115D02*
X271723401Y-85186115D01*
%TO.C,D71*%
X290123401Y-60786115D02*
X290723401Y-61186115D01*
X290123401Y-61186115D02*
X289623401Y-61186115D01*
X290123401Y-61586115D02*
X290123401Y-60786115D01*
X290723401Y-61186115D02*
X290123401Y-61586115D01*
X290723401Y-61186115D02*
X290723401Y-60636115D01*
X290723401Y-61186115D02*
X290723401Y-61736115D01*
X291123401Y-61186115D02*
X290723401Y-61186115D01*
%TO.C,D25*%
X176123401Y-141786115D02*
X176723401Y-142186115D01*
X176123401Y-142186115D02*
X175623401Y-142186115D01*
X176123401Y-142586115D02*
X176123401Y-141786115D01*
X176723401Y-142186115D02*
X176123401Y-142586115D01*
X176723401Y-142186115D02*
X176723401Y-141636115D01*
X176723401Y-142186115D02*
X176723401Y-142736115D01*
X177123401Y-142186115D02*
X176723401Y-142186115D01*
%TO.C,D69*%
X252123401Y-60786115D02*
X252723401Y-61186115D01*
X252123401Y-61186115D02*
X251623401Y-61186115D01*
X252123401Y-61586115D02*
X252123401Y-60786115D01*
X252723401Y-61186115D02*
X252123401Y-61586115D01*
X252723401Y-61186115D02*
X252723401Y-60636115D01*
X252723401Y-61186115D02*
X252723401Y-61736115D01*
X253123401Y-61186115D02*
X252723401Y-61186115D01*
%TO.C,D79*%
X331123401Y-84786115D02*
X331723401Y-85186115D01*
X331123401Y-85186115D02*
X330623401Y-85186115D01*
X331123401Y-85586115D02*
X331123401Y-84786115D01*
X331723401Y-85186115D02*
X331123401Y-85586115D01*
X331723401Y-85186115D02*
X331723401Y-84636115D01*
X331723401Y-85186115D02*
X331723401Y-85736115D01*
X332123401Y-85186115D02*
X331723401Y-85186115D01*
%TO.C,D73*%
X312123401Y-103786115D02*
X312723401Y-104186115D01*
X312123401Y-104186115D02*
X311623401Y-104186115D01*
X312123401Y-104586115D02*
X312123401Y-103786115D01*
X312723401Y-104186115D02*
X312123401Y-104586115D01*
X312723401Y-104186115D02*
X312723401Y-103636115D01*
X312723401Y-104186115D02*
X312723401Y-104736115D01*
X313123401Y-104186115D02*
X312723401Y-104186115D01*
%TO.C,D70*%
X271123401Y-60786115D02*
X271723401Y-61186115D01*
X271123401Y-61186115D02*
X270623401Y-61186115D01*
X271123401Y-61586115D02*
X271123401Y-60786115D01*
X271723401Y-61186115D02*
X271123401Y-61586115D01*
X271723401Y-61186115D02*
X271723401Y-60636115D01*
X271723401Y-61186115D02*
X271723401Y-61736115D01*
X272123401Y-61186115D02*
X271723401Y-61186115D01*
%TO.C,D89*%
X148361396Y-191526883D02*
X149081011Y-191573293D01*
X148561396Y-191873293D02*
X148128383Y-192123293D01*
X148761396Y-192219703D02*
X148361396Y-191526883D01*
X149081011Y-191573293D02*
X148761396Y-192219703D01*
X149081011Y-191573293D02*
X148806011Y-191096979D01*
X149081011Y-191573293D02*
X149356011Y-192049607D01*
X149427421Y-191373293D02*
X149081011Y-191573293D01*
%TO.C,D78*%
X331123401Y-103786115D02*
X331723401Y-104186115D01*
X331123401Y-104186115D02*
X330623401Y-104186115D01*
X331123401Y-104586115D02*
X331123401Y-103786115D01*
X331723401Y-104186115D02*
X331123401Y-104586115D01*
X331723401Y-104186115D02*
X331723401Y-103636115D01*
X331723401Y-104186115D02*
X331723401Y-104736115D01*
X332123401Y-104186115D02*
X331723401Y-104186115D01*
%TO.C,D31*%
X195123401Y-103786115D02*
X195723401Y-104186115D01*
X195123401Y-104186115D02*
X194623401Y-104186115D01*
X195123401Y-104586115D02*
X195123401Y-103786115D01*
X195723401Y-104186115D02*
X195123401Y-104586115D01*
X195723401Y-104186115D02*
X195723401Y-103636115D01*
X195723401Y-104186115D02*
X195723401Y-104736115D01*
X196123401Y-104186115D02*
X195723401Y-104186115D01*
%TO.C,D26*%
X176123401Y-122786115D02*
X176723401Y-123186115D01*
X176123401Y-123186115D02*
X175623401Y-123186115D01*
X176123401Y-123586115D02*
X176123401Y-122786115D01*
X176723401Y-123186115D02*
X176123401Y-123586115D01*
X176723401Y-123186115D02*
X176723401Y-122636115D01*
X176723401Y-123186115D02*
X176723401Y-123736115D01*
X177123401Y-123186115D02*
X176723401Y-123186115D01*
%TO.C,D80*%
X331123401Y-65786115D02*
X331723401Y-66186115D01*
X331123401Y-66186115D02*
X330623401Y-66186115D01*
X331123401Y-66586115D02*
X331123401Y-65786115D01*
X331723401Y-66186115D02*
X331123401Y-66586115D01*
X331723401Y-66186115D02*
X331723401Y-65636115D01*
X331723401Y-66186115D02*
X331723401Y-66736115D01*
X332123401Y-66186115D02*
X331723401Y-66186115D01*
%TO.C,D65*%
X176123401Y-60786115D02*
X176723401Y-61186115D01*
X176123401Y-61186115D02*
X175623401Y-61186115D01*
X176123401Y-61586115D02*
X176123401Y-60786115D01*
X176723401Y-61186115D02*
X176123401Y-61586115D01*
X176723401Y-61186115D02*
X176723401Y-60636115D01*
X176723401Y-61186115D02*
X176723401Y-61736115D01*
X177123401Y-61186115D02*
X176723401Y-61186115D01*
%TO.C,D86*%
X238123401Y-162786115D02*
X238723401Y-163186115D01*
X238123401Y-163186115D02*
X237623401Y-163186115D01*
X238123401Y-163586115D02*
X238123401Y-162786115D01*
X238723401Y-163186115D02*
X238123401Y-163586115D01*
X238723401Y-163186115D02*
X238723401Y-162636115D01*
X238723401Y-163186115D02*
X238723401Y-163736115D01*
X239123401Y-163186115D02*
X238723401Y-163186115D01*
%TO.C,D29*%
X195123401Y-141786115D02*
X195723401Y-142186115D01*
X195123401Y-142186115D02*
X194623401Y-142186115D01*
X195123401Y-142586115D02*
X195123401Y-141786115D01*
X195723401Y-142186115D02*
X195123401Y-142586115D01*
X195723401Y-142186115D02*
X195723401Y-141636115D01*
X195723401Y-142186115D02*
X195723401Y-142736115D01*
X196123401Y-142186115D02*
X195723401Y-142186115D01*
%TO.C,D42*%
X252123401Y-122786115D02*
X252723401Y-123186115D01*
X252123401Y-123186115D02*
X251623401Y-123186115D01*
X252123401Y-123586115D02*
X252123401Y-122786115D01*
X252723401Y-123186115D02*
X252123401Y-123586115D01*
X252723401Y-123186115D02*
X252723401Y-122636115D01*
X252723401Y-123186115D02*
X252723401Y-123736115D01*
X253123401Y-123186115D02*
X252723401Y-123186115D01*
%TO.C,D33*%
X214123401Y-141786115D02*
X214723401Y-142186115D01*
X214123401Y-142186115D02*
X213623401Y-142186115D01*
X214123401Y-142586115D02*
X214123401Y-141786115D01*
X214723401Y-142186115D02*
X214123401Y-142586115D01*
X214723401Y-142186115D02*
X214723401Y-141636115D01*
X214723401Y-142186115D02*
X214723401Y-142736115D01*
X215123401Y-142186115D02*
X214723401Y-142186115D01*
%TO.C,D82*%
X350123401Y-103786115D02*
X350723401Y-104186115D01*
X350123401Y-104186115D02*
X349623401Y-104186115D01*
X350123401Y-104586115D02*
X350123401Y-103786115D01*
X350723401Y-104186115D02*
X350123401Y-104586115D01*
X350723401Y-104186115D02*
X350723401Y-103636115D01*
X350723401Y-104186115D02*
X350723401Y-104736115D01*
X351123401Y-104186115D02*
X350723401Y-104186115D01*
%TO.C,D46*%
X271123401Y-122786115D02*
X271723401Y-123186115D01*
X271123401Y-123186115D02*
X270623401Y-123186115D01*
X271123401Y-123586115D02*
X271123401Y-122786115D01*
X271723401Y-123186115D02*
X271123401Y-123586115D01*
X271723401Y-123186115D02*
X271723401Y-122636115D01*
X271723401Y-123186115D02*
X271723401Y-123736115D01*
X272123401Y-123186115D02*
X271723401Y-123186115D01*
%TO.C,D44*%
X252123401Y-84786115D02*
X252723401Y-85186115D01*
X252123401Y-85186115D02*
X251623401Y-85186115D01*
X252123401Y-85586115D02*
X252123401Y-84786115D01*
X252723401Y-85186115D02*
X252123401Y-85586115D01*
X252723401Y-85186115D02*
X252723401Y-84636115D01*
X252723401Y-85186115D02*
X252723401Y-85736115D01*
X253123401Y-85186115D02*
X252723401Y-85186115D01*
%TO.C,D51*%
X290123401Y-103786115D02*
X290723401Y-104186115D01*
X290123401Y-104186115D02*
X289623401Y-104186115D01*
X290123401Y-104586115D02*
X290123401Y-103786115D01*
X290723401Y-104186115D02*
X290123401Y-104586115D01*
X290723401Y-104186115D02*
X290723401Y-103636115D01*
X290723401Y-104186115D02*
X290723401Y-104736115D01*
X291123401Y-104186115D02*
X290723401Y-104186115D01*
%TO.C,D85*%
X268123401Y-162786115D02*
X268723401Y-163186115D01*
X268123401Y-163186115D02*
X267623401Y-163186115D01*
X268123401Y-163586115D02*
X268123401Y-162786115D01*
X268723401Y-163186115D02*
X268123401Y-163586115D01*
X268723401Y-163186115D02*
X268723401Y-162636115D01*
X268723401Y-163186115D02*
X268723401Y-163736115D01*
X269123401Y-163186115D02*
X268723401Y-163186115D01*
%TO.C,D43*%
X252123401Y-103786115D02*
X252723401Y-104186115D01*
X252123401Y-104186115D02*
X251623401Y-104186115D01*
X252123401Y-104586115D02*
X252123401Y-103786115D01*
X252723401Y-104186115D02*
X252123401Y-104586115D01*
X252723401Y-104186115D02*
X252723401Y-103636115D01*
X252723401Y-104186115D02*
X252723401Y-104736115D01*
X253123401Y-104186115D02*
X252723401Y-104186115D01*
D14*
%TO.C,MCU1*%
X121610000Y-35490000D02*
X121610000Y-68510000D01*
X121610000Y-68510000D02*
X139390000Y-68510000D01*
X139390000Y-35490000D02*
X121610000Y-35490000D01*
X139390000Y-68510000D02*
X139390000Y-35490000D01*
D12*
%TO.C,D72*%
X312123401Y-160786115D02*
X312723401Y-161186115D01*
X312123401Y-161186115D02*
X311623401Y-161186115D01*
X312123401Y-161586115D02*
X312123401Y-160786115D01*
X312723401Y-161186115D02*
X312123401Y-161586115D01*
X312723401Y-161186115D02*
X312723401Y-160636115D01*
X312723401Y-161186115D02*
X312723401Y-161736115D01*
X313123401Y-161186115D02*
X312723401Y-161186115D01*
%TO.C,D47*%
X271123401Y-103786115D02*
X271723401Y-104186115D01*
X271123401Y-104186115D02*
X270623401Y-104186115D01*
X271123401Y-104586115D02*
X271123401Y-103786115D01*
X271723401Y-104186115D02*
X271123401Y-104586115D01*
X271723401Y-104186115D02*
X271723401Y-103636115D01*
X271723401Y-104186115D02*
X271723401Y-104736115D01*
X272123401Y-104186115D02*
X271723401Y-104186115D01*
%TO.C,D90*%
X122380634Y-206526883D02*
X123100249Y-206573293D01*
X122580634Y-206873293D02*
X122147621Y-207123293D01*
X122780634Y-207219703D02*
X122380634Y-206526883D01*
X123100249Y-206573293D02*
X122780634Y-207219703D01*
X123100249Y-206573293D02*
X122825249Y-206096979D01*
X123100249Y-206573293D02*
X123375249Y-207049607D01*
X123446659Y-206373293D02*
X123100249Y-206573293D01*
%TO.C,D38*%
X233123401Y-122786115D02*
X233723401Y-123186115D01*
X233123401Y-123186115D02*
X232623401Y-123186115D01*
X233123401Y-123586115D02*
X233123401Y-122786115D01*
X233723401Y-123186115D02*
X233123401Y-123586115D01*
X233723401Y-123186115D02*
X233723401Y-122636115D01*
X233723401Y-123186115D02*
X233723401Y-123736115D01*
X234123401Y-123186115D02*
X233723401Y-123186115D01*
%TO.C,D81*%
X350123401Y-160786115D02*
X350723401Y-161186115D01*
X350123401Y-161186115D02*
X349623401Y-161186115D01*
X350123401Y-161586115D02*
X350123401Y-160786115D01*
X350723401Y-161186115D02*
X350123401Y-161586115D01*
X350723401Y-161186115D02*
X350723401Y-160636115D01*
X350723401Y-161186115D02*
X350723401Y-161736115D01*
X351123401Y-161186115D02*
X350723401Y-161186115D01*
%TO.C,D67*%
X214123401Y-60786115D02*
X214723401Y-61186115D01*
X214123401Y-61186115D02*
X213623401Y-61186115D01*
X214123401Y-61586115D02*
X214123401Y-60786115D01*
X214723401Y-61186115D02*
X214123401Y-61586115D01*
X214723401Y-61186115D02*
X214723401Y-60636115D01*
X214723401Y-61186115D02*
X214723401Y-61736115D01*
X215123401Y-61186115D02*
X214723401Y-61186115D01*
%TO.C,D77*%
X331123401Y-141786115D02*
X331723401Y-142186115D01*
X331123401Y-142186115D02*
X330623401Y-142186115D01*
X331123401Y-142586115D02*
X331123401Y-141786115D01*
X331723401Y-142186115D02*
X331123401Y-142586115D01*
X331723401Y-142186115D02*
X331723401Y-141636115D01*
X331723401Y-142186115D02*
X331723401Y-142736115D01*
X332123401Y-142186115D02*
X331723401Y-142186115D01*
%TO.C,D88*%
X167123401Y-162786115D02*
X167723401Y-163186115D01*
X167123401Y-163186115D02*
X166623401Y-163186115D01*
X167123401Y-163586115D02*
X167123401Y-162786115D01*
X167723401Y-163186115D02*
X167123401Y-163586115D01*
X167723401Y-163186115D02*
X167723401Y-162636115D01*
X167723401Y-163186115D02*
X167723401Y-163736115D01*
X168123401Y-163186115D02*
X167723401Y-163186115D01*
%TO.C,D83*%
X350123401Y-84786115D02*
X350723401Y-85186115D01*
X350123401Y-85186115D02*
X349623401Y-85186115D01*
X350123401Y-85586115D02*
X350123401Y-84786115D01*
X350723401Y-85186115D02*
X350123401Y-85586115D01*
X350723401Y-85186115D02*
X350723401Y-84636115D01*
X350723401Y-85186115D02*
X350723401Y-85736115D01*
X351123401Y-85186115D02*
X350723401Y-85186115D01*
D10*
%TO.C,T1*%
X98775000Y-38700000D02*
X98775000Y-42000000D01*
X98775000Y-40050000D02*
X98775000Y-43950000D01*
X98775000Y-45300000D02*
X98775000Y-42000000D01*
X98775000Y-45300000D02*
X101625000Y-45300000D01*
X101625000Y-38700000D02*
X98775000Y-38700000D01*
X101625000Y-45300000D02*
X101625000Y-38700000D01*
%TD*%
D15*
%TO.C,MCU1*%
X122880000Y-39300000D03*
X122880000Y-41840000D03*
X122880000Y-44380000D03*
X122880000Y-46920000D03*
X122880000Y-49460000D03*
X122880000Y-52000000D03*
X122880000Y-54540000D03*
X122880000Y-57080000D03*
X122880000Y-59620000D03*
X122880000Y-62160000D03*
X122880000Y-64700000D03*
X122880000Y-67240000D03*
X138120000Y-67240000D03*
X138120000Y-64700000D03*
X138120000Y-62160000D03*
X138120000Y-59620000D03*
X138120000Y-57080000D03*
X138120000Y-54540000D03*
X138120000Y-52000000D03*
X138120000Y-49460000D03*
X138120000Y-46920000D03*
X138120000Y-44380000D03*
X138120000Y-41840000D03*
X138120000Y-39300000D03*
%TD*%
M02*
