%TF.GenerationSoftware,KiCad,Pcbnew,8.0.5*%
%TF.CreationDate,2024-10-17T20:52:03+02:00*%
%TF.ProjectId,backup right,6261636b-7570-4207-9269-6768742e6b69,v1.0.0*%
%TF.SameCoordinates,Original*%
%TF.FileFunction,Legend,Bot*%
%TF.FilePolarity,Positive*%
%FSLAX46Y46*%
G04 Gerber Fmt 4.6, Leading zero omitted, Abs format (unit mm)*
G04 Created by KiCad (PCBNEW 8.0.5) date 2024-10-17 20:52:03*
%MOMM*%
%LPD*%
G01*
G04 APERTURE LIST*
%ADD10C,0.150000*%
%ADD11C,0.100000*%
%ADD12C,0.381000*%
%ADD13C,1.752600*%
G04 APERTURE END LIST*
D10*
X125496143Y-65062295D02*
X125953286Y-65062295D01*
X125724714Y-65062295D02*
X125724714Y-64262295D01*
X125724714Y-64262295D02*
X125800905Y-64376580D01*
X125800905Y-64376580D02*
X125877095Y-64452771D01*
X125877095Y-64452771D02*
X125953286Y-64490866D01*
X125000904Y-64262295D02*
X124924714Y-64262295D01*
X124924714Y-64262295D02*
X124848523Y-64300390D01*
X124848523Y-64300390D02*
X124810428Y-64338485D01*
X124810428Y-64338485D02*
X124772333Y-64414676D01*
X124772333Y-64414676D02*
X124734238Y-64567057D01*
X124734238Y-64567057D02*
X124734238Y-64757533D01*
X124734238Y-64757533D02*
X124772333Y-64909914D01*
X124772333Y-64909914D02*
X124810428Y-64986104D01*
X124810428Y-64986104D02*
X124848523Y-65024200D01*
X124848523Y-65024200D02*
X124924714Y-65062295D01*
X124924714Y-65062295D02*
X125000904Y-65062295D01*
X125000904Y-65062295D02*
X125077095Y-65024200D01*
X125077095Y-65024200D02*
X125115190Y-64986104D01*
X125115190Y-64986104D02*
X125153285Y-64909914D01*
X125153285Y-64909914D02*
X125191381Y-64757533D01*
X125191381Y-64757533D02*
X125191381Y-64567057D01*
X125191381Y-64567057D02*
X125153285Y-64414676D01*
X125153285Y-64414676D02*
X125115190Y-64338485D01*
X125115190Y-64338485D02*
X125077095Y-64300390D01*
X125077095Y-64300390D02*
X125000904Y-64262295D01*
X124048523Y-64528961D02*
X124048523Y-65062295D01*
X124238999Y-64224200D02*
X124429476Y-64795628D01*
X124429476Y-64795628D02*
X123934237Y-64795628D01*
X136564190Y-41440390D02*
X136640380Y-41402295D01*
X136640380Y-41402295D02*
X136754666Y-41402295D01*
X136754666Y-41402295D02*
X136868952Y-41440390D01*
X136868952Y-41440390D02*
X136945142Y-41516580D01*
X136945142Y-41516580D02*
X136983237Y-41592771D01*
X136983237Y-41592771D02*
X137021333Y-41745152D01*
X137021333Y-41745152D02*
X137021333Y-41859438D01*
X137021333Y-41859438D02*
X136983237Y-42011819D01*
X136983237Y-42011819D02*
X136945142Y-42088009D01*
X136945142Y-42088009D02*
X136868952Y-42164200D01*
X136868952Y-42164200D02*
X136754666Y-42202295D01*
X136754666Y-42202295D02*
X136678475Y-42202295D01*
X136678475Y-42202295D02*
X136564190Y-42164200D01*
X136564190Y-42164200D02*
X136526094Y-42126104D01*
X136526094Y-42126104D02*
X136526094Y-41859438D01*
X136526094Y-41859438D02*
X136678475Y-41859438D01*
X136183237Y-42202295D02*
X136183237Y-41402295D01*
X136183237Y-41402295D02*
X135726094Y-42202295D01*
X135726094Y-42202295D02*
X135726094Y-41402295D01*
X135345142Y-42202295D02*
X135345142Y-41402295D01*
X135345142Y-41402295D02*
X135154666Y-41402295D01*
X135154666Y-41402295D02*
X135040380Y-41440390D01*
X135040380Y-41440390D02*
X134964190Y-41516580D01*
X134964190Y-41516580D02*
X134926095Y-41592771D01*
X134926095Y-41592771D02*
X134887999Y-41745152D01*
X134887999Y-41745152D02*
X134887999Y-41859438D01*
X134887999Y-41859438D02*
X134926095Y-42011819D01*
X134926095Y-42011819D02*
X134964190Y-42088009D01*
X134964190Y-42088009D02*
X135040380Y-42164200D01*
X135040380Y-42164200D02*
X135154666Y-42202295D01*
X135154666Y-42202295D02*
X135345142Y-42202295D01*
X136837190Y-54102295D02*
X136761000Y-54102295D01*
X136761000Y-54102295D02*
X136684809Y-54140390D01*
X136684809Y-54140390D02*
X136646714Y-54178485D01*
X136646714Y-54178485D02*
X136608619Y-54254676D01*
X136608619Y-54254676D02*
X136570524Y-54407057D01*
X136570524Y-54407057D02*
X136570524Y-54597533D01*
X136570524Y-54597533D02*
X136608619Y-54749914D01*
X136608619Y-54749914D02*
X136646714Y-54826104D01*
X136646714Y-54826104D02*
X136684809Y-54864200D01*
X136684809Y-54864200D02*
X136761000Y-54902295D01*
X136761000Y-54902295D02*
X136837190Y-54902295D01*
X136837190Y-54902295D02*
X136913381Y-54864200D01*
X136913381Y-54864200D02*
X136951476Y-54826104D01*
X136951476Y-54826104D02*
X136989571Y-54749914D01*
X136989571Y-54749914D02*
X137027667Y-54597533D01*
X137027667Y-54597533D02*
X137027667Y-54407057D01*
X137027667Y-54407057D02*
X136989571Y-54254676D01*
X136989571Y-54254676D02*
X136951476Y-54178485D01*
X136951476Y-54178485D02*
X136913381Y-54140390D01*
X136913381Y-54140390D02*
X136837190Y-54102295D01*
X136075285Y-54102295D02*
X135999095Y-54102295D01*
X135999095Y-54102295D02*
X135922904Y-54140390D01*
X135922904Y-54140390D02*
X135884809Y-54178485D01*
X135884809Y-54178485D02*
X135846714Y-54254676D01*
X135846714Y-54254676D02*
X135808619Y-54407057D01*
X135808619Y-54407057D02*
X135808619Y-54597533D01*
X135808619Y-54597533D02*
X135846714Y-54749914D01*
X135846714Y-54749914D02*
X135884809Y-54826104D01*
X135884809Y-54826104D02*
X135922904Y-54864200D01*
X135922904Y-54864200D02*
X135999095Y-54902295D01*
X135999095Y-54902295D02*
X136075285Y-54902295D01*
X136075285Y-54902295D02*
X136151476Y-54864200D01*
X136151476Y-54864200D02*
X136189571Y-54826104D01*
X136189571Y-54826104D02*
X136227666Y-54749914D01*
X136227666Y-54749914D02*
X136265762Y-54597533D01*
X136265762Y-54597533D02*
X136265762Y-54407057D01*
X136265762Y-54407057D02*
X136227666Y-54254676D01*
X136227666Y-54254676D02*
X136189571Y-54178485D01*
X136189571Y-54178485D02*
X136151476Y-54140390D01*
X136151476Y-54140390D02*
X136075285Y-54102295D01*
X135503857Y-54178485D02*
X135465761Y-54140390D01*
X135465761Y-54140390D02*
X135389571Y-54102295D01*
X135389571Y-54102295D02*
X135199095Y-54102295D01*
X135199095Y-54102295D02*
X135122904Y-54140390D01*
X135122904Y-54140390D02*
X135084809Y-54178485D01*
X135084809Y-54178485D02*
X135046714Y-54254676D01*
X135046714Y-54254676D02*
X135046714Y-54330866D01*
X135046714Y-54330866D02*
X135084809Y-54445152D01*
X135084809Y-54445152D02*
X135541952Y-54902295D01*
X135541952Y-54902295D02*
X135046714Y-54902295D01*
X125648523Y-43980390D02*
X125724713Y-43942295D01*
X125724713Y-43942295D02*
X125838999Y-43942295D01*
X125838999Y-43942295D02*
X125953285Y-43980390D01*
X125953285Y-43980390D02*
X126029475Y-44056580D01*
X126029475Y-44056580D02*
X126067570Y-44132771D01*
X126067570Y-44132771D02*
X126105666Y-44285152D01*
X126105666Y-44285152D02*
X126105666Y-44399438D01*
X126105666Y-44399438D02*
X126067570Y-44551819D01*
X126067570Y-44551819D02*
X126029475Y-44628009D01*
X126029475Y-44628009D02*
X125953285Y-44704200D01*
X125953285Y-44704200D02*
X125838999Y-44742295D01*
X125838999Y-44742295D02*
X125762808Y-44742295D01*
X125762808Y-44742295D02*
X125648523Y-44704200D01*
X125648523Y-44704200D02*
X125610427Y-44666104D01*
X125610427Y-44666104D02*
X125610427Y-44399438D01*
X125610427Y-44399438D02*
X125762808Y-44399438D01*
X125267570Y-44742295D02*
X125267570Y-43942295D01*
X125267570Y-43942295D02*
X124810427Y-44742295D01*
X124810427Y-44742295D02*
X124810427Y-43942295D01*
X124429475Y-44742295D02*
X124429475Y-43942295D01*
X124429475Y-43942295D02*
X124238999Y-43942295D01*
X124238999Y-43942295D02*
X124124713Y-43980390D01*
X124124713Y-43980390D02*
X124048523Y-44056580D01*
X124048523Y-44056580D02*
X124010428Y-44132771D01*
X124010428Y-44132771D02*
X123972332Y-44285152D01*
X123972332Y-44285152D02*
X123972332Y-44399438D01*
X123972332Y-44399438D02*
X124010428Y-44551819D01*
X124010428Y-44551819D02*
X124048523Y-44628009D01*
X124048523Y-44628009D02*
X124124713Y-44704200D01*
X124124713Y-44704200D02*
X124238999Y-44742295D01*
X124238999Y-44742295D02*
X124429475Y-44742295D01*
X125762809Y-51632295D02*
X125686619Y-51632295D01*
X125686619Y-51632295D02*
X125610428Y-51670390D01*
X125610428Y-51670390D02*
X125572333Y-51708485D01*
X125572333Y-51708485D02*
X125534238Y-51784676D01*
X125534238Y-51784676D02*
X125496143Y-51937057D01*
X125496143Y-51937057D02*
X125496143Y-52127533D01*
X125496143Y-52127533D02*
X125534238Y-52279914D01*
X125534238Y-52279914D02*
X125572333Y-52356104D01*
X125572333Y-52356104D02*
X125610428Y-52394200D01*
X125610428Y-52394200D02*
X125686619Y-52432295D01*
X125686619Y-52432295D02*
X125762809Y-52432295D01*
X125762809Y-52432295D02*
X125839000Y-52394200D01*
X125839000Y-52394200D02*
X125877095Y-52356104D01*
X125877095Y-52356104D02*
X125915190Y-52279914D01*
X125915190Y-52279914D02*
X125953286Y-52127533D01*
X125953286Y-52127533D02*
X125953286Y-51937057D01*
X125953286Y-51937057D02*
X125915190Y-51784676D01*
X125915190Y-51784676D02*
X125877095Y-51708485D01*
X125877095Y-51708485D02*
X125839000Y-51670390D01*
X125839000Y-51670390D02*
X125762809Y-51632295D01*
X125191381Y-51708485D02*
X125153285Y-51670390D01*
X125153285Y-51670390D02*
X125077095Y-51632295D01*
X125077095Y-51632295D02*
X124886619Y-51632295D01*
X124886619Y-51632295D02*
X124810428Y-51670390D01*
X124810428Y-51670390D02*
X124772333Y-51708485D01*
X124772333Y-51708485D02*
X124734238Y-51784676D01*
X124734238Y-51784676D02*
X124734238Y-51860866D01*
X124734238Y-51860866D02*
X124772333Y-51975152D01*
X124772333Y-51975152D02*
X125229476Y-52432295D01*
X125229476Y-52432295D02*
X124734238Y-52432295D01*
X124238999Y-51632295D02*
X124162809Y-51632295D01*
X124162809Y-51632295D02*
X124086618Y-51670390D01*
X124086618Y-51670390D02*
X124048523Y-51708485D01*
X124048523Y-51708485D02*
X124010428Y-51784676D01*
X124010428Y-51784676D02*
X123972333Y-51937057D01*
X123972333Y-51937057D02*
X123972333Y-52127533D01*
X123972333Y-52127533D02*
X124010428Y-52279914D01*
X124010428Y-52279914D02*
X124048523Y-52356104D01*
X124048523Y-52356104D02*
X124086618Y-52394200D01*
X124086618Y-52394200D02*
X124162809Y-52432295D01*
X124162809Y-52432295D02*
X124238999Y-52432295D01*
X124238999Y-52432295D02*
X124315190Y-52394200D01*
X124315190Y-52394200D02*
X124353285Y-52356104D01*
X124353285Y-52356104D02*
X124391380Y-52279914D01*
X124391380Y-52279914D02*
X124429476Y-52127533D01*
X124429476Y-52127533D02*
X124429476Y-51937057D01*
X124429476Y-51937057D02*
X124391380Y-51784676D01*
X124391380Y-51784676D02*
X124353285Y-51708485D01*
X124353285Y-51708485D02*
X124315190Y-51670390D01*
X124315190Y-51670390D02*
X124238999Y-51632295D01*
X125762809Y-49032295D02*
X125686619Y-49032295D01*
X125686619Y-49032295D02*
X125610428Y-49070390D01*
X125610428Y-49070390D02*
X125572333Y-49108485D01*
X125572333Y-49108485D02*
X125534238Y-49184676D01*
X125534238Y-49184676D02*
X125496143Y-49337057D01*
X125496143Y-49337057D02*
X125496143Y-49527533D01*
X125496143Y-49527533D02*
X125534238Y-49679914D01*
X125534238Y-49679914D02*
X125572333Y-49756104D01*
X125572333Y-49756104D02*
X125610428Y-49794200D01*
X125610428Y-49794200D02*
X125686619Y-49832295D01*
X125686619Y-49832295D02*
X125762809Y-49832295D01*
X125762809Y-49832295D02*
X125839000Y-49794200D01*
X125839000Y-49794200D02*
X125877095Y-49756104D01*
X125877095Y-49756104D02*
X125915190Y-49679914D01*
X125915190Y-49679914D02*
X125953286Y-49527533D01*
X125953286Y-49527533D02*
X125953286Y-49337057D01*
X125953286Y-49337057D02*
X125915190Y-49184676D01*
X125915190Y-49184676D02*
X125877095Y-49108485D01*
X125877095Y-49108485D02*
X125839000Y-49070390D01*
X125839000Y-49070390D02*
X125762809Y-49032295D01*
X124734238Y-49832295D02*
X125191381Y-49832295D01*
X124962809Y-49832295D02*
X124962809Y-49032295D01*
X124962809Y-49032295D02*
X125039000Y-49146580D01*
X125039000Y-49146580D02*
X125115190Y-49222771D01*
X125115190Y-49222771D02*
X125191381Y-49260866D01*
X124467571Y-49032295D02*
X123934237Y-49032295D01*
X123934237Y-49032295D02*
X124277095Y-49832295D01*
X125762809Y-38862295D02*
X125686619Y-38862295D01*
X125686619Y-38862295D02*
X125610428Y-38900390D01*
X125610428Y-38900390D02*
X125572333Y-38938485D01*
X125572333Y-38938485D02*
X125534238Y-39014676D01*
X125534238Y-39014676D02*
X125496143Y-39167057D01*
X125496143Y-39167057D02*
X125496143Y-39357533D01*
X125496143Y-39357533D02*
X125534238Y-39509914D01*
X125534238Y-39509914D02*
X125572333Y-39586104D01*
X125572333Y-39586104D02*
X125610428Y-39624200D01*
X125610428Y-39624200D02*
X125686619Y-39662295D01*
X125686619Y-39662295D02*
X125762809Y-39662295D01*
X125762809Y-39662295D02*
X125839000Y-39624200D01*
X125839000Y-39624200D02*
X125877095Y-39586104D01*
X125877095Y-39586104D02*
X125915190Y-39509914D01*
X125915190Y-39509914D02*
X125953286Y-39357533D01*
X125953286Y-39357533D02*
X125953286Y-39167057D01*
X125953286Y-39167057D02*
X125915190Y-39014676D01*
X125915190Y-39014676D02*
X125877095Y-38938485D01*
X125877095Y-38938485D02*
X125839000Y-38900390D01*
X125839000Y-38900390D02*
X125762809Y-38862295D01*
X125000904Y-38862295D02*
X124924714Y-38862295D01*
X124924714Y-38862295D02*
X124848523Y-38900390D01*
X124848523Y-38900390D02*
X124810428Y-38938485D01*
X124810428Y-38938485D02*
X124772333Y-39014676D01*
X124772333Y-39014676D02*
X124734238Y-39167057D01*
X124734238Y-39167057D02*
X124734238Y-39357533D01*
X124734238Y-39357533D02*
X124772333Y-39509914D01*
X124772333Y-39509914D02*
X124810428Y-39586104D01*
X124810428Y-39586104D02*
X124848523Y-39624200D01*
X124848523Y-39624200D02*
X124924714Y-39662295D01*
X124924714Y-39662295D02*
X125000904Y-39662295D01*
X125000904Y-39662295D02*
X125077095Y-39624200D01*
X125077095Y-39624200D02*
X125115190Y-39586104D01*
X125115190Y-39586104D02*
X125153285Y-39509914D01*
X125153285Y-39509914D02*
X125191381Y-39357533D01*
X125191381Y-39357533D02*
X125191381Y-39167057D01*
X125191381Y-39167057D02*
X125153285Y-39014676D01*
X125153285Y-39014676D02*
X125115190Y-38938485D01*
X125115190Y-38938485D02*
X125077095Y-38900390D01*
X125077095Y-38900390D02*
X125000904Y-38862295D01*
X124048523Y-38862295D02*
X124200904Y-38862295D01*
X124200904Y-38862295D02*
X124277095Y-38900390D01*
X124277095Y-38900390D02*
X124315190Y-38938485D01*
X124315190Y-38938485D02*
X124391380Y-39052771D01*
X124391380Y-39052771D02*
X124429476Y-39205152D01*
X124429476Y-39205152D02*
X124429476Y-39509914D01*
X124429476Y-39509914D02*
X124391380Y-39586104D01*
X124391380Y-39586104D02*
X124353285Y-39624200D01*
X124353285Y-39624200D02*
X124277095Y-39662295D01*
X124277095Y-39662295D02*
X124124714Y-39662295D01*
X124124714Y-39662295D02*
X124048523Y-39624200D01*
X124048523Y-39624200D02*
X124010428Y-39586104D01*
X124010428Y-39586104D02*
X123972333Y-39509914D01*
X123972333Y-39509914D02*
X123972333Y-39319438D01*
X123972333Y-39319438D02*
X124010428Y-39243247D01*
X124010428Y-39243247D02*
X124048523Y-39205152D01*
X124048523Y-39205152D02*
X124124714Y-39167057D01*
X124124714Y-39167057D02*
X124277095Y-39167057D01*
X124277095Y-39167057D02*
X124353285Y-39205152D01*
X124353285Y-39205152D02*
X124391380Y-39243247D01*
X124391380Y-39243247D02*
X124429476Y-39319438D01*
X125762809Y-54132295D02*
X125686619Y-54132295D01*
X125686619Y-54132295D02*
X125610428Y-54170390D01*
X125610428Y-54170390D02*
X125572333Y-54208485D01*
X125572333Y-54208485D02*
X125534238Y-54284676D01*
X125534238Y-54284676D02*
X125496143Y-54437057D01*
X125496143Y-54437057D02*
X125496143Y-54627533D01*
X125496143Y-54627533D02*
X125534238Y-54779914D01*
X125534238Y-54779914D02*
X125572333Y-54856104D01*
X125572333Y-54856104D02*
X125610428Y-54894200D01*
X125610428Y-54894200D02*
X125686619Y-54932295D01*
X125686619Y-54932295D02*
X125762809Y-54932295D01*
X125762809Y-54932295D02*
X125839000Y-54894200D01*
X125839000Y-54894200D02*
X125877095Y-54856104D01*
X125877095Y-54856104D02*
X125915190Y-54779914D01*
X125915190Y-54779914D02*
X125953286Y-54627533D01*
X125953286Y-54627533D02*
X125953286Y-54437057D01*
X125953286Y-54437057D02*
X125915190Y-54284676D01*
X125915190Y-54284676D02*
X125877095Y-54208485D01*
X125877095Y-54208485D02*
X125839000Y-54170390D01*
X125839000Y-54170390D02*
X125762809Y-54132295D01*
X125191381Y-54208485D02*
X125153285Y-54170390D01*
X125153285Y-54170390D02*
X125077095Y-54132295D01*
X125077095Y-54132295D02*
X124886619Y-54132295D01*
X124886619Y-54132295D02*
X124810428Y-54170390D01*
X124810428Y-54170390D02*
X124772333Y-54208485D01*
X124772333Y-54208485D02*
X124734238Y-54284676D01*
X124734238Y-54284676D02*
X124734238Y-54360866D01*
X124734238Y-54360866D02*
X124772333Y-54475152D01*
X124772333Y-54475152D02*
X125229476Y-54932295D01*
X125229476Y-54932295D02*
X124734238Y-54932295D01*
X124429476Y-54208485D02*
X124391380Y-54170390D01*
X124391380Y-54170390D02*
X124315190Y-54132295D01*
X124315190Y-54132295D02*
X124124714Y-54132295D01*
X124124714Y-54132295D02*
X124048523Y-54170390D01*
X124048523Y-54170390D02*
X124010428Y-54208485D01*
X124010428Y-54208485D02*
X123972333Y-54284676D01*
X123972333Y-54284676D02*
X123972333Y-54360866D01*
X123972333Y-54360866D02*
X124010428Y-54475152D01*
X124010428Y-54475152D02*
X124467571Y-54932295D01*
X124467571Y-54932295D02*
X123972333Y-54932295D01*
X136837190Y-51562295D02*
X136761000Y-51562295D01*
X136761000Y-51562295D02*
X136684809Y-51600390D01*
X136684809Y-51600390D02*
X136646714Y-51638485D01*
X136646714Y-51638485D02*
X136608619Y-51714676D01*
X136608619Y-51714676D02*
X136570524Y-51867057D01*
X136570524Y-51867057D02*
X136570524Y-52057533D01*
X136570524Y-52057533D02*
X136608619Y-52209914D01*
X136608619Y-52209914D02*
X136646714Y-52286104D01*
X136646714Y-52286104D02*
X136684809Y-52324200D01*
X136684809Y-52324200D02*
X136761000Y-52362295D01*
X136761000Y-52362295D02*
X136837190Y-52362295D01*
X136837190Y-52362295D02*
X136913381Y-52324200D01*
X136913381Y-52324200D02*
X136951476Y-52286104D01*
X136951476Y-52286104D02*
X136989571Y-52209914D01*
X136989571Y-52209914D02*
X137027667Y-52057533D01*
X137027667Y-52057533D02*
X137027667Y-51867057D01*
X137027667Y-51867057D02*
X136989571Y-51714676D01*
X136989571Y-51714676D02*
X136951476Y-51638485D01*
X136951476Y-51638485D02*
X136913381Y-51600390D01*
X136913381Y-51600390D02*
X136837190Y-51562295D01*
X136265762Y-51638485D02*
X136227666Y-51600390D01*
X136227666Y-51600390D02*
X136151476Y-51562295D01*
X136151476Y-51562295D02*
X135961000Y-51562295D01*
X135961000Y-51562295D02*
X135884809Y-51600390D01*
X135884809Y-51600390D02*
X135846714Y-51638485D01*
X135846714Y-51638485D02*
X135808619Y-51714676D01*
X135808619Y-51714676D02*
X135808619Y-51790866D01*
X135808619Y-51790866D02*
X135846714Y-51905152D01*
X135846714Y-51905152D02*
X136303857Y-52362295D01*
X136303857Y-52362295D02*
X135808619Y-52362295D01*
X135427666Y-52362295D02*
X135275285Y-52362295D01*
X135275285Y-52362295D02*
X135199095Y-52324200D01*
X135199095Y-52324200D02*
X135160999Y-52286104D01*
X135160999Y-52286104D02*
X135084809Y-52171819D01*
X135084809Y-52171819D02*
X135046714Y-52019438D01*
X135046714Y-52019438D02*
X135046714Y-51714676D01*
X135046714Y-51714676D02*
X135084809Y-51638485D01*
X135084809Y-51638485D02*
X135122904Y-51600390D01*
X135122904Y-51600390D02*
X135199095Y-51562295D01*
X135199095Y-51562295D02*
X135351476Y-51562295D01*
X135351476Y-51562295D02*
X135427666Y-51600390D01*
X135427666Y-51600390D02*
X135465761Y-51638485D01*
X135465761Y-51638485D02*
X135503857Y-51714676D01*
X135503857Y-51714676D02*
X135503857Y-51905152D01*
X135503857Y-51905152D02*
X135465761Y-51981342D01*
X135465761Y-51981342D02*
X135427666Y-52019438D01*
X135427666Y-52019438D02*
X135351476Y-52057533D01*
X135351476Y-52057533D02*
X135199095Y-52057533D01*
X135199095Y-52057533D02*
X135122904Y-52019438D01*
X135122904Y-52019438D02*
X135084809Y-51981342D01*
X135084809Y-51981342D02*
X135046714Y-51905152D01*
X136837190Y-64262295D02*
X136761000Y-64262295D01*
X136761000Y-64262295D02*
X136684809Y-64300390D01*
X136684809Y-64300390D02*
X136646714Y-64338485D01*
X136646714Y-64338485D02*
X136608619Y-64414676D01*
X136608619Y-64414676D02*
X136570524Y-64567057D01*
X136570524Y-64567057D02*
X136570524Y-64757533D01*
X136570524Y-64757533D02*
X136608619Y-64909914D01*
X136608619Y-64909914D02*
X136646714Y-64986104D01*
X136646714Y-64986104D02*
X136684809Y-65024200D01*
X136684809Y-65024200D02*
X136761000Y-65062295D01*
X136761000Y-65062295D02*
X136837190Y-65062295D01*
X136837190Y-65062295D02*
X136913381Y-65024200D01*
X136913381Y-65024200D02*
X136951476Y-64986104D01*
X136951476Y-64986104D02*
X136989571Y-64909914D01*
X136989571Y-64909914D02*
X137027667Y-64757533D01*
X137027667Y-64757533D02*
X137027667Y-64567057D01*
X137027667Y-64567057D02*
X136989571Y-64414676D01*
X136989571Y-64414676D02*
X136951476Y-64338485D01*
X136951476Y-64338485D02*
X136913381Y-64300390D01*
X136913381Y-64300390D02*
X136837190Y-64262295D01*
X135808619Y-65062295D02*
X136265762Y-65062295D01*
X136037190Y-65062295D02*
X136037190Y-64262295D01*
X136037190Y-64262295D02*
X136113381Y-64376580D01*
X136113381Y-64376580D02*
X136189571Y-64452771D01*
X136189571Y-64452771D02*
X136265762Y-64490866D01*
X135313380Y-64262295D02*
X135237190Y-64262295D01*
X135237190Y-64262295D02*
X135160999Y-64300390D01*
X135160999Y-64300390D02*
X135122904Y-64338485D01*
X135122904Y-64338485D02*
X135084809Y-64414676D01*
X135084809Y-64414676D02*
X135046714Y-64567057D01*
X135046714Y-64567057D02*
X135046714Y-64757533D01*
X135046714Y-64757533D02*
X135084809Y-64909914D01*
X135084809Y-64909914D02*
X135122904Y-64986104D01*
X135122904Y-64986104D02*
X135160999Y-65024200D01*
X135160999Y-65024200D02*
X135237190Y-65062295D01*
X135237190Y-65062295D02*
X135313380Y-65062295D01*
X135313380Y-65062295D02*
X135389571Y-65024200D01*
X135389571Y-65024200D02*
X135427666Y-64986104D01*
X135427666Y-64986104D02*
X135465761Y-64909914D01*
X135465761Y-64909914D02*
X135503857Y-64757533D01*
X135503857Y-64757533D02*
X135503857Y-64567057D01*
X135503857Y-64567057D02*
X135465761Y-64414676D01*
X135465761Y-64414676D02*
X135427666Y-64338485D01*
X135427666Y-64338485D02*
X135389571Y-64300390D01*
X135389571Y-64300390D02*
X135313380Y-64262295D01*
X125648523Y-46520390D02*
X125724713Y-46482295D01*
X125724713Y-46482295D02*
X125838999Y-46482295D01*
X125838999Y-46482295D02*
X125953285Y-46520390D01*
X125953285Y-46520390D02*
X126029475Y-46596580D01*
X126029475Y-46596580D02*
X126067570Y-46672771D01*
X126067570Y-46672771D02*
X126105666Y-46825152D01*
X126105666Y-46825152D02*
X126105666Y-46939438D01*
X126105666Y-46939438D02*
X126067570Y-47091819D01*
X126067570Y-47091819D02*
X126029475Y-47168009D01*
X126029475Y-47168009D02*
X125953285Y-47244200D01*
X125953285Y-47244200D02*
X125838999Y-47282295D01*
X125838999Y-47282295D02*
X125762808Y-47282295D01*
X125762808Y-47282295D02*
X125648523Y-47244200D01*
X125648523Y-47244200D02*
X125610427Y-47206104D01*
X125610427Y-47206104D02*
X125610427Y-46939438D01*
X125610427Y-46939438D02*
X125762808Y-46939438D01*
X125267570Y-47282295D02*
X125267570Y-46482295D01*
X125267570Y-46482295D02*
X124810427Y-47282295D01*
X124810427Y-47282295D02*
X124810427Y-46482295D01*
X124429475Y-47282295D02*
X124429475Y-46482295D01*
X124429475Y-46482295D02*
X124238999Y-46482295D01*
X124238999Y-46482295D02*
X124124713Y-46520390D01*
X124124713Y-46520390D02*
X124048523Y-46596580D01*
X124048523Y-46596580D02*
X124010428Y-46672771D01*
X124010428Y-46672771D02*
X123972332Y-46825152D01*
X123972332Y-46825152D02*
X123972332Y-46939438D01*
X123972332Y-46939438D02*
X124010428Y-47091819D01*
X124010428Y-47091819D02*
X124048523Y-47168009D01*
X124048523Y-47168009D02*
X124124713Y-47244200D01*
X124124713Y-47244200D02*
X124238999Y-47282295D01*
X124238999Y-47282295D02*
X124429475Y-47282295D01*
X125496143Y-59982295D02*
X125953286Y-59982295D01*
X125724714Y-59982295D02*
X125724714Y-59182295D01*
X125724714Y-59182295D02*
X125800905Y-59296580D01*
X125800905Y-59296580D02*
X125877095Y-59372771D01*
X125877095Y-59372771D02*
X125953286Y-59410866D01*
X125000904Y-59182295D02*
X124924714Y-59182295D01*
X124924714Y-59182295D02*
X124848523Y-59220390D01*
X124848523Y-59220390D02*
X124810428Y-59258485D01*
X124810428Y-59258485D02*
X124772333Y-59334676D01*
X124772333Y-59334676D02*
X124734238Y-59487057D01*
X124734238Y-59487057D02*
X124734238Y-59677533D01*
X124734238Y-59677533D02*
X124772333Y-59829914D01*
X124772333Y-59829914D02*
X124810428Y-59906104D01*
X124810428Y-59906104D02*
X124848523Y-59944200D01*
X124848523Y-59944200D02*
X124924714Y-59982295D01*
X124924714Y-59982295D02*
X125000904Y-59982295D01*
X125000904Y-59982295D02*
X125077095Y-59944200D01*
X125077095Y-59944200D02*
X125115190Y-59906104D01*
X125115190Y-59906104D02*
X125153285Y-59829914D01*
X125153285Y-59829914D02*
X125191381Y-59677533D01*
X125191381Y-59677533D02*
X125191381Y-59487057D01*
X125191381Y-59487057D02*
X125153285Y-59334676D01*
X125153285Y-59334676D02*
X125115190Y-59258485D01*
X125115190Y-59258485D02*
X125077095Y-59220390D01*
X125077095Y-59220390D02*
X125000904Y-59182295D01*
X124238999Y-59182295D02*
X124162809Y-59182295D01*
X124162809Y-59182295D02*
X124086618Y-59220390D01*
X124086618Y-59220390D02*
X124048523Y-59258485D01*
X124048523Y-59258485D02*
X124010428Y-59334676D01*
X124010428Y-59334676D02*
X123972333Y-59487057D01*
X123972333Y-59487057D02*
X123972333Y-59677533D01*
X123972333Y-59677533D02*
X124010428Y-59829914D01*
X124010428Y-59829914D02*
X124048523Y-59906104D01*
X124048523Y-59906104D02*
X124086618Y-59944200D01*
X124086618Y-59944200D02*
X124162809Y-59982295D01*
X124162809Y-59982295D02*
X124238999Y-59982295D01*
X124238999Y-59982295D02*
X124315190Y-59944200D01*
X124315190Y-59944200D02*
X124353285Y-59906104D01*
X124353285Y-59906104D02*
X124391380Y-59829914D01*
X124391380Y-59829914D02*
X124429476Y-59677533D01*
X124429476Y-59677533D02*
X124429476Y-59487057D01*
X124429476Y-59487057D02*
X124391380Y-59334676D01*
X124391380Y-59334676D02*
X124353285Y-59258485D01*
X124353285Y-59258485D02*
X124315190Y-59220390D01*
X124315190Y-59220390D02*
X124238999Y-59182295D01*
X136837190Y-49022295D02*
X136761000Y-49022295D01*
X136761000Y-49022295D02*
X136684809Y-49060390D01*
X136684809Y-49060390D02*
X136646714Y-49098485D01*
X136646714Y-49098485D02*
X136608619Y-49174676D01*
X136608619Y-49174676D02*
X136570524Y-49327057D01*
X136570524Y-49327057D02*
X136570524Y-49517533D01*
X136570524Y-49517533D02*
X136608619Y-49669914D01*
X136608619Y-49669914D02*
X136646714Y-49746104D01*
X136646714Y-49746104D02*
X136684809Y-49784200D01*
X136684809Y-49784200D02*
X136761000Y-49822295D01*
X136761000Y-49822295D02*
X136837190Y-49822295D01*
X136837190Y-49822295D02*
X136913381Y-49784200D01*
X136913381Y-49784200D02*
X136951476Y-49746104D01*
X136951476Y-49746104D02*
X136989571Y-49669914D01*
X136989571Y-49669914D02*
X137027667Y-49517533D01*
X137027667Y-49517533D02*
X137027667Y-49327057D01*
X137027667Y-49327057D02*
X136989571Y-49174676D01*
X136989571Y-49174676D02*
X136951476Y-49098485D01*
X136951476Y-49098485D02*
X136913381Y-49060390D01*
X136913381Y-49060390D02*
X136837190Y-49022295D01*
X136303857Y-49022295D02*
X135808619Y-49022295D01*
X135808619Y-49022295D02*
X136075285Y-49327057D01*
X136075285Y-49327057D02*
X135961000Y-49327057D01*
X135961000Y-49327057D02*
X135884809Y-49365152D01*
X135884809Y-49365152D02*
X135846714Y-49403247D01*
X135846714Y-49403247D02*
X135808619Y-49479438D01*
X135808619Y-49479438D02*
X135808619Y-49669914D01*
X135808619Y-49669914D02*
X135846714Y-49746104D01*
X135846714Y-49746104D02*
X135884809Y-49784200D01*
X135884809Y-49784200D02*
X135961000Y-49822295D01*
X135961000Y-49822295D02*
X136189571Y-49822295D01*
X136189571Y-49822295D02*
X136265762Y-49784200D01*
X136265762Y-49784200D02*
X136303857Y-49746104D01*
X135046714Y-49822295D02*
X135503857Y-49822295D01*
X135275285Y-49822295D02*
X135275285Y-49022295D01*
X135275285Y-49022295D02*
X135351476Y-49136580D01*
X135351476Y-49136580D02*
X135427666Y-49212771D01*
X135427666Y-49212771D02*
X135503857Y-49250866D01*
X136526095Y-39662295D02*
X136792762Y-39281342D01*
X136983238Y-39662295D02*
X136983238Y-38862295D01*
X136983238Y-38862295D02*
X136678476Y-38862295D01*
X136678476Y-38862295D02*
X136602286Y-38900390D01*
X136602286Y-38900390D02*
X136564191Y-38938485D01*
X136564191Y-38938485D02*
X136526095Y-39014676D01*
X136526095Y-39014676D02*
X136526095Y-39128961D01*
X136526095Y-39128961D02*
X136564191Y-39205152D01*
X136564191Y-39205152D02*
X136602286Y-39243247D01*
X136602286Y-39243247D02*
X136678476Y-39281342D01*
X136678476Y-39281342D02*
X136983238Y-39281342D01*
X136221334Y-39433723D02*
X135840381Y-39433723D01*
X136297524Y-39662295D02*
X136030857Y-38862295D01*
X136030857Y-38862295D02*
X135764191Y-39662295D01*
X135573715Y-38862295D02*
X135383239Y-39662295D01*
X135383239Y-39662295D02*
X135230858Y-39090866D01*
X135230858Y-39090866D02*
X135078477Y-39662295D01*
X135078477Y-39662295D02*
X134888001Y-38862295D01*
X136526094Y-44742295D02*
X136792761Y-44361342D01*
X136983237Y-44742295D02*
X136983237Y-43942295D01*
X136983237Y-43942295D02*
X136678475Y-43942295D01*
X136678475Y-43942295D02*
X136602285Y-43980390D01*
X136602285Y-43980390D02*
X136564190Y-44018485D01*
X136564190Y-44018485D02*
X136526094Y-44094676D01*
X136526094Y-44094676D02*
X136526094Y-44208961D01*
X136526094Y-44208961D02*
X136564190Y-44285152D01*
X136564190Y-44285152D02*
X136602285Y-44323247D01*
X136602285Y-44323247D02*
X136678475Y-44361342D01*
X136678475Y-44361342D02*
X136983237Y-44361342D01*
X136221333Y-44704200D02*
X136107047Y-44742295D01*
X136107047Y-44742295D02*
X135916571Y-44742295D01*
X135916571Y-44742295D02*
X135840380Y-44704200D01*
X135840380Y-44704200D02*
X135802285Y-44666104D01*
X135802285Y-44666104D02*
X135764190Y-44589914D01*
X135764190Y-44589914D02*
X135764190Y-44513723D01*
X135764190Y-44513723D02*
X135802285Y-44437533D01*
X135802285Y-44437533D02*
X135840380Y-44399438D01*
X135840380Y-44399438D02*
X135916571Y-44361342D01*
X135916571Y-44361342D02*
X136068952Y-44323247D01*
X136068952Y-44323247D02*
X136145142Y-44285152D01*
X136145142Y-44285152D02*
X136183237Y-44247057D01*
X136183237Y-44247057D02*
X136221333Y-44170866D01*
X136221333Y-44170866D02*
X136221333Y-44094676D01*
X136221333Y-44094676D02*
X136183237Y-44018485D01*
X136183237Y-44018485D02*
X136145142Y-43980390D01*
X136145142Y-43980390D02*
X136068952Y-43942295D01*
X136068952Y-43942295D02*
X135878475Y-43942295D01*
X135878475Y-43942295D02*
X135764190Y-43980390D01*
X135535618Y-43942295D02*
X135078475Y-43942295D01*
X135307047Y-44742295D02*
X135307047Y-43942295D01*
X137103857Y-46482295D02*
X136837190Y-47282295D01*
X136837190Y-47282295D02*
X136570524Y-46482295D01*
X135846714Y-47206104D02*
X135884810Y-47244200D01*
X135884810Y-47244200D02*
X135999095Y-47282295D01*
X135999095Y-47282295D02*
X136075286Y-47282295D01*
X136075286Y-47282295D02*
X136189572Y-47244200D01*
X136189572Y-47244200D02*
X136265762Y-47168009D01*
X136265762Y-47168009D02*
X136303857Y-47091819D01*
X136303857Y-47091819D02*
X136341953Y-46939438D01*
X136341953Y-46939438D02*
X136341953Y-46825152D01*
X136341953Y-46825152D02*
X136303857Y-46672771D01*
X136303857Y-46672771D02*
X136265762Y-46596580D01*
X136265762Y-46596580D02*
X136189572Y-46520390D01*
X136189572Y-46520390D02*
X136075286Y-46482295D01*
X136075286Y-46482295D02*
X135999095Y-46482295D01*
X135999095Y-46482295D02*
X135884810Y-46520390D01*
X135884810Y-46520390D02*
X135846714Y-46558485D01*
X135046714Y-47206104D02*
X135084810Y-47244200D01*
X135084810Y-47244200D02*
X135199095Y-47282295D01*
X135199095Y-47282295D02*
X135275286Y-47282295D01*
X135275286Y-47282295D02*
X135389572Y-47244200D01*
X135389572Y-47244200D02*
X135465762Y-47168009D01*
X135465762Y-47168009D02*
X135503857Y-47091819D01*
X135503857Y-47091819D02*
X135541953Y-46939438D01*
X135541953Y-46939438D02*
X135541953Y-46825152D01*
X135541953Y-46825152D02*
X135503857Y-46672771D01*
X135503857Y-46672771D02*
X135465762Y-46596580D01*
X135465762Y-46596580D02*
X135389572Y-46520390D01*
X135389572Y-46520390D02*
X135275286Y-46482295D01*
X135275286Y-46482295D02*
X135199095Y-46482295D01*
X135199095Y-46482295D02*
X135084810Y-46520390D01*
X135084810Y-46520390D02*
X135046714Y-46558485D01*
X136570524Y-62522295D02*
X137027667Y-62522295D01*
X136799095Y-62522295D02*
X136799095Y-61722295D01*
X136799095Y-61722295D02*
X136875286Y-61836580D01*
X136875286Y-61836580D02*
X136951476Y-61912771D01*
X136951476Y-61912771D02*
X137027667Y-61950866D01*
X135808619Y-62522295D02*
X136265762Y-62522295D01*
X136037190Y-62522295D02*
X136037190Y-61722295D01*
X136037190Y-61722295D02*
X136113381Y-61836580D01*
X136113381Y-61836580D02*
X136189571Y-61912771D01*
X136189571Y-61912771D02*
X136265762Y-61950866D01*
X135046714Y-62522295D02*
X135503857Y-62522295D01*
X135275285Y-62522295D02*
X135275285Y-61722295D01*
X135275285Y-61722295D02*
X135351476Y-61836580D01*
X135351476Y-61836580D02*
X135427666Y-61912771D01*
X135427666Y-61912771D02*
X135503857Y-61950866D01*
X136570524Y-59982295D02*
X137027667Y-59982295D01*
X136799095Y-59982295D02*
X136799095Y-59182295D01*
X136799095Y-59182295D02*
X136875286Y-59296580D01*
X136875286Y-59296580D02*
X136951476Y-59372771D01*
X136951476Y-59372771D02*
X137027667Y-59410866D01*
X135808619Y-59982295D02*
X136265762Y-59982295D01*
X136037190Y-59982295D02*
X136037190Y-59182295D01*
X136037190Y-59182295D02*
X136113381Y-59296580D01*
X136113381Y-59296580D02*
X136189571Y-59372771D01*
X136189571Y-59372771D02*
X136265762Y-59410866D01*
X135541952Y-59182295D02*
X135046714Y-59182295D01*
X135046714Y-59182295D02*
X135313380Y-59487057D01*
X135313380Y-59487057D02*
X135199095Y-59487057D01*
X135199095Y-59487057D02*
X135122904Y-59525152D01*
X135122904Y-59525152D02*
X135084809Y-59563247D01*
X135084809Y-59563247D02*
X135046714Y-59639438D01*
X135046714Y-59639438D02*
X135046714Y-59829914D01*
X135046714Y-59829914D02*
X135084809Y-59906104D01*
X135084809Y-59906104D02*
X135122904Y-59944200D01*
X135122904Y-59944200D02*
X135199095Y-59982295D01*
X135199095Y-59982295D02*
X135427666Y-59982295D01*
X135427666Y-59982295D02*
X135503857Y-59944200D01*
X135503857Y-59944200D02*
X135541952Y-59906104D01*
X125762809Y-41332295D02*
X125686619Y-41332295D01*
X125686619Y-41332295D02*
X125610428Y-41370390D01*
X125610428Y-41370390D02*
X125572333Y-41408485D01*
X125572333Y-41408485D02*
X125534238Y-41484676D01*
X125534238Y-41484676D02*
X125496143Y-41637057D01*
X125496143Y-41637057D02*
X125496143Y-41827533D01*
X125496143Y-41827533D02*
X125534238Y-41979914D01*
X125534238Y-41979914D02*
X125572333Y-42056104D01*
X125572333Y-42056104D02*
X125610428Y-42094200D01*
X125610428Y-42094200D02*
X125686619Y-42132295D01*
X125686619Y-42132295D02*
X125762809Y-42132295D01*
X125762809Y-42132295D02*
X125839000Y-42094200D01*
X125839000Y-42094200D02*
X125877095Y-42056104D01*
X125877095Y-42056104D02*
X125915190Y-41979914D01*
X125915190Y-41979914D02*
X125953286Y-41827533D01*
X125953286Y-41827533D02*
X125953286Y-41637057D01*
X125953286Y-41637057D02*
X125915190Y-41484676D01*
X125915190Y-41484676D02*
X125877095Y-41408485D01*
X125877095Y-41408485D02*
X125839000Y-41370390D01*
X125839000Y-41370390D02*
X125762809Y-41332295D01*
X125000904Y-41332295D02*
X124924714Y-41332295D01*
X124924714Y-41332295D02*
X124848523Y-41370390D01*
X124848523Y-41370390D02*
X124810428Y-41408485D01*
X124810428Y-41408485D02*
X124772333Y-41484676D01*
X124772333Y-41484676D02*
X124734238Y-41637057D01*
X124734238Y-41637057D02*
X124734238Y-41827533D01*
X124734238Y-41827533D02*
X124772333Y-41979914D01*
X124772333Y-41979914D02*
X124810428Y-42056104D01*
X124810428Y-42056104D02*
X124848523Y-42094200D01*
X124848523Y-42094200D02*
X124924714Y-42132295D01*
X124924714Y-42132295D02*
X125000904Y-42132295D01*
X125000904Y-42132295D02*
X125077095Y-42094200D01*
X125077095Y-42094200D02*
X125115190Y-42056104D01*
X125115190Y-42056104D02*
X125153285Y-41979914D01*
X125153285Y-41979914D02*
X125191381Y-41827533D01*
X125191381Y-41827533D02*
X125191381Y-41637057D01*
X125191381Y-41637057D02*
X125153285Y-41484676D01*
X125153285Y-41484676D02*
X125115190Y-41408485D01*
X125115190Y-41408485D02*
X125077095Y-41370390D01*
X125077095Y-41370390D02*
X125000904Y-41332295D01*
X124277095Y-41675152D02*
X124353285Y-41637057D01*
X124353285Y-41637057D02*
X124391380Y-41598961D01*
X124391380Y-41598961D02*
X124429476Y-41522771D01*
X124429476Y-41522771D02*
X124429476Y-41484676D01*
X124429476Y-41484676D02*
X124391380Y-41408485D01*
X124391380Y-41408485D02*
X124353285Y-41370390D01*
X124353285Y-41370390D02*
X124277095Y-41332295D01*
X124277095Y-41332295D02*
X124124714Y-41332295D01*
X124124714Y-41332295D02*
X124048523Y-41370390D01*
X124048523Y-41370390D02*
X124010428Y-41408485D01*
X124010428Y-41408485D02*
X123972333Y-41484676D01*
X123972333Y-41484676D02*
X123972333Y-41522771D01*
X123972333Y-41522771D02*
X124010428Y-41598961D01*
X124010428Y-41598961D02*
X124048523Y-41637057D01*
X124048523Y-41637057D02*
X124124714Y-41675152D01*
X124124714Y-41675152D02*
X124277095Y-41675152D01*
X124277095Y-41675152D02*
X124353285Y-41713247D01*
X124353285Y-41713247D02*
X124391380Y-41751342D01*
X124391380Y-41751342D02*
X124429476Y-41827533D01*
X124429476Y-41827533D02*
X124429476Y-41979914D01*
X124429476Y-41979914D02*
X124391380Y-42056104D01*
X124391380Y-42056104D02*
X124353285Y-42094200D01*
X124353285Y-42094200D02*
X124277095Y-42132295D01*
X124277095Y-42132295D02*
X124124714Y-42132295D01*
X124124714Y-42132295D02*
X124048523Y-42094200D01*
X124048523Y-42094200D02*
X124010428Y-42056104D01*
X124010428Y-42056104D02*
X123972333Y-41979914D01*
X123972333Y-41979914D02*
X123972333Y-41827533D01*
X123972333Y-41827533D02*
X124010428Y-41751342D01*
X124010428Y-41751342D02*
X124048523Y-41713247D01*
X124048523Y-41713247D02*
X124124714Y-41675152D01*
X136570524Y-57442295D02*
X137027667Y-57442295D01*
X136799095Y-57442295D02*
X136799095Y-56642295D01*
X136799095Y-56642295D02*
X136875286Y-56756580D01*
X136875286Y-56756580D02*
X136951476Y-56832771D01*
X136951476Y-56832771D02*
X137027667Y-56870866D01*
X135808619Y-57442295D02*
X136265762Y-57442295D01*
X136037190Y-57442295D02*
X136037190Y-56642295D01*
X136037190Y-56642295D02*
X136113381Y-56756580D01*
X136113381Y-56756580D02*
X136189571Y-56832771D01*
X136189571Y-56832771D02*
X136265762Y-56870866D01*
X135084809Y-56642295D02*
X135465761Y-56642295D01*
X135465761Y-56642295D02*
X135503857Y-57023247D01*
X135503857Y-57023247D02*
X135465761Y-56985152D01*
X135465761Y-56985152D02*
X135389571Y-56947057D01*
X135389571Y-56947057D02*
X135199095Y-56947057D01*
X135199095Y-56947057D02*
X135122904Y-56985152D01*
X135122904Y-56985152D02*
X135084809Y-57023247D01*
X135084809Y-57023247D02*
X135046714Y-57099438D01*
X135046714Y-57099438D02*
X135046714Y-57289914D01*
X135046714Y-57289914D02*
X135084809Y-57366104D01*
X135084809Y-57366104D02*
X135122904Y-57404200D01*
X135122904Y-57404200D02*
X135199095Y-57442295D01*
X135199095Y-57442295D02*
X135389571Y-57442295D01*
X135389571Y-57442295D02*
X135465761Y-57404200D01*
X135465761Y-57404200D02*
X135503857Y-57366104D01*
X125762809Y-56642295D02*
X125686619Y-56642295D01*
X125686619Y-56642295D02*
X125610428Y-56680390D01*
X125610428Y-56680390D02*
X125572333Y-56718485D01*
X125572333Y-56718485D02*
X125534238Y-56794676D01*
X125534238Y-56794676D02*
X125496143Y-56947057D01*
X125496143Y-56947057D02*
X125496143Y-57137533D01*
X125496143Y-57137533D02*
X125534238Y-57289914D01*
X125534238Y-57289914D02*
X125572333Y-57366104D01*
X125572333Y-57366104D02*
X125610428Y-57404200D01*
X125610428Y-57404200D02*
X125686619Y-57442295D01*
X125686619Y-57442295D02*
X125762809Y-57442295D01*
X125762809Y-57442295D02*
X125839000Y-57404200D01*
X125839000Y-57404200D02*
X125877095Y-57366104D01*
X125877095Y-57366104D02*
X125915190Y-57289914D01*
X125915190Y-57289914D02*
X125953286Y-57137533D01*
X125953286Y-57137533D02*
X125953286Y-56947057D01*
X125953286Y-56947057D02*
X125915190Y-56794676D01*
X125915190Y-56794676D02*
X125877095Y-56718485D01*
X125877095Y-56718485D02*
X125839000Y-56680390D01*
X125839000Y-56680390D02*
X125762809Y-56642295D01*
X125191381Y-56718485D02*
X125153285Y-56680390D01*
X125153285Y-56680390D02*
X125077095Y-56642295D01*
X125077095Y-56642295D02*
X124886619Y-56642295D01*
X124886619Y-56642295D02*
X124810428Y-56680390D01*
X124810428Y-56680390D02*
X124772333Y-56718485D01*
X124772333Y-56718485D02*
X124734238Y-56794676D01*
X124734238Y-56794676D02*
X124734238Y-56870866D01*
X124734238Y-56870866D02*
X124772333Y-56985152D01*
X124772333Y-56985152D02*
X125229476Y-57442295D01*
X125229476Y-57442295D02*
X124734238Y-57442295D01*
X124048523Y-56908961D02*
X124048523Y-57442295D01*
X124238999Y-56604200D02*
X124429476Y-57175628D01*
X124429476Y-57175628D02*
X123934237Y-57175628D01*
D11*
%TO.C,D84*%
X350123401Y-65786115D02*
X350723401Y-66186115D01*
X350123401Y-66186115D02*
X349623401Y-66186115D01*
X350123401Y-66586115D02*
X350123401Y-65786115D01*
X350723401Y-66186115D02*
X350123401Y-66586115D01*
X350723401Y-66186115D02*
X350723401Y-65636115D01*
X350723401Y-66186115D02*
X350723401Y-66736115D01*
X351123401Y-66186115D02*
X350723401Y-66186115D01*
%TO.C,D36*%
X214123401Y-84786115D02*
X214723401Y-85186115D01*
X214123401Y-85186115D02*
X213623401Y-85186115D01*
X214123401Y-85586115D02*
X214123401Y-84786115D01*
X214723401Y-85186115D02*
X214123401Y-85586115D01*
X214723401Y-85186115D02*
X214723401Y-84636115D01*
X214723401Y-85186115D02*
X214723401Y-85736115D01*
X215123401Y-85186115D02*
X214723401Y-85186115D01*
%TO.C,D45*%
X271123401Y-141786115D02*
X271723401Y-142186115D01*
X271123401Y-142186115D02*
X270623401Y-142186115D01*
X271123401Y-142586115D02*
X271123401Y-141786115D01*
X271723401Y-142186115D02*
X271123401Y-142586115D01*
X271723401Y-142186115D02*
X271723401Y-141636115D01*
X271723401Y-142186115D02*
X271723401Y-142736115D01*
X272123401Y-142186115D02*
X271723401Y-142186115D01*
%TO.C,D32*%
X195123401Y-84786115D02*
X195723401Y-85186115D01*
X195123401Y-85186115D02*
X194623401Y-85186115D01*
X195123401Y-85586115D02*
X195123401Y-84786115D01*
X195723401Y-85186115D02*
X195123401Y-85586115D01*
X195723401Y-85186115D02*
X195723401Y-84636115D01*
X195723401Y-85186115D02*
X195723401Y-85736115D01*
X196123401Y-85186115D02*
X195723401Y-85186115D01*
%TO.C,D75*%
X312123401Y-65786115D02*
X312723401Y-66186115D01*
X312123401Y-66186115D02*
X311623401Y-66186115D01*
X312123401Y-66586115D02*
X312123401Y-65786115D01*
X312723401Y-66186115D02*
X312123401Y-66586115D01*
X312723401Y-66186115D02*
X312723401Y-65636115D01*
X312723401Y-66186115D02*
X312723401Y-66736115D01*
X313123401Y-66186115D02*
X312723401Y-66186115D01*
%TO.C,D66*%
X195123401Y-60786115D02*
X195723401Y-61186115D01*
X195123401Y-61186115D02*
X194623401Y-61186115D01*
X195123401Y-61586115D02*
X195123401Y-60786115D01*
X195723401Y-61186115D02*
X195123401Y-61586115D01*
X195723401Y-61186115D02*
X195723401Y-60636115D01*
X195723401Y-61186115D02*
X195723401Y-61736115D01*
X196123401Y-61186115D02*
X195723401Y-61186115D01*
%TO.C,D74*%
X312123401Y-84786115D02*
X312723401Y-85186115D01*
X312123401Y-85186115D02*
X311623401Y-85186115D01*
X312123401Y-85586115D02*
X312123401Y-84786115D01*
X312723401Y-85186115D02*
X312123401Y-85586115D01*
X312723401Y-85186115D02*
X312723401Y-84636115D01*
X312723401Y-85186115D02*
X312723401Y-85736115D01*
X313123401Y-85186115D02*
X312723401Y-85186115D01*
%TO.C,D52*%
X290123401Y-84786115D02*
X290723401Y-85186115D01*
X290123401Y-85186115D02*
X289623401Y-85186115D01*
X290123401Y-85586115D02*
X290123401Y-84786115D01*
X290723401Y-85186115D02*
X290123401Y-85586115D01*
X290723401Y-85186115D02*
X290723401Y-84636115D01*
X290723401Y-85186115D02*
X290723401Y-85736115D01*
X291123401Y-85186115D02*
X290723401Y-85186115D01*
%TO.C,D87*%
X208123401Y-162786115D02*
X208723401Y-163186115D01*
X208123401Y-163186115D02*
X207623401Y-163186115D01*
X208123401Y-163586115D02*
X208123401Y-162786115D01*
X208723401Y-163186115D02*
X208123401Y-163586115D01*
X208723401Y-163186115D02*
X208723401Y-162636115D01*
X208723401Y-163186115D02*
X208723401Y-163736115D01*
X209123401Y-163186115D02*
X208723401Y-163186115D01*
%TO.C,D30*%
X195123401Y-122786115D02*
X195723401Y-123186115D01*
X195123401Y-123186115D02*
X194623401Y-123186115D01*
X195123401Y-123586115D02*
X195123401Y-122786115D01*
X195723401Y-123186115D02*
X195123401Y-123586115D01*
X195723401Y-123186115D02*
X195723401Y-122636115D01*
X195723401Y-123186115D02*
X195723401Y-123736115D01*
X196123401Y-123186115D02*
X195723401Y-123186115D01*
%TO.C,D50*%
X290123401Y-122786115D02*
X290723401Y-123186115D01*
X290123401Y-123186115D02*
X289623401Y-123186115D01*
X290123401Y-123586115D02*
X290123401Y-122786115D01*
X290723401Y-123186115D02*
X290123401Y-123586115D01*
X290723401Y-123186115D02*
X290723401Y-122636115D01*
X290723401Y-123186115D02*
X290723401Y-123736115D01*
X291123401Y-123186115D02*
X290723401Y-123186115D01*
%TO.C,D39*%
X233123401Y-103786115D02*
X233723401Y-104186115D01*
X233123401Y-104186115D02*
X232623401Y-104186115D01*
X233123401Y-104586115D02*
X233123401Y-103786115D01*
X233723401Y-104186115D02*
X233123401Y-104586115D01*
X233723401Y-104186115D02*
X233723401Y-103636115D01*
X233723401Y-104186115D02*
X233723401Y-104736115D01*
X234123401Y-104186115D02*
X233723401Y-104186115D01*
%TO.C,D34*%
X214123401Y-122786115D02*
X214723401Y-123186115D01*
X214123401Y-123186115D02*
X213623401Y-123186115D01*
X214123401Y-123586115D02*
X214123401Y-122786115D01*
X214723401Y-123186115D02*
X214123401Y-123586115D01*
X214723401Y-123186115D02*
X214723401Y-122636115D01*
X214723401Y-123186115D02*
X214723401Y-123736115D01*
X215123401Y-123186115D02*
X214723401Y-123186115D01*
%TO.C,D28*%
X176123401Y-84786115D02*
X176723401Y-85186115D01*
X176123401Y-85186115D02*
X175623401Y-85186115D01*
X176123401Y-85586115D02*
X176123401Y-84786115D01*
X176723401Y-85186115D02*
X176123401Y-85586115D01*
X176723401Y-85186115D02*
X176723401Y-84636115D01*
X176723401Y-85186115D02*
X176723401Y-85736115D01*
X177123401Y-85186115D02*
X176723401Y-85186115D01*
%TO.C,D41*%
X252123401Y-141786115D02*
X252723401Y-142186115D01*
X252123401Y-142186115D02*
X251623401Y-142186115D01*
X252123401Y-142586115D02*
X252123401Y-141786115D01*
X252723401Y-142186115D02*
X252123401Y-142586115D01*
X252723401Y-142186115D02*
X252723401Y-141636115D01*
X252723401Y-142186115D02*
X252723401Y-142736115D01*
X253123401Y-142186115D02*
X252723401Y-142186115D01*
%TO.C,D76*%
X331123401Y-160786115D02*
X331723401Y-161186115D01*
X331123401Y-161186115D02*
X330623401Y-161186115D01*
X331123401Y-161586115D02*
X331123401Y-160786115D01*
X331723401Y-161186115D02*
X331123401Y-161586115D01*
X331723401Y-161186115D02*
X331723401Y-160636115D01*
X331723401Y-161186115D02*
X331723401Y-161736115D01*
X332123401Y-161186115D02*
X331723401Y-161186115D01*
%TO.C,D27*%
X176123401Y-103786115D02*
X176723401Y-104186115D01*
X176123401Y-104186115D02*
X175623401Y-104186115D01*
X176123401Y-104586115D02*
X176123401Y-103786115D01*
X176723401Y-104186115D02*
X176123401Y-104586115D01*
X176723401Y-104186115D02*
X176723401Y-103636115D01*
X176723401Y-104186115D02*
X176723401Y-104736115D01*
X177123401Y-104186115D02*
X176723401Y-104186115D01*
%TO.C,D49*%
X290123401Y-141786115D02*
X290723401Y-142186115D01*
X290123401Y-142186115D02*
X289623401Y-142186115D01*
X290123401Y-142586115D02*
X290123401Y-141786115D01*
X290723401Y-142186115D02*
X290123401Y-142586115D01*
X290723401Y-142186115D02*
X290723401Y-141636115D01*
X290723401Y-142186115D02*
X290723401Y-142736115D01*
X291123401Y-142186115D02*
X290723401Y-142186115D01*
%TO.C,D68*%
X233123401Y-60786115D02*
X233723401Y-61186115D01*
X233123401Y-61186115D02*
X232623401Y-61186115D01*
X233123401Y-61586115D02*
X233123401Y-60786115D01*
X233723401Y-61186115D02*
X233123401Y-61586115D01*
X233723401Y-61186115D02*
X233723401Y-60636115D01*
X233723401Y-61186115D02*
X233723401Y-61736115D01*
X234123401Y-61186115D02*
X233723401Y-61186115D01*
%TO.C,D37*%
X233123401Y-141786115D02*
X233723401Y-142186115D01*
X233123401Y-142186115D02*
X232623401Y-142186115D01*
X233123401Y-142586115D02*
X233123401Y-141786115D01*
X233723401Y-142186115D02*
X233123401Y-142586115D01*
X233723401Y-142186115D02*
X233723401Y-141636115D01*
X233723401Y-142186115D02*
X233723401Y-142736115D01*
X234123401Y-142186115D02*
X233723401Y-142186115D01*
%TO.C,D40*%
X233123401Y-84786115D02*
X233723401Y-85186115D01*
X233123401Y-85186115D02*
X232623401Y-85186115D01*
X233123401Y-85586115D02*
X233123401Y-84786115D01*
X233723401Y-85186115D02*
X233123401Y-85586115D01*
X233723401Y-85186115D02*
X233723401Y-84636115D01*
X233723401Y-85186115D02*
X233723401Y-85736115D01*
X234123401Y-85186115D02*
X233723401Y-85186115D01*
%TO.C,D35*%
X214123401Y-103786115D02*
X214723401Y-104186115D01*
X214123401Y-104186115D02*
X213623401Y-104186115D01*
X214123401Y-104586115D02*
X214123401Y-103786115D01*
X214723401Y-104186115D02*
X214123401Y-104586115D01*
X214723401Y-104186115D02*
X214723401Y-103636115D01*
X214723401Y-104186115D02*
X214723401Y-104736115D01*
X215123401Y-104186115D02*
X214723401Y-104186115D01*
%TO.C,D48*%
X271123401Y-84786115D02*
X271723401Y-85186115D01*
X271123401Y-85186115D02*
X270623401Y-85186115D01*
X271123401Y-85586115D02*
X271123401Y-84786115D01*
X271723401Y-85186115D02*
X271123401Y-85586115D01*
X271723401Y-85186115D02*
X271723401Y-84636115D01*
X271723401Y-85186115D02*
X271723401Y-85736115D01*
X272123401Y-85186115D02*
X271723401Y-85186115D01*
%TO.C,D71*%
X290123401Y-60786115D02*
X290723401Y-61186115D01*
X290123401Y-61186115D02*
X289623401Y-61186115D01*
X290123401Y-61586115D02*
X290123401Y-60786115D01*
X290723401Y-61186115D02*
X290123401Y-61586115D01*
X290723401Y-61186115D02*
X290723401Y-60636115D01*
X290723401Y-61186115D02*
X290723401Y-61736115D01*
X291123401Y-61186115D02*
X290723401Y-61186115D01*
%TO.C,D25*%
X176123401Y-141786115D02*
X176723401Y-142186115D01*
X176123401Y-142186115D02*
X175623401Y-142186115D01*
X176123401Y-142586115D02*
X176123401Y-141786115D01*
X176723401Y-142186115D02*
X176123401Y-142586115D01*
X176723401Y-142186115D02*
X176723401Y-141636115D01*
X176723401Y-142186115D02*
X176723401Y-142736115D01*
X177123401Y-142186115D02*
X176723401Y-142186115D01*
%TO.C,D69*%
X252123401Y-60786115D02*
X252723401Y-61186115D01*
X252123401Y-61186115D02*
X251623401Y-61186115D01*
X252123401Y-61586115D02*
X252123401Y-60786115D01*
X252723401Y-61186115D02*
X252123401Y-61586115D01*
X252723401Y-61186115D02*
X252723401Y-60636115D01*
X252723401Y-61186115D02*
X252723401Y-61736115D01*
X253123401Y-61186115D02*
X252723401Y-61186115D01*
%TO.C,D79*%
X331123401Y-84786115D02*
X331723401Y-85186115D01*
X331123401Y-85186115D02*
X330623401Y-85186115D01*
X331123401Y-85586115D02*
X331123401Y-84786115D01*
X331723401Y-85186115D02*
X331123401Y-85586115D01*
X331723401Y-85186115D02*
X331723401Y-84636115D01*
X331723401Y-85186115D02*
X331723401Y-85736115D01*
X332123401Y-85186115D02*
X331723401Y-85186115D01*
%TO.C,D73*%
X312123401Y-103786115D02*
X312723401Y-104186115D01*
X312123401Y-104186115D02*
X311623401Y-104186115D01*
X312123401Y-104586115D02*
X312123401Y-103786115D01*
X312723401Y-104186115D02*
X312123401Y-104586115D01*
X312723401Y-104186115D02*
X312723401Y-103636115D01*
X312723401Y-104186115D02*
X312723401Y-104736115D01*
X313123401Y-104186115D02*
X312723401Y-104186115D01*
%TO.C,D70*%
X271123401Y-60786115D02*
X271723401Y-61186115D01*
X271123401Y-61186115D02*
X270623401Y-61186115D01*
X271123401Y-61586115D02*
X271123401Y-60786115D01*
X271723401Y-61186115D02*
X271123401Y-61586115D01*
X271723401Y-61186115D02*
X271723401Y-60636115D01*
X271723401Y-61186115D02*
X271723401Y-61736115D01*
X272123401Y-61186115D02*
X271723401Y-61186115D01*
%TO.C,D89*%
X148361396Y-191526883D02*
X149081011Y-191573293D01*
X148561396Y-191873293D02*
X148128383Y-192123293D01*
X148761396Y-192219703D02*
X148361396Y-191526883D01*
X149081011Y-191573293D02*
X148761396Y-192219703D01*
X149081011Y-191573293D02*
X148806011Y-191096979D01*
X149081011Y-191573293D02*
X149356011Y-192049607D01*
X149427421Y-191373293D02*
X149081011Y-191573293D01*
%TO.C,D78*%
X331123401Y-103786115D02*
X331723401Y-104186115D01*
X331123401Y-104186115D02*
X330623401Y-104186115D01*
X331123401Y-104586115D02*
X331123401Y-103786115D01*
X331723401Y-104186115D02*
X331123401Y-104586115D01*
X331723401Y-104186115D02*
X331723401Y-103636115D01*
X331723401Y-104186115D02*
X331723401Y-104736115D01*
X332123401Y-104186115D02*
X331723401Y-104186115D01*
%TO.C,D31*%
X195123401Y-103786115D02*
X195723401Y-104186115D01*
X195123401Y-104186115D02*
X194623401Y-104186115D01*
X195123401Y-104586115D02*
X195123401Y-103786115D01*
X195723401Y-104186115D02*
X195123401Y-104586115D01*
X195723401Y-104186115D02*
X195723401Y-103636115D01*
X195723401Y-104186115D02*
X195723401Y-104736115D01*
X196123401Y-104186115D02*
X195723401Y-104186115D01*
%TO.C,D26*%
X176123401Y-122786115D02*
X176723401Y-123186115D01*
X176123401Y-123186115D02*
X175623401Y-123186115D01*
X176123401Y-123586115D02*
X176123401Y-122786115D01*
X176723401Y-123186115D02*
X176123401Y-123586115D01*
X176723401Y-123186115D02*
X176723401Y-122636115D01*
X176723401Y-123186115D02*
X176723401Y-123736115D01*
X177123401Y-123186115D02*
X176723401Y-123186115D01*
%TO.C,D80*%
X331123401Y-65786115D02*
X331723401Y-66186115D01*
X331123401Y-66186115D02*
X330623401Y-66186115D01*
X331123401Y-66586115D02*
X331123401Y-65786115D01*
X331723401Y-66186115D02*
X331123401Y-66586115D01*
X331723401Y-66186115D02*
X331723401Y-65636115D01*
X331723401Y-66186115D02*
X331723401Y-66736115D01*
X332123401Y-66186115D02*
X331723401Y-66186115D01*
%TO.C,D65*%
X176123401Y-60786115D02*
X176723401Y-61186115D01*
X176123401Y-61186115D02*
X175623401Y-61186115D01*
X176123401Y-61586115D02*
X176123401Y-60786115D01*
X176723401Y-61186115D02*
X176123401Y-61586115D01*
X176723401Y-61186115D02*
X176723401Y-60636115D01*
X176723401Y-61186115D02*
X176723401Y-61736115D01*
X177123401Y-61186115D02*
X176723401Y-61186115D01*
%TO.C,D86*%
X238123401Y-162786115D02*
X238723401Y-163186115D01*
X238123401Y-163186115D02*
X237623401Y-163186115D01*
X238123401Y-163586115D02*
X238123401Y-162786115D01*
X238723401Y-163186115D02*
X238123401Y-163586115D01*
X238723401Y-163186115D02*
X238723401Y-162636115D01*
X238723401Y-163186115D02*
X238723401Y-163736115D01*
X239123401Y-163186115D02*
X238723401Y-163186115D01*
%TO.C,D29*%
X195123401Y-141786115D02*
X195723401Y-142186115D01*
X195123401Y-142186115D02*
X194623401Y-142186115D01*
X195123401Y-142586115D02*
X195123401Y-141786115D01*
X195723401Y-142186115D02*
X195123401Y-142586115D01*
X195723401Y-142186115D02*
X195723401Y-141636115D01*
X195723401Y-142186115D02*
X195723401Y-142736115D01*
X196123401Y-142186115D02*
X195723401Y-142186115D01*
%TO.C,D42*%
X252123401Y-122786115D02*
X252723401Y-123186115D01*
X252123401Y-123186115D02*
X251623401Y-123186115D01*
X252123401Y-123586115D02*
X252123401Y-122786115D01*
X252723401Y-123186115D02*
X252123401Y-123586115D01*
X252723401Y-123186115D02*
X252723401Y-122636115D01*
X252723401Y-123186115D02*
X252723401Y-123736115D01*
X253123401Y-123186115D02*
X252723401Y-123186115D01*
%TO.C,D33*%
X214123401Y-141786115D02*
X214723401Y-142186115D01*
X214123401Y-142186115D02*
X213623401Y-142186115D01*
X214123401Y-142586115D02*
X214123401Y-141786115D01*
X214723401Y-142186115D02*
X214123401Y-142586115D01*
X214723401Y-142186115D02*
X214723401Y-141636115D01*
X214723401Y-142186115D02*
X214723401Y-142736115D01*
X215123401Y-142186115D02*
X214723401Y-142186115D01*
%TO.C,D82*%
X350123401Y-103786115D02*
X350723401Y-104186115D01*
X350123401Y-104186115D02*
X349623401Y-104186115D01*
X350123401Y-104586115D02*
X350123401Y-103786115D01*
X350723401Y-104186115D02*
X350123401Y-104586115D01*
X350723401Y-104186115D02*
X350723401Y-103636115D01*
X350723401Y-104186115D02*
X350723401Y-104736115D01*
X351123401Y-104186115D02*
X350723401Y-104186115D01*
%TO.C,D46*%
X271123401Y-122786115D02*
X271723401Y-123186115D01*
X271123401Y-123186115D02*
X270623401Y-123186115D01*
X271123401Y-123586115D02*
X271123401Y-122786115D01*
X271723401Y-123186115D02*
X271123401Y-123586115D01*
X271723401Y-123186115D02*
X271723401Y-122636115D01*
X271723401Y-123186115D02*
X271723401Y-123736115D01*
X272123401Y-123186115D02*
X271723401Y-123186115D01*
%TO.C,D44*%
X252123401Y-84786115D02*
X252723401Y-85186115D01*
X252123401Y-85186115D02*
X251623401Y-85186115D01*
X252123401Y-85586115D02*
X252123401Y-84786115D01*
X252723401Y-85186115D02*
X252123401Y-85586115D01*
X252723401Y-85186115D02*
X252723401Y-84636115D01*
X252723401Y-85186115D02*
X252723401Y-85736115D01*
X253123401Y-85186115D02*
X252723401Y-85186115D01*
%TO.C,D51*%
X290123401Y-103786115D02*
X290723401Y-104186115D01*
X290123401Y-104186115D02*
X289623401Y-104186115D01*
X290123401Y-104586115D02*
X290123401Y-103786115D01*
X290723401Y-104186115D02*
X290123401Y-104586115D01*
X290723401Y-104186115D02*
X290723401Y-103636115D01*
X290723401Y-104186115D02*
X290723401Y-104736115D01*
X291123401Y-104186115D02*
X290723401Y-104186115D01*
%TO.C,D85*%
X268123401Y-162786115D02*
X268723401Y-163186115D01*
X268123401Y-163186115D02*
X267623401Y-163186115D01*
X268123401Y-163586115D02*
X268123401Y-162786115D01*
X268723401Y-163186115D02*
X268123401Y-163586115D01*
X268723401Y-163186115D02*
X268723401Y-162636115D01*
X268723401Y-163186115D02*
X268723401Y-163736115D01*
X269123401Y-163186115D02*
X268723401Y-163186115D01*
%TO.C,D43*%
X252123401Y-103786115D02*
X252723401Y-104186115D01*
X252123401Y-104186115D02*
X251623401Y-104186115D01*
X252123401Y-104586115D02*
X252123401Y-103786115D01*
X252723401Y-104186115D02*
X252123401Y-104586115D01*
X252723401Y-104186115D02*
X252723401Y-103636115D01*
X252723401Y-104186115D02*
X252723401Y-104736115D01*
X253123401Y-104186115D02*
X252723401Y-104186115D01*
D12*
%TO.C,MCU1*%
X121610000Y-35490000D02*
X121610000Y-68510000D01*
X121610000Y-68510000D02*
X139390000Y-68510000D01*
X139390000Y-35490000D02*
X121610000Y-35490000D01*
X139390000Y-68510000D02*
X139390000Y-35490000D01*
D11*
%TO.C,D72*%
X312123401Y-160786115D02*
X312723401Y-161186115D01*
X312123401Y-161186115D02*
X311623401Y-161186115D01*
X312123401Y-161586115D02*
X312123401Y-160786115D01*
X312723401Y-161186115D02*
X312123401Y-161586115D01*
X312723401Y-161186115D02*
X312723401Y-160636115D01*
X312723401Y-161186115D02*
X312723401Y-161736115D01*
X313123401Y-161186115D02*
X312723401Y-161186115D01*
%TO.C,D47*%
X271123401Y-103786115D02*
X271723401Y-104186115D01*
X271123401Y-104186115D02*
X270623401Y-104186115D01*
X271123401Y-104586115D02*
X271123401Y-103786115D01*
X271723401Y-104186115D02*
X271123401Y-104586115D01*
X271723401Y-104186115D02*
X271723401Y-103636115D01*
X271723401Y-104186115D02*
X271723401Y-104736115D01*
X272123401Y-104186115D02*
X271723401Y-104186115D01*
%TO.C,D90*%
X122380634Y-206526883D02*
X123100249Y-206573293D01*
X122580634Y-206873293D02*
X122147621Y-207123293D01*
X122780634Y-207219703D02*
X122380634Y-206526883D01*
X123100249Y-206573293D02*
X122780634Y-207219703D01*
X123100249Y-206573293D02*
X122825249Y-206096979D01*
X123100249Y-206573293D02*
X123375249Y-207049607D01*
X123446659Y-206373293D02*
X123100249Y-206573293D01*
%TO.C,D38*%
X233123401Y-122786115D02*
X233723401Y-123186115D01*
X233123401Y-123186115D02*
X232623401Y-123186115D01*
X233123401Y-123586115D02*
X233123401Y-122786115D01*
X233723401Y-123186115D02*
X233123401Y-123586115D01*
X233723401Y-123186115D02*
X233723401Y-122636115D01*
X233723401Y-123186115D02*
X233723401Y-123736115D01*
X234123401Y-123186115D02*
X233723401Y-123186115D01*
%TO.C,D81*%
X350123401Y-160786115D02*
X350723401Y-161186115D01*
X350123401Y-161186115D02*
X349623401Y-161186115D01*
X350123401Y-161586115D02*
X350123401Y-160786115D01*
X350723401Y-161186115D02*
X350123401Y-161586115D01*
X350723401Y-161186115D02*
X350723401Y-160636115D01*
X350723401Y-161186115D02*
X350723401Y-161736115D01*
X351123401Y-161186115D02*
X350723401Y-161186115D01*
%TO.C,D67*%
X214123401Y-60786115D02*
X214723401Y-61186115D01*
X214123401Y-61186115D02*
X213623401Y-61186115D01*
X214123401Y-61586115D02*
X214123401Y-60786115D01*
X214723401Y-61186115D02*
X214123401Y-61586115D01*
X214723401Y-61186115D02*
X214723401Y-60636115D01*
X214723401Y-61186115D02*
X214723401Y-61736115D01*
X215123401Y-61186115D02*
X214723401Y-61186115D01*
%TO.C,D77*%
X331123401Y-141786115D02*
X331723401Y-142186115D01*
X331123401Y-142186115D02*
X330623401Y-142186115D01*
X331123401Y-142586115D02*
X331123401Y-141786115D01*
X331723401Y-142186115D02*
X331123401Y-142586115D01*
X331723401Y-142186115D02*
X331723401Y-141636115D01*
X331723401Y-142186115D02*
X331723401Y-142736115D01*
X332123401Y-142186115D02*
X331723401Y-142186115D01*
%TO.C,D88*%
X167123401Y-162786115D02*
X167723401Y-163186115D01*
X167123401Y-163186115D02*
X166623401Y-163186115D01*
X167123401Y-163586115D02*
X167123401Y-162786115D01*
X167723401Y-163186115D02*
X167123401Y-163586115D01*
X167723401Y-163186115D02*
X167723401Y-162636115D01*
X167723401Y-163186115D02*
X167723401Y-163736115D01*
X168123401Y-163186115D02*
X167723401Y-163186115D01*
%TO.C,D83*%
X350123401Y-84786115D02*
X350723401Y-85186115D01*
X350123401Y-85186115D02*
X349623401Y-85186115D01*
X350123401Y-85586115D02*
X350123401Y-84786115D01*
X350723401Y-85186115D02*
X350123401Y-85586115D01*
X350723401Y-85186115D02*
X350723401Y-84636115D01*
X350723401Y-85186115D02*
X350723401Y-85736115D01*
X351123401Y-85186115D02*
X350723401Y-85186115D01*
%TD*%
D13*
%TO.C,MCU1*%
X122880000Y-39300000D03*
X122880000Y-41840000D03*
X122880000Y-44380000D03*
X122880000Y-46920000D03*
X122880000Y-49460000D03*
X122880000Y-52000000D03*
X122880000Y-54540000D03*
X122880000Y-57080000D03*
X122880000Y-59620000D03*
X122880000Y-62160000D03*
X122880000Y-64700000D03*
X122880000Y-67240000D03*
X138120000Y-67240000D03*
X138120000Y-64700000D03*
X138120000Y-62160000D03*
X138120000Y-59620000D03*
X138120000Y-57080000D03*
X138120000Y-54540000D03*
X138120000Y-52000000D03*
X138120000Y-49460000D03*
X138120000Y-46920000D03*
X138120000Y-44380000D03*
X138120000Y-41840000D03*
X138120000Y-39300000D03*
%TD*%
M02*
