%TF.GenerationSoftware,KiCad,Pcbnew,8.0.5*%
%TF.CreationDate,2024-10-17T20:52:03+02:00*%
%TF.ProjectId,backup right,6261636b-7570-4207-9269-6768742e6b69,v1.0.0*%
%TF.SameCoordinates,Original*%
%TF.FileFunction,Copper,L2,Bot*%
%TF.FilePolarity,Positive*%
%FSLAX46Y46*%
G04 Gerber Fmt 4.6, Leading zero omitted, Abs format (unit mm)*
G04 Created by KiCad (PCBNEW 8.0.5) date 2024-10-17 20:52:03*
%MOMM*%
%LPD*%
G01*
G04 APERTURE LIST*
G04 Aperture macros list*
%AMRotRect*
0 Rectangle, with rotation*
0 The origin of the aperture is its center*
0 $1 length*
0 $2 width*
0 $3 Rotation angle, in degrees counterclockwise*
0 Add horizontal line*
21,1,$1,$2,0,0,$3*%
G04 Aperture macros list end*
%TA.AperFunction,ComponentPad*%
%ADD10C,3.800000*%
%TD*%
%TA.AperFunction,ComponentPad*%
%ADD11C,2.286000*%
%TD*%
%TA.AperFunction,ComponentPad*%
%ADD12R,1.778000X1.778000*%
%TD*%
%TA.AperFunction,SMDPad,CuDef*%
%ADD13R,0.900000X1.200000*%
%TD*%
%TA.AperFunction,ComponentPad*%
%ADD14C,1.905000*%
%TD*%
%TA.AperFunction,ComponentPad*%
%ADD15RotRect,1.778000X1.778000X210.000000*%
%TD*%
%TA.AperFunction,SMDPad,CuDef*%
%ADD16RotRect,0.900000X1.200000X210.000000*%
%TD*%
%TA.AperFunction,ComponentPad*%
%ADD17C,1.752600*%
%TD*%
%TA.AperFunction,WasherPad*%
%ADD18C,1.000000*%
%TD*%
%TA.AperFunction,ViaPad*%
%ADD19C,0.600000*%
%TD*%
%TA.AperFunction,ViaPad*%
%ADD20C,0.800000*%
%TD*%
%TA.AperFunction,Conductor*%
%ADD21C,0.350000*%
%TD*%
G04 APERTURE END LIST*
D10*
%TO.P,REF\u002A\u002A,1*%
%TO.N,GND*%
X258400000Y-40100000D03*
%TD*%
%TO.P,REF\u002A\u002A,1*%
%TO.N,GND*%
X359900000Y-40600000D03*
%TD*%
%TO.P,REF\u002A\u002A,1*%
%TO.N,GND*%
X360000000Y-169900000D03*
%TD*%
%TO.P,REF\u002A\u002A,1*%
%TO.N,GND*%
X258100000Y-157200000D03*
%TD*%
%TO.P,REF\u002A\u002A,1*%
%TO.N,GND*%
X107400000Y-49700000D03*
%TD*%
%TO.P,REF\u002A\u002A,1*%
%TO.N,GND*%
X104100000Y-208900000D03*
%TD*%
D11*
%TO.P,S31,1*%
%TO.N,P008*%
X193913401Y-92106115D03*
%TO.P,S31,2*%
%TO.N,ujmcol_yuirow*%
X187563401Y-94646115D03*
%TD*%
D12*
%TO.P,D84,1*%
%TO.N,P031*%
X354183401Y-66186115D03*
D13*
X352023401Y-66186115D03*
%TO.P,D84,2*%
%TO.N,right_macro*%
X348723401Y-66186115D03*
D14*
X346563401Y-66186115D03*
%TD*%
D12*
%TO.P,D36,1*%
%TO.N,P029*%
X218183401Y-85186115D03*
D13*
X216023401Y-85186115D03*
%TO.P,D36,2*%
%TO.N,ikcol_numberrow*%
X212723401Y-85186115D03*
D14*
X210563401Y-85186115D03*
%TD*%
D11*
%TO.P,S73,1*%
%TO.N,P011*%
X310913401Y-92106115D03*
%TO.P,S73,2*%
%TO.N,left_del*%
X304563401Y-94646115D03*
%TD*%
D12*
%TO.P,D45,1*%
%TO.N,P113*%
X275183401Y-142186115D03*
D13*
X273023401Y-142186115D03*
%TO.P,D45,2*%
%TO.N,minuscol_nmrow*%
X269723401Y-142186115D03*
D14*
X267563401Y-142186115D03*
%TD*%
D11*
%TO.P,,1*%
%TO.N,GND*%
X136400000Y-109200000D03*
%TD*%
D12*
%TO.P,D32,1*%
%TO.N,P029*%
X199183401Y-85186115D03*
D13*
X197023401Y-85186115D03*
%TO.P,D32,2*%
%TO.N,ujmcol_numberrow*%
X193723401Y-85186115D03*
D14*
X191563401Y-85186115D03*
%TD*%
D11*
%TO.P,S66,1*%
%TO.N,P008*%
X193913401Y-49106115D03*
%TO.P,S66,2*%
%TO.N,f7_one*%
X187563401Y-51646115D03*
%TD*%
D12*
%TO.P,D75,1*%
%TO.N,P031*%
X316183401Y-66186115D03*
D13*
X314023401Y-66186115D03*
%TO.P,D75,2*%
%TO.N,left_macro*%
X310723401Y-66186115D03*
D14*
X308563401Y-66186115D03*
%TD*%
D11*
%TO.P,S39,1*%
%TO.N,P020*%
X231913401Y-92106115D03*
%TO.P,S39,2*%
%TO.N,olcol_yuirow*%
X225563401Y-94646115D03*
%TD*%
%TO.P,S65,1*%
%TO.N,P006*%
X174913401Y-49106115D03*
%TO.P,S65,2*%
%TO.N,f6_one*%
X168563401Y-51646115D03*
%TD*%
D12*
%TO.P,D66,1*%
%TO.N,P031*%
X199183401Y-61186115D03*
D13*
X197023401Y-61186115D03*
%TO.P,D66,2*%
%TO.N,f7_one*%
X193723401Y-61186115D03*
D14*
X191563401Y-61186115D03*
%TD*%
D11*
%TO.P,S27,1*%
%TO.N,P006*%
X174913401Y-92106115D03*
%TO.P,S27,2*%
%TO.N,yhncol_yuirow*%
X168563401Y-94646115D03*
%TD*%
D12*
%TO.P,D74,1*%
%TO.N,P029*%
X316183401Y-85186115D03*
D13*
X314023401Y-85186115D03*
%TO.P,D74,2*%
%TO.N,left_ins*%
X310723401Y-85186115D03*
D14*
X308563401Y-85186115D03*
%TD*%
D11*
%TO.P,S29,1*%
%TO.N,P008*%
X193913401Y-130106115D03*
%TO.P,S29,2*%
%TO.N,ujmcol_nmrow*%
X187563401Y-132646115D03*
%TD*%
D12*
%TO.P,D52,1*%
%TO.N,P029*%
X294183401Y-85186115D03*
D13*
X292023401Y-85186115D03*
%TO.P,D52,2*%
%TO.N,pluscol_numberrow*%
X288723401Y-85186115D03*
D14*
X286563401Y-85186115D03*
%TD*%
D11*
%TO.P,S75,1*%
%TO.N,P011*%
X310913401Y-54106115D03*
%TO.P,S75,2*%
%TO.N,left_macro*%
X304563401Y-56646115D03*
%TD*%
%TO.P,S36,1*%
%TO.N,P017*%
X212913401Y-73106115D03*
%TO.P,S36,2*%
%TO.N,ikcol_numberrow*%
X206563401Y-75646115D03*
%TD*%
%TO.P,S47,1*%
%TO.N,P024*%
X269913401Y-92106115D03*
%TO.P,S47,2*%
%TO.N,minuscol_yuirow*%
X263563401Y-94646115D03*
%TD*%
D12*
%TO.P,D87,1*%
%TO.N,P111*%
X212183401Y-163186115D03*
D13*
X210023401Y-163186115D03*
%TO.P,D87,2*%
%TO.N,mirror_alt_thumbrow*%
X206723401Y-163186115D03*
D14*
X204563401Y-163186115D03*
%TD*%
D11*
%TO.P,S81,1*%
%TO.N,P106*%
X348913401Y-149106115D03*
%TO.P,S81,2*%
%TO.N,right_down*%
X342563401Y-151646115D03*
%TD*%
D12*
%TO.P,D30,1*%
%TO.N,P115*%
X199183401Y-123186115D03*
D13*
X197023401Y-123186115D03*
%TO.P,D30,2*%
%TO.N,ujmcol_hjkrow*%
X193723401Y-123186115D03*
D14*
X191563401Y-123186115D03*
%TD*%
D11*
%TO.P,S25,1*%
%TO.N,P006*%
X174913401Y-130106115D03*
%TO.P,S25,2*%
%TO.N,yhncol_nmrow*%
X168563401Y-132646115D03*
%TD*%
D12*
%TO.P,D50,1*%
%TO.N,P115*%
X294183401Y-123186115D03*
D13*
X292023401Y-123186115D03*
%TO.P,D50,2*%
%TO.N,pluscol_hjkrow*%
X288723401Y-123186115D03*
D14*
X286563401Y-123186115D03*
%TD*%
D12*
%TO.P,D39,1*%
%TO.N,P002*%
X237183401Y-104186115D03*
D13*
X235023401Y-104186115D03*
%TO.P,D39,2*%
%TO.N,olcol_yuirow*%
X231723401Y-104186115D03*
D14*
X229563401Y-104186115D03*
%TD*%
D11*
%TO.P,S43,1*%
%TO.N,P022*%
X250913401Y-92106115D03*
%TO.P,S43,2*%
%TO.N,pcol_yuirow*%
X244563401Y-94646115D03*
%TD*%
D12*
%TO.P,D34,1*%
%TO.N,P115*%
X218183401Y-123186115D03*
D13*
X216023401Y-123186115D03*
%TO.P,D34,2*%
%TO.N,ikcol_hjkrow*%
X212723401Y-123186115D03*
D14*
X210563401Y-123186115D03*
%TD*%
D11*
%TO.P,S30,1*%
%TO.N,P008*%
X193913401Y-111106115D03*
%TO.P,S30,2*%
%TO.N,ujmcol_hjkrow*%
X187563401Y-113646115D03*
%TD*%
D12*
%TO.P,D28,1*%
%TO.N,P029*%
X180183401Y-85186115D03*
D13*
X178023401Y-85186115D03*
%TO.P,D28,2*%
%TO.N,yhncol_numberrow*%
X174723401Y-85186115D03*
D14*
X172563401Y-85186115D03*
%TD*%
D12*
%TO.P,D41,1*%
%TO.N,P113*%
X256183401Y-142186115D03*
D13*
X254023401Y-142186115D03*
%TO.P,D41,2*%
%TO.N,pcol_nmrow*%
X250723401Y-142186115D03*
D14*
X248563401Y-142186115D03*
%TD*%
D12*
%TO.P,D76,1*%
%TO.N,P111*%
X335183401Y-161186115D03*
D13*
X333023401Y-161186115D03*
%TO.P,D76,2*%
%TO.N,updown_down*%
X329723401Y-161186115D03*
D14*
X327563401Y-161186115D03*
%TD*%
D11*
%TO.P,S86,1*%
%TO.N,P024*%
X244913401Y-151106115D03*
%TO.P,S86,2*%
%TO.N,mirror_winkey_thumbrow*%
X238563401Y-153646115D03*
%TD*%
D12*
%TO.P,D27,1*%
%TO.N,P002*%
X180183401Y-104186115D03*
D13*
X178023401Y-104186115D03*
%TO.P,D27,2*%
%TO.N,yhncol_yuirow*%
X174723401Y-104186115D03*
D14*
X172563401Y-104186115D03*
%TD*%
D12*
%TO.P,D49,1*%
%TO.N,P113*%
X294183401Y-142186115D03*
D13*
X292023401Y-142186115D03*
%TO.P,D49,2*%
%TO.N,pluscol_nmrow*%
X288723401Y-142186115D03*
D14*
X286563401Y-142186115D03*
%TD*%
D11*
%TO.P,S69,1*%
%TO.N,P022*%
X250913401Y-49106115D03*
%TO.P,S69,2*%
%TO.N,f10_one*%
X244563401Y-51646115D03*
%TD*%
%TO.P,S45,1*%
%TO.N,P024*%
X269913401Y-130106115D03*
%TO.P,S45,2*%
%TO.N,minuscol_nmrow*%
X263563401Y-132646115D03*
%TD*%
D12*
%TO.P,D68,1*%
%TO.N,P031*%
X237183401Y-61186115D03*
D13*
X235023401Y-61186115D03*
%TO.P,D68,2*%
%TO.N,f9_one*%
X231723401Y-61186115D03*
D14*
X229563401Y-61186115D03*
%TD*%
D11*
%TO.P,S85,1*%
%TO.N,P100*%
X274913401Y-151106115D03*
%TO.P,S85,2*%
%TO.N,mirror_ctrl_thumbrow*%
X268563401Y-153646115D03*
%TD*%
%TO.P,S40,1*%
%TO.N,P020*%
X231913401Y-73106115D03*
%TO.P,S40,2*%
%TO.N,olcol_numberrow*%
X225563401Y-75646115D03*
%TD*%
%TO.P,S88,1*%
%TO.N,P017*%
X173913401Y-151106115D03*
%TO.P,S88,2*%
%TO.N,mirror_space_thumbrow*%
X167563401Y-153646115D03*
%TD*%
D12*
%TO.P,D37,1*%
%TO.N,P113*%
X237183401Y-142186115D03*
D13*
X235023401Y-142186115D03*
%TO.P,D37,2*%
%TO.N,olcol_nmrow*%
X231723401Y-142186115D03*
D14*
X229563401Y-142186115D03*
%TD*%
D11*
%TO.P,S84,1*%
%TO.N,P106*%
X348913401Y-54106115D03*
%TO.P,S84,2*%
%TO.N,right_macro*%
X342563401Y-56646115D03*
%TD*%
D12*
%TO.P,D40,1*%
%TO.N,P029*%
X237183401Y-85186115D03*
D13*
X235023401Y-85186115D03*
%TO.P,D40,2*%
%TO.N,olcol_numberrow*%
X231723401Y-85186115D03*
D14*
X229563401Y-85186115D03*
%TD*%
D12*
%TO.P,D35,1*%
%TO.N,P002*%
X218183401Y-104186115D03*
D13*
X216023401Y-104186115D03*
%TO.P,D35,2*%
%TO.N,ikcol_yuirow*%
X212723401Y-104186115D03*
D14*
X210563401Y-104186115D03*
%TD*%
D12*
%TO.P,D48,1*%
%TO.N,P029*%
X275183401Y-85186115D03*
D13*
X273023401Y-85186115D03*
%TO.P,D48,2*%
%TO.N,minuscol_numberrow*%
X269723401Y-85186115D03*
D14*
X267563401Y-85186115D03*
%TD*%
D12*
%TO.P,D71,1*%
%TO.N,P031*%
X294183401Y-61186115D03*
D13*
X292023401Y-61186115D03*
%TO.P,D71,2*%
%TO.N,f12_one*%
X288723401Y-61186115D03*
D14*
X286563401Y-61186115D03*
%TD*%
D12*
%TO.P,D25,1*%
%TO.N,P113*%
X180183401Y-142186115D03*
D13*
X178023401Y-142186115D03*
%TO.P,D25,2*%
%TO.N,yhncol_nmrow*%
X174723401Y-142186115D03*
D14*
X172563401Y-142186115D03*
%TD*%
D12*
%TO.P,D69,1*%
%TO.N,P031*%
X256183401Y-61186115D03*
D13*
X254023401Y-61186115D03*
%TO.P,D69,2*%
%TO.N,f10_one*%
X250723401Y-61186115D03*
D14*
X248563401Y-61186115D03*
%TD*%
D12*
%TO.P,D79,1*%
%TO.N,P029*%
X335183401Y-85186115D03*
D13*
X333023401Y-85186115D03*
%TO.P,D79,2*%
%TO.N,updown_ins*%
X329723401Y-85186115D03*
D14*
X327563401Y-85186115D03*
%TD*%
D11*
%TO.P,S28,1*%
%TO.N,P006*%
X174913401Y-73106115D03*
%TO.P,S28,2*%
%TO.N,yhncol_numberrow*%
X168563401Y-75646115D03*
%TD*%
%TO.P,S74,1*%
%TO.N,P011*%
X310913401Y-73106115D03*
%TO.P,S74,2*%
%TO.N,left_ins*%
X304563401Y-75646115D03*
%TD*%
%TO.P,S35,1*%
%TO.N,P017*%
X212913401Y-92106115D03*
%TO.P,S35,2*%
%TO.N,ikcol_yuirow*%
X206563401Y-94646115D03*
%TD*%
%TO.P,S87,1*%
%TO.N,P022*%
X214913401Y-151106115D03*
%TO.P,S87,2*%
%TO.N,mirror_alt_thumbrow*%
X208563401Y-153646115D03*
%TD*%
%TO.P,S34,1*%
%TO.N,P017*%
X212913401Y-111106115D03*
%TO.P,S34,2*%
%TO.N,ikcol_hjkrow*%
X206563401Y-113646115D03*
%TD*%
%TO.P,S83,1*%
%TO.N,P106*%
X348913401Y-73106115D03*
%TO.P,S83,2*%
%TO.N,right_ins*%
X342563401Y-75646115D03*
%TD*%
%TO.P,S46,1*%
%TO.N,P024*%
X269913401Y-111106115D03*
%TO.P,S46,2*%
%TO.N,minuscol_hjkrow*%
X263563401Y-113646115D03*
%TD*%
D12*
%TO.P,D73,1*%
%TO.N,P002*%
X316183401Y-104186115D03*
D13*
X314023401Y-104186115D03*
%TO.P,D73,2*%
%TO.N,left_del*%
X310723401Y-104186115D03*
D14*
X308563401Y-104186115D03*
%TD*%
D12*
%TO.P,D70,1*%
%TO.N,P031*%
X275183401Y-61186115D03*
D13*
X273023401Y-61186115D03*
%TO.P,D70,2*%
%TO.N,f11_one*%
X269723401Y-61186115D03*
D14*
X267563401Y-61186115D03*
%TD*%
D15*
%TO.P,D89,1*%
%TO.N,P111*%
X152077459Y-189843293D03*
D16*
X150206844Y-190923293D03*
%TO.P,D89,2*%
%TO.N,mirror_ctrl2_thumbrow*%
X147348960Y-192573293D03*
D14*
X145478345Y-193653293D03*
%TD*%
D12*
%TO.P,D78,1*%
%TO.N,P002*%
X335183401Y-104186115D03*
D13*
X333023401Y-104186115D03*
%TO.P,D78,2*%
%TO.N,updown_del*%
X329723401Y-104186115D03*
D14*
X327563401Y-104186115D03*
%TD*%
D11*
%TO.P,S32,1*%
%TO.N,P008*%
X193913401Y-73106115D03*
%TO.P,S32,2*%
%TO.N,ujmcol_numberrow*%
X187563401Y-75646115D03*
%TD*%
D12*
%TO.P,D31,1*%
%TO.N,P002*%
X199183401Y-104186115D03*
D13*
X197023401Y-104186115D03*
%TO.P,D31,2*%
%TO.N,ujmcol_yuirow*%
X193723401Y-104186115D03*
D14*
X191563401Y-104186115D03*
%TD*%
D12*
%TO.P,D26,1*%
%TO.N,P115*%
X180183401Y-123186115D03*
D13*
X178023401Y-123186115D03*
%TO.P,D26,2*%
%TO.N,yhncol_hjkrow*%
X174723401Y-123186115D03*
D14*
X172563401Y-123186115D03*
%TD*%
D11*
%TO.P,S67,1*%
%TO.N,P017*%
X212913401Y-49106115D03*
%TO.P,S67,2*%
%TO.N,f8_one*%
X206563401Y-51646115D03*
%TD*%
D12*
%TO.P,D80,1*%
%TO.N,P031*%
X335183401Y-66186115D03*
D13*
X333023401Y-66186115D03*
%TO.P,D80,2*%
%TO.N,updown_macro*%
X329723401Y-66186115D03*
D14*
X327563401Y-66186115D03*
%TD*%
D11*
%TO.P,S42,1*%
%TO.N,P022*%
X250913401Y-111106115D03*
%TO.P,S42,2*%
%TO.N,pcol_hjkrow*%
X244563401Y-113646115D03*
%TD*%
D12*
%TO.P,D65,1*%
%TO.N,P031*%
X180183401Y-61186115D03*
D13*
X178023401Y-61186115D03*
%TO.P,D65,2*%
%TO.N,f6_one*%
X174723401Y-61186115D03*
D14*
X172563401Y-61186115D03*
%TD*%
D12*
%TO.P,D86,1*%
%TO.N,P111*%
X242183401Y-163186115D03*
D13*
X240023401Y-163186115D03*
%TO.P,D86,2*%
%TO.N,mirror_winkey_thumbrow*%
X236723401Y-163186115D03*
D14*
X234563401Y-163186115D03*
%TD*%
D11*
%TO.P,S37,1*%
%TO.N,P020*%
X231913401Y-130106115D03*
%TO.P,S37,2*%
%TO.N,olcol_nmrow*%
X225563401Y-132646115D03*
%TD*%
D12*
%TO.P,D29,1*%
%TO.N,P113*%
X199183401Y-142186115D03*
D13*
X197023401Y-142186115D03*
%TO.P,D29,2*%
%TO.N,ujmcol_nmrow*%
X193723401Y-142186115D03*
D14*
X191563401Y-142186115D03*
%TD*%
D12*
%TO.P,D42,1*%
%TO.N,P115*%
X256183401Y-123186115D03*
D13*
X254023401Y-123186115D03*
%TO.P,D42,2*%
%TO.N,pcol_hjkrow*%
X250723401Y-123186115D03*
D14*
X248563401Y-123186115D03*
%TD*%
D11*
%TO.P,S49,1*%
%TO.N,P100*%
X288913401Y-130106115D03*
%TO.P,S49,2*%
%TO.N,pluscol_nmrow*%
X282563401Y-132646115D03*
%TD*%
D12*
%TO.P,D33,1*%
%TO.N,P113*%
X218183401Y-142186115D03*
D13*
X216023401Y-142186115D03*
%TO.P,D33,2*%
%TO.N,ikcol_nmrow*%
X212723401Y-142186115D03*
D14*
X210563401Y-142186115D03*
%TD*%
D12*
%TO.P,D82,1*%
%TO.N,P002*%
X354183401Y-104186115D03*
D13*
X352023401Y-104186115D03*
%TO.P,D82,2*%
%TO.N,right_del*%
X348723401Y-104186115D03*
D14*
X346563401Y-104186115D03*
%TD*%
D11*
%TO.P,S48,1*%
%TO.N,P024*%
X269913401Y-73106115D03*
%TO.P,S48,2*%
%TO.N,minuscol_numberrow*%
X263563401Y-75646115D03*
%TD*%
%TO.P,S52,1*%
%TO.N,P100*%
X288913401Y-73106115D03*
%TO.P,S52,2*%
%TO.N,pluscol_numberrow*%
X282563401Y-75646115D03*
%TD*%
D12*
%TO.P,D46,1*%
%TO.N,P115*%
X275183401Y-123186115D03*
D13*
X273023401Y-123186115D03*
%TO.P,D46,2*%
%TO.N,minuscol_hjkrow*%
X269723401Y-123186115D03*
D14*
X267563401Y-123186115D03*
%TD*%
D12*
%TO.P,D44,1*%
%TO.N,P029*%
X256183401Y-85186115D03*
D13*
X254023401Y-85186115D03*
%TO.P,D44,2*%
%TO.N,pcol_numberrow*%
X250723401Y-85186115D03*
D14*
X248563401Y-85186115D03*
%TD*%
D11*
%TO.P,S51,1*%
%TO.N,P100*%
X288913401Y-92106115D03*
%TO.P,S51,2*%
%TO.N,pluscol_yuirow*%
X282563401Y-94646115D03*
%TD*%
D12*
%TO.P,D51,1*%
%TO.N,P002*%
X294183401Y-104186115D03*
D13*
X292023401Y-104186115D03*
%TO.P,D51,2*%
%TO.N,pluscol_yuirow*%
X288723401Y-104186115D03*
D14*
X286563401Y-104186115D03*
%TD*%
D11*
%TO.P,S80,1*%
%TO.N,P104*%
X329913401Y-54106115D03*
%TO.P,S80,2*%
%TO.N,updown_macro*%
X323563401Y-56646115D03*
%TD*%
D12*
%TO.P,D85,1*%
%TO.N,P111*%
X272183401Y-163186115D03*
D13*
X270023401Y-163186115D03*
%TO.P,D85,2*%
%TO.N,mirror_ctrl_thumbrow*%
X266723401Y-163186115D03*
D14*
X264563401Y-163186115D03*
%TD*%
D11*
%TO.P,S26,1*%
%TO.N,P006*%
X174913401Y-111106115D03*
%TO.P,S26,2*%
%TO.N,yhncol_hjkrow*%
X168563401Y-113646115D03*
%TD*%
D12*
%TO.P,D43,1*%
%TO.N,P002*%
X256183401Y-104186115D03*
D13*
X254023401Y-104186115D03*
%TO.P,D43,2*%
%TO.N,pcol_yuirow*%
X250723401Y-104186115D03*
D14*
X248563401Y-104186115D03*
%TD*%
D11*
%TO.P,S72,1*%
%TO.N,P011*%
X310913401Y-149106115D03*
%TO.P,S72,2*%
%TO.N,left_down*%
X304563401Y-151646115D03*
%TD*%
D17*
%TO.P,MCU1,1*%
%TO.N,P006*%
X122880000Y-39300000D03*
%TO.P,MCU1,2*%
%TO.N,P008*%
X122880000Y-41840000D03*
%TO.P,MCU1,3*%
%TO.N,GND*%
X122880000Y-44380000D03*
%TO.P,MCU1,4*%
X122880000Y-46920000D03*
%TO.P,MCU1,5*%
%TO.N,P017*%
X122880000Y-49460000D03*
%TO.P,MCU1,6*%
%TO.N,P020*%
X122880000Y-52000000D03*
%TO.P,MCU1,7*%
%TO.N,P022*%
X122880000Y-54540000D03*
%TO.P,MCU1,8*%
%TO.N,P024*%
X122880000Y-57080000D03*
%TO.P,MCU1,9*%
%TO.N,P100*%
X122880000Y-59620000D03*
%TO.P,MCU1,10*%
%TO.N,P011*%
X122880000Y-62160000D03*
%TO.P,MCU1,11*%
%TO.N,P104*%
X122880000Y-64700000D03*
%TO.P,MCU1,12*%
%TO.N,P106*%
X122880000Y-67240000D03*
%TO.P,MCU1,13*%
%TO.N,P009*%
X138120000Y-67240000D03*
%TO.P,MCU1,14*%
%TO.N,P010*%
X138120000Y-64700000D03*
%TO.P,MCU1,15*%
%TO.N,P111*%
X138120000Y-62160000D03*
%TO.P,MCU1,16*%
%TO.N,P113*%
X138120000Y-59620000D03*
%TO.P,MCU1,17*%
%TO.N,P115*%
X138120000Y-57080000D03*
%TO.P,MCU1,18*%
%TO.N,P002*%
X138120000Y-54540000D03*
%TO.P,MCU1,19*%
%TO.N,P029*%
X138120000Y-52000000D03*
%TO.P,MCU1,20*%
%TO.N,P031*%
X138120000Y-49460000D03*
%TO.P,MCU1,21*%
%TO.N,VCC*%
X138120000Y-46920000D03*
%TO.P,MCU1,22*%
%TO.N,RST*%
X138120000Y-44380000D03*
%TO.P,MCU1,23*%
%TO.N,GND*%
X138120000Y-41840000D03*
%TO.P,MCU1,24*%
%TO.N,RAW*%
X138120000Y-39300000D03*
%TD*%
D11*
%TO.P,,1*%
%TO.N,batteryPlus*%
X115700000Y-109200000D03*
%TD*%
D12*
%TO.P,D72,1*%
%TO.N,P111*%
X316183401Y-161186115D03*
D13*
X314023401Y-161186115D03*
%TO.P,D72,2*%
%TO.N,left_down*%
X310723401Y-161186115D03*
D14*
X308563401Y-161186115D03*
%TD*%
D11*
%TO.P,S76,1*%
%TO.N,P104*%
X329913401Y-149106115D03*
%TO.P,S76,2*%
%TO.N,updown_down*%
X323563401Y-151646115D03*
%TD*%
%TO.P,S41,1*%
%TO.N,P022*%
X250913401Y-130106115D03*
%TO.P,S41,2*%
%TO.N,pcol_nmrow*%
X244563401Y-132646115D03*
%TD*%
%TO.P,S33,1*%
%TO.N,P017*%
X212913401Y-130106115D03*
%TO.P,S33,2*%
%TO.N,ikcol_nmrow*%
X206563401Y-132646115D03*
%TD*%
D12*
%TO.P,D47,1*%
%TO.N,P002*%
X275183401Y-104186115D03*
D13*
X273023401Y-104186115D03*
%TO.P,D47,2*%
%TO.N,minuscol_yuirow*%
X269723401Y-104186115D03*
D14*
X267563401Y-104186115D03*
%TD*%
D15*
%TO.P,D90,1*%
%TO.N,P111*%
X126096697Y-204843293D03*
D16*
X124226082Y-205923293D03*
%TO.P,D90,2*%
%TO.N,mirror_thumbkey_thumbrow*%
X121368198Y-207573293D03*
D14*
X119497583Y-208653293D03*
%TD*%
D11*
%TO.P,S50,1*%
%TO.N,P100*%
X288913401Y-111106115D03*
%TO.P,S50,2*%
%TO.N,pluscol_hjkrow*%
X282563401Y-113646115D03*
%TD*%
%TO.P,S77,1*%
%TO.N,P104*%
X329913401Y-130106115D03*
%TO.P,S77,2*%
%TO.N,updown_up*%
X323563401Y-132646115D03*
%TD*%
D12*
%TO.P,D38,1*%
%TO.N,P115*%
X237183401Y-123186115D03*
D13*
X235023401Y-123186115D03*
%TO.P,D38,2*%
%TO.N,olcol_hjkrow*%
X231723401Y-123186115D03*
D14*
X229563401Y-123186115D03*
%TD*%
D11*
%TO.P,S70,1*%
%TO.N,P024*%
X269913401Y-49106115D03*
%TO.P,S70,2*%
%TO.N,f11_one*%
X263563401Y-51646115D03*
%TD*%
%TO.P,S90,1*%
%TO.N,P006*%
X122420947Y-193016706D03*
%TO.P,S90,2*%
%TO.N,mirror_thumbkey_thumbrow*%
X118191685Y-198391410D03*
%TD*%
%TO.P,S79,1*%
%TO.N,P104*%
X329913401Y-73106115D03*
%TO.P,S79,2*%
%TO.N,updown_ins*%
X323563401Y-75646115D03*
%TD*%
D12*
%TO.P,D81,1*%
%TO.N,P111*%
X354183401Y-161186115D03*
D13*
X352023401Y-161186115D03*
%TO.P,D81,2*%
%TO.N,right_down*%
X348723401Y-161186115D03*
D14*
X346563401Y-161186115D03*
%TD*%
D11*
%TO.P,S71,1*%
%TO.N,P100*%
X288913401Y-49106115D03*
%TO.P,S71,2*%
%TO.N,f12_one*%
X282563401Y-51646115D03*
%TD*%
%TO.P,S44,1*%
%TO.N,P022*%
X250913401Y-73106115D03*
%TO.P,S44,2*%
%TO.N,pcol_numberrow*%
X244563401Y-75646115D03*
%TD*%
%TO.P,S89,1*%
%TO.N,P008*%
X148401709Y-178016706D03*
%TO.P,S89,2*%
%TO.N,mirror_ctrl2_thumbrow*%
X144172447Y-183391410D03*
%TD*%
%TO.P,S82,1*%
%TO.N,P106*%
X348913401Y-92106115D03*
%TO.P,S82,2*%
%TO.N,right_del*%
X342563401Y-94646115D03*
%TD*%
%TO.P,S78,1*%
%TO.N,P104*%
X329913401Y-92106115D03*
%TO.P,S78,2*%
%TO.N,updown_del*%
X323563401Y-94646115D03*
%TD*%
D12*
%TO.P,D67,1*%
%TO.N,P031*%
X218183401Y-61186115D03*
D13*
X216023401Y-61186115D03*
%TO.P,D67,2*%
%TO.N,f8_one*%
X212723401Y-61186115D03*
D14*
X210563401Y-61186115D03*
%TD*%
D11*
%TO.P,S38,1*%
%TO.N,P020*%
X231913401Y-111106115D03*
%TO.P,S38,2*%
%TO.N,olcol_hjkrow*%
X225563401Y-113646115D03*
%TD*%
D12*
%TO.P,D77,1*%
%TO.N,P113*%
X335183401Y-142186115D03*
D13*
X333023401Y-142186115D03*
%TO.P,D77,2*%
%TO.N,updown_up*%
X329723401Y-142186115D03*
D14*
X327563401Y-142186115D03*
%TD*%
D12*
%TO.P,D88,1*%
%TO.N,P111*%
X171183401Y-163186115D03*
D13*
X169023401Y-163186115D03*
%TO.P,D88,2*%
%TO.N,mirror_space_thumbrow*%
X165723401Y-163186115D03*
D14*
X163563401Y-163186115D03*
%TD*%
D12*
%TO.P,D83,1*%
%TO.N,P029*%
X354183401Y-85186115D03*
D13*
X352023401Y-85186115D03*
%TO.P,D83,2*%
%TO.N,right_ins*%
X348723401Y-85186115D03*
D14*
X346563401Y-85186115D03*
%TD*%
D11*
%TO.P,S68,1*%
%TO.N,P020*%
X231913401Y-49106115D03*
%TO.P,S68,2*%
%TO.N,f9_one*%
X225563401Y-51646115D03*
%TD*%
D18*
%TO.P,T1,*%
%TO.N,*%
X100125000Y-40500000D03*
X100125000Y-43500000D03*
%TD*%
D19*
%TO.N,GND*%
X261100000Y-167400000D03*
D20*
%TO.N,P006*%
X111900000Y-68000000D03*
%TO.N,P008*%
X142600000Y-72000000D03*
X142600000Y-68200000D03*
X112700000Y-71000000D03*
%TO.N,P017*%
X141000000Y-68300000D03*
X113500000Y-73200000D03*
X141000000Y-73300000D03*
%TO.N,P020*%
X144200000Y-43700000D03*
X114500000Y-74100000D03*
X144200000Y-37800000D03*
X144200000Y-68300000D03*
X144200000Y-74100000D03*
%TO.N,P022*%
X115300000Y-75200000D03*
X145400000Y-46000000D03*
X145400000Y-75200000D03*
X145400000Y-68200000D03*
%TO.N,P024*%
X146800000Y-75400000D03*
X146800000Y-68100000D03*
X116200000Y-76300000D03*
X146700000Y-44400000D03*
%TO.N,P100*%
X116700000Y-77600000D03*
X161200000Y-76900000D03*
%TO.N,P011*%
X157500000Y-147500000D03*
X118000000Y-77800000D03*
%TO.N,P104*%
X118800000Y-79000000D03*
%TO.N,P106*%
X119700000Y-80400000D03*
%TO.N,GND*%
X109300000Y-46400000D03*
X136400000Y-81800000D03*
%TO.N,RST*%
X104500000Y-47500000D03*
%TD*%
D21*
%TO.N,GND*%
X107400000Y-49700000D02*
X109300000Y-47800000D01*
X109300000Y-47800000D02*
X109300000Y-46400000D01*
%TO.N,P100*%
X153100000Y-76900000D02*
X161200000Y-76900000D01*
X153075000Y-76925000D02*
X153100000Y-76900000D01*
X117375000Y-76925000D02*
X153075000Y-76925000D01*
X116700000Y-77600000D02*
X117375000Y-76925000D01*
%TO.N,P024*%
X116300000Y-76200000D02*
X116200000Y-76300000D01*
X146000000Y-76200000D02*
X116300000Y-76200000D01*
X146800000Y-75400000D02*
X146000000Y-76200000D01*
%TO.N,P006*%
X162900000Y-68900000D02*
X162900000Y-51300000D01*
X165093885Y-49106115D02*
X174913401Y-49106115D01*
X113100000Y-70000000D02*
X161700000Y-70000000D01*
X162800000Y-68900000D02*
X162900000Y-68900000D01*
X111900000Y-68800000D02*
X113100000Y-70000000D01*
X161700000Y-70000000D02*
X162800000Y-68900000D01*
X111900000Y-68000000D02*
X111900000Y-68800000D01*
X162900000Y-51300000D02*
X165093885Y-49106115D01*
%TO.N,GND*%
X136400000Y-159000000D02*
X136400000Y-109200000D01*
X104100000Y-191300000D02*
X136400000Y-159000000D01*
X104100000Y-208900000D02*
X104100000Y-191300000D01*
X258100000Y-164400000D02*
X258100000Y-157200000D01*
X261100000Y-167400000D02*
X258100000Y-164400000D01*
X360000000Y-40900000D02*
X360000000Y-169900000D01*
X360300000Y-40600000D02*
X360000000Y-40900000D01*
X359900000Y-40600000D02*
X360300000Y-40600000D01*
%TO.N,RST*%
X140000000Y-38200000D02*
X140000000Y-42500000D01*
X106600000Y-36900000D02*
X138700000Y-36900000D01*
X140000000Y-42500000D02*
X138120000Y-44380000D01*
X105600000Y-37900000D02*
X106600000Y-36900000D01*
X104500000Y-47500000D02*
X105600000Y-46400000D01*
X105600000Y-46400000D02*
X105600000Y-37900000D01*
X138700000Y-36900000D02*
X140000000Y-38200000D01*
%TO.N,P008*%
X113700000Y-72000000D02*
X112700000Y-71000000D01*
X142600000Y-72000000D02*
X113700000Y-72000000D01*
%TO.N,P104*%
X337500000Y-156692714D02*
X329913401Y-149106115D01*
X337500000Y-162500000D02*
X337500000Y-156692714D01*
X335200000Y-164800000D02*
X337500000Y-162500000D01*
X268500000Y-168500000D02*
X272200000Y-164800000D01*
X180900000Y-168500000D02*
X268500000Y-168500000D01*
X136500000Y-212900000D02*
X180900000Y-168500000D01*
X112500000Y-212900000D02*
X136500000Y-212900000D01*
X272200000Y-164800000D02*
X335200000Y-164800000D01*
X152000000Y-79000000D02*
X152700000Y-79700000D01*
X109300000Y-189600000D02*
X109300000Y-209700000D01*
X152700000Y-79700000D02*
X152700000Y-146200000D01*
X109300000Y-209700000D02*
X112500000Y-212900000D01*
X152700000Y-146200000D02*
X109300000Y-189600000D01*
X118800000Y-79000000D02*
X152000000Y-79000000D01*
%TO.N,P106*%
X352206115Y-149106115D02*
X348913401Y-149106115D01*
X357400000Y-154300000D02*
X352206115Y-149106115D01*
X357400000Y-164900000D02*
X357400000Y-154300000D01*
X355800000Y-166500000D02*
X357400000Y-164900000D01*
X272400000Y-166500000D02*
X355800000Y-166500000D01*
X138000000Y-213600000D02*
X181700000Y-169900000D01*
X108700000Y-188800000D02*
X108700000Y-212836396D01*
X181700000Y-169900000D02*
X269000000Y-169900000D01*
X108700000Y-212836396D02*
X109463604Y-213600000D01*
X151700000Y-81300000D02*
X151700000Y-145800000D01*
X109463604Y-213600000D02*
X138000000Y-213600000D01*
X151700000Y-145800000D02*
X108700000Y-188800000D01*
X150700000Y-80300000D02*
X151700000Y-81300000D01*
X119800000Y-80300000D02*
X150700000Y-80300000D01*
X119700000Y-80400000D02*
X119800000Y-80300000D01*
X269000000Y-169900000D02*
X272400000Y-166500000D01*
%TO.N,P011*%
X153500000Y-143500000D02*
X157500000Y-147500000D01*
X153500000Y-78600000D02*
X153500000Y-143500000D01*
X152800000Y-77900000D02*
X153500000Y-78600000D01*
X118000000Y-77800000D02*
X118100000Y-77900000D01*
X118100000Y-77900000D02*
X152800000Y-77900000D01*
%TO.N,P017*%
X140900000Y-68200000D02*
X141000000Y-68300000D01*
X140900000Y-40300000D02*
X140900000Y-68200000D01*
X142100000Y-39100000D02*
X140900000Y-40300000D01*
X202907286Y-39100000D02*
X142100000Y-39100000D01*
X212913401Y-49106115D02*
X202907286Y-39100000D01*
%TO.N,P008*%
X192200000Y-41700000D02*
X143600000Y-41700000D01*
X142500000Y-42800000D02*
X142500000Y-68100000D01*
X193913401Y-43413401D02*
X192200000Y-41700000D01*
X193913401Y-49106115D02*
X193913401Y-43413401D01*
X143600000Y-41700000D02*
X142500000Y-42800000D01*
X142500000Y-68100000D02*
X142600000Y-68200000D01*
%TO.N,P006*%
X183300000Y-89100000D02*
X180293885Y-92106115D01*
X180293885Y-92106115D02*
X174913401Y-92106115D01*
X183300000Y-75100000D02*
X183300000Y-89100000D01*
X181306115Y-73106115D02*
X183300000Y-75100000D01*
X174913401Y-73106115D02*
X181306115Y-73106115D01*
X183300000Y-134000000D02*
X179406115Y-130106115D01*
X182000000Y-144100000D02*
X183300000Y-142800000D01*
X163900000Y-144100000D02*
X182000000Y-144100000D01*
X122420947Y-185579053D02*
X163900000Y-144100000D01*
X179406115Y-130106115D02*
X174913401Y-130106115D01*
X122420947Y-193016706D02*
X122420947Y-185579053D01*
X183300000Y-142800000D02*
X183300000Y-134000000D01*
%TO.N,P008*%
X148401709Y-169898291D02*
X148401709Y-178016706D01*
X157700000Y-157800000D02*
X157700000Y-160600000D01*
X169000000Y-146500000D02*
X157700000Y-157800000D01*
X157700000Y-160600000D02*
X148401709Y-169898291D01*
X200100000Y-146500000D02*
X169000000Y-146500000D01*
X203000000Y-135300000D02*
X203000000Y-143600000D01*
X200500000Y-132800000D02*
X203000000Y-135300000D01*
X196607286Y-132800000D02*
X200500000Y-132800000D01*
X203000000Y-143600000D02*
X200100000Y-146500000D01*
X193913401Y-130106115D02*
X196607286Y-132800000D01*
%TO.N,P017*%
X221300000Y-70200000D02*
X218393885Y-73106115D01*
X218393885Y-73106115D02*
X212913401Y-73106115D01*
X217706115Y-49106115D02*
X221300000Y-52700000D01*
X221300000Y-52700000D02*
X221300000Y-70200000D01*
X212913401Y-49106115D02*
X217706115Y-49106115D01*
X217706115Y-73106115D02*
X212913401Y-73106115D01*
X220900000Y-76300000D02*
X217706115Y-73106115D01*
X220900000Y-85900000D02*
X220900000Y-76300000D01*
X219000000Y-87800000D02*
X220900000Y-85900000D01*
X217219516Y-87800000D02*
X219000000Y-87800000D01*
X212913401Y-92106115D02*
X217219516Y-87800000D01*
X177019516Y-148000000D02*
X173913401Y-151106115D01*
X221700000Y-144500000D02*
X218200000Y-148000000D01*
X218406115Y-130106115D02*
X221700000Y-133400000D01*
X212913401Y-130106115D02*
X218406115Y-130106115D01*
X221700000Y-133400000D02*
X221700000Y-144500000D01*
X218200000Y-148000000D02*
X177019516Y-148000000D01*
%TO.N,P022*%
X256906115Y-130106115D02*
X250913401Y-130106115D01*
X259100000Y-143700000D02*
X259100000Y-132300000D01*
X256300000Y-146500000D02*
X259100000Y-143700000D01*
X232500000Y-146500000D02*
X256300000Y-146500000D01*
X214913401Y-151106115D02*
X227893885Y-151106115D01*
X227893885Y-151106115D02*
X232500000Y-146500000D01*
X259100000Y-132300000D02*
X256906115Y-130106115D01*
%TO.N,P020*%
X240700000Y-63600000D02*
X240700000Y-57892714D01*
X238800000Y-65500000D02*
X240700000Y-63600000D01*
X238800000Y-71406115D02*
X238800000Y-65500000D01*
X237100000Y-73106115D02*
X238800000Y-71406115D01*
X240700000Y-57892714D02*
X231913401Y-49106115D01*
X231913401Y-73106115D02*
X237100000Y-73106115D01*
%TO.N,P022*%
X259200000Y-64819516D02*
X250913401Y-73106115D01*
X255506115Y-49106115D02*
X259200000Y-52800000D01*
X259200000Y-52800000D02*
X259200000Y-64819516D01*
X250913401Y-49106115D02*
X255506115Y-49106115D01*
X255093885Y-111106115D02*
X250913401Y-111106115D01*
X259500000Y-96500000D02*
X259500000Y-106700000D01*
X257200000Y-94200000D02*
X259500000Y-96500000D01*
X253007286Y-94200000D02*
X257200000Y-94200000D01*
X250913401Y-92106115D02*
X253007286Y-94200000D01*
X259500000Y-106700000D02*
X255093885Y-111106115D01*
%TO.N,P024*%
X277900000Y-115500000D02*
X273506115Y-111106115D01*
X273506115Y-111106115D02*
X269913401Y-111106115D01*
X277900000Y-124300000D02*
X277900000Y-115500000D01*
X275900000Y-126300000D02*
X277900000Y-124300000D01*
X269913401Y-130106115D02*
X273719516Y-126300000D01*
X273719516Y-126300000D02*
X275900000Y-126300000D01*
X275206115Y-73106115D02*
X269913401Y-73106115D01*
X278300000Y-88200000D02*
X278300000Y-76200000D01*
X278300000Y-76200000D02*
X275206115Y-73106115D01*
X278400000Y-88300000D02*
X278300000Y-88200000D01*
X269913401Y-92106115D02*
X274593885Y-92106115D01*
X274593885Y-92106115D02*
X278400000Y-88300000D01*
%TO.N,P100*%
X292219516Y-69800000D02*
X288913401Y-73106115D01*
X297000000Y-53500000D02*
X297000000Y-67400000D01*
X294600000Y-69800000D02*
X292219516Y-69800000D01*
X292606115Y-49106115D02*
X297000000Y-53500000D01*
X297000000Y-67400000D02*
X294600000Y-69800000D01*
X288913401Y-49106115D02*
X292606115Y-49106115D01*
X296900000Y-114900000D02*
X293106115Y-111106115D01*
X296900000Y-124600000D02*
X296900000Y-114900000D01*
X294600000Y-126900000D02*
X296900000Y-124600000D01*
X288913401Y-130106115D02*
X292119516Y-126900000D01*
X292119516Y-126900000D02*
X294600000Y-126900000D01*
X293106115Y-111106115D02*
X288913401Y-111106115D01*
%TO.N,P104*%
X337700000Y-68500000D02*
X337700000Y-59000000D01*
X332806115Y-54106115D02*
X329913401Y-54106115D01*
X335700000Y-70500000D02*
X337700000Y-68500000D01*
X337700000Y-59000000D02*
X332806115Y-54106115D01*
X332519516Y-70500000D02*
X335700000Y-70500000D01*
X329913401Y-73106115D02*
X332519516Y-70500000D01*
X333206115Y-73106115D02*
X329913401Y-73106115D01*
X335700000Y-88700000D02*
X337600000Y-86800000D01*
X337600000Y-77500000D02*
X333206115Y-73106115D01*
X333319516Y-88700000D02*
X335700000Y-88700000D01*
X337600000Y-86800000D02*
X337600000Y-77500000D01*
X329913401Y-92106115D02*
X333319516Y-88700000D01*
%TO.N,P029*%
X216023401Y-85186115D02*
X218183401Y-85186115D01*
X197023401Y-85186115D02*
X199183401Y-85186115D01*
X333023401Y-85186115D02*
X335183401Y-85186115D01*
X292023401Y-85186115D02*
X294183401Y-85186115D01*
X352023401Y-85186115D02*
X354183401Y-85186115D01*
X178023401Y-85186115D02*
X180183401Y-85186115D01*
X273023401Y-85186115D02*
X275183401Y-85186115D01*
X254023401Y-85186115D02*
X256183401Y-85186115D01*
X235023401Y-85186115D02*
X237183401Y-85186115D01*
X314023401Y-85186115D02*
X316183401Y-85186115D01*
%TO.N,P002*%
X352023401Y-104186115D02*
X354183401Y-104186115D01*
X178023401Y-104186115D02*
X180183401Y-104186115D01*
X237183401Y-104186115D02*
X235023401Y-104186115D01*
X314023401Y-104186115D02*
X316183401Y-104186115D01*
X333023401Y-104186115D02*
X335183401Y-104186115D01*
X292023401Y-104186115D02*
X294183401Y-104186115D01*
X273023401Y-104186115D02*
X275183401Y-104186115D01*
X256183401Y-104186115D02*
X254023401Y-104186115D01*
X218183401Y-104186115D02*
X216023401Y-104186115D01*
X199183401Y-104186115D02*
X197023401Y-104186115D01*
%TO.N,P115*%
X235023401Y-123186115D02*
X237183401Y-123186115D01*
X292023401Y-123186115D02*
X294183401Y-123186115D01*
X273023401Y-123186115D02*
X275183401Y-123186115D01*
X178023401Y-123186115D02*
X180183401Y-123186115D01*
X197023401Y-123186115D02*
X199183401Y-123186115D01*
X254023401Y-123186115D02*
X256183401Y-123186115D01*
X216023401Y-123186115D02*
X218183401Y-123186115D01*
%TO.N,P113*%
X235023401Y-142186115D02*
X237183401Y-142186115D01*
X178023401Y-142186115D02*
X180183401Y-142186115D01*
X333023401Y-142186115D02*
X335183401Y-142186115D01*
X292023401Y-142186115D02*
X294183401Y-142186115D01*
X273023401Y-142186115D02*
X275183401Y-142186115D01*
X216023401Y-142186115D02*
X218183401Y-142186115D01*
X254023401Y-142186115D02*
X256183401Y-142186115D01*
X197023401Y-142186115D02*
X199183401Y-142186115D01*
%TO.N,P111*%
X150997459Y-190923293D02*
X152077459Y-189843293D01*
X352023401Y-161186115D02*
X354183401Y-161186115D01*
X150206844Y-190923293D02*
X150997459Y-190923293D01*
X125016697Y-205923293D02*
X126096697Y-204843293D01*
X270023401Y-163186115D02*
X272183401Y-163186115D01*
X210023401Y-163186115D02*
X212183401Y-163186115D01*
X124226082Y-205923293D02*
X125016697Y-205923293D01*
X333023401Y-161186115D02*
X335183401Y-161186115D01*
X240023401Y-163186115D02*
X242183401Y-163186115D01*
X314023401Y-161186115D02*
X316183401Y-161186115D01*
X169023401Y-163186115D02*
X171183401Y-163186115D01*
%TO.N,P031*%
X235023401Y-61186115D02*
X237183401Y-61186115D01*
X314023401Y-66186115D02*
X316183401Y-66186115D01*
X333023401Y-66186115D02*
X335183401Y-66186115D01*
X197023401Y-61186115D02*
X199183401Y-61186115D01*
X273023401Y-61186115D02*
X275183401Y-61186115D01*
X254023401Y-61186115D02*
X256183401Y-61186115D01*
X352023401Y-66186115D02*
X354183401Y-66186115D01*
X292023401Y-61186115D02*
X294183401Y-61186115D01*
X216023401Y-61186115D02*
X218183401Y-61186115D01*
X178023401Y-61186115D02*
X180183401Y-61186115D01*
%TO.N,P006*%
X174913401Y-111106115D02*
X180306115Y-111106115D01*
X182800000Y-65219516D02*
X174913401Y-73106115D01*
X174913401Y-92106115D02*
X181006115Y-92106115D01*
X182800000Y-51900000D02*
X182800000Y-65219516D01*
X183300000Y-124900000D02*
X178093885Y-130106115D01*
X183300000Y-114100000D02*
X183300000Y-124900000D01*
X179693885Y-111106115D02*
X174913401Y-111106115D01*
X174913401Y-49106115D02*
X180006115Y-49106115D01*
X183100000Y-94200000D02*
X183100000Y-107700000D01*
X180006115Y-49106115D02*
X182800000Y-51900000D01*
X178093885Y-130106115D02*
X174913401Y-130106115D01*
X181006115Y-92106115D02*
X183100000Y-94200000D01*
X183100000Y-107700000D02*
X179693885Y-111106115D01*
X180306115Y-111106115D02*
X183300000Y-114100000D01*
%TO.N,yhncol_nmrow*%
X172563401Y-142186115D02*
X174723401Y-142186115D01*
%TO.N,yhncol_hjkrow*%
X172563401Y-123186115D02*
X174723401Y-123186115D01*
%TO.N,yhncol_yuirow*%
X172563401Y-104186115D02*
X174723401Y-104186115D01*
%TO.N,yhncol_numberrow*%
X172563401Y-85186115D02*
X174723401Y-85186115D01*
%TO.N,P008*%
X198893885Y-111106115D02*
X202200000Y-107800000D01*
X198000000Y-111200000D02*
X198000000Y-111100000D01*
X201793885Y-130106115D02*
X202600000Y-129300000D01*
X196806115Y-49106115D02*
X193913401Y-49106115D01*
X193913401Y-130106115D02*
X201793885Y-130106115D01*
X193913401Y-73106115D02*
X197793885Y-73106115D01*
X202600000Y-115800000D02*
X198000000Y-111200000D01*
X202600000Y-129300000D02*
X202600000Y-115800000D01*
X199006115Y-73106115D02*
X193913401Y-73106115D01*
X193913401Y-111106115D02*
X198893885Y-111106115D01*
X197793885Y-73106115D02*
X202100000Y-68800000D01*
X202200000Y-107800000D02*
X202200000Y-96000000D01*
X202100000Y-54400000D02*
X196806115Y-49106115D01*
X202000000Y-91300000D02*
X202000000Y-76100000D01*
X198000000Y-111100000D02*
X197900000Y-111100000D01*
X198306115Y-92106115D02*
X193913401Y-92106115D01*
X202100000Y-68800000D02*
X202100000Y-54400000D01*
X202200000Y-96000000D02*
X198306115Y-92106115D01*
X197900000Y-111100000D02*
X197893885Y-111106115D01*
X201193885Y-92106115D02*
X202000000Y-91300000D01*
X202000000Y-76100000D02*
X199006115Y-73106115D01*
X197893885Y-111106115D02*
X193913401Y-111106115D01*
X193913401Y-92106115D02*
X201193885Y-92106115D01*
%TO.N,ujmcol_nmrow*%
X191563401Y-142186115D02*
X193723401Y-142186115D01*
%TO.N,ujmcol_hjkrow*%
X191563401Y-123186115D02*
X193723401Y-123186115D01*
%TO.N,ujmcol_yuirow*%
X193723401Y-104186115D02*
X191563401Y-104186115D01*
%TO.N,ujmcol_numberrow*%
X191563401Y-85186115D02*
X193723401Y-85186115D01*
%TO.N,P017*%
X217893885Y-130106115D02*
X212913401Y-130106115D01*
X221800000Y-116300000D02*
X221800000Y-126200000D01*
X113363604Y-73300000D02*
X113400000Y-73300000D01*
X218393885Y-111106115D02*
X212913401Y-111106115D01*
X141000000Y-73300000D02*
X113363604Y-73300000D01*
X212913401Y-92106115D02*
X216606115Y-92106115D01*
X113400000Y-73300000D02*
X113500000Y-73200000D01*
X212913401Y-111106115D02*
X216606115Y-111106115D01*
X216606115Y-92106115D02*
X221200000Y-96700000D01*
X221200000Y-96700000D02*
X221200000Y-108300000D01*
X221200000Y-108300000D02*
X218393885Y-111106115D01*
X216606115Y-111106115D02*
X221800000Y-116300000D01*
X221800000Y-126200000D02*
X217893885Y-130106115D01*
%TO.N,ikcol_nmrow*%
X210563401Y-142186115D02*
X212723401Y-142186115D01*
%TO.N,ikcol_hjkrow*%
X210563401Y-123186115D02*
X212723401Y-123186115D01*
%TO.N,ikcol_yuirow*%
X212723401Y-104186115D02*
X210563401Y-104186115D01*
%TO.N,ikcol_numberrow*%
X210563401Y-85186115D02*
X212723401Y-85186115D01*
%TO.N,P020*%
X234793885Y-130106115D02*
X231913401Y-130106115D01*
X144300000Y-37900000D02*
X144200000Y-37800000D01*
X231913401Y-111106115D02*
X234593885Y-111106115D01*
X236306115Y-73106115D02*
X231913401Y-73106115D01*
X231913401Y-49106115D02*
X230296955Y-49106115D01*
X240400000Y-77200000D02*
X236306115Y-73106115D01*
X236093885Y-92106115D02*
X240400000Y-87800000D01*
X234593885Y-111106115D02*
X240700000Y-105000000D01*
X240700000Y-96200000D02*
X236606115Y-92106115D01*
X144200000Y-74100000D02*
X114500000Y-74100000D01*
X144200000Y-43700000D02*
X144200000Y-68300000D01*
X231913401Y-92106115D02*
X236093885Y-92106115D01*
X230296955Y-49106115D02*
X219090840Y-37900000D01*
X236606115Y-92106115D02*
X231913401Y-92106115D01*
X231913401Y-111106115D02*
X235806115Y-111106115D01*
X144300000Y-37900000D02*
X219090840Y-37900000D01*
X240700000Y-105000000D02*
X240700000Y-96200000D01*
X235806115Y-111106115D02*
X240400000Y-115700000D01*
X240400000Y-124500000D02*
X234793885Y-130106115D01*
X240400000Y-87800000D02*
X240400000Y-77200000D01*
X240400000Y-115700000D02*
X240400000Y-124500000D01*
%TO.N,olcol_nmrow*%
X229563401Y-142186115D02*
X231723401Y-142186115D01*
%TO.N,olcol_hjkrow*%
X229563401Y-123186115D02*
X231723401Y-123186115D01*
%TO.N,olcol_yuirow*%
X231723401Y-104186115D02*
X229563401Y-104186115D01*
%TO.N,olcol_numberrow*%
X229563401Y-85186115D02*
X231723401Y-85186115D01*
%TO.N,P022*%
X259100000Y-91400000D02*
X259100000Y-76800000D01*
X257206115Y-111106115D02*
X250913401Y-111106115D01*
X250913401Y-92106115D02*
X258393885Y-92106115D01*
X255406115Y-73106115D02*
X250913401Y-73106115D01*
X254093885Y-130106115D02*
X259400000Y-124800000D01*
X259400000Y-124800000D02*
X259400000Y-113300000D01*
X258393885Y-92106115D02*
X259100000Y-91400000D01*
X145400000Y-75200000D02*
X115300000Y-75200000D01*
X145400000Y-46000000D02*
X145400000Y-68200000D01*
X259100000Y-76800000D02*
X255406115Y-73106115D01*
X250913401Y-130106115D02*
X254093885Y-130106115D01*
X259400000Y-113300000D02*
X257206115Y-111106115D01*
%TO.N,pcol_nmrow*%
X248563401Y-142186115D02*
X250723401Y-142186115D01*
%TO.N,pcol_hjkrow*%
X248563401Y-123186115D02*
X250723401Y-123186115D01*
%TO.N,pcol_yuirow*%
X250723401Y-104186115D02*
X248563401Y-104186115D01*
%TO.N,pcol_numberrow*%
X248563401Y-85186115D02*
X250723401Y-85186115D01*
%TO.N,P024*%
X277700000Y-131100000D02*
X276706115Y-130106115D01*
X275700000Y-147300000D02*
X277700000Y-145300000D01*
X277600000Y-107400000D02*
X273893885Y-111106115D01*
X273893885Y-111106115D02*
X269913401Y-111106115D01*
X248719516Y-147300000D02*
X275700000Y-147300000D01*
X269913401Y-49106115D02*
X273906115Y-49106115D01*
X277700000Y-145300000D02*
X277700000Y-131100000D01*
X274006115Y-92106115D02*
X277600000Y-95700000D01*
X273906115Y-49106115D02*
X277700000Y-52900000D01*
X277700000Y-65319516D02*
X269913401Y-73106115D01*
X277700000Y-52900000D02*
X277700000Y-65319516D01*
X244913401Y-151106115D02*
X248719516Y-147300000D01*
X146700000Y-68000000D02*
X146800000Y-68100000D01*
X276706115Y-130106115D02*
X269913401Y-130106115D01*
X146700000Y-44400000D02*
X146700000Y-68000000D01*
X277600000Y-95700000D02*
X277600000Y-107400000D01*
X269913401Y-92106115D02*
X274006115Y-92106115D01*
%TO.N,minuscol_nmrow*%
X267563401Y-142186115D02*
X269723401Y-142186115D01*
%TO.N,minuscol_hjkrow*%
X267563401Y-123186115D02*
X269723401Y-123186115D01*
%TO.N,minuscol_yuirow*%
X267563401Y-104186115D02*
X269723401Y-104186115D01*
%TO.N,minuscol_numberrow*%
X267563401Y-85186115D02*
X269723401Y-85186115D01*
%TO.N,P100*%
X292393885Y-111106115D02*
X288913401Y-111106115D01*
X291906115Y-92106115D02*
X297300000Y-97500000D01*
X288913401Y-73106115D02*
X292506115Y-73106115D01*
X297200000Y-136300000D02*
X291006115Y-130106115D01*
X297200000Y-145400000D02*
X297200000Y-136300000D01*
X292693885Y-92106115D02*
X288913401Y-92106115D01*
X291006115Y-130106115D02*
X288913401Y-130106115D01*
X288913401Y-92106115D02*
X291906115Y-92106115D01*
X274913401Y-151106115D02*
X291493885Y-151106115D01*
X297100000Y-77700000D02*
X297100000Y-87700000D01*
X297300000Y-97500000D02*
X297300000Y-106200000D01*
X297300000Y-106200000D02*
X292393885Y-111106115D01*
X297100000Y-87700000D02*
X292693885Y-92106115D01*
X291493885Y-151106115D02*
X297200000Y-145400000D01*
X292506115Y-73106115D02*
X297100000Y-77700000D01*
%TO.N,pluscol_nmrow*%
X286563401Y-142186115D02*
X288723401Y-142186115D01*
%TO.N,pluscol_hjkrow*%
X288723401Y-123186115D02*
X286563401Y-123186115D01*
%TO.N,pluscol_yuirow*%
X286563401Y-104186115D02*
X288723401Y-104186115D01*
%TO.N,pluscol_numberrow*%
X286563401Y-85186115D02*
X288723401Y-85186115D01*
%TO.N,f6_one*%
X172563401Y-61186115D02*
X174723401Y-61186115D01*
%TO.N,f7_one*%
X191563401Y-61186115D02*
X193723401Y-61186115D01*
%TO.N,f8_one*%
X210563401Y-61186115D02*
X212723401Y-61186115D01*
%TO.N,f9_one*%
X229563401Y-61186115D02*
X231723401Y-61186115D01*
%TO.N,f10_one*%
X248563401Y-61186115D02*
X250723401Y-61186115D01*
%TO.N,f11_one*%
X267563401Y-61186115D02*
X269723401Y-61186115D01*
%TO.N,f12_one*%
X288723401Y-61186115D02*
X286563401Y-61186115D01*
%TO.N,P011*%
X319600000Y-85900000D02*
X313393885Y-92106115D01*
X315506115Y-92106115D02*
X310913401Y-92106115D01*
X318600000Y-95200000D02*
X315506115Y-92106115D01*
X313953643Y-73146357D02*
X319800000Y-67300000D01*
X310913401Y-149106115D02*
X310913401Y-114286599D01*
X319800000Y-58400000D02*
X315506115Y-54106115D01*
X316700000Y-74300000D02*
X319600000Y-77200000D01*
X310913401Y-73106115D02*
X312107286Y-74300000D01*
X319800000Y-67300000D02*
X319800000Y-58400000D01*
X312107286Y-74300000D02*
X316700000Y-74300000D01*
X313393885Y-92106115D02*
X310913401Y-92106115D01*
X310913401Y-73106115D02*
X310953643Y-73146357D01*
X319600000Y-77200000D02*
X319600000Y-85900000D01*
X318600000Y-106600000D02*
X318600000Y-95200000D01*
X310913401Y-114286599D02*
X318600000Y-106600000D01*
X310953643Y-73146357D02*
X313953643Y-73146357D01*
X315506115Y-54106115D02*
X310913401Y-54106115D01*
%TO.N,left_down*%
X308563401Y-161186115D02*
X310723401Y-161186115D01*
%TO.N,left_del*%
X308563401Y-104186115D02*
X310723401Y-104186115D01*
%TO.N,left_ins*%
X308563401Y-85186115D02*
X310723401Y-85186115D01*
%TO.N,left_macro*%
X308563401Y-66186115D02*
X310723401Y-66186115D01*
%TO.N,P104*%
X337700000Y-145100000D02*
X333693885Y-149106115D01*
X329913401Y-92106115D02*
X335906115Y-92106115D01*
X332806115Y-130106115D02*
X337700000Y-135000000D01*
X333693885Y-149106115D02*
X329913401Y-149106115D01*
X331793885Y-130106115D02*
X329913401Y-130106115D01*
X337700000Y-93900000D02*
X337700000Y-124200000D01*
X337700000Y-135000000D02*
X337700000Y-145100000D01*
X337700000Y-124200000D02*
X331793885Y-130106115D01*
X335906115Y-92106115D02*
X337700000Y-93900000D01*
X329913401Y-130106115D02*
X332806115Y-130106115D01*
%TO.N,updown_down*%
X327563401Y-161186115D02*
X329723401Y-161186115D01*
%TO.N,updown_up*%
X327563401Y-142186115D02*
X329723401Y-142186115D01*
%TO.N,updown_del*%
X327563401Y-104186115D02*
X329723401Y-104186115D01*
%TO.N,updown_ins*%
X327563401Y-85186115D02*
X329723401Y-85186115D01*
%TO.N,updown_macro*%
X327563401Y-66186115D02*
X329723401Y-66186115D01*
%TO.N,P106*%
X355000000Y-92106115D02*
X357400000Y-94506116D01*
X348913401Y-73106115D02*
X355506115Y-73106115D01*
X358800000Y-85500000D02*
X352193885Y-92106115D01*
X348913401Y-92106115D02*
X355000000Y-92106115D01*
X349200000Y-149100000D02*
X349193885Y-149106115D01*
X355000000Y-69800000D02*
X352219516Y-69800000D01*
X348913401Y-54106115D02*
X355000000Y-54106115D01*
X352219516Y-69800000D02*
X348913401Y-73106115D01*
X358700000Y-66100000D02*
X355000000Y-69800000D01*
X357400000Y-94506116D02*
X357400000Y-108700000D01*
X355506115Y-73106115D02*
X358800000Y-76400000D01*
X358700000Y-57806115D02*
X358700000Y-66100000D01*
X349193885Y-149106115D02*
X348913401Y-149106115D01*
X358800000Y-76400000D02*
X358800000Y-85500000D01*
X349200000Y-116900000D02*
X349200000Y-149100000D01*
X352193885Y-92106115D02*
X348913401Y-92106115D01*
X355000000Y-54106115D02*
X358700000Y-57806115D01*
X357400000Y-108700000D02*
X349200000Y-116900000D01*
%TO.N,right_down*%
X346563401Y-161186115D02*
X348723401Y-161186115D01*
%TO.N,right_del*%
X346563401Y-104186115D02*
X348723401Y-104186115D01*
%TO.N,right_ins*%
X346563401Y-85186115D02*
X348723401Y-85186115D01*
%TO.N,right_macro*%
X346563401Y-66186115D02*
X348723401Y-66186115D01*
%TO.N,mirror_ctrl_thumbrow*%
X264563401Y-163186115D02*
X266723401Y-163186115D01*
%TO.N,mirror_winkey_thumbrow*%
X234563401Y-163186115D02*
X236723401Y-163186115D01*
%TO.N,mirror_alt_thumbrow*%
X204563401Y-163186115D02*
X206723401Y-163186115D01*
%TO.N,mirror_space_thumbrow*%
X163563401Y-163186115D02*
X165723401Y-163186115D01*
%TO.N,mirror_ctrl2_thumbrow*%
X146268960Y-193653293D02*
X147348960Y-192573293D01*
X145478345Y-193653293D02*
X146268960Y-193653293D01*
%TO.N,mirror_thumbkey_thumbrow*%
X120288198Y-208653293D02*
X121368198Y-207573293D01*
X119497583Y-208653293D02*
X120288198Y-208653293D01*
%TO.N,GND*%
X122880000Y-44380000D02*
X122880000Y-46920000D01*
X135580000Y-44380000D02*
X138120000Y-41840000D01*
X113700000Y-46400000D02*
X115720000Y-44380000D01*
X115720000Y-44380000D02*
X122880000Y-44380000D01*
X109300000Y-46400000D02*
X113700000Y-46400000D01*
X122880000Y-44380000D02*
X135580000Y-44380000D01*
X136400000Y-109200000D02*
X136400000Y-81800000D01*
%TD*%
M02*
