%TF.GenerationSoftware,KiCad,Pcbnew,8.0.5*%
%TF.CreationDate,2024-10-17T20:52:03+02:00*%
%TF.ProjectId,backup right,6261636b-7570-4207-9269-6768742e6b69,v1.0.0*%
%TF.SameCoordinates,Original*%
%TF.FileFunction,Paste,Bot*%
%TF.FilePolarity,Positive*%
%FSLAX46Y46*%
G04 Gerber Fmt 4.6, Leading zero omitted, Abs format (unit mm)*
G04 Created by KiCad (PCBNEW 8.0.5) date 2024-10-17 20:52:03*
%MOMM*%
%LPD*%
G01*
G04 APERTURE LIST*
G04 Aperture macros list*
%AMRotRect*
0 Rectangle, with rotation*
0 The origin of the aperture is its center*
0 $1 length*
0 $2 width*
0 $3 Rotation angle, in degrees counterclockwise*
0 Add horizontal line*
21,1,$1,$2,0,0,$3*%
G04 Aperture macros list end*
%ADD10R,0.900000X1.200000*%
%ADD11RotRect,0.900000X1.200000X210.000000*%
G04 APERTURE END LIST*
D10*
%TO.C,D84*%
X352023401Y-66186115D03*
X348723401Y-66186115D03*
%TD*%
%TO.C,D36*%
X216023401Y-85186115D03*
X212723401Y-85186115D03*
%TD*%
%TO.C,D45*%
X273023401Y-142186115D03*
X269723401Y-142186115D03*
%TD*%
%TO.C,D32*%
X197023401Y-85186115D03*
X193723401Y-85186115D03*
%TD*%
%TO.C,D75*%
X314023401Y-66186115D03*
X310723401Y-66186115D03*
%TD*%
%TO.C,D66*%
X197023401Y-61186115D03*
X193723401Y-61186115D03*
%TD*%
%TO.C,D74*%
X314023401Y-85186115D03*
X310723401Y-85186115D03*
%TD*%
%TO.C,D52*%
X292023401Y-85186115D03*
X288723401Y-85186115D03*
%TD*%
%TO.C,D87*%
X210023401Y-163186115D03*
X206723401Y-163186115D03*
%TD*%
%TO.C,D30*%
X197023401Y-123186115D03*
X193723401Y-123186115D03*
%TD*%
%TO.C,D50*%
X292023401Y-123186115D03*
X288723401Y-123186115D03*
%TD*%
%TO.C,D39*%
X235023401Y-104186115D03*
X231723401Y-104186115D03*
%TD*%
%TO.C,D34*%
X216023401Y-123186115D03*
X212723401Y-123186115D03*
%TD*%
%TO.C,D28*%
X178023401Y-85186115D03*
X174723401Y-85186115D03*
%TD*%
%TO.C,D41*%
X254023401Y-142186115D03*
X250723401Y-142186115D03*
%TD*%
%TO.C,D76*%
X333023401Y-161186115D03*
X329723401Y-161186115D03*
%TD*%
%TO.C,D27*%
X178023401Y-104186115D03*
X174723401Y-104186115D03*
%TD*%
%TO.C,D49*%
X292023401Y-142186115D03*
X288723401Y-142186115D03*
%TD*%
%TO.C,D68*%
X235023401Y-61186115D03*
X231723401Y-61186115D03*
%TD*%
%TO.C,D37*%
X235023401Y-142186115D03*
X231723401Y-142186115D03*
%TD*%
%TO.C,D40*%
X235023401Y-85186115D03*
X231723401Y-85186115D03*
%TD*%
%TO.C,D35*%
X216023401Y-104186115D03*
X212723401Y-104186115D03*
%TD*%
%TO.C,D48*%
X273023401Y-85186115D03*
X269723401Y-85186115D03*
%TD*%
%TO.C,D71*%
X292023401Y-61186115D03*
X288723401Y-61186115D03*
%TD*%
%TO.C,D25*%
X178023401Y-142186115D03*
X174723401Y-142186115D03*
%TD*%
%TO.C,D69*%
X254023401Y-61186115D03*
X250723401Y-61186115D03*
%TD*%
%TO.C,D79*%
X333023401Y-85186115D03*
X329723401Y-85186115D03*
%TD*%
%TO.C,D73*%
X314023401Y-104186115D03*
X310723401Y-104186115D03*
%TD*%
%TO.C,D70*%
X273023401Y-61186115D03*
X269723401Y-61186115D03*
%TD*%
D11*
%TO.C,D89*%
X150206844Y-190923293D03*
X147348960Y-192573293D03*
%TD*%
D10*
%TO.C,D78*%
X333023401Y-104186115D03*
X329723401Y-104186115D03*
%TD*%
%TO.C,D31*%
X197023401Y-104186115D03*
X193723401Y-104186115D03*
%TD*%
%TO.C,D26*%
X178023401Y-123186115D03*
X174723401Y-123186115D03*
%TD*%
%TO.C,D80*%
X333023401Y-66186115D03*
X329723401Y-66186115D03*
%TD*%
%TO.C,D65*%
X178023401Y-61186115D03*
X174723401Y-61186115D03*
%TD*%
%TO.C,D86*%
X240023401Y-163186115D03*
X236723401Y-163186115D03*
%TD*%
%TO.C,D29*%
X197023401Y-142186115D03*
X193723401Y-142186115D03*
%TD*%
%TO.C,D42*%
X254023401Y-123186115D03*
X250723401Y-123186115D03*
%TD*%
%TO.C,D33*%
X216023401Y-142186115D03*
X212723401Y-142186115D03*
%TD*%
%TO.C,D82*%
X352023401Y-104186115D03*
X348723401Y-104186115D03*
%TD*%
%TO.C,D46*%
X273023401Y-123186115D03*
X269723401Y-123186115D03*
%TD*%
%TO.C,D44*%
X254023401Y-85186115D03*
X250723401Y-85186115D03*
%TD*%
%TO.C,D51*%
X292023401Y-104186115D03*
X288723401Y-104186115D03*
%TD*%
%TO.C,D85*%
X270023401Y-163186115D03*
X266723401Y-163186115D03*
%TD*%
%TO.C,D43*%
X254023401Y-104186115D03*
X250723401Y-104186115D03*
%TD*%
%TO.C,D72*%
X314023401Y-161186115D03*
X310723401Y-161186115D03*
%TD*%
%TO.C,D47*%
X273023401Y-104186115D03*
X269723401Y-104186115D03*
%TD*%
D11*
%TO.C,D90*%
X124226082Y-205923293D03*
X121368198Y-207573293D03*
%TD*%
D10*
%TO.C,D38*%
X235023401Y-123186115D03*
X231723401Y-123186115D03*
%TD*%
%TO.C,D81*%
X352023401Y-161186115D03*
X348723401Y-161186115D03*
%TD*%
%TO.C,D67*%
X216023401Y-61186115D03*
X212723401Y-61186115D03*
%TD*%
%TO.C,D77*%
X333023401Y-142186115D03*
X329723401Y-142186115D03*
%TD*%
%TO.C,D88*%
X169023401Y-163186115D03*
X165723401Y-163186115D03*
%TD*%
%TO.C,D83*%
X352023401Y-85186115D03*
X348723401Y-85186115D03*
%TD*%
M02*
