%TF.GenerationSoftware,KiCad,Pcbnew,8.0.5*%
%TF.CreationDate,2024-10-17T20:52:03+02:00*%
%TF.ProjectId,backup right,6261636b-7570-4207-9269-6768742e6b69,v1.0.0*%
%TF.SameCoordinates,Original*%
%TF.FileFunction,Soldermask,Top*%
%TF.FilePolarity,Negative*%
%FSLAX46Y46*%
G04 Gerber Fmt 4.6, Leading zero omitted, Abs format (unit mm)*
G04 Created by KiCad (PCBNEW 8.0.5) date 2024-10-17 20:52:03*
%MOMM*%
%LPD*%
G01*
G04 APERTURE LIST*
G04 Aperture macros list*
%AMRoundRect*
0 Rectangle with rounded corners*
0 $1 Rounding radius*
0 $2 $3 $4 $5 $6 $7 $8 $9 X,Y pos of 4 corners*
0 Add a 4 corners polygon primitive as box body*
4,1,4,$2,$3,$4,$5,$6,$7,$8,$9,$2,$3,0*
0 Add four circle primitives for the rounded corners*
1,1,$1+$1,$2,$3*
1,1,$1+$1,$4,$5*
1,1,$1+$1,$6,$7*
1,1,$1+$1,$8,$9*
0 Add four rect primitives between the rounded corners*
20,1,$1+$1,$2,$3,$4,$5,0*
20,1,$1+$1,$4,$5,$6,$7,0*
20,1,$1+$1,$6,$7,$8,$9,0*
20,1,$1+$1,$8,$9,$2,$3,0*%
G04 Aperture macros list end*
%ADD10C,3.900000*%
%ADD11C,1.801800*%
%ADD12C,4.087800*%
%ADD13C,2.386000*%
%ADD14RoundRect,0.050000X0.889000X0.889000X-0.889000X0.889000X-0.889000X-0.889000X0.889000X-0.889000X0*%
%ADD15RoundRect,0.050000X0.450000X0.600000X-0.450000X0.600000X-0.450000X-0.600000X0.450000X-0.600000X0*%
%ADD16C,2.005000*%
%ADD17RoundRect,0.225000X0.825000X-0.225000X0.825000X0.225000X-0.825000X0.225000X-0.825000X-0.225000X0*%
%ADD18RoundRect,0.050000X0.325397X1.214397X-1.214397X0.325397X-0.325397X-1.214397X1.214397X-0.325397X0*%
%ADD19RoundRect,0.050000X0.089711X0.744615X-0.689711X0.294615X-0.089711X-0.744615X0.689711X-0.294615X0*%
%ADD20C,1.852600*%
%ADD21RoundRect,0.050000X-0.450000X0.450000X-0.450000X-0.450000X0.450000X-0.450000X0.450000X0.450000X0*%
%ADD22C,1.100000*%
%ADD23RoundRect,0.050000X-0.625000X0.450000X-0.625000X-0.450000X0.625000X-0.450000X0.625000X0.450000X0*%
G04 APERTURE END LIST*
D10*
%TO.C,REF\u002A\u002A*%
X258400000Y-40100000D03*
%TD*%
%TO.C,REF\u002A\u002A*%
X359900000Y-40600000D03*
%TD*%
%TO.C,REF\u002A\u002A*%
X360000000Y-169900000D03*
%TD*%
%TO.C,REF\u002A\u002A*%
X258100000Y-157200000D03*
%TD*%
%TO.C,REF\u002A\u002A*%
X107400000Y-49700000D03*
%TD*%
%TO.C,REF\u002A\u002A*%
X104100000Y-208900000D03*
%TD*%
D11*
%TO.C,S31*%
X186293401Y-97186115D03*
D12*
X191373401Y-97186115D03*
D11*
X196453401Y-97186115D03*
D13*
X193913401Y-92106115D03*
X187563401Y-94646115D03*
%TD*%
D14*
%TO.C,D84*%
X354183401Y-66186115D03*
D15*
X352023401Y-66186115D03*
X348723401Y-66186115D03*
D16*
X346563401Y-66186115D03*
%TD*%
D14*
%TO.C,D36*%
X218183401Y-85186115D03*
D15*
X216023401Y-85186115D03*
X212723401Y-85186115D03*
D16*
X210563401Y-85186115D03*
%TD*%
D11*
%TO.C,S73*%
X303293401Y-97186115D03*
D12*
X308373401Y-97186115D03*
D11*
X313453401Y-97186115D03*
D13*
X310913401Y-92106115D03*
X304563401Y-94646115D03*
%TD*%
D14*
%TO.C,D45*%
X275183401Y-142186115D03*
D15*
X273023401Y-142186115D03*
X269723401Y-142186115D03*
D16*
X267563401Y-142186115D03*
%TD*%
D13*
%TO.C,*%
X136400000Y-109200000D03*
%TD*%
D14*
%TO.C,D32*%
X199183401Y-85186115D03*
D15*
X197023401Y-85186115D03*
X193723401Y-85186115D03*
D16*
X191563401Y-85186115D03*
%TD*%
D11*
%TO.C,S66*%
X186293401Y-54186115D03*
D12*
X191373401Y-54186115D03*
D11*
X196453401Y-54186115D03*
D13*
X193913401Y-49106115D03*
X187563401Y-51646115D03*
%TD*%
D14*
%TO.C,D75*%
X316183401Y-66186115D03*
D15*
X314023401Y-66186115D03*
X310723401Y-66186115D03*
D16*
X308563401Y-66186115D03*
%TD*%
D11*
%TO.C,S39*%
X224293401Y-97186115D03*
D12*
X229373401Y-97186115D03*
D11*
X234453401Y-97186115D03*
D13*
X231913401Y-92106115D03*
X225563401Y-94646115D03*
%TD*%
D11*
%TO.C,S65*%
X167293401Y-54186115D03*
D12*
X172373401Y-54186115D03*
D11*
X177453401Y-54186115D03*
D13*
X174913401Y-49106115D03*
X168563401Y-51646115D03*
%TD*%
D14*
%TO.C,D66*%
X199183401Y-61186115D03*
D15*
X197023401Y-61186115D03*
X193723401Y-61186115D03*
D16*
X191563401Y-61186115D03*
%TD*%
D11*
%TO.C,S27*%
X167293401Y-97186115D03*
D12*
X172373401Y-97186115D03*
D11*
X177453401Y-97186115D03*
D13*
X174913401Y-92106115D03*
X168563401Y-94646115D03*
%TD*%
D14*
%TO.C,D74*%
X316183401Y-85186115D03*
D15*
X314023401Y-85186115D03*
X310723401Y-85186115D03*
D16*
X308563401Y-85186115D03*
%TD*%
D11*
%TO.C,S29*%
X186293401Y-135186115D03*
D12*
X191373401Y-135186115D03*
D11*
X196453401Y-135186115D03*
D13*
X193913401Y-130106115D03*
X187563401Y-132646115D03*
%TD*%
D14*
%TO.C,D52*%
X294183401Y-85186115D03*
D15*
X292023401Y-85186115D03*
X288723401Y-85186115D03*
D16*
X286563401Y-85186115D03*
%TD*%
D11*
%TO.C,S75*%
X303293401Y-59186115D03*
D12*
X308373401Y-59186115D03*
D11*
X313453401Y-59186115D03*
D13*
X310913401Y-54106115D03*
X304563401Y-56646115D03*
%TD*%
D11*
%TO.C,S36*%
X205293401Y-78186115D03*
D12*
X210373401Y-78186115D03*
D11*
X215453401Y-78186115D03*
D13*
X212913401Y-73106115D03*
X206563401Y-75646115D03*
%TD*%
D11*
%TO.C,S47*%
X262293401Y-97186115D03*
D12*
X267373401Y-97186115D03*
D11*
X272453401Y-97186115D03*
D13*
X269913401Y-92106115D03*
X263563401Y-94646115D03*
%TD*%
D14*
%TO.C,D87*%
X212183401Y-163186115D03*
D15*
X210023401Y-163186115D03*
X206723401Y-163186115D03*
D16*
X204563401Y-163186115D03*
%TD*%
D11*
%TO.C,S81*%
X341293401Y-154186115D03*
D12*
X346373401Y-154186115D03*
D11*
X351453401Y-154186115D03*
D13*
X348913401Y-149106115D03*
X342563401Y-151646115D03*
%TD*%
D14*
%TO.C,D30*%
X199183401Y-123186115D03*
D15*
X197023401Y-123186115D03*
X193723401Y-123186115D03*
D16*
X191563401Y-123186115D03*
%TD*%
D11*
%TO.C,S25*%
X167293401Y-135186115D03*
D12*
X172373401Y-135186115D03*
D11*
X177453401Y-135186115D03*
D13*
X174913401Y-130106115D03*
X168563401Y-132646115D03*
%TD*%
D14*
%TO.C,D50*%
X294183401Y-123186115D03*
D15*
X292023401Y-123186115D03*
X288723401Y-123186115D03*
D16*
X286563401Y-123186115D03*
%TD*%
D17*
%TO.C,REF\u002A\u002A*%
X101200000Y-53200000D03*
X101200000Y-49000000D03*
%TD*%
D14*
%TO.C,D39*%
X237183401Y-104186115D03*
D15*
X235023401Y-104186115D03*
X231723401Y-104186115D03*
D16*
X229563401Y-104186115D03*
%TD*%
D11*
%TO.C,S43*%
X243293401Y-97186115D03*
D12*
X248373401Y-97186115D03*
D11*
X253453401Y-97186115D03*
D13*
X250913401Y-92106115D03*
X244563401Y-94646115D03*
%TD*%
D14*
%TO.C,D34*%
X218183401Y-123186115D03*
D15*
X216023401Y-123186115D03*
X212723401Y-123186115D03*
D16*
X210563401Y-123186115D03*
%TD*%
D11*
%TO.C,S30*%
X186293401Y-116186115D03*
D12*
X191373401Y-116186115D03*
D11*
X196453401Y-116186115D03*
D13*
X193913401Y-111106115D03*
X187563401Y-113646115D03*
%TD*%
D14*
%TO.C,D28*%
X180183401Y-85186115D03*
D15*
X178023401Y-85186115D03*
X174723401Y-85186115D03*
D16*
X172563401Y-85186115D03*
%TD*%
D14*
%TO.C,D41*%
X256183401Y-142186115D03*
D15*
X254023401Y-142186115D03*
X250723401Y-142186115D03*
D16*
X248563401Y-142186115D03*
%TD*%
D14*
%TO.C,D76*%
X335183401Y-161186115D03*
D15*
X333023401Y-161186115D03*
X329723401Y-161186115D03*
D16*
X327563401Y-161186115D03*
%TD*%
D11*
%TO.C,S86*%
X237293401Y-156186115D03*
D12*
X242373401Y-156186115D03*
D11*
X247453401Y-156186115D03*
D13*
X244913401Y-151106115D03*
X238563401Y-153646115D03*
%TD*%
D14*
%TO.C,D27*%
X180183401Y-104186115D03*
D15*
X178023401Y-104186115D03*
X174723401Y-104186115D03*
D16*
X172563401Y-104186115D03*
%TD*%
D14*
%TO.C,D49*%
X294183401Y-142186115D03*
D15*
X292023401Y-142186115D03*
X288723401Y-142186115D03*
D16*
X286563401Y-142186115D03*
%TD*%
D11*
%TO.C,S69*%
X243293401Y-54186115D03*
D12*
X248373401Y-54186115D03*
D11*
X253453401Y-54186115D03*
D13*
X250913401Y-49106115D03*
X244563401Y-51646115D03*
%TD*%
D11*
%TO.C,S45*%
X262293401Y-135186115D03*
D12*
X267373401Y-135186115D03*
D11*
X272453401Y-135186115D03*
D13*
X269913401Y-130106115D03*
X263563401Y-132646115D03*
%TD*%
D14*
%TO.C,D68*%
X237183401Y-61186115D03*
D15*
X235023401Y-61186115D03*
X231723401Y-61186115D03*
D16*
X229563401Y-61186115D03*
%TD*%
D11*
%TO.C,S85*%
X267293401Y-156186115D03*
D12*
X272373401Y-156186115D03*
D11*
X277453401Y-156186115D03*
D13*
X274913401Y-151106115D03*
X268563401Y-153646115D03*
%TD*%
D11*
%TO.C,S40*%
X224293401Y-78186115D03*
D12*
X229373401Y-78186115D03*
D11*
X234453401Y-78186115D03*
D13*
X231913401Y-73106115D03*
X225563401Y-75646115D03*
%TD*%
D11*
%TO.C,S88*%
X166293401Y-156186115D03*
D12*
X171373401Y-156186115D03*
D11*
X176453401Y-156186115D03*
D13*
X173913401Y-151106115D03*
X167563401Y-153646115D03*
%TD*%
D14*
%TO.C,D37*%
X237183401Y-142186115D03*
D15*
X235023401Y-142186115D03*
X231723401Y-142186115D03*
D16*
X229563401Y-142186115D03*
%TD*%
D11*
%TO.C,S84*%
X341293401Y-59186115D03*
D12*
X346373401Y-59186115D03*
D11*
X351453401Y-59186115D03*
D13*
X348913401Y-54106115D03*
X342563401Y-56646115D03*
%TD*%
D14*
%TO.C,D40*%
X237183401Y-85186115D03*
D15*
X235023401Y-85186115D03*
X231723401Y-85186115D03*
D16*
X229563401Y-85186115D03*
%TD*%
D14*
%TO.C,D35*%
X218183401Y-104186115D03*
D15*
X216023401Y-104186115D03*
X212723401Y-104186115D03*
D16*
X210563401Y-104186115D03*
%TD*%
D14*
%TO.C,D48*%
X275183401Y-85186115D03*
D15*
X273023401Y-85186115D03*
X269723401Y-85186115D03*
D16*
X267563401Y-85186115D03*
%TD*%
D14*
%TO.C,D71*%
X294183401Y-61186115D03*
D15*
X292023401Y-61186115D03*
X288723401Y-61186115D03*
D16*
X286563401Y-61186115D03*
%TD*%
D14*
%TO.C,D25*%
X180183401Y-142186115D03*
D15*
X178023401Y-142186115D03*
X174723401Y-142186115D03*
D16*
X172563401Y-142186115D03*
%TD*%
D14*
%TO.C,D69*%
X256183401Y-61186115D03*
D15*
X254023401Y-61186115D03*
X250723401Y-61186115D03*
D16*
X248563401Y-61186115D03*
%TD*%
D14*
%TO.C,D79*%
X335183401Y-85186115D03*
D15*
X333023401Y-85186115D03*
X329723401Y-85186115D03*
D16*
X327563401Y-85186115D03*
%TD*%
D11*
%TO.C,S28*%
X167293401Y-78186115D03*
D12*
X172373401Y-78186115D03*
D11*
X177453401Y-78186115D03*
D13*
X174913401Y-73106115D03*
X168563401Y-75646115D03*
%TD*%
D11*
%TO.C,S74*%
X303293401Y-78186115D03*
D12*
X308373401Y-78186115D03*
D11*
X313453401Y-78186115D03*
D13*
X310913401Y-73106115D03*
X304563401Y-75646115D03*
%TD*%
D11*
%TO.C,S35*%
X205293401Y-97186115D03*
D12*
X210373401Y-97186115D03*
D11*
X215453401Y-97186115D03*
D13*
X212913401Y-92106115D03*
X206563401Y-94646115D03*
%TD*%
D11*
%TO.C,S87*%
X207293401Y-156186115D03*
D12*
X212373401Y-156186115D03*
D11*
X217453401Y-156186115D03*
D13*
X214913401Y-151106115D03*
X208563401Y-153646115D03*
%TD*%
D11*
%TO.C,S34*%
X205293401Y-116186115D03*
D12*
X210373401Y-116186115D03*
D11*
X215453401Y-116186115D03*
D13*
X212913401Y-111106115D03*
X206563401Y-113646115D03*
%TD*%
D11*
%TO.C,S83*%
X341293401Y-78186115D03*
D12*
X346373401Y-78186115D03*
D11*
X351453401Y-78186115D03*
D13*
X348913401Y-73106115D03*
X342563401Y-75646115D03*
%TD*%
D11*
%TO.C,S46*%
X262293401Y-116186115D03*
D12*
X267373401Y-116186115D03*
D11*
X272453401Y-116186115D03*
D13*
X269913401Y-111106115D03*
X263563401Y-113646115D03*
%TD*%
D14*
%TO.C,D73*%
X316183401Y-104186115D03*
D15*
X314023401Y-104186115D03*
X310723401Y-104186115D03*
D16*
X308563401Y-104186115D03*
%TD*%
D14*
%TO.C,D70*%
X275183401Y-61186115D03*
D15*
X273023401Y-61186115D03*
X269723401Y-61186115D03*
D16*
X267563401Y-61186115D03*
%TD*%
D18*
%TO.C,D89*%
X152077459Y-189843293D03*
D19*
X150206844Y-190923293D03*
X147348960Y-192573293D03*
D16*
X145478345Y-193653293D03*
%TD*%
D14*
%TO.C,D78*%
X335183401Y-104186115D03*
D15*
X333023401Y-104186115D03*
X329723401Y-104186115D03*
D16*
X327563401Y-104186115D03*
%TD*%
D11*
%TO.C,S32*%
X186293401Y-78186115D03*
D12*
X191373401Y-78186115D03*
D11*
X196453401Y-78186115D03*
D13*
X193913401Y-73106115D03*
X187563401Y-75646115D03*
%TD*%
D14*
%TO.C,D31*%
X199183401Y-104186115D03*
D15*
X197023401Y-104186115D03*
X193723401Y-104186115D03*
D16*
X191563401Y-104186115D03*
%TD*%
D14*
%TO.C,D26*%
X180183401Y-123186115D03*
D15*
X178023401Y-123186115D03*
X174723401Y-123186115D03*
D16*
X172563401Y-123186115D03*
%TD*%
D11*
%TO.C,S67*%
X205293401Y-54186115D03*
D12*
X210373401Y-54186115D03*
D11*
X215453401Y-54186115D03*
D13*
X212913401Y-49106115D03*
X206563401Y-51646115D03*
%TD*%
D14*
%TO.C,D80*%
X335183401Y-66186115D03*
D15*
X333023401Y-66186115D03*
X329723401Y-66186115D03*
D16*
X327563401Y-66186115D03*
%TD*%
D11*
%TO.C,S42*%
X243293401Y-116186115D03*
D12*
X248373401Y-116186115D03*
D11*
X253453401Y-116186115D03*
D13*
X250913401Y-111106115D03*
X244563401Y-113646115D03*
%TD*%
D14*
%TO.C,D65*%
X180183401Y-61186115D03*
D15*
X178023401Y-61186115D03*
X174723401Y-61186115D03*
D16*
X172563401Y-61186115D03*
%TD*%
D14*
%TO.C,D86*%
X242183401Y-163186115D03*
D15*
X240023401Y-163186115D03*
X236723401Y-163186115D03*
D16*
X234563401Y-163186115D03*
%TD*%
D11*
%TO.C,S37*%
X224293401Y-135186115D03*
D12*
X229373401Y-135186115D03*
D11*
X234453401Y-135186115D03*
D13*
X231913401Y-130106115D03*
X225563401Y-132646115D03*
%TD*%
D14*
%TO.C,D29*%
X199183401Y-142186115D03*
D15*
X197023401Y-142186115D03*
X193723401Y-142186115D03*
D16*
X191563401Y-142186115D03*
%TD*%
D14*
%TO.C,D42*%
X256183401Y-123186115D03*
D15*
X254023401Y-123186115D03*
X250723401Y-123186115D03*
D16*
X248563401Y-123186115D03*
%TD*%
D11*
%TO.C,S49*%
X281293401Y-135186115D03*
D12*
X286373401Y-135186115D03*
D11*
X291453401Y-135186115D03*
D13*
X288913401Y-130106115D03*
X282563401Y-132646115D03*
%TD*%
D14*
%TO.C,D33*%
X218183401Y-142186115D03*
D15*
X216023401Y-142186115D03*
X212723401Y-142186115D03*
D16*
X210563401Y-142186115D03*
%TD*%
D14*
%TO.C,D82*%
X354183401Y-104186115D03*
D15*
X352023401Y-104186115D03*
X348723401Y-104186115D03*
D16*
X346563401Y-104186115D03*
%TD*%
D11*
%TO.C,S48*%
X262293401Y-78186115D03*
D12*
X267373401Y-78186115D03*
D11*
X272453401Y-78186115D03*
D13*
X269913401Y-73106115D03*
X263563401Y-75646115D03*
%TD*%
D11*
%TO.C,S52*%
X281293401Y-78186115D03*
D12*
X286373401Y-78186115D03*
D11*
X291453401Y-78186115D03*
D13*
X288913401Y-73106115D03*
X282563401Y-75646115D03*
%TD*%
D14*
%TO.C,D46*%
X275183401Y-123186115D03*
D15*
X273023401Y-123186115D03*
X269723401Y-123186115D03*
D16*
X267563401Y-123186115D03*
%TD*%
D14*
%TO.C,D44*%
X256183401Y-85186115D03*
D15*
X254023401Y-85186115D03*
X250723401Y-85186115D03*
D16*
X248563401Y-85186115D03*
%TD*%
D11*
%TO.C,S51*%
X281293401Y-97186115D03*
D12*
X286373401Y-97186115D03*
D11*
X291453401Y-97186115D03*
D13*
X288913401Y-92106115D03*
X282563401Y-94646115D03*
%TD*%
D14*
%TO.C,D51*%
X294183401Y-104186115D03*
D15*
X292023401Y-104186115D03*
X288723401Y-104186115D03*
D16*
X286563401Y-104186115D03*
%TD*%
D11*
%TO.C,S80*%
X322293401Y-59186115D03*
D12*
X327373401Y-59186115D03*
D11*
X332453401Y-59186115D03*
D13*
X329913401Y-54106115D03*
X323563401Y-56646115D03*
%TD*%
D14*
%TO.C,D85*%
X272183401Y-163186115D03*
D15*
X270023401Y-163186115D03*
X266723401Y-163186115D03*
D16*
X264563401Y-163186115D03*
%TD*%
D11*
%TO.C,S26*%
X167293401Y-116186115D03*
D12*
X172373401Y-116186115D03*
D11*
X177453401Y-116186115D03*
D13*
X174913401Y-111106115D03*
X168563401Y-113646115D03*
%TD*%
D14*
%TO.C,D43*%
X256183401Y-104186115D03*
D15*
X254023401Y-104186115D03*
X250723401Y-104186115D03*
D16*
X248563401Y-104186115D03*
%TD*%
D11*
%TO.C,S72*%
X303293401Y-154186115D03*
D12*
X308373401Y-154186115D03*
D11*
X313453401Y-154186115D03*
D13*
X310913401Y-149106115D03*
X304563401Y-151646115D03*
%TD*%
D20*
%TO.C,MCU1*%
X122880000Y-39300000D03*
X122880000Y-41840000D03*
X122880000Y-44380000D03*
X122880000Y-46920000D03*
X122880000Y-49460000D03*
X122880000Y-52000000D03*
X122880000Y-54540000D03*
X122880000Y-57080000D03*
X122880000Y-59620000D03*
X122880000Y-62160000D03*
X122880000Y-64700000D03*
X122880000Y-67240000D03*
X138120000Y-67240000D03*
X138120000Y-64700000D03*
X138120000Y-62160000D03*
X138120000Y-59620000D03*
X138120000Y-57080000D03*
X138120000Y-54540000D03*
X138120000Y-52000000D03*
X138120000Y-49460000D03*
X138120000Y-46920000D03*
X138120000Y-44380000D03*
X138120000Y-41840000D03*
X138120000Y-39300000D03*
%TD*%
D13*
%TO.C,*%
X115700000Y-109200000D03*
%TD*%
D14*
%TO.C,D72*%
X316183401Y-161186115D03*
D15*
X314023401Y-161186115D03*
X310723401Y-161186115D03*
D16*
X308563401Y-161186115D03*
%TD*%
D11*
%TO.C,S76*%
X322293401Y-154186115D03*
D12*
X327373401Y-154186115D03*
D11*
X332453401Y-154186115D03*
D13*
X329913401Y-149106115D03*
X323563401Y-151646115D03*
%TD*%
D11*
%TO.C,S41*%
X243293401Y-135186115D03*
D12*
X248373401Y-135186115D03*
D11*
X253453401Y-135186115D03*
D13*
X250913401Y-130106115D03*
X244563401Y-132646115D03*
%TD*%
D11*
%TO.C,S33*%
X205293401Y-135186115D03*
D12*
X210373401Y-135186115D03*
D11*
X215453401Y-135186115D03*
D13*
X212913401Y-130106115D03*
X206563401Y-132646115D03*
%TD*%
D14*
%TO.C,D47*%
X275183401Y-104186115D03*
D15*
X273023401Y-104186115D03*
X269723401Y-104186115D03*
D16*
X267563401Y-104186115D03*
%TD*%
D18*
%TO.C,D90*%
X126096697Y-204843293D03*
D19*
X124226082Y-205923293D03*
X121368198Y-207573293D03*
D16*
X119497583Y-208653293D03*
%TD*%
D11*
%TO.C,S50*%
X281293401Y-116186115D03*
D12*
X286373401Y-116186115D03*
D11*
X291453401Y-116186115D03*
D13*
X288913401Y-111106115D03*
X282563401Y-113646115D03*
%TD*%
D11*
%TO.C,S77*%
X322293401Y-135186115D03*
D12*
X327373401Y-135186115D03*
D11*
X332453401Y-135186115D03*
D13*
X329913401Y-130106115D03*
X323563401Y-132646115D03*
%TD*%
D14*
%TO.C,D38*%
X237183401Y-123186115D03*
D15*
X235023401Y-123186115D03*
X231723401Y-123186115D03*
D16*
X229563401Y-123186115D03*
%TD*%
D11*
%TO.C,S70*%
X262293401Y-54186115D03*
D12*
X267373401Y-54186115D03*
D11*
X272453401Y-54186115D03*
D13*
X269913401Y-49106115D03*
X263563401Y-51646115D03*
%TD*%
D11*
%TO.C,S90*%
X118361833Y-201226115D03*
D12*
X122761242Y-198686115D03*
D11*
X127160651Y-196146115D03*
D13*
X122420947Y-193016706D03*
X118191685Y-198391410D03*
%TD*%
D11*
%TO.C,S79*%
X322293401Y-78186115D03*
D12*
X327373401Y-78186115D03*
D11*
X332453401Y-78186115D03*
D13*
X329913401Y-73106115D03*
X323563401Y-75646115D03*
%TD*%
D14*
%TO.C,D81*%
X354183401Y-161186115D03*
D15*
X352023401Y-161186115D03*
X348723401Y-161186115D03*
D16*
X346563401Y-161186115D03*
%TD*%
D11*
%TO.C,S71*%
X281293401Y-54186115D03*
D12*
X286373401Y-54186115D03*
D11*
X291453401Y-54186115D03*
D13*
X288913401Y-49106115D03*
X282563401Y-51646115D03*
%TD*%
D11*
%TO.C,S44*%
X243293401Y-78186115D03*
D12*
X248373401Y-78186115D03*
D11*
X253453401Y-78186115D03*
D13*
X250913401Y-73106115D03*
X244563401Y-75646115D03*
%TD*%
D11*
%TO.C,S89*%
X144342595Y-186226115D03*
D12*
X148742004Y-183686115D03*
D11*
X153141413Y-181146115D03*
D13*
X148401709Y-178016706D03*
X144172447Y-183391410D03*
%TD*%
D11*
%TO.C,S82*%
X341293401Y-97186115D03*
D12*
X346373401Y-97186115D03*
D11*
X351453401Y-97186115D03*
D13*
X348913401Y-92106115D03*
X342563401Y-94646115D03*
%TD*%
D11*
%TO.C,S78*%
X322293401Y-97186115D03*
D12*
X327373401Y-97186115D03*
D11*
X332453401Y-97186115D03*
D13*
X329913401Y-92106115D03*
X323563401Y-94646115D03*
%TD*%
D14*
%TO.C,D67*%
X218183401Y-61186115D03*
D15*
X216023401Y-61186115D03*
X212723401Y-61186115D03*
D16*
X210563401Y-61186115D03*
%TD*%
D11*
%TO.C,S38*%
X224293401Y-116186115D03*
D12*
X229373401Y-116186115D03*
D11*
X234453401Y-116186115D03*
D13*
X231913401Y-111106115D03*
X225563401Y-113646115D03*
%TD*%
D14*
%TO.C,D77*%
X335183401Y-142186115D03*
D15*
X333023401Y-142186115D03*
X329723401Y-142186115D03*
D16*
X327563401Y-142186115D03*
%TD*%
D14*
%TO.C,D88*%
X171183401Y-163186115D03*
D15*
X169023401Y-163186115D03*
X165723401Y-163186115D03*
D16*
X163563401Y-163186115D03*
%TD*%
D14*
%TO.C,D83*%
X354183401Y-85186115D03*
D15*
X352023401Y-85186115D03*
X348723401Y-85186115D03*
D16*
X346563401Y-85186115D03*
%TD*%
D11*
%TO.C,S68*%
X224293401Y-54186115D03*
D12*
X229373401Y-54186115D03*
D11*
X234453401Y-54186115D03*
D13*
X231913401Y-49106115D03*
X225563401Y-51646115D03*
%TD*%
D21*
%TO.C,T1*%
X101225000Y-38300000D03*
X99025000Y-38300000D03*
D22*
X100125000Y-40500000D03*
X100125000Y-43500000D03*
D21*
X101225000Y-45700000D03*
X99025000Y-45700000D03*
D23*
X102200000Y-39750000D03*
X102200000Y-42750000D03*
X102200000Y-44250000D03*
%TD*%
M02*
