%TF.GenerationSoftware,KiCad,Pcbnew,8.0.5*%
%TF.CreationDate,2024-10-17T20:52:03+02:00*%
%TF.ProjectId,backup right,6261636b-7570-4207-9269-6768742e6b69,v1.0.0*%
%TF.SameCoordinates,Original*%
%TF.FileFunction,Copper,L1,Top*%
%TF.FilePolarity,Positive*%
%FSLAX46Y46*%
G04 Gerber Fmt 4.6, Leading zero omitted, Abs format (unit mm)*
G04 Created by KiCad (PCBNEW 8.0.5) date 2024-10-17 20:52:03*
%MOMM*%
%LPD*%
G01*
G04 APERTURE LIST*
G04 Aperture macros list*
%AMRoundRect*
0 Rectangle with rounded corners*
0 $1 Rounding radius*
0 $2 $3 $4 $5 $6 $7 $8 $9 X,Y pos of 4 corners*
0 Add a 4 corners polygon primitive as box body*
4,1,4,$2,$3,$4,$5,$6,$7,$8,$9,$2,$3,0*
0 Add four circle primitives for the rounded corners*
1,1,$1+$1,$2,$3*
1,1,$1+$1,$4,$5*
1,1,$1+$1,$6,$7*
1,1,$1+$1,$8,$9*
0 Add four rect primitives between the rounded corners*
20,1,$1+$1,$2,$3,$4,$5,0*
20,1,$1+$1,$4,$5,$6,$7,0*
20,1,$1+$1,$6,$7,$8,$9,0*
20,1,$1+$1,$8,$9,$2,$3,0*%
%AMRotRect*
0 Rectangle, with rotation*
0 The origin of the aperture is its center*
0 $1 length*
0 $2 width*
0 $3 Rotation angle, in degrees counterclockwise*
0 Add horizontal line*
21,1,$1,$2,0,0,$3*%
G04 Aperture macros list end*
%TA.AperFunction,ComponentPad*%
%ADD10C,3.800000*%
%TD*%
%TA.AperFunction,ComponentPad*%
%ADD11C,2.286000*%
%TD*%
%TA.AperFunction,ComponentPad*%
%ADD12R,1.778000X1.778000*%
%TD*%
%TA.AperFunction,SMDPad,CuDef*%
%ADD13R,0.900000X1.200000*%
%TD*%
%TA.AperFunction,ComponentPad*%
%ADD14C,1.905000*%
%TD*%
%TA.AperFunction,SMDPad,CuDef*%
%ADD15RoundRect,0.200000X0.800000X-0.200000X0.800000X0.200000X-0.800000X0.200000X-0.800000X-0.200000X0*%
%TD*%
%TA.AperFunction,ComponentPad*%
%ADD16RotRect,1.778000X1.778000X210.000000*%
%TD*%
%TA.AperFunction,SMDPad,CuDef*%
%ADD17RotRect,0.900000X1.200000X210.000000*%
%TD*%
%TA.AperFunction,ComponentPad*%
%ADD18C,1.752600*%
%TD*%
%TA.AperFunction,SMDPad,CuDef*%
%ADD19R,0.900000X0.900000*%
%TD*%
%TA.AperFunction,WasherPad*%
%ADD20C,1.000000*%
%TD*%
%TA.AperFunction,SMDPad,CuDef*%
%ADD21R,1.250000X0.900000*%
%TD*%
%TA.AperFunction,ViaPad*%
%ADD22C,0.600000*%
%TD*%
%TA.AperFunction,ViaPad*%
%ADD23C,0.800000*%
%TD*%
%TA.AperFunction,Conductor*%
%ADD24C,0.350000*%
%TD*%
G04 APERTURE END LIST*
D10*
%TO.P,REF\u002A\u002A,1*%
%TO.N,GND*%
X258400000Y-40100000D03*
%TD*%
%TO.P,REF\u002A\u002A,1*%
%TO.N,GND*%
X359900000Y-40600000D03*
%TD*%
%TO.P,REF\u002A\u002A,1*%
%TO.N,GND*%
X360000000Y-169900000D03*
%TD*%
%TO.P,REF\u002A\u002A,1*%
%TO.N,GND*%
X258100000Y-157200000D03*
%TD*%
%TO.P,REF\u002A\u002A,1*%
%TO.N,GND*%
X107400000Y-49700000D03*
%TD*%
%TO.P,REF\u002A\u002A,1*%
%TO.N,GND*%
X104100000Y-208900000D03*
%TD*%
D11*
%TO.P,S31,1*%
%TO.N,P008*%
X193913401Y-92106115D03*
%TO.P,S31,2*%
%TO.N,ujmcol_yuirow*%
X187563401Y-94646115D03*
%TD*%
D12*
%TO.P,D84,1*%
%TO.N,P031*%
X354183401Y-66186115D03*
D13*
X352023401Y-66186115D03*
%TO.P,D84,2*%
%TO.N,right_macro*%
X348723401Y-66186115D03*
D14*
X346563401Y-66186115D03*
%TD*%
D12*
%TO.P,D36,1*%
%TO.N,P029*%
X218183401Y-85186115D03*
D13*
X216023401Y-85186115D03*
%TO.P,D36,2*%
%TO.N,ikcol_numberrow*%
X212723401Y-85186115D03*
D14*
X210563401Y-85186115D03*
%TD*%
D11*
%TO.P,S73,1*%
%TO.N,P011*%
X310913401Y-92106115D03*
%TO.P,S73,2*%
%TO.N,left_del*%
X304563401Y-94646115D03*
%TD*%
D12*
%TO.P,D45,1*%
%TO.N,P113*%
X275183401Y-142186115D03*
D13*
X273023401Y-142186115D03*
%TO.P,D45,2*%
%TO.N,minuscol_nmrow*%
X269723401Y-142186115D03*
D14*
X267563401Y-142186115D03*
%TD*%
D11*
%TO.P,,1*%
%TO.N,GND*%
X136400000Y-109200000D03*
%TD*%
D12*
%TO.P,D32,1*%
%TO.N,P029*%
X199183401Y-85186115D03*
D13*
X197023401Y-85186115D03*
%TO.P,D32,2*%
%TO.N,ujmcol_numberrow*%
X193723401Y-85186115D03*
D14*
X191563401Y-85186115D03*
%TD*%
D11*
%TO.P,S66,1*%
%TO.N,P008*%
X193913401Y-49106115D03*
%TO.P,S66,2*%
%TO.N,f7_one*%
X187563401Y-51646115D03*
%TD*%
D12*
%TO.P,D75,1*%
%TO.N,P031*%
X316183401Y-66186115D03*
D13*
X314023401Y-66186115D03*
%TO.P,D75,2*%
%TO.N,left_macro*%
X310723401Y-66186115D03*
D14*
X308563401Y-66186115D03*
%TD*%
D11*
%TO.P,S39,1*%
%TO.N,P020*%
X231913401Y-92106115D03*
%TO.P,S39,2*%
%TO.N,olcol_yuirow*%
X225563401Y-94646115D03*
%TD*%
%TO.P,S65,1*%
%TO.N,P006*%
X174913401Y-49106115D03*
%TO.P,S65,2*%
%TO.N,f6_one*%
X168563401Y-51646115D03*
%TD*%
D12*
%TO.P,D66,1*%
%TO.N,P031*%
X199183401Y-61186115D03*
D13*
X197023401Y-61186115D03*
%TO.P,D66,2*%
%TO.N,f7_one*%
X193723401Y-61186115D03*
D14*
X191563401Y-61186115D03*
%TD*%
D11*
%TO.P,S27,1*%
%TO.N,P006*%
X174913401Y-92106115D03*
%TO.P,S27,2*%
%TO.N,yhncol_yuirow*%
X168563401Y-94646115D03*
%TD*%
D12*
%TO.P,D74,1*%
%TO.N,P029*%
X316183401Y-85186115D03*
D13*
X314023401Y-85186115D03*
%TO.P,D74,2*%
%TO.N,left_ins*%
X310723401Y-85186115D03*
D14*
X308563401Y-85186115D03*
%TD*%
D11*
%TO.P,S29,1*%
%TO.N,P008*%
X193913401Y-130106115D03*
%TO.P,S29,2*%
%TO.N,ujmcol_nmrow*%
X187563401Y-132646115D03*
%TD*%
D12*
%TO.P,D52,1*%
%TO.N,P029*%
X294183401Y-85186115D03*
D13*
X292023401Y-85186115D03*
%TO.P,D52,2*%
%TO.N,pluscol_numberrow*%
X288723401Y-85186115D03*
D14*
X286563401Y-85186115D03*
%TD*%
D11*
%TO.P,S75,1*%
%TO.N,P011*%
X310913401Y-54106115D03*
%TO.P,S75,2*%
%TO.N,left_macro*%
X304563401Y-56646115D03*
%TD*%
%TO.P,S36,1*%
%TO.N,P017*%
X212913401Y-73106115D03*
%TO.P,S36,2*%
%TO.N,ikcol_numberrow*%
X206563401Y-75646115D03*
%TD*%
%TO.P,S47,1*%
%TO.N,P024*%
X269913401Y-92106115D03*
%TO.P,S47,2*%
%TO.N,minuscol_yuirow*%
X263563401Y-94646115D03*
%TD*%
D12*
%TO.P,D87,1*%
%TO.N,P111*%
X212183401Y-163186115D03*
D13*
X210023401Y-163186115D03*
%TO.P,D87,2*%
%TO.N,mirror_alt_thumbrow*%
X206723401Y-163186115D03*
D14*
X204563401Y-163186115D03*
%TD*%
D11*
%TO.P,S81,1*%
%TO.N,P106*%
X348913401Y-149106115D03*
%TO.P,S81,2*%
%TO.N,right_down*%
X342563401Y-151646115D03*
%TD*%
D12*
%TO.P,D30,1*%
%TO.N,P115*%
X199183401Y-123186115D03*
D13*
X197023401Y-123186115D03*
%TO.P,D30,2*%
%TO.N,ujmcol_hjkrow*%
X193723401Y-123186115D03*
D14*
X191563401Y-123186115D03*
%TD*%
D11*
%TO.P,S25,1*%
%TO.N,P006*%
X174913401Y-130106115D03*
%TO.P,S25,2*%
%TO.N,yhncol_nmrow*%
X168563401Y-132646115D03*
%TD*%
D12*
%TO.P,D50,1*%
%TO.N,P115*%
X294183401Y-123186115D03*
D13*
X292023401Y-123186115D03*
%TO.P,D50,2*%
%TO.N,pluscol_hjkrow*%
X288723401Y-123186115D03*
D14*
X286563401Y-123186115D03*
%TD*%
D15*
%TO.P,REF\u002A\u002A,1*%
%TO.N,RST*%
X101200000Y-53200000D03*
%TO.P,REF\u002A\u002A,2*%
%TO.N,GND*%
X101200000Y-49000000D03*
%TD*%
D12*
%TO.P,D39,1*%
%TO.N,P002*%
X237183401Y-104186115D03*
D13*
X235023401Y-104186115D03*
%TO.P,D39,2*%
%TO.N,olcol_yuirow*%
X231723401Y-104186115D03*
D14*
X229563401Y-104186115D03*
%TD*%
D11*
%TO.P,S43,1*%
%TO.N,P022*%
X250913401Y-92106115D03*
%TO.P,S43,2*%
%TO.N,pcol_yuirow*%
X244563401Y-94646115D03*
%TD*%
D12*
%TO.P,D34,1*%
%TO.N,P115*%
X218183401Y-123186115D03*
D13*
X216023401Y-123186115D03*
%TO.P,D34,2*%
%TO.N,ikcol_hjkrow*%
X212723401Y-123186115D03*
D14*
X210563401Y-123186115D03*
%TD*%
D11*
%TO.P,S30,1*%
%TO.N,P008*%
X193913401Y-111106115D03*
%TO.P,S30,2*%
%TO.N,ujmcol_hjkrow*%
X187563401Y-113646115D03*
%TD*%
D12*
%TO.P,D28,1*%
%TO.N,P029*%
X180183401Y-85186115D03*
D13*
X178023401Y-85186115D03*
%TO.P,D28,2*%
%TO.N,yhncol_numberrow*%
X174723401Y-85186115D03*
D14*
X172563401Y-85186115D03*
%TD*%
D12*
%TO.P,D41,1*%
%TO.N,P113*%
X256183401Y-142186115D03*
D13*
X254023401Y-142186115D03*
%TO.P,D41,2*%
%TO.N,pcol_nmrow*%
X250723401Y-142186115D03*
D14*
X248563401Y-142186115D03*
%TD*%
D12*
%TO.P,D76,1*%
%TO.N,P111*%
X335183401Y-161186115D03*
D13*
X333023401Y-161186115D03*
%TO.P,D76,2*%
%TO.N,updown_down*%
X329723401Y-161186115D03*
D14*
X327563401Y-161186115D03*
%TD*%
D11*
%TO.P,S86,1*%
%TO.N,P024*%
X244913401Y-151106115D03*
%TO.P,S86,2*%
%TO.N,mirror_winkey_thumbrow*%
X238563401Y-153646115D03*
%TD*%
D12*
%TO.P,D27,1*%
%TO.N,P002*%
X180183401Y-104186115D03*
D13*
X178023401Y-104186115D03*
%TO.P,D27,2*%
%TO.N,yhncol_yuirow*%
X174723401Y-104186115D03*
D14*
X172563401Y-104186115D03*
%TD*%
D12*
%TO.P,D49,1*%
%TO.N,P113*%
X294183401Y-142186115D03*
D13*
X292023401Y-142186115D03*
%TO.P,D49,2*%
%TO.N,pluscol_nmrow*%
X288723401Y-142186115D03*
D14*
X286563401Y-142186115D03*
%TD*%
D11*
%TO.P,S69,1*%
%TO.N,P022*%
X250913401Y-49106115D03*
%TO.P,S69,2*%
%TO.N,f10_one*%
X244563401Y-51646115D03*
%TD*%
%TO.P,S45,1*%
%TO.N,P024*%
X269913401Y-130106115D03*
%TO.P,S45,2*%
%TO.N,minuscol_nmrow*%
X263563401Y-132646115D03*
%TD*%
D12*
%TO.P,D68,1*%
%TO.N,P031*%
X237183401Y-61186115D03*
D13*
X235023401Y-61186115D03*
%TO.P,D68,2*%
%TO.N,f9_one*%
X231723401Y-61186115D03*
D14*
X229563401Y-61186115D03*
%TD*%
D11*
%TO.P,S85,1*%
%TO.N,P100*%
X274913401Y-151106115D03*
%TO.P,S85,2*%
%TO.N,mirror_ctrl_thumbrow*%
X268563401Y-153646115D03*
%TD*%
%TO.P,S40,1*%
%TO.N,P020*%
X231913401Y-73106115D03*
%TO.P,S40,2*%
%TO.N,olcol_numberrow*%
X225563401Y-75646115D03*
%TD*%
%TO.P,S88,1*%
%TO.N,P017*%
X173913401Y-151106115D03*
%TO.P,S88,2*%
%TO.N,mirror_space_thumbrow*%
X167563401Y-153646115D03*
%TD*%
D12*
%TO.P,D37,1*%
%TO.N,P113*%
X237183401Y-142186115D03*
D13*
X235023401Y-142186115D03*
%TO.P,D37,2*%
%TO.N,olcol_nmrow*%
X231723401Y-142186115D03*
D14*
X229563401Y-142186115D03*
%TD*%
D11*
%TO.P,S84,1*%
%TO.N,P106*%
X348913401Y-54106115D03*
%TO.P,S84,2*%
%TO.N,right_macro*%
X342563401Y-56646115D03*
%TD*%
D12*
%TO.P,D40,1*%
%TO.N,P029*%
X237183401Y-85186115D03*
D13*
X235023401Y-85186115D03*
%TO.P,D40,2*%
%TO.N,olcol_numberrow*%
X231723401Y-85186115D03*
D14*
X229563401Y-85186115D03*
%TD*%
D12*
%TO.P,D35,1*%
%TO.N,P002*%
X218183401Y-104186115D03*
D13*
X216023401Y-104186115D03*
%TO.P,D35,2*%
%TO.N,ikcol_yuirow*%
X212723401Y-104186115D03*
D14*
X210563401Y-104186115D03*
%TD*%
D12*
%TO.P,D48,1*%
%TO.N,P029*%
X275183401Y-85186115D03*
D13*
X273023401Y-85186115D03*
%TO.P,D48,2*%
%TO.N,minuscol_numberrow*%
X269723401Y-85186115D03*
D14*
X267563401Y-85186115D03*
%TD*%
D12*
%TO.P,D71,1*%
%TO.N,P031*%
X294183401Y-61186115D03*
D13*
X292023401Y-61186115D03*
%TO.P,D71,2*%
%TO.N,f12_one*%
X288723401Y-61186115D03*
D14*
X286563401Y-61186115D03*
%TD*%
D12*
%TO.P,D25,1*%
%TO.N,P113*%
X180183401Y-142186115D03*
D13*
X178023401Y-142186115D03*
%TO.P,D25,2*%
%TO.N,yhncol_nmrow*%
X174723401Y-142186115D03*
D14*
X172563401Y-142186115D03*
%TD*%
D12*
%TO.P,D69,1*%
%TO.N,P031*%
X256183401Y-61186115D03*
D13*
X254023401Y-61186115D03*
%TO.P,D69,2*%
%TO.N,f10_one*%
X250723401Y-61186115D03*
D14*
X248563401Y-61186115D03*
%TD*%
D12*
%TO.P,D79,1*%
%TO.N,P029*%
X335183401Y-85186115D03*
D13*
X333023401Y-85186115D03*
%TO.P,D79,2*%
%TO.N,updown_ins*%
X329723401Y-85186115D03*
D14*
X327563401Y-85186115D03*
%TD*%
D11*
%TO.P,S28,1*%
%TO.N,P006*%
X174913401Y-73106115D03*
%TO.P,S28,2*%
%TO.N,yhncol_numberrow*%
X168563401Y-75646115D03*
%TD*%
%TO.P,S74,1*%
%TO.N,P011*%
X310913401Y-73106115D03*
%TO.P,S74,2*%
%TO.N,left_ins*%
X304563401Y-75646115D03*
%TD*%
%TO.P,S35,1*%
%TO.N,P017*%
X212913401Y-92106115D03*
%TO.P,S35,2*%
%TO.N,ikcol_yuirow*%
X206563401Y-94646115D03*
%TD*%
%TO.P,S87,1*%
%TO.N,P022*%
X214913401Y-151106115D03*
%TO.P,S87,2*%
%TO.N,mirror_alt_thumbrow*%
X208563401Y-153646115D03*
%TD*%
%TO.P,S34,1*%
%TO.N,P017*%
X212913401Y-111106115D03*
%TO.P,S34,2*%
%TO.N,ikcol_hjkrow*%
X206563401Y-113646115D03*
%TD*%
%TO.P,S83,1*%
%TO.N,P106*%
X348913401Y-73106115D03*
%TO.P,S83,2*%
%TO.N,right_ins*%
X342563401Y-75646115D03*
%TD*%
%TO.P,S46,1*%
%TO.N,P024*%
X269913401Y-111106115D03*
%TO.P,S46,2*%
%TO.N,minuscol_hjkrow*%
X263563401Y-113646115D03*
%TD*%
D12*
%TO.P,D73,1*%
%TO.N,P002*%
X316183401Y-104186115D03*
D13*
X314023401Y-104186115D03*
%TO.P,D73,2*%
%TO.N,left_del*%
X310723401Y-104186115D03*
D14*
X308563401Y-104186115D03*
%TD*%
D12*
%TO.P,D70,1*%
%TO.N,P031*%
X275183401Y-61186115D03*
D13*
X273023401Y-61186115D03*
%TO.P,D70,2*%
%TO.N,f11_one*%
X269723401Y-61186115D03*
D14*
X267563401Y-61186115D03*
%TD*%
D16*
%TO.P,D89,1*%
%TO.N,P111*%
X152077459Y-189843293D03*
D17*
X150206844Y-190923293D03*
%TO.P,D89,2*%
%TO.N,mirror_ctrl2_thumbrow*%
X147348960Y-192573293D03*
D14*
X145478345Y-193653293D03*
%TD*%
D12*
%TO.P,D78,1*%
%TO.N,P002*%
X335183401Y-104186115D03*
D13*
X333023401Y-104186115D03*
%TO.P,D78,2*%
%TO.N,updown_del*%
X329723401Y-104186115D03*
D14*
X327563401Y-104186115D03*
%TD*%
D11*
%TO.P,S32,1*%
%TO.N,P008*%
X193913401Y-73106115D03*
%TO.P,S32,2*%
%TO.N,ujmcol_numberrow*%
X187563401Y-75646115D03*
%TD*%
D12*
%TO.P,D31,1*%
%TO.N,P002*%
X199183401Y-104186115D03*
D13*
X197023401Y-104186115D03*
%TO.P,D31,2*%
%TO.N,ujmcol_yuirow*%
X193723401Y-104186115D03*
D14*
X191563401Y-104186115D03*
%TD*%
D12*
%TO.P,D26,1*%
%TO.N,P115*%
X180183401Y-123186115D03*
D13*
X178023401Y-123186115D03*
%TO.P,D26,2*%
%TO.N,yhncol_hjkrow*%
X174723401Y-123186115D03*
D14*
X172563401Y-123186115D03*
%TD*%
D11*
%TO.P,S67,1*%
%TO.N,P017*%
X212913401Y-49106115D03*
%TO.P,S67,2*%
%TO.N,f8_one*%
X206563401Y-51646115D03*
%TD*%
D12*
%TO.P,D80,1*%
%TO.N,P031*%
X335183401Y-66186115D03*
D13*
X333023401Y-66186115D03*
%TO.P,D80,2*%
%TO.N,updown_macro*%
X329723401Y-66186115D03*
D14*
X327563401Y-66186115D03*
%TD*%
D11*
%TO.P,S42,1*%
%TO.N,P022*%
X250913401Y-111106115D03*
%TO.P,S42,2*%
%TO.N,pcol_hjkrow*%
X244563401Y-113646115D03*
%TD*%
D12*
%TO.P,D65,1*%
%TO.N,P031*%
X180183401Y-61186115D03*
D13*
X178023401Y-61186115D03*
%TO.P,D65,2*%
%TO.N,f6_one*%
X174723401Y-61186115D03*
D14*
X172563401Y-61186115D03*
%TD*%
D12*
%TO.P,D86,1*%
%TO.N,P111*%
X242183401Y-163186115D03*
D13*
X240023401Y-163186115D03*
%TO.P,D86,2*%
%TO.N,mirror_winkey_thumbrow*%
X236723401Y-163186115D03*
D14*
X234563401Y-163186115D03*
%TD*%
D11*
%TO.P,S37,1*%
%TO.N,P020*%
X231913401Y-130106115D03*
%TO.P,S37,2*%
%TO.N,olcol_nmrow*%
X225563401Y-132646115D03*
%TD*%
D12*
%TO.P,D29,1*%
%TO.N,P113*%
X199183401Y-142186115D03*
D13*
X197023401Y-142186115D03*
%TO.P,D29,2*%
%TO.N,ujmcol_nmrow*%
X193723401Y-142186115D03*
D14*
X191563401Y-142186115D03*
%TD*%
D12*
%TO.P,D42,1*%
%TO.N,P115*%
X256183401Y-123186115D03*
D13*
X254023401Y-123186115D03*
%TO.P,D42,2*%
%TO.N,pcol_hjkrow*%
X250723401Y-123186115D03*
D14*
X248563401Y-123186115D03*
%TD*%
D11*
%TO.P,S49,1*%
%TO.N,P100*%
X288913401Y-130106115D03*
%TO.P,S49,2*%
%TO.N,pluscol_nmrow*%
X282563401Y-132646115D03*
%TD*%
D12*
%TO.P,D33,1*%
%TO.N,P113*%
X218183401Y-142186115D03*
D13*
X216023401Y-142186115D03*
%TO.P,D33,2*%
%TO.N,ikcol_nmrow*%
X212723401Y-142186115D03*
D14*
X210563401Y-142186115D03*
%TD*%
D12*
%TO.P,D82,1*%
%TO.N,P002*%
X354183401Y-104186115D03*
D13*
X352023401Y-104186115D03*
%TO.P,D82,2*%
%TO.N,right_del*%
X348723401Y-104186115D03*
D14*
X346563401Y-104186115D03*
%TD*%
D11*
%TO.P,S48,1*%
%TO.N,P024*%
X269913401Y-73106115D03*
%TO.P,S48,2*%
%TO.N,minuscol_numberrow*%
X263563401Y-75646115D03*
%TD*%
%TO.P,S52,1*%
%TO.N,P100*%
X288913401Y-73106115D03*
%TO.P,S52,2*%
%TO.N,pluscol_numberrow*%
X282563401Y-75646115D03*
%TD*%
D12*
%TO.P,D46,1*%
%TO.N,P115*%
X275183401Y-123186115D03*
D13*
X273023401Y-123186115D03*
%TO.P,D46,2*%
%TO.N,minuscol_hjkrow*%
X269723401Y-123186115D03*
D14*
X267563401Y-123186115D03*
%TD*%
D12*
%TO.P,D44,1*%
%TO.N,P029*%
X256183401Y-85186115D03*
D13*
X254023401Y-85186115D03*
%TO.P,D44,2*%
%TO.N,pcol_numberrow*%
X250723401Y-85186115D03*
D14*
X248563401Y-85186115D03*
%TD*%
D11*
%TO.P,S51,1*%
%TO.N,P100*%
X288913401Y-92106115D03*
%TO.P,S51,2*%
%TO.N,pluscol_yuirow*%
X282563401Y-94646115D03*
%TD*%
D12*
%TO.P,D51,1*%
%TO.N,P002*%
X294183401Y-104186115D03*
D13*
X292023401Y-104186115D03*
%TO.P,D51,2*%
%TO.N,pluscol_yuirow*%
X288723401Y-104186115D03*
D14*
X286563401Y-104186115D03*
%TD*%
D11*
%TO.P,S80,1*%
%TO.N,P104*%
X329913401Y-54106115D03*
%TO.P,S80,2*%
%TO.N,updown_macro*%
X323563401Y-56646115D03*
%TD*%
D12*
%TO.P,D85,1*%
%TO.N,P111*%
X272183401Y-163186115D03*
D13*
X270023401Y-163186115D03*
%TO.P,D85,2*%
%TO.N,mirror_ctrl_thumbrow*%
X266723401Y-163186115D03*
D14*
X264563401Y-163186115D03*
%TD*%
D11*
%TO.P,S26,1*%
%TO.N,P006*%
X174913401Y-111106115D03*
%TO.P,S26,2*%
%TO.N,yhncol_hjkrow*%
X168563401Y-113646115D03*
%TD*%
D12*
%TO.P,D43,1*%
%TO.N,P002*%
X256183401Y-104186115D03*
D13*
X254023401Y-104186115D03*
%TO.P,D43,2*%
%TO.N,pcol_yuirow*%
X250723401Y-104186115D03*
D14*
X248563401Y-104186115D03*
%TD*%
D11*
%TO.P,S72,1*%
%TO.N,P011*%
X310913401Y-149106115D03*
%TO.P,S72,2*%
%TO.N,left_down*%
X304563401Y-151646115D03*
%TD*%
D18*
%TO.P,MCU1,1*%
%TO.N,P006*%
X122880000Y-39300000D03*
%TO.P,MCU1,2*%
%TO.N,P008*%
X122880000Y-41840000D03*
%TO.P,MCU1,3*%
%TO.N,GND*%
X122880000Y-44380000D03*
%TO.P,MCU1,4*%
X122880000Y-46920000D03*
%TO.P,MCU1,5*%
%TO.N,P017*%
X122880000Y-49460000D03*
%TO.P,MCU1,6*%
%TO.N,P020*%
X122880000Y-52000000D03*
%TO.P,MCU1,7*%
%TO.N,P022*%
X122880000Y-54540000D03*
%TO.P,MCU1,8*%
%TO.N,P024*%
X122880000Y-57080000D03*
%TO.P,MCU1,9*%
%TO.N,P100*%
X122880000Y-59620000D03*
%TO.P,MCU1,10*%
%TO.N,P011*%
X122880000Y-62160000D03*
%TO.P,MCU1,11*%
%TO.N,P104*%
X122880000Y-64700000D03*
%TO.P,MCU1,12*%
%TO.N,P106*%
X122880000Y-67240000D03*
%TO.P,MCU1,13*%
%TO.N,P009*%
X138120000Y-67240000D03*
%TO.P,MCU1,14*%
%TO.N,P010*%
X138120000Y-64700000D03*
%TO.P,MCU1,15*%
%TO.N,P111*%
X138120000Y-62160000D03*
%TO.P,MCU1,16*%
%TO.N,P113*%
X138120000Y-59620000D03*
%TO.P,MCU1,17*%
%TO.N,P115*%
X138120000Y-57080000D03*
%TO.P,MCU1,18*%
%TO.N,P002*%
X138120000Y-54540000D03*
%TO.P,MCU1,19*%
%TO.N,P029*%
X138120000Y-52000000D03*
%TO.P,MCU1,20*%
%TO.N,P031*%
X138120000Y-49460000D03*
%TO.P,MCU1,21*%
%TO.N,VCC*%
X138120000Y-46920000D03*
%TO.P,MCU1,22*%
%TO.N,RST*%
X138120000Y-44380000D03*
%TO.P,MCU1,23*%
%TO.N,GND*%
X138120000Y-41840000D03*
%TO.P,MCU1,24*%
%TO.N,RAW*%
X138120000Y-39300000D03*
%TD*%
D11*
%TO.P,,1*%
%TO.N,batteryPlus*%
X115700000Y-109200000D03*
%TD*%
D12*
%TO.P,D72,1*%
%TO.N,P111*%
X316183401Y-161186115D03*
D13*
X314023401Y-161186115D03*
%TO.P,D72,2*%
%TO.N,left_down*%
X310723401Y-161186115D03*
D14*
X308563401Y-161186115D03*
%TD*%
D11*
%TO.P,S76,1*%
%TO.N,P104*%
X329913401Y-149106115D03*
%TO.P,S76,2*%
%TO.N,updown_down*%
X323563401Y-151646115D03*
%TD*%
%TO.P,S41,1*%
%TO.N,P022*%
X250913401Y-130106115D03*
%TO.P,S41,2*%
%TO.N,pcol_nmrow*%
X244563401Y-132646115D03*
%TD*%
%TO.P,S33,1*%
%TO.N,P017*%
X212913401Y-130106115D03*
%TO.P,S33,2*%
%TO.N,ikcol_nmrow*%
X206563401Y-132646115D03*
%TD*%
D12*
%TO.P,D47,1*%
%TO.N,P002*%
X275183401Y-104186115D03*
D13*
X273023401Y-104186115D03*
%TO.P,D47,2*%
%TO.N,minuscol_yuirow*%
X269723401Y-104186115D03*
D14*
X267563401Y-104186115D03*
%TD*%
D16*
%TO.P,D90,1*%
%TO.N,P111*%
X126096697Y-204843293D03*
D17*
X124226082Y-205923293D03*
%TO.P,D90,2*%
%TO.N,mirror_thumbkey_thumbrow*%
X121368198Y-207573293D03*
D14*
X119497583Y-208653293D03*
%TD*%
D11*
%TO.P,S50,1*%
%TO.N,P100*%
X288913401Y-111106115D03*
%TO.P,S50,2*%
%TO.N,pluscol_hjkrow*%
X282563401Y-113646115D03*
%TD*%
%TO.P,S77,1*%
%TO.N,P104*%
X329913401Y-130106115D03*
%TO.P,S77,2*%
%TO.N,updown_up*%
X323563401Y-132646115D03*
%TD*%
D12*
%TO.P,D38,1*%
%TO.N,P115*%
X237183401Y-123186115D03*
D13*
X235023401Y-123186115D03*
%TO.P,D38,2*%
%TO.N,olcol_hjkrow*%
X231723401Y-123186115D03*
D14*
X229563401Y-123186115D03*
%TD*%
D11*
%TO.P,S70,1*%
%TO.N,P024*%
X269913401Y-49106115D03*
%TO.P,S70,2*%
%TO.N,f11_one*%
X263563401Y-51646115D03*
%TD*%
%TO.P,S90,1*%
%TO.N,P006*%
X122420947Y-193016706D03*
%TO.P,S90,2*%
%TO.N,mirror_thumbkey_thumbrow*%
X118191685Y-198391410D03*
%TD*%
%TO.P,S79,1*%
%TO.N,P104*%
X329913401Y-73106115D03*
%TO.P,S79,2*%
%TO.N,updown_ins*%
X323563401Y-75646115D03*
%TD*%
D12*
%TO.P,D81,1*%
%TO.N,P111*%
X354183401Y-161186115D03*
D13*
X352023401Y-161186115D03*
%TO.P,D81,2*%
%TO.N,right_down*%
X348723401Y-161186115D03*
D14*
X346563401Y-161186115D03*
%TD*%
D11*
%TO.P,S71,1*%
%TO.N,P100*%
X288913401Y-49106115D03*
%TO.P,S71,2*%
%TO.N,f12_one*%
X282563401Y-51646115D03*
%TD*%
%TO.P,S44,1*%
%TO.N,P022*%
X250913401Y-73106115D03*
%TO.P,S44,2*%
%TO.N,pcol_numberrow*%
X244563401Y-75646115D03*
%TD*%
%TO.P,S89,1*%
%TO.N,P008*%
X148401709Y-178016706D03*
%TO.P,S89,2*%
%TO.N,mirror_ctrl2_thumbrow*%
X144172447Y-183391410D03*
%TD*%
%TO.P,S82,1*%
%TO.N,P106*%
X348913401Y-92106115D03*
%TO.P,S82,2*%
%TO.N,right_del*%
X342563401Y-94646115D03*
%TD*%
%TO.P,S78,1*%
%TO.N,P104*%
X329913401Y-92106115D03*
%TO.P,S78,2*%
%TO.N,updown_del*%
X323563401Y-94646115D03*
%TD*%
D12*
%TO.P,D67,1*%
%TO.N,P031*%
X218183401Y-61186115D03*
D13*
X216023401Y-61186115D03*
%TO.P,D67,2*%
%TO.N,f8_one*%
X212723401Y-61186115D03*
D14*
X210563401Y-61186115D03*
%TD*%
D11*
%TO.P,S38,1*%
%TO.N,P020*%
X231913401Y-111106115D03*
%TO.P,S38,2*%
%TO.N,olcol_hjkrow*%
X225563401Y-113646115D03*
%TD*%
D12*
%TO.P,D77,1*%
%TO.N,P113*%
X335183401Y-142186115D03*
D13*
X333023401Y-142186115D03*
%TO.P,D77,2*%
%TO.N,updown_up*%
X329723401Y-142186115D03*
D14*
X327563401Y-142186115D03*
%TD*%
D12*
%TO.P,D88,1*%
%TO.N,P111*%
X171183401Y-163186115D03*
D13*
X169023401Y-163186115D03*
%TO.P,D88,2*%
%TO.N,mirror_space_thumbrow*%
X165723401Y-163186115D03*
D14*
X163563401Y-163186115D03*
%TD*%
D12*
%TO.P,D83,1*%
%TO.N,P029*%
X354183401Y-85186115D03*
D13*
X352023401Y-85186115D03*
%TO.P,D83,2*%
%TO.N,right_ins*%
X348723401Y-85186115D03*
D14*
X346563401Y-85186115D03*
%TD*%
D11*
%TO.P,S68,1*%
%TO.N,P020*%
X231913401Y-49106115D03*
%TO.P,S68,2*%
%TO.N,f9_one*%
X225563401Y-51646115D03*
%TD*%
D19*
%TO.P,T1,*%
%TO.N,*%
X101225000Y-38300000D03*
X99025000Y-38300000D03*
D20*
X100125000Y-40500000D03*
X100125000Y-43500000D03*
D19*
X101225000Y-45700000D03*
X99025000Y-45700000D03*
D21*
%TO.P,T1,1*%
%TO.N,pos*%
X102200000Y-39750000D03*
%TO.P,T1,2*%
%TO.N,RAW*%
X102200000Y-42750000D03*
%TO.P,T1,3*%
%TO.N,batteryPlus*%
X102200000Y-44250000D03*
%TD*%
D22*
%TO.N,GND*%
X261100000Y-167400000D03*
D23*
%TO.N,P006*%
X111900000Y-68000000D03*
%TO.N,P008*%
X142600000Y-72000000D03*
X142600000Y-68200000D03*
X112700000Y-71000000D03*
%TO.N,P017*%
X141000000Y-68300000D03*
X113500000Y-73200000D03*
X141000000Y-73300000D03*
%TO.N,P020*%
X144200000Y-43700000D03*
X114500000Y-74100000D03*
X144200000Y-37800000D03*
X144200000Y-68300000D03*
X144200000Y-74100000D03*
%TO.N,P022*%
X115300000Y-75200000D03*
X145400000Y-46000000D03*
X145400000Y-75200000D03*
X145400000Y-68200000D03*
%TO.N,P024*%
X146800000Y-75400000D03*
X146800000Y-68100000D03*
X116200000Y-76300000D03*
X146700000Y-44400000D03*
%TO.N,P100*%
X116700000Y-77600000D03*
X161200000Y-76900000D03*
%TO.N,P011*%
X157500000Y-147500000D03*
X118000000Y-77800000D03*
%TO.N,P104*%
X118800000Y-79000000D03*
%TO.N,P106*%
X119700000Y-80400000D03*
%TO.N,GND*%
X109300000Y-46400000D03*
X136400000Y-81800000D03*
%TO.N,RST*%
X104500000Y-47500000D03*
%TD*%
D24*
%TO.N,P100*%
X117100000Y-77200000D02*
X117100000Y-60600000D01*
X117100000Y-60600000D02*
X118080000Y-59620000D01*
X116700000Y-77600000D02*
X117100000Y-77200000D01*
X118080000Y-59620000D02*
X122880000Y-59620000D01*
%TO.N,P024*%
X146800000Y-75400000D02*
X146800000Y-68100000D01*
%TO.N,batteryPlus*%
X109350000Y-44150000D02*
X102700000Y-44150000D01*
X110800000Y-45600000D02*
X109350000Y-44150000D01*
X110800000Y-73600000D02*
X110800000Y-45600000D01*
X111600000Y-74400000D02*
X110800000Y-73600000D01*
X111600000Y-74400000D02*
X115700000Y-78500000D01*
X111250000Y-74050000D02*
X111600000Y-74400000D01*
%TO.N,P006*%
X113100000Y-39300000D02*
X111900000Y-40500000D01*
X111900000Y-40500000D02*
X111900000Y-68000000D01*
X122880000Y-39300000D02*
X113100000Y-39300000D01*
%TO.N,GND*%
X107700000Y-212500000D02*
X104100000Y-208900000D01*
X141100000Y-212500000D02*
X107700000Y-212500000D01*
X182600000Y-171000000D02*
X141100000Y-212500000D01*
X263300000Y-171000000D02*
X182600000Y-171000000D01*
X263400000Y-170900000D02*
X263300000Y-171000000D01*
X263400000Y-170900000D02*
X263200000Y-170900000D01*
X269400000Y-170900000D02*
X263400000Y-170900000D01*
X261100000Y-168800000D02*
X261100000Y-167400000D01*
X263200000Y-170900000D02*
X261100000Y-168800000D01*
X270400000Y-169900000D02*
X269400000Y-170900000D01*
X360000000Y-169900000D02*
X270400000Y-169900000D01*
X359400000Y-40100000D02*
X359900000Y-40600000D01*
X258400000Y-40100000D02*
X359400000Y-40100000D01*
X164800000Y-40100000D02*
X258400000Y-40100000D01*
X161300000Y-36600000D02*
X164800000Y-40100000D01*
X143360000Y-36600000D02*
X161300000Y-36600000D01*
X138120000Y-41840000D02*
X143360000Y-36600000D01*
%TO.N,P111*%
X142056707Y-204843293D02*
X126096697Y-204843293D01*
X152700000Y-192000000D02*
X152700000Y-194200000D01*
X152700000Y-194200000D02*
X142056707Y-204843293D01*
X152077459Y-189843293D02*
X152077459Y-191377459D01*
X152077459Y-191377459D02*
X152700000Y-192000000D01*
X215097286Y-166100000D02*
X212183401Y-163186115D01*
X240800000Y-166100000D02*
X215097286Y-166100000D01*
X242183401Y-164716599D02*
X240800000Y-166100000D01*
X242183401Y-163186115D02*
X242183401Y-164716599D01*
%TO.N,P113*%
X218183401Y-144016599D02*
X218183401Y-142186115D01*
X216500000Y-145700000D02*
X218183401Y-144016599D01*
X201600000Y-145700000D02*
X216500000Y-145700000D01*
X199183401Y-143283401D02*
X201600000Y-145700000D01*
X199183401Y-142186115D02*
X199183401Y-143283401D01*
X237183401Y-143616599D02*
X237183401Y-142186115D01*
X235200000Y-145600000D02*
X237183401Y-143616599D01*
X221597286Y-145600000D02*
X235200000Y-145600000D01*
X218183401Y-142186115D02*
X221597286Y-145600000D01*
%TO.N,P115*%
X235500000Y-126900000D02*
X237183401Y-125216599D01*
X237183401Y-125216599D02*
X237183401Y-123186115D01*
X221900000Y-126900000D02*
X235500000Y-126900000D01*
X221251357Y-126251357D02*
X221900000Y-126900000D01*
X221248643Y-126251357D02*
X221251357Y-126251357D01*
X218183401Y-123186115D02*
X221248643Y-126251357D01*
%TO.N,P002*%
X160700000Y-106800000D02*
X177569516Y-106800000D01*
X158000000Y-55300000D02*
X158000000Y-104100000D01*
X157240000Y-54540000D02*
X158000000Y-55300000D01*
X177569516Y-106800000D02*
X180183401Y-104186115D01*
X138120000Y-54540000D02*
X157240000Y-54540000D01*
X158000000Y-104100000D02*
X160700000Y-106800000D01*
%TO.N,P115*%
X271500000Y-127000000D02*
X275183401Y-123316599D01*
X256800000Y-127000000D02*
X271500000Y-127000000D01*
X256183401Y-126383401D02*
X256800000Y-127000000D01*
X256183401Y-123186115D02*
X256183401Y-126383401D01*
X275183401Y-123316599D02*
X275183401Y-123186115D01*
%TO.N,P002*%
X273000000Y-107300000D02*
X275183401Y-105116599D01*
X257200000Y-107300000D02*
X273000000Y-107300000D01*
X256183401Y-106283401D02*
X257200000Y-107300000D01*
X256183401Y-104186115D02*
X256183401Y-106283401D01*
X275183401Y-105116599D02*
X275183401Y-104186115D01*
X275183401Y-105483401D02*
X275183401Y-104186115D01*
X277100000Y-107400000D02*
X275183401Y-105483401D01*
X293500000Y-107400000D02*
X277100000Y-107400000D01*
%TO.N,left_del*%
X305300000Y-95382714D02*
X305300000Y-100922714D01*
X304563401Y-94646115D02*
X305300000Y-95382714D01*
X305300000Y-100922714D02*
X308563401Y-104186115D01*
%TO.N,P029*%
X234400000Y-88500000D02*
X237183401Y-85716599D01*
X219900000Y-88500000D02*
X234400000Y-88500000D01*
X237183401Y-85716599D02*
X237183401Y-85186115D01*
X218183401Y-86783401D02*
X219900000Y-88500000D01*
X218183401Y-85186115D02*
X218183401Y-86783401D01*
%TO.N,P100*%
X165600000Y-72500000D02*
X161200000Y-76900000D01*
X167100000Y-67600000D02*
X165600000Y-69100000D01*
X283407286Y-67600000D02*
X167100000Y-67600000D01*
X288913401Y-73106115D02*
X283407286Y-67600000D01*
X165600000Y-69100000D02*
X165600000Y-72500000D01*
%TO.N,P031*%
X235400000Y-65200000D02*
X237183401Y-63416599D01*
X221500000Y-65200000D02*
X235400000Y-65200000D01*
X218183401Y-61883401D02*
X221500000Y-65200000D01*
X218183401Y-61186115D02*
X218183401Y-61883401D01*
X237183401Y-63416599D02*
X237183401Y-61186115D01*
%TO.N,P029*%
X180183401Y-85716599D02*
X180183401Y-85186115D01*
X177400000Y-88500000D02*
X180183401Y-85716599D01*
X161500000Y-88500000D02*
X177400000Y-88500000D01*
X159600000Y-86600000D02*
X161500000Y-88500000D01*
X159600000Y-53600000D02*
X159600000Y-86600000D01*
X158000000Y-52000000D02*
X159600000Y-53600000D01*
X138120000Y-52000000D02*
X158000000Y-52000000D01*
%TO.N,P115*%
X157100000Y-58000000D02*
X157100000Y-124800000D01*
X156180000Y-57080000D02*
X157100000Y-58000000D01*
X157100000Y-124800000D02*
X159100000Y-126800000D01*
X159100000Y-126800000D02*
X177100000Y-126800000D01*
X138120000Y-57080000D02*
X156180000Y-57080000D01*
X177100000Y-126800000D02*
X180183401Y-123716599D01*
X180183401Y-123716599D02*
X180183401Y-123186115D01*
%TO.N,P106*%
X120700000Y-67240000D02*
X122880000Y-67240000D01*
X119700000Y-68240000D02*
X120700000Y-67240000D01*
X119700000Y-80400000D02*
X119700000Y-68240000D01*
%TO.N,RST*%
X104500000Y-52200000D02*
X103500000Y-53200000D01*
X104500000Y-47500000D02*
X104500000Y-52200000D01*
X103500000Y-53200000D02*
X101200000Y-53200000D01*
%TO.N,P029*%
X199183401Y-85186115D02*
X199183401Y-85516599D01*
X314023401Y-85186115D02*
X316183401Y-85186115D01*
X275183401Y-85916599D02*
X272700000Y-88400000D01*
X180183401Y-85883401D02*
X180183401Y-85186115D01*
X333023401Y-85186115D02*
X335183401Y-85186115D01*
X218183401Y-85616599D02*
X218183401Y-85186115D01*
X199183401Y-85516599D02*
X196200000Y-88500000D01*
X273023401Y-85186115D02*
X275183401Y-85186115D01*
X215300000Y-88500000D02*
X218183401Y-85616599D01*
X256183401Y-86283401D02*
X256183401Y-85186115D01*
X332000000Y-88400000D02*
X317800000Y-88400000D01*
X313200000Y-88500000D02*
X297497286Y-88500000D01*
X272700000Y-88400000D02*
X258300000Y-88400000D01*
X337800000Y-88500000D02*
X337900000Y-88400000D01*
X237386115Y-85186115D02*
X237183401Y-85186115D01*
X294183401Y-85186115D02*
X290869516Y-88500000D01*
X275183401Y-85783401D02*
X275183401Y-85186115D01*
X317800000Y-88400000D02*
X316183401Y-86783401D01*
X202051357Y-88051357D02*
X202500000Y-88500000D01*
X216023401Y-85186115D02*
X218183401Y-85186115D01*
X240700000Y-88500000D02*
X252869516Y-88500000D01*
X335183401Y-85883401D02*
X337800000Y-88500000D01*
X275183401Y-85186115D02*
X275183401Y-85916599D01*
X199183401Y-85186115D02*
X202048643Y-88051357D01*
X196200000Y-88500000D02*
X182800000Y-88500000D01*
X197023401Y-85186115D02*
X199183401Y-85186115D01*
X335183401Y-85186115D02*
X335183401Y-85883401D01*
X290869516Y-88500000D02*
X277900000Y-88500000D01*
X335183401Y-85186115D02*
X332000000Y-88369516D01*
X235023401Y-85186115D02*
X237183401Y-85186115D01*
X202500000Y-88500000D02*
X215300000Y-88500000D01*
X316183401Y-85186115D02*
X316183401Y-85516599D01*
X240700000Y-88500000D02*
X237386115Y-85186115D01*
X258300000Y-88400000D02*
X256183401Y-86283401D01*
X297497286Y-88500000D02*
X294183401Y-85186115D01*
X292023401Y-85186115D02*
X294183401Y-85186115D01*
X277900000Y-88500000D02*
X275183401Y-85783401D01*
X354183401Y-85186115D02*
X352023401Y-85186115D01*
X350969516Y-88400000D02*
X354183401Y-85186115D01*
X178023401Y-85186115D02*
X180183401Y-85186115D01*
X252869516Y-88500000D02*
X256183401Y-85186115D01*
X316183401Y-86783401D02*
X316183401Y-85186115D01*
X254023401Y-85186115D02*
X256183401Y-85186115D01*
X316183401Y-85516599D02*
X313200000Y-88500000D01*
X202048643Y-88051357D02*
X202051357Y-88051357D01*
X332000000Y-88369516D02*
X332000000Y-88400000D01*
X182800000Y-88500000D02*
X180183401Y-85883401D01*
X337900000Y-88400000D02*
X350969516Y-88400000D01*
%TO.N,P002*%
X215700000Y-107400000D02*
X218183401Y-104916599D01*
X316183401Y-105116599D02*
X312300000Y-109000000D01*
X237183401Y-105483401D02*
X237183401Y-104186115D01*
X201348643Y-106351357D02*
X201351357Y-106351357D01*
X338600000Y-108600000D02*
X335183401Y-105183401D01*
X316183401Y-104186115D02*
X316183401Y-105116599D01*
X220300000Y-107400000D02*
X218183401Y-105283401D01*
X201351357Y-106351357D02*
X202400000Y-107400000D01*
X253500000Y-107400000D02*
X238900000Y-107400000D01*
X316183401Y-106183401D02*
X319100000Y-109100000D01*
X197023401Y-104186115D02*
X199183401Y-104186115D01*
X196000000Y-107400000D02*
X183400000Y-107400000D01*
X216023401Y-104186115D02*
X218183401Y-104186115D01*
X256183401Y-104716599D02*
X253500000Y-107400000D01*
X354183401Y-104186115D02*
X354183401Y-104116599D01*
X237183401Y-105216599D02*
X235000000Y-107400000D01*
X335183401Y-105183401D02*
X335183401Y-104186115D01*
X335183401Y-105516599D02*
X335183401Y-104186115D01*
X294183401Y-105683401D02*
X294183401Y-104186115D01*
X312300000Y-109000000D02*
X297500000Y-109000000D01*
X354183401Y-104186115D02*
X354183401Y-104416599D01*
X196484758Y-106884758D02*
X196484758Y-106915242D01*
X182502714Y-106502714D02*
X182500000Y-106502714D01*
X354113885Y-104186115D02*
X352023401Y-104186115D01*
X178023401Y-104186115D02*
X180183401Y-104186115D01*
X354183401Y-104416599D02*
X350000000Y-108600000D01*
X238900000Y-107400000D02*
X238900000Y-107200000D01*
X354183401Y-104116599D02*
X354113885Y-104186115D01*
X202400000Y-107400000D02*
X215700000Y-107400000D01*
X294183401Y-106683401D02*
X294200000Y-106700000D01*
X182500000Y-106502714D02*
X180183401Y-104186115D01*
X235000000Y-107400000D02*
X220300000Y-107400000D01*
X331600000Y-109100000D02*
X335183401Y-105516599D01*
X294200000Y-106700000D02*
X293500000Y-107400000D01*
X256183401Y-104186115D02*
X256183401Y-104716599D01*
X218183401Y-104916599D02*
X218183401Y-104186115D01*
X199183401Y-104186115D02*
X201348643Y-106351357D01*
X314023401Y-104186115D02*
X316183401Y-104186115D01*
X319100000Y-109100000D02*
X331600000Y-109100000D01*
X218183401Y-105283401D02*
X218183401Y-104186115D01*
X350000000Y-108600000D02*
X338600000Y-108600000D01*
X316183401Y-104186115D02*
X316183401Y-106183401D01*
X237183401Y-104186115D02*
X235023401Y-104186115D01*
X297500000Y-109000000D02*
X294183401Y-105683401D01*
X333023401Y-104186115D02*
X335183401Y-104186115D01*
X237183401Y-104186115D02*
X237183401Y-105216599D01*
X294183401Y-104186115D02*
X294183401Y-106683401D01*
X273023401Y-104186115D02*
X275183401Y-104186115D01*
X199183401Y-104186115D02*
X196484758Y-106884758D01*
X238900000Y-107200000D02*
X237183401Y-105483401D01*
X196484758Y-106915242D02*
X196000000Y-107400000D01*
X183400000Y-107400000D02*
X182502714Y-106502714D01*
X292023401Y-104186115D02*
X294183401Y-104186115D01*
X254023401Y-104186115D02*
X256183401Y-104186115D01*
%TO.N,P115*%
X273023401Y-123186115D02*
X275183401Y-123186115D01*
X235023401Y-123186115D02*
X237183401Y-123186115D01*
X290800000Y-126900000D02*
X278600000Y-126900000D01*
X256183401Y-125016599D02*
X254200000Y-127000000D01*
X201500000Y-126800000D02*
X201500000Y-126700000D01*
X218183401Y-125016599D02*
X216400000Y-126800000D01*
X254023401Y-123186115D02*
X256183401Y-123186115D01*
X196600000Y-126800000D02*
X182200000Y-126800000D01*
X178023401Y-123186115D02*
X180183401Y-123186115D01*
X294183401Y-123186115D02*
X294183401Y-123516599D01*
X201500000Y-126700000D02*
X199183401Y-124383401D01*
X182200000Y-126800000D02*
X180183401Y-124783401D01*
X216023401Y-123186115D02*
X218183401Y-123186115D01*
X256183401Y-123186115D02*
X256183401Y-125016599D01*
X199183401Y-124383401D02*
X199183401Y-123186115D01*
X254200000Y-127000000D02*
X238000000Y-127000000D01*
X180183401Y-124783401D02*
X180183401Y-123186115D01*
X238000000Y-127000000D02*
X237183401Y-126183401D01*
X199183401Y-123186115D02*
X199183401Y-124216599D01*
X216400000Y-126800000D02*
X201500000Y-126800000D01*
X199183401Y-124216599D02*
X196600000Y-126800000D01*
X218183401Y-123186115D02*
X218183401Y-125016599D01*
X294183401Y-123516599D02*
X290800000Y-126900000D01*
X278600000Y-126900000D02*
X275183401Y-123483401D01*
X275183401Y-123483401D02*
X275183401Y-123186115D01*
X292023401Y-123186115D02*
X294183401Y-123186115D01*
X237183401Y-126183401D02*
X237183401Y-123186115D01*
X197023401Y-123186115D02*
X199183401Y-123186115D01*
%TO.N,P113*%
X256183401Y-142186115D02*
X259697286Y-145700000D01*
X240500000Y-145800000D02*
X253900000Y-145800000D01*
X178023401Y-142186115D02*
X180183401Y-142186115D01*
X253900000Y-145800000D02*
X256183401Y-143516599D01*
X334100000Y-144200000D02*
X335183401Y-143116599D01*
X237183401Y-142483401D02*
X240500000Y-145800000D01*
X272800000Y-145700000D02*
X275183401Y-143316599D01*
X254023401Y-142186115D02*
X256183401Y-142186115D01*
X156900000Y-145900000D02*
X155600000Y-144600000D01*
X335183401Y-143116599D02*
X335183401Y-142186115D01*
X322086115Y-142186115D02*
X324100000Y-144200000D01*
X259697286Y-145700000D02*
X272800000Y-145700000D01*
X294183401Y-142616599D02*
X294183401Y-142186115D01*
X278397286Y-145400000D02*
X291400000Y-145400000D01*
X292023401Y-142186115D02*
X294183401Y-142186115D01*
X182800000Y-145600000D02*
X197300000Y-145600000D01*
X155600000Y-144600000D02*
X155600000Y-60600000D01*
X235023401Y-142186115D02*
X237183401Y-142186115D01*
X291400000Y-145400000D02*
X294183401Y-142616599D01*
X176800000Y-145900000D02*
X156900000Y-145900000D01*
X180183401Y-142516599D02*
X176800000Y-145900000D01*
X273023401Y-142186115D02*
X275183401Y-142186115D01*
X199183401Y-143716599D02*
X199183401Y-142186115D01*
X180183401Y-142186115D02*
X180183401Y-142983401D01*
X294183401Y-142186115D02*
X322086115Y-142186115D01*
X237183401Y-142186115D02*
X237183401Y-142483401D01*
X197023401Y-142186115D02*
X199183401Y-142186115D01*
X333023401Y-142186115D02*
X335183401Y-142186115D01*
X275183401Y-142186115D02*
X278397286Y-145400000D01*
X155600000Y-60600000D02*
X154620000Y-59620000D01*
X324100000Y-144200000D02*
X334100000Y-144200000D01*
X180183401Y-142983401D02*
X182800000Y-145600000D01*
X180183401Y-142186115D02*
X180183401Y-142516599D01*
X256183401Y-143516599D02*
X256183401Y-142186115D01*
X216023401Y-142186115D02*
X218183401Y-142186115D01*
X275183401Y-143316599D02*
X275183401Y-142186115D01*
X154620000Y-59620000D02*
X138120000Y-59620000D01*
X197300000Y-145600000D02*
X199183401Y-143716599D01*
%TO.N,P111*%
X316900000Y-164900000D02*
X316183401Y-164183401D01*
X124226082Y-205923293D02*
X125016697Y-205923293D01*
X335183401Y-161186115D02*
X335183401Y-163616599D01*
X212183401Y-164416599D02*
X209900000Y-166700000D01*
X333900000Y-164900000D02*
X316900000Y-164900000D01*
X316183401Y-161186115D02*
X316183401Y-163316599D01*
X209900000Y-166700000D02*
X173100000Y-166700000D01*
X354183401Y-161186115D02*
X354183401Y-161716599D01*
X352023401Y-161186115D02*
X354183401Y-161186115D01*
X335183401Y-163616599D02*
X333900000Y-164900000D01*
X316183401Y-164183401D02*
X316183401Y-161186115D01*
X354183401Y-161716599D02*
X351100000Y-164800000D01*
X152460000Y-62160000D02*
X154400000Y-64100000D01*
X171183401Y-170737351D02*
X152077459Y-189843293D01*
X314700000Y-164800000D02*
X276200000Y-164800000D01*
X150206844Y-190923293D02*
X150997459Y-190923293D01*
X243886115Y-163186115D02*
X242183401Y-163186115D01*
X169023401Y-163186115D02*
X171183401Y-163186115D01*
X276200000Y-164800000D02*
X274586115Y-163186115D01*
X171183401Y-164783401D02*
X171183401Y-163186115D01*
X138120000Y-62160000D02*
X152460000Y-62160000D01*
X335183401Y-163900000D02*
X335200000Y-163900000D01*
X272183401Y-163186115D02*
X272183401Y-163816599D01*
X134500000Y-166100000D02*
X134500000Y-194300000D01*
X351100000Y-164800000D02*
X336100000Y-164800000D01*
X154400000Y-64100000D02*
X154400000Y-146200000D01*
X316183401Y-163316599D02*
X314700000Y-164800000D01*
X269600000Y-166400000D02*
X247100000Y-166400000D01*
X272183401Y-163816599D02*
X269600000Y-166400000D01*
X173100000Y-166700000D02*
X171183401Y-164783401D01*
X210023401Y-163186115D02*
X212183401Y-163186115D01*
X335183401Y-163900000D02*
X335183401Y-161186115D01*
X247100000Y-166400000D02*
X243886115Y-163186115D01*
X150997459Y-190923293D02*
X152077459Y-189843293D01*
X212183401Y-163186115D02*
X212183401Y-164416599D01*
X126096697Y-202703303D02*
X126096697Y-204843293D01*
X274586115Y-163186115D02*
X272183401Y-163186115D01*
X125016697Y-205923293D02*
X126096697Y-204843293D01*
X154400000Y-146200000D02*
X134500000Y-166100000D01*
X335200000Y-163900000D02*
X336100000Y-164800000D01*
X333023401Y-161186115D02*
X335183401Y-161186115D01*
X171183401Y-163186115D02*
X171183401Y-170737351D01*
X134500000Y-194300000D02*
X126096697Y-202703303D01*
X314023401Y-161186115D02*
X316183401Y-161186115D01*
X270023401Y-163186115D02*
X272183401Y-163186115D01*
X240023401Y-163186115D02*
X242183401Y-163186115D01*
%TO.N,P031*%
X180183401Y-63316599D02*
X177300000Y-66200000D01*
X197900000Y-65400000D02*
X199183401Y-64116599D01*
X197023401Y-61186115D02*
X199183401Y-61186115D01*
X275183401Y-61186115D02*
X278897286Y-64900000D01*
X199186115Y-61186115D02*
X203300000Y-65300000D01*
X235023401Y-61186115D02*
X237183401Y-61186115D01*
X254400000Y-65300000D02*
X256183401Y-63516599D01*
X160400000Y-64800000D02*
X160400000Y-50600000D01*
X335186115Y-66186115D02*
X338100000Y-69100000D01*
X338100000Y-69100000D02*
X351700000Y-69100000D01*
X218183401Y-63816599D02*
X218183401Y-61186115D01*
X254023401Y-61186115D02*
X256183401Y-61186115D01*
X254300000Y-65200000D02*
X254400000Y-65300000D01*
X314023401Y-66186115D02*
X316183401Y-66186115D01*
X316183401Y-66186115D02*
X316286115Y-66186115D01*
X237183401Y-61186115D02*
X241100000Y-65102714D01*
X316286115Y-66186115D02*
X319300000Y-69200000D01*
X335183401Y-66186115D02*
X335186115Y-66186115D01*
X259800000Y-64800000D02*
X271569516Y-64800000D01*
X351700000Y-69100000D02*
X354183401Y-66616599D01*
X177300000Y-66200000D02*
X161800000Y-66200000D01*
X180183401Y-61186115D02*
X180183401Y-63316599D01*
X333023401Y-66186115D02*
X335183401Y-66186115D01*
X256183401Y-63516599D02*
X256183401Y-61186115D01*
X256186115Y-61186115D02*
X259800000Y-64800000D01*
X184397286Y-65400000D02*
X197900000Y-65400000D01*
X180183401Y-61186115D02*
X184397286Y-65400000D01*
X203300000Y-65300000D02*
X216700000Y-65300000D01*
X319300000Y-69200000D02*
X333100000Y-69200000D01*
X178023401Y-61186115D02*
X180183401Y-61186115D01*
X199183401Y-61186115D02*
X199186115Y-61186115D01*
X216023401Y-61186115D02*
X218183401Y-61186115D01*
X294183401Y-62116599D02*
X294183401Y-61186115D01*
X294183401Y-61186115D02*
X297886115Y-61186115D01*
X199183401Y-64116599D02*
X199183401Y-61186115D01*
X291400000Y-64900000D02*
X294183401Y-62116599D01*
X316183401Y-66916599D02*
X316183401Y-66186115D01*
X160400000Y-50600000D02*
X159260000Y-49460000D01*
X306000000Y-69300000D02*
X313800000Y-69300000D01*
X354183401Y-66186115D02*
X354286115Y-66186115D01*
X241100000Y-65102714D02*
X241100000Y-65200000D01*
X333100000Y-69200000D02*
X335183401Y-67116599D01*
X273023401Y-61186115D02*
X275183401Y-61186115D01*
X216700000Y-65300000D02*
X218183401Y-63816599D01*
X256183401Y-61186115D02*
X256186115Y-61186115D01*
X354286115Y-66186115D02*
X352023401Y-66186115D01*
X313800000Y-69300000D02*
X316183401Y-66916599D01*
X241100000Y-65200000D02*
X254300000Y-65200000D01*
X161800000Y-66200000D02*
X160400000Y-64800000D01*
X159260000Y-49460000D02*
X138120000Y-49460000D01*
X271569516Y-64800000D02*
X275183401Y-61186115D01*
X297886115Y-61186115D02*
X306000000Y-69300000D01*
X292023401Y-61186115D02*
X294183401Y-61186115D01*
X354183401Y-66616599D02*
X354183401Y-66186115D01*
X278897286Y-64900000D02*
X291400000Y-64900000D01*
X335183401Y-67116599D02*
X335183401Y-66186115D01*
%TO.N,yhncol_nmrow*%
X168563401Y-132646115D02*
X168563401Y-133363401D01*
X169600000Y-134400000D02*
X169600000Y-139222714D01*
X169600000Y-139222714D02*
X172563401Y-142186115D01*
X168563401Y-133363401D02*
X169600000Y-134400000D01*
X172563401Y-142186115D02*
X174723401Y-142186115D01*
%TO.N,yhncol_hjkrow*%
X169500000Y-115100000D02*
X169500000Y-120122714D01*
X169500000Y-120122714D02*
X172563401Y-123186115D01*
X168563401Y-114163401D02*
X169500000Y-115100000D01*
X172563401Y-123186115D02*
X174723401Y-123186115D01*
X168563401Y-113646115D02*
X168563401Y-114163401D01*
%TO.N,yhncol_yuirow*%
X168563401Y-94646115D02*
X169300000Y-95382714D01*
X169300000Y-95382714D02*
X169300000Y-100922714D01*
X172563401Y-104186115D02*
X174723401Y-104186115D01*
X169300000Y-100922714D02*
X172563401Y-104186115D01*
%TO.N,yhncol_numberrow*%
X172563401Y-85186115D02*
X174723401Y-85186115D01*
X168563401Y-76363401D02*
X169400000Y-77200000D01*
X169400000Y-82022714D02*
X172563401Y-85186115D01*
X168563401Y-75646115D02*
X168563401Y-76363401D01*
X169400000Y-77200000D02*
X169400000Y-82022714D01*
%TO.N,P008*%
X112700000Y-43600000D02*
X114460000Y-41840000D01*
X112700000Y-71000000D02*
X112700000Y-43600000D01*
X142600000Y-68200000D02*
X142600000Y-72000000D01*
X114460000Y-41840000D02*
X122880000Y-41840000D01*
%TO.N,ujmcol_nmrow*%
X188500000Y-139122714D02*
X191563401Y-142186115D01*
X187563401Y-133363401D02*
X188500000Y-134300000D01*
X188500000Y-134300000D02*
X188500000Y-139122714D01*
X187563401Y-132646115D02*
X187563401Y-133363401D01*
X191563401Y-142186115D02*
X193723401Y-142186115D01*
%TO.N,ujmcol_hjkrow*%
X188500000Y-114582714D02*
X188500000Y-120122714D01*
X188500000Y-120122714D02*
X191563401Y-123186115D01*
X187563401Y-113646115D02*
X188500000Y-114582714D01*
X191563401Y-123186115D02*
X193723401Y-123186115D01*
%TO.N,ujmcol_yuirow*%
X188500000Y-101122714D02*
X191563401Y-104186115D01*
X187563401Y-95163401D02*
X188500000Y-96100000D01*
X187563401Y-94646115D02*
X187563401Y-95163401D01*
X188500000Y-96100000D02*
X188500000Y-101122714D01*
X191563401Y-104186115D02*
X193723401Y-104186115D01*
%TO.N,ujmcol_numberrow*%
X191563401Y-85186115D02*
X193723401Y-85186115D01*
X187563401Y-75963401D02*
X188700000Y-77100000D01*
X188700000Y-82322714D02*
X191563401Y-85186115D01*
X188700000Y-77100000D02*
X188700000Y-82322714D01*
X187563401Y-75646115D02*
X187563401Y-75963401D01*
%TO.N,P017*%
X113500000Y-73200000D02*
X113500000Y-49800000D01*
X141000000Y-68300000D02*
X141000000Y-73300000D01*
X113840000Y-49460000D02*
X122880000Y-49460000D01*
X113500000Y-49800000D02*
X113840000Y-49460000D01*
%TO.N,ikcol_nmrow*%
X207200000Y-138822714D02*
X210563401Y-142186115D01*
X206563401Y-132646115D02*
X207200000Y-133282714D01*
X207200000Y-133282714D02*
X207200000Y-138822714D01*
X210563401Y-142186115D02*
X212723401Y-142186115D01*
%TO.N,ikcol_hjkrow*%
X207600000Y-120222714D02*
X210563401Y-123186115D01*
X207600000Y-115200000D02*
X207600000Y-120222714D01*
X206563401Y-114163401D02*
X207600000Y-115200000D01*
X210563401Y-123186115D02*
X212723401Y-123186115D01*
X206563401Y-113646115D02*
X206563401Y-114163401D01*
%TO.N,ikcol_yuirow*%
X207400000Y-96100000D02*
X207400000Y-101022714D01*
X207400000Y-101022714D02*
X210563401Y-104186115D01*
X210563401Y-104186115D02*
X212723401Y-104186115D01*
X206563401Y-95263401D02*
X207400000Y-96100000D01*
X206563401Y-94646115D02*
X206563401Y-95263401D01*
%TO.N,ikcol_numberrow*%
X206563401Y-75646115D02*
X206563401Y-76263401D01*
X206563401Y-76263401D02*
X207400000Y-77100000D01*
X207400000Y-82022714D02*
X210563401Y-85186115D01*
X210563401Y-85186115D02*
X212723401Y-85186115D01*
X207400000Y-77100000D02*
X207400000Y-82022714D01*
%TO.N,P020*%
X114500000Y-52600000D02*
X115100000Y-52000000D01*
X115100000Y-52000000D02*
X122880000Y-52000000D01*
X144200000Y-68300000D02*
X144200000Y-74100000D01*
X144200000Y-37800000D02*
X144200000Y-43700000D01*
X114500000Y-74100000D02*
X114500000Y-52600000D01*
%TO.N,olcol_nmrow*%
X225563401Y-133263401D02*
X226200000Y-133900000D01*
X229563401Y-142186115D02*
X231723401Y-142186115D01*
X225563401Y-132646115D02*
X225563401Y-133263401D01*
X226200000Y-133900000D02*
X226200000Y-138822714D01*
X226200000Y-138822714D02*
X229563401Y-142186115D01*
%TO.N,olcol_hjkrow*%
X226600000Y-120222714D02*
X229563401Y-123186115D01*
X229563401Y-123186115D02*
X231723401Y-123186115D01*
X225563401Y-114263401D02*
X226600000Y-115300000D01*
X225563401Y-113646115D02*
X225563401Y-114263401D01*
X226600000Y-115300000D02*
X226600000Y-120222714D01*
%TO.N,olcol_yuirow*%
X225563401Y-94646115D02*
X225563401Y-95063401D01*
X226300000Y-95800000D02*
X226300000Y-100922714D01*
X231723401Y-104186115D02*
X229563401Y-104186115D01*
X226300000Y-100922714D02*
X229563401Y-104186115D01*
X225563401Y-95063401D02*
X226300000Y-95800000D01*
%TO.N,olcol_numberrow*%
X225563401Y-75646115D02*
X225563401Y-76263401D01*
X226500000Y-82122714D02*
X229563401Y-85186115D01*
X225563401Y-76263401D02*
X226500000Y-77200000D01*
X226500000Y-77200000D02*
X226500000Y-82122714D01*
X229563401Y-85186115D02*
X231723401Y-85186115D01*
%TO.N,P022*%
X145400000Y-46000000D02*
X247807286Y-46000000D01*
X250913401Y-49106115D02*
X247807286Y-46000000D01*
X145400000Y-68200000D02*
X145400000Y-75200000D01*
X122880000Y-54540000D02*
X116160000Y-54540000D01*
X115300000Y-55400000D02*
X115300000Y-75200000D01*
X116160000Y-54540000D02*
X115300000Y-55400000D01*
%TO.N,pcol_nmrow*%
X244563401Y-133563401D02*
X245200000Y-134200000D01*
X244563401Y-132646115D02*
X244563401Y-133563401D01*
X245200000Y-134200000D02*
X245200000Y-138822714D01*
X248563401Y-142186115D02*
X250723401Y-142186115D01*
X245200000Y-138822714D02*
X248563401Y-142186115D01*
%TO.N,pcol_hjkrow*%
X248563401Y-123186115D02*
X250723401Y-123186115D01*
X245400000Y-120022714D02*
X248563401Y-123186115D01*
X245400000Y-114482714D02*
X245400000Y-120022714D01*
X244563401Y-113646115D02*
X245400000Y-114482714D01*
%TO.N,pcol_yuirow*%
X245300000Y-95382714D02*
X245300000Y-96500000D01*
X244563401Y-94646115D02*
X245300000Y-95382714D01*
X245300000Y-96500000D02*
X245500000Y-96700000D01*
X245500000Y-96700000D02*
X245500000Y-101122714D01*
X248563401Y-104186115D02*
X250723401Y-104186115D01*
X245500000Y-101122714D02*
X248563401Y-104186115D01*
%TO.N,pcol_numberrow*%
X244563401Y-76763401D02*
X245100000Y-77300000D01*
X248563401Y-85186115D02*
X250723401Y-85186115D01*
X245100000Y-81722714D02*
X248563401Y-85186115D01*
X244563401Y-75646115D02*
X244563401Y-76763401D01*
X245100000Y-77300000D02*
X245100000Y-81722714D01*
%TO.N,P024*%
X117320000Y-57080000D02*
X122880000Y-57080000D01*
X116200000Y-76300000D02*
X116200000Y-58200000D01*
X116200000Y-58200000D02*
X117320000Y-57080000D01*
X146800000Y-44300000D02*
X146700000Y-44400000D01*
X265200000Y-44392714D02*
X265200000Y-44300000D01*
X269913401Y-49106115D02*
X265200000Y-44392714D01*
X265200000Y-44300000D02*
X146800000Y-44300000D01*
%TO.N,minuscol_nmrow*%
X264400000Y-139022714D02*
X267563401Y-142186115D01*
X267563401Y-142186115D02*
X269723401Y-142186115D01*
X264400000Y-134100000D02*
X264400000Y-139022714D01*
X263563401Y-132646115D02*
X263563401Y-133263401D01*
X263563401Y-133263401D02*
X264400000Y-134100000D01*
%TO.N,minuscol_hjkrow*%
X263563401Y-113646115D02*
X264200000Y-114282714D01*
X264200000Y-114282714D02*
X264200000Y-119822714D01*
X267563401Y-123186115D02*
X269723401Y-123186115D01*
X264200000Y-119822714D02*
X267563401Y-123186115D01*
%TO.N,minuscol_yuirow*%
X263563401Y-94646115D02*
X263563401Y-95363401D01*
X264200000Y-96000000D02*
X264200000Y-100822714D01*
X264200000Y-100822714D02*
X267563401Y-104186115D01*
X267563401Y-104186115D02*
X269723401Y-104186115D01*
X263563401Y-95363401D02*
X264200000Y-96000000D01*
%TO.N,minuscol_numberrow*%
X264600000Y-82222714D02*
X267563401Y-85186115D01*
X267563401Y-85186115D02*
X269723401Y-85186115D01*
X264600000Y-77700000D02*
X264600000Y-82222714D01*
X263563401Y-76663401D02*
X264600000Y-77700000D01*
X263563401Y-75646115D02*
X263563401Y-76663401D01*
%TO.N,pluscol_nmrow*%
X286563401Y-142186115D02*
X288723401Y-142186115D01*
X283400000Y-139022714D02*
X286563401Y-142186115D01*
X283400000Y-134300000D02*
X283400000Y-139022714D01*
X282563401Y-133463401D02*
X283400000Y-134300000D01*
X282563401Y-132646115D02*
X282563401Y-133463401D01*
%TO.N,pluscol_hjkrow*%
X286563401Y-123186115D02*
X288723401Y-123186115D01*
X283100000Y-119722714D02*
X286563401Y-123186115D01*
X283100000Y-114182714D02*
X283100000Y-119722714D01*
X282563401Y-113646115D02*
X283100000Y-114182714D01*
%TO.N,pluscol_yuirow*%
X286563401Y-104186115D02*
X288723401Y-104186115D01*
X283200000Y-100822714D02*
X286563401Y-104186115D01*
X283200000Y-95282714D02*
X283200000Y-100822714D01*
X282563401Y-94646115D02*
X283200000Y-95282714D01*
%TO.N,pluscol_numberrow*%
X282563401Y-76463401D02*
X283400000Y-77300000D01*
X286563401Y-85186115D02*
X288723401Y-85186115D01*
X283400000Y-82022714D02*
X286563401Y-85186115D01*
X283400000Y-77300000D02*
X283400000Y-82022714D01*
X282563401Y-75646115D02*
X282563401Y-76463401D01*
%TO.N,f6_one*%
X168563401Y-51646115D02*
X169200000Y-52282714D01*
X169200000Y-57822714D02*
X172563401Y-61186115D01*
X172563401Y-61186115D02*
X174723401Y-61186115D01*
X169200000Y-52282714D02*
X169200000Y-57822714D01*
%TO.N,f7_one*%
X188300000Y-52382714D02*
X188300000Y-57922714D01*
X188300000Y-57922714D02*
X191563401Y-61186115D01*
X191563401Y-61186115D02*
X193723401Y-61186115D01*
X187563401Y-51646115D02*
X188300000Y-52382714D01*
%TO.N,f8_one*%
X207600000Y-58222714D02*
X210563401Y-61186115D01*
X206563401Y-51963401D02*
X207600000Y-53000000D01*
X206563401Y-51646115D02*
X206563401Y-51963401D01*
X210563401Y-61186115D02*
X212723401Y-61186115D01*
X207600000Y-53000000D02*
X207600000Y-58222714D01*
%TO.N,f9_one*%
X225563401Y-52363401D02*
X226500000Y-53300000D01*
X226500000Y-58122714D02*
X229563401Y-61186115D01*
X226500000Y-53300000D02*
X226500000Y-58122714D01*
X225563401Y-51646115D02*
X225563401Y-52363401D01*
X229563401Y-61186115D02*
X231723401Y-61186115D01*
%TO.N,f10_one*%
X245400000Y-58022714D02*
X248563401Y-61186115D01*
X244563401Y-52363401D02*
X245400000Y-53200000D01*
X245400000Y-53200000D02*
X245400000Y-58022714D01*
X244563401Y-51646115D02*
X244563401Y-52363401D01*
X248563401Y-61186115D02*
X250723401Y-61186115D01*
%TO.N,f11_one*%
X263563401Y-51646115D02*
X263563401Y-52563401D01*
X264300000Y-57922714D02*
X267563401Y-61186115D01*
X267563401Y-61186115D02*
X269723401Y-61186115D01*
X263563401Y-52563401D02*
X264300000Y-53300000D01*
X264300000Y-53300000D02*
X264300000Y-57922714D01*
%TO.N,f12_one*%
X282563401Y-51646115D02*
X282563401Y-52263401D01*
X286563401Y-61186115D02*
X288723401Y-61186115D01*
X283400000Y-53100000D02*
X283400000Y-58022714D01*
X282563401Y-52263401D02*
X283400000Y-53100000D01*
X283400000Y-58022714D02*
X286563401Y-61186115D01*
%TO.N,P011*%
X309307286Y-147500000D02*
X157500000Y-147500000D01*
X118000000Y-77800000D02*
X118000000Y-63100000D01*
X310913401Y-149106115D02*
X309307286Y-147500000D01*
X118940000Y-62160000D02*
X118000000Y-63100000D01*
X118940000Y-62160000D02*
X122880000Y-62160000D01*
%TO.N,left_down*%
X305400000Y-153200000D02*
X305400000Y-158022714D01*
X305400000Y-158022714D02*
X308563401Y-161186115D01*
X304563401Y-152363401D02*
X305400000Y-153200000D01*
X304563401Y-151646115D02*
X304563401Y-152363401D01*
X308563401Y-161186115D02*
X310723401Y-161186115D01*
%TO.N,left_del*%
X308563401Y-104186115D02*
X310723401Y-104186115D01*
%TO.N,left_ins*%
X305400000Y-76900000D02*
X305400000Y-82022714D01*
X308563401Y-85186115D02*
X310723401Y-85186115D01*
X304563401Y-76063401D02*
X305400000Y-76900000D01*
X304563401Y-75646115D02*
X304563401Y-76063401D01*
X305400000Y-82022714D02*
X308563401Y-85186115D01*
%TO.N,left_macro*%
X308563401Y-66186115D02*
X310723401Y-66186115D01*
X305500000Y-58300000D02*
X305500000Y-63122714D01*
X305500000Y-63122714D02*
X308563401Y-66186115D01*
X304563401Y-57363401D02*
X305500000Y-58300000D01*
X304563401Y-56646115D02*
X304563401Y-57363401D01*
%TO.N,P104*%
X118800000Y-65300000D02*
X119400000Y-64700000D01*
X119400000Y-64700000D02*
X122880000Y-64700000D01*
X118800000Y-79000000D02*
X118800000Y-65300000D01*
%TO.N,updown_down*%
X323563401Y-151646115D02*
X323563401Y-152363401D01*
X324500000Y-153300000D02*
X324500000Y-158122714D01*
X324500000Y-158122714D02*
X327563401Y-161186115D01*
X327563401Y-161186115D02*
X329723401Y-161186115D01*
X323563401Y-152363401D02*
X324500000Y-153300000D01*
%TO.N,updown_up*%
X324300000Y-134100000D02*
X324300000Y-138922714D01*
X327563401Y-142186115D02*
X329723401Y-142186115D01*
X323563401Y-133363401D02*
X324300000Y-134100000D01*
X324300000Y-138922714D02*
X327563401Y-142186115D01*
X323563401Y-132646115D02*
X323563401Y-133363401D01*
%TO.N,updown_del*%
X323563401Y-94646115D02*
X323563401Y-95463401D01*
X323563401Y-95463401D02*
X324300000Y-96200000D01*
X324300000Y-96200000D02*
X324300000Y-100922714D01*
X324300000Y-100922714D02*
X327563401Y-104186115D01*
X327563401Y-104186115D02*
X329723401Y-104186115D01*
%TO.N,updown_ins*%
X327563401Y-85186115D02*
X329723401Y-85186115D01*
X323563401Y-75646115D02*
X323563401Y-76363401D01*
X324500000Y-77300000D02*
X324500000Y-82122714D01*
X324500000Y-82122714D02*
X327563401Y-85186115D01*
X323563401Y-76363401D02*
X324500000Y-77300000D01*
%TO.N,updown_macro*%
X323563401Y-57363401D02*
X324200000Y-58000000D01*
X324200000Y-58000000D02*
X324200000Y-62822714D01*
X327563401Y-66186115D02*
X329723401Y-66186115D01*
X323563401Y-56646115D02*
X323563401Y-57363401D01*
X324200000Y-62822714D02*
X327563401Y-66186115D01*
%TO.N,right_down*%
X346563401Y-161186115D02*
X348723401Y-161186115D01*
X342563401Y-152363401D02*
X343300000Y-153100000D01*
X342563401Y-151646115D02*
X342563401Y-152363401D01*
X343300000Y-157922714D02*
X346563401Y-161186115D01*
X343300000Y-153100000D02*
X343300000Y-157922714D01*
%TO.N,right_del*%
X343400000Y-96200000D02*
X343400000Y-101022714D01*
X342563401Y-94646115D02*
X342563401Y-95363401D01*
X348723401Y-104186115D02*
X346563401Y-104186115D01*
X343400000Y-101022714D02*
X346563401Y-104186115D01*
X342563401Y-95363401D02*
X343400000Y-96200000D01*
%TO.N,right_ins*%
X342563401Y-75646115D02*
X342563401Y-76463401D01*
X343500000Y-82122714D02*
X346563401Y-85186115D01*
X342563401Y-76463401D02*
X343500000Y-77400000D01*
X343500000Y-77400000D02*
X343500000Y-82122714D01*
X348723401Y-85186115D02*
X346563401Y-85186115D01*
%TO.N,right_macro*%
X348723401Y-66186115D02*
X346563401Y-66186115D01*
X343500000Y-63122714D02*
X346563401Y-66186115D01*
X342563401Y-57863401D02*
X343500000Y-58800000D01*
X343500000Y-58800000D02*
X343500000Y-63122714D01*
X342563401Y-56646115D02*
X342563401Y-57863401D01*
%TO.N,mirror_ctrl_thumbrow*%
X264563401Y-154936599D02*
X264563401Y-163186115D01*
X264563401Y-163186115D02*
X266723401Y-163186115D01*
X265853885Y-153646115D02*
X264563401Y-154936599D01*
X268563401Y-153646115D02*
X265853885Y-153646115D01*
%TO.N,mirror_winkey_thumbrow*%
X234563401Y-154500000D02*
X234563401Y-163186115D01*
X238563401Y-153646115D02*
X235417286Y-153646115D01*
X235417286Y-153646115D02*
X234563401Y-154500000D01*
X234563401Y-163186115D02*
X236723401Y-163186115D01*
%TO.N,mirror_alt_thumbrow*%
X204563401Y-163186115D02*
X206723401Y-163186115D01*
X208563401Y-153646115D02*
X205453885Y-153646115D01*
X205453885Y-153646115D02*
X204563401Y-154536599D01*
X204563401Y-154536599D02*
X204563401Y-163186115D01*
%TO.N,mirror_space_thumbrow*%
X164346115Y-153646115D02*
X164300000Y-153600000D01*
X163563401Y-163186115D02*
X165723401Y-163186115D01*
X163563401Y-154336599D02*
X163563401Y-163186115D01*
X167563401Y-153646115D02*
X164346115Y-153646115D01*
X164300000Y-153600000D02*
X163563401Y-154336599D01*
%TO.N,mirror_ctrl2_thumbrow*%
X144172447Y-183391410D02*
X141700000Y-185863857D01*
X146268960Y-193653293D02*
X147348960Y-192573293D01*
X145478345Y-193653293D02*
X146268960Y-193653293D01*
X141700000Y-189874948D02*
X145478345Y-193653293D01*
X141700000Y-185863857D02*
X141700000Y-189874948D01*
%TO.N,mirror_thumbkey_thumbrow*%
X119497583Y-208653293D02*
X120288198Y-208653293D01*
X120288198Y-208653293D02*
X121368198Y-207573293D01*
X116000000Y-205155710D02*
X119497583Y-208653293D01*
X116000000Y-200583095D02*
X116000000Y-205155710D01*
X118191685Y-198391410D02*
X116000000Y-200583095D01*
%TO.N,GND*%
X109300000Y-46400000D02*
X103800000Y-46400000D01*
X136400000Y-81800000D02*
X136400000Y-60440000D01*
X103800000Y-46400000D02*
X101200000Y-49000000D01*
X136400000Y-60440000D02*
X122880000Y-46920000D01*
%TO.N,RAW*%
X102700000Y-42650000D02*
X105250000Y-42650000D01*
X136320000Y-37500000D02*
X138120000Y-39300000D01*
X105250000Y-42650000D02*
X110400000Y-37500000D01*
X110400000Y-37500000D02*
X136320000Y-37500000D01*
%TO.N,batteryPlus*%
X115700000Y-78500000D02*
X115700000Y-109200000D01*
X110800000Y-73600000D02*
X111250000Y-74050000D01*
%TD*%
M02*
