M48
; DRILL file {KiCad 8.0.5} date 2024-10-17T20:12:00+0200
; FORMAT={-:-/ absolute / inch / decimal}
; #@! TF.CreationDate,2024-10-17T20:12:00+02:00
; #@! TF.GenerationSoftware,Kicad,Pcbnew,8.0.5
; #@! TF.FileFunction,Plated,1,2,PTH
FMAT,2
INCH
; #@! TA.AperFunction,Plated,PTH,ViaDrill
T1C0.0157
; #@! TA.AperFunction,Plated,PTH,ComponentDrill
T2C0.0390
; #@! TA.AperFunction,Plated,PTH,ComponentDrill
T3C0.0430
; #@! TA.AperFunction,Plated,PTH,ComponentDrill
T4C0.0590
; #@! TA.AperFunction,Plated,PTH,ComponentDrill
T5C0.0866
%
G90
G05
T1
X7.4016Y-3.4685
X7.4055Y-4.6575
X7.4173Y-3.9252
X7.437Y-5.4213
X8.1535Y-2.252
X8.1535Y-2.7402
X8.2717Y-2.9882
X8.2717Y-3.3504
X9.1417Y-3.5866
X9.1929Y-3.6378
X9.378Y-2.3268
X9.3898Y-2.5551
X9.4567Y-2.5551
X9.4803Y-2.3228
T2
X2.7816Y-2.8133
X2.7816Y-3.7582
X2.7816Y-4.5062
X2.7816Y-5.2542
X2.7816Y-6.0023
X2.7816Y-6.829
X3.0816Y-2.8133
X3.0816Y-3.7582
X3.0816Y-4.5062
X3.0816Y-5.2542
X3.0816Y-6.0023
X3.0816Y-6.829
X3.9627Y-2.8133
X3.9627Y-3.7582
X3.9627Y-4.5062
X3.9627Y-5.2542
X3.9627Y-6.0023
X3.9627Y-6.829
X4.2627Y-2.8133
X4.2627Y-3.7582
X4.2627Y-4.5062
X4.2627Y-5.2542
X4.2627Y-6.0023
X4.2627Y-6.829
X4.7107Y-2.8133
X4.7107Y-3.7582
X4.7107Y-4.5062
X4.7107Y-5.2542
X4.7107Y-6.0023
X5.0107Y-2.8133
X5.0107Y-3.7582
X5.0107Y-4.5062
X5.0107Y-5.2542
X5.0107Y-6.0023
X5.1438Y-6.829
X5.4438Y-6.829
X5.4587Y-2.8133
X5.4587Y-3.7582
X5.4587Y-4.5062
X5.4587Y-5.2542
X5.4587Y-6.0023
X5.7587Y-2.8133
X5.7587Y-3.7582
X5.7587Y-4.5062
X5.7587Y-5.2542
X5.7587Y-6.0023
X6.2068Y-2.8133
X6.2068Y-3.7582
X6.2068Y-4.5062
X6.2068Y-5.2542
X6.2068Y-6.0023
X6.5068Y-2.8133
X6.5068Y-3.7582
X6.5068Y-4.5062
X6.5068Y-5.2542
X6.5068Y-6.0023
X6.7579Y-6.829
X6.9548Y-2.8133
X6.9548Y-3.7582
X6.9548Y-4.5062
X6.9548Y-5.2542
X6.9548Y-6.0023
X7.0579Y-6.829
X7.2548Y-2.8133
X7.2548Y-3.7582
X7.2548Y-4.5062
X7.2548Y-5.2542
X7.2548Y-6.0023
X7.5101Y-7.8785
X7.7699Y-8.0285
X8.533Y-8.4691
X8.7928Y-8.6191
T3
X8.4583Y-1.9483
X8.4583Y-2.0483
X8.4583Y-2.1483
X8.4583Y-2.2483
X8.4583Y-2.3483
X8.4583Y-2.4483
X8.4583Y-2.5483
X8.4583Y-2.6483
X8.4583Y-2.7483
X8.4583Y-2.8483
X8.4583Y-2.9483
X8.4583Y-3.0483
X9.0583Y-1.9483
X9.0583Y-2.0483
X9.0583Y-2.1483
X9.0583Y-2.2483
X9.0583Y-2.3483
X9.0583Y-2.4483
X9.0583Y-2.5483
X9.0583Y-2.6483
X9.0583Y-2.7483
X9.0583Y-2.8483
X9.0583Y-2.9483
X9.0583Y-3.0483
T4
X2.6241Y-2.4377
X2.6241Y-3.3826
X2.6241Y-4.1306
X2.6241Y-4.8786
X2.6241Y-5.6267
X2.6241Y-6.4534
X2.8741Y-2.3377
X2.8741Y-3.2826
X2.8741Y-4.0306
X2.8741Y-4.7786
X2.8741Y-5.5267
X2.8741Y-6.3534
X3.8052Y-2.4377
X3.8052Y-3.3826
X3.8052Y-4.1306
X3.8052Y-4.8786
X3.8052Y-5.6267
X3.8052Y-6.4534
X4.0552Y-2.3377
X4.0552Y-3.2826
X4.0552Y-4.0306
X4.0552Y-4.7786
X4.0552Y-5.5267
X4.0552Y-6.3534
X4.5532Y-2.4377
X4.5532Y-3.3826
X4.5532Y-4.1306
X4.5532Y-4.8786
X4.5532Y-5.6267
X4.8032Y-2.3377
X4.8032Y-3.2826
X4.8032Y-4.0306
X4.8032Y-4.7786
X4.8032Y-5.5267
X4.9863Y-6.4534
X5.2363Y-6.3534
X5.3012Y-2.4377
X5.3012Y-3.3826
X5.3012Y-4.1306
X5.3012Y-4.8786
X5.3012Y-5.6267
X5.5512Y-2.3377
X5.5512Y-3.2826
X5.5512Y-4.0306
X5.5512Y-4.7786
X5.5512Y-5.5267
X6.0493Y-2.4377
X6.0493Y-3.3826
X6.0493Y-4.1306
X6.0493Y-4.8786
X6.0493Y-5.6267
X6.2993Y-2.3377
X6.2993Y-3.2826
X6.2993Y-4.0306
X6.2993Y-4.7786
X6.2993Y-5.5267
X6.6005Y-6.4534
X6.7973Y-2.4377
X6.7973Y-3.3826
X6.7973Y-4.1306
X6.7973Y-4.8786
X6.7973Y-5.6267
X6.8505Y-6.3534
X7.0473Y-2.3377
X7.0473Y-3.2826
X7.0473Y-4.0306
X7.0473Y-4.7786
X7.0473Y-5.5267
X7.5616Y-7.4745
X7.8281Y-7.5129
X8.1535Y-3.811
X8.5844Y-8.0651
X8.8509Y-8.1035
X9.0748Y-3.8071
T5
X2.3622Y-1.9685
X2.4252Y-7.2244
X5.9094Y-7.2244
X5.937Y-1.9409
X9.2126Y-2.2756
X9.4173Y-8.6614
M30
