M48
; DRILL file {KiCad 8.0.5} date 2024-10-17T20:12:00+0200
; FORMAT={-:-/ absolute / inch / decimal}
; #@! TF.CreationDate,2024-10-17T20:12:00+02:00
; #@! TF.GenerationSoftware,Kicad,Pcbnew,8.0.5
; #@! TF.FileFunction,NonPlated,1,2,NPTH
FMAT,2
INCH
; #@! TA.AperFunction,NonPlated,NPTH,ComponentDrill
T1C0.0354
; #@! TA.AperFunction,NonPlated,NPTH,ComponentDrill
T2C0.0670
; #@! TA.AperFunction,NonPlated,NPTH,ComponentDrill
T3C0.1570
%
G90
G05
T1
X9.5906Y-2.0394
X9.5906Y-2.1575
T2
X2.5741Y-2.5377
X2.5741Y-3.4826
X2.5741Y-4.2306
X2.5741Y-4.9786
X2.5741Y-5.7267
X2.5741Y-6.5534
X2.9741Y-2.5377
X2.9741Y-3.4826
X2.9741Y-4.2306
X2.9741Y-4.9786
X2.9741Y-5.7267
X2.9741Y-6.5534
X3.7552Y-2.5377
X3.7552Y-3.4826
X3.7552Y-4.2306
X3.7552Y-4.9786
X3.7552Y-5.7267
X3.7552Y-6.5534
X4.1552Y-2.5377
X4.1552Y-3.4826
X4.1552Y-4.2306
X4.1552Y-4.9786
X4.1552Y-5.7267
X4.1552Y-6.5534
X4.5032Y-2.5377
X4.5032Y-3.4826
X4.5032Y-4.2306
X4.5032Y-4.9786
X4.5032Y-5.7267
X4.9032Y-2.5377
X4.9032Y-3.4826
X4.9032Y-4.2306
X4.9032Y-4.9786
X4.9032Y-5.7267
X4.9363Y-6.5534
X5.2512Y-2.5377
X5.2512Y-3.4826
X5.2512Y-4.2306
X5.2512Y-4.9786
X5.2512Y-5.7267
X5.3363Y-6.5534
X5.6512Y-2.5377
X5.6512Y-3.4826
X5.6512Y-4.2306
X5.6512Y-4.9786
X5.6512Y-5.7267
X5.9993Y-2.5377
X5.9993Y-3.4826
X5.9993Y-4.2306
X5.9993Y-4.9786
X5.9993Y-5.7267
X6.3993Y-2.5377
X6.3993Y-3.4826
X6.3993Y-4.2306
X6.3993Y-4.9786
X6.3993Y-5.7267
X6.5505Y-6.5534
X6.7473Y-2.5377
X6.7473Y-3.4826
X6.7473Y-4.2306
X6.7473Y-4.9786
X6.7473Y-5.7267
X6.9505Y-6.5534
X7.1473Y-2.5377
X7.1473Y-3.4826
X7.1473Y-4.2306
X7.1473Y-4.9786
X7.1473Y-5.7267
X7.4683Y-7.5361
X7.8147Y-7.7361
X8.4911Y-8.1267
X8.8375Y-8.3267
T3
X2.7741Y-2.5377
X2.7741Y-3.4826
X2.7741Y-4.2306
X2.7741Y-4.9786
X2.7741Y-5.7267
X2.7741Y-6.5534
X3.9552Y-2.5377
X3.9552Y-3.4826
X3.9552Y-4.2306
X3.9552Y-4.9786
X3.9552Y-5.7267
X3.9552Y-6.5534
X4.7032Y-2.5377
X4.7032Y-3.4826
X4.7032Y-4.2306
X4.7032Y-4.9786
X4.7032Y-5.7267
X5.1363Y-6.5534
X5.4512Y-2.5377
X5.4512Y-3.4826
X5.4512Y-4.2306
X5.4512Y-4.9786
X5.4512Y-5.7267
X6.1993Y-2.5377
X6.1993Y-3.4826
X6.1993Y-4.2306
X6.1993Y-4.9786
X6.1993Y-5.7267
X6.7505Y-6.5534
X6.9473Y-2.5377
X6.9473Y-3.4826
X6.9473Y-4.2306
X6.9473Y-4.9786
X6.9473Y-5.7267
X7.6415Y-7.6361
X8.6643Y-8.2267
M30
