%TF.GenerationSoftware,KiCad,Pcbnew,8.0.5*%
%TF.CreationDate,2024-10-12T19:47:22+02:00*%
%TF.ProjectId,finishedleftpcb,66696e69-7368-4656-946c-656674706362,v1.0.0*%
%TF.SameCoordinates,Original*%
%TF.FileFunction,Copper,L2,Bot*%
%TF.FilePolarity,Positive*%
%FSLAX46Y46*%
G04 Gerber Fmt 4.6, Leading zero omitted, Abs format (unit mm)*
G04 Created by KiCad (PCBNEW 8.0.5) date 2024-10-12 19:47:22*
%MOMM*%
%LPD*%
G01*
G04 APERTURE LIST*
G04 Aperture macros list*
%AMRotRect*
0 Rectangle, with rotation*
0 The origin of the aperture is its center*
0 $1 length*
0 $2 width*
0 $3 Rotation angle, in degrees counterclockwise*
0 Add horizontal line*
21,1,$1,$2,0,0,$3*%
G04 Aperture macros list end*
%TA.AperFunction,ComponentPad*%
%ADD10C,2.286000*%
%TD*%
%TA.AperFunction,ComponentPad*%
%ADD11R,1.778000X1.778000*%
%TD*%
%TA.AperFunction,SMDPad,CuDef*%
%ADD12R,0.900000X1.200000*%
%TD*%
%TA.AperFunction,ComponentPad*%
%ADD13C,1.905000*%
%TD*%
%TA.AperFunction,ComponentPad*%
%ADD14RotRect,1.778000X1.778000X150.000000*%
%TD*%
%TA.AperFunction,SMDPad,CuDef*%
%ADD15RotRect,0.900000X1.200000X150.000000*%
%TD*%
%TA.AperFunction,ComponentPad*%
%ADD16C,1.752600*%
%TD*%
%TA.AperFunction,WasherPad*%
%ADD17C,1.000000*%
%TD*%
%TA.AperFunction,ViaPad*%
%ADD18C,0.800000*%
%TD*%
%TA.AperFunction,Conductor*%
%ADD19C,0.250000*%
%TD*%
G04 APERTURE END LIST*
D10*
%TO.P,S58,1*%
%TO.N,P111*%
X179001601Y-59377468D03*
%TO.P,S58,2*%
%TO.N,f5_escaperow*%
X172651601Y-61917468D03*
%TD*%
%TO.P,S64,1*%
%TO.N,P111*%
X224813465Y-205828059D03*
%TO.P,S64,2*%
%TO.N,thumbkey_thumbrow*%
X218044203Y-204852763D03*
%TD*%
D11*
%TO.P,D60,1*%
%TO.N,P024*%
X108271601Y-173457468D03*
D12*
X106111601Y-173457468D03*
%TO.P,D60,2*%
%TO.N,winkey_thumbrow*%
X102811601Y-173457468D03*
D13*
X100651601Y-173457468D03*
%TD*%
D11*
%TO.P,D22,1*%
%TO.N,P020*%
X78271601Y-133457468D03*
D12*
X76111601Y-133457468D03*
%TO.P,D22,2*%
%TO.N,tabcapsshift_tab*%
X72811601Y-133457468D03*
D13*
X70651601Y-133457468D03*
%TD*%
D10*
%TO.P,S13,1*%
%TO.N,P113*%
X160001601Y-140377468D03*
%TO.P,S13,2*%
%TO.N,4rfvcol_zxcrow*%
X153651601Y-142917468D03*
%TD*%
D11*
%TO.P,D3,1*%
%TO.N,P017*%
X108271601Y-114457468D03*
D12*
X106111601Y-114457468D03*
%TO.P,D3,2*%
%TO.N,1qazcol_qwerow*%
X102811601Y-114457468D03*
D13*
X100651601Y-114457468D03*
%TD*%
D10*
%TO.P,S24,1*%
%TO.N,P031*%
X73001601Y-83377468D03*
%TO.P,S24,2*%
%TO.N,tabcapsshift_shift*%
X66651601Y-85917468D03*
%TD*%
D11*
%TO.P,D17,1*%
%TO.N,P022*%
X184271601Y-152457468D03*
D12*
X182111601Y-152457468D03*
%TO.P,D17,2*%
%TO.N,5tgbcol_zxcrow*%
X178811601Y-152457468D03*
D13*
X176651601Y-152457468D03*
%TD*%
D10*
%TO.P,S1,1*%
%TO.N,P029*%
X103001601Y-140377468D03*
%TO.P,S1,2*%
%TO.N,1qazcol_zxcrow*%
X96651601Y-142917468D03*
%TD*%
%TO.P,S54,1*%
%TO.N,P029*%
X103001601Y-59377468D03*
%TO.P,S54,2*%
%TO.N,f1_escaperow*%
X96651601Y-61917468D03*
%TD*%
D11*
%TO.P,D12,1*%
%TO.N,P008*%
X146271601Y-95457468D03*
D12*
X144111601Y-95457468D03*
%TO.P,D12,2*%
%TO.N,3edccol_numberrow*%
X140811601Y-95457468D03*
D13*
X138651601Y-95457468D03*
%TD*%
D10*
%TO.P,S15,1*%
%TO.N,P113*%
X160001601Y-102377468D03*
%TO.P,S15,2*%
%TO.N,4rfvcol_qwerow*%
X153651601Y-104917468D03*
%TD*%
%TO.P,S23,1*%
%TO.N,P031*%
X73001601Y-102377468D03*
%TO.P,S23,2*%
%TO.N,tabcapsshift_caps*%
X66651601Y-104917468D03*
%TD*%
%TO.P,S11,1*%
%TO.N,P115*%
X141001601Y-102377468D03*
%TO.P,S11,2*%
%TO.N,3edccol_qwerow*%
X134651601Y-104917468D03*
%TD*%
D11*
%TO.P,D20,1*%
%TO.N,P008*%
X184271601Y-95457468D03*
D12*
X182111601Y-95457468D03*
%TO.P,D20,2*%
%TO.N,5tgbcol_numberrow*%
X178811601Y-95457468D03*
D13*
X176651601Y-95457468D03*
%TD*%
D10*
%TO.P,S16,1*%
%TO.N,P113*%
X160001601Y-83377468D03*
%TO.P,S16,2*%
%TO.N,4rfvcol_numberrow*%
X153651601Y-85917468D03*
%TD*%
%TO.P,,1*%
%TO.N,batteryplus*%
X230500000Y-96700000D03*
%TD*%
D11*
%TO.P,D23,1*%
%TO.N,P017*%
X78271601Y-114457468D03*
D12*
X76111601Y-114457468D03*
%TO.P,D23,2*%
%TO.N,tabcapsshift_caps*%
X72811601Y-114457468D03*
D13*
X70651601Y-114457468D03*
%TD*%
D11*
%TO.P,D16,1*%
%TO.N,P008*%
X165271601Y-95457468D03*
D12*
X163111601Y-95457468D03*
%TO.P,D16,2*%
%TO.N,4rfvcol_numberrow*%
X159811601Y-95457468D03*
D13*
X157651601Y-95457468D03*
%TD*%
D10*
%TO.P,S56,1*%
%TO.N,P115*%
X141001601Y-59377468D03*
%TO.P,S56,2*%
%TO.N,f3_escaperow*%
X134651601Y-61917468D03*
%TD*%
%TO.P,S17,1*%
%TO.N,P111*%
X179001601Y-140377468D03*
%TO.P,S17,2*%
%TO.N,5tgbcol_zxcrow*%
X172651601Y-142917468D03*
%TD*%
D11*
%TO.P,D61,1*%
%TO.N,P024*%
X138271601Y-173457468D03*
D12*
X136111601Y-173457468D03*
%TO.P,D61,2*%
%TO.N,alt_thumbrow*%
X132811601Y-173457468D03*
D13*
X130651601Y-173457468D03*
%TD*%
D10*
%TO.P,S7,1*%
%TO.N,P002*%
X122001601Y-102377468D03*
%TO.P,S7,2*%
%TO.N,2wsxcol_qwerow*%
X115651601Y-104917468D03*
%TD*%
%TO.P,S55,1*%
%TO.N,P002*%
X122001601Y-59377468D03*
%TO.P,S55,2*%
%TO.N,f2_escaperow*%
X115651601Y-61917468D03*
%TD*%
D11*
%TO.P,D62,1*%
%TO.N,P024*%
X179271601Y-173457468D03*
D12*
X177111601Y-173457468D03*
%TO.P,D62,2*%
%TO.N,space_thumbrow*%
X173811601Y-173457468D03*
D13*
X171651601Y-173457468D03*
%TD*%
D10*
%TO.P,S20,1*%
%TO.N,P111*%
X179001601Y-83377468D03*
%TO.P,S20,2*%
%TO.N,5tgbcol_numberrow*%
X172651601Y-85917468D03*
%TD*%
D11*
%TO.P,D58,1*%
%TO.N,P006*%
X184271601Y-71457468D03*
D12*
X182111601Y-71457468D03*
%TO.P,D58,2*%
%TO.N,f5_escaperow*%
X178811601Y-71457468D03*
D13*
X176651601Y-71457468D03*
%TD*%
D10*
%TO.P,S60,1*%
%TO.N,P029*%
X103001601Y-161377468D03*
%TO.P,S60,2*%
%TO.N,winkey_thumbrow*%
X96651601Y-163917468D03*
%TD*%
D11*
%TO.P,D5,1*%
%TO.N,P022*%
X127271601Y-152457468D03*
D12*
X125111601Y-152457468D03*
%TO.P,D5,2*%
%TO.N,2wsxcol_zxcrow*%
X121811601Y-152457468D03*
D13*
X119651601Y-152457468D03*
%TD*%
D14*
%TO.P,D63,1*%
%TO.N,P024*%
X197356657Y-203924646D03*
D15*
X195486042Y-202844646D03*
%TO.P,D63,2*%
%TO.N,ctrl2_thumbrow*%
X192628158Y-201194646D03*
D13*
X190757543Y-200114646D03*
%TD*%
D10*
%TO.P,S62,1*%
%TO.N,P115*%
X174001601Y-161377468D03*
%TO.P,S62,2*%
%TO.N,space_thumbrow*%
X167651601Y-163917468D03*
%TD*%
D11*
%TO.P,D54,1*%
%TO.N,P006*%
X108271601Y-71457468D03*
D12*
X106111601Y-71457468D03*
%TO.P,D54,2*%
%TO.N,f1_escaperow*%
X102811601Y-71457468D03*
D13*
X100651601Y-71457468D03*
%TD*%
D10*
%TO.P,S4,1*%
%TO.N,P029*%
X103001601Y-83377468D03*
%TO.P,S4,2*%
%TO.N,1qazcol_numberrow*%
X96651601Y-85917468D03*
%TD*%
D11*
%TO.P,D21,1*%
%TO.N,P022*%
X78271601Y-152457468D03*
D12*
X76111601Y-152457468D03*
%TO.P,D21,2*%
%TO.N,tabcapsshift_tylda*%
X72811601Y-152457468D03*
D13*
X70651601Y-152457468D03*
%TD*%
D10*
%TO.P,S8,1*%
%TO.N,P002*%
X122001601Y-83377468D03*
%TO.P,S8,2*%
%TO.N,2wsxcol_numberrow*%
X115651601Y-85917468D03*
%TD*%
D11*
%TO.P,D57,1*%
%TO.N,P006*%
X165271601Y-71457468D03*
D12*
X163111601Y-71457468D03*
%TO.P,D57,2*%
%TO.N,f4_escaperow*%
X159811601Y-71457468D03*
D13*
X157651601Y-71457468D03*
%TD*%
D10*
%TO.P,S21,1*%
%TO.N,P031*%
X73001601Y-140377468D03*
%TO.P,S21,2*%
%TO.N,tabcapsshift_tylda*%
X66651601Y-142917468D03*
%TD*%
%TO.P,S12,1*%
%TO.N,P115*%
X141001601Y-83377468D03*
%TO.P,S12,2*%
%TO.N,3edccol_numberrow*%
X134651601Y-85917468D03*
%TD*%
D11*
%TO.P,D59,1*%
%TO.N,P024*%
X78271601Y-173457468D03*
D12*
X76111601Y-173457468D03*
%TO.P,D59,2*%
%TO.N,ctrl_thumbrow*%
X72811601Y-173457468D03*
D13*
X70651601Y-173457468D03*
%TD*%
D10*
%TO.P,S3,1*%
%TO.N,P029*%
X103001601Y-102377468D03*
%TO.P,S3,2*%
%TO.N,1qazcol_qwerow*%
X96651601Y-104917468D03*
%TD*%
D11*
%TO.P,D11,1*%
%TO.N,P017*%
X146271601Y-114457468D03*
D12*
X144111601Y-114457468D03*
%TO.P,D11,2*%
%TO.N,3edccol_qwerow*%
X140811601Y-114457468D03*
D13*
X138651601Y-114457468D03*
%TD*%
D11*
%TO.P,D6,1*%
%TO.N,P020*%
X127271601Y-133457468D03*
D12*
X125111601Y-133457468D03*
%TO.P,D6,2*%
%TO.N,2wsxcol_asdrow*%
X121811601Y-133457468D03*
D13*
X119651601Y-133457468D03*
%TD*%
D16*
%TO.P,MCU1,1*%
%TO.N,P006*%
X214841601Y-49487468D03*
%TO.P,MCU1,2*%
%TO.N,P008*%
X214841601Y-52027468D03*
%TO.P,MCU1,3*%
%TO.N,GND*%
X214841601Y-54567468D03*
%TO.P,MCU1,4*%
X214841601Y-57107468D03*
%TO.P,MCU1,5*%
%TO.N,P017*%
X214841601Y-59647468D03*
%TO.P,MCU1,6*%
%TO.N,P020*%
X214841601Y-62187468D03*
%TO.P,MCU1,7*%
%TO.N,P022*%
X214841601Y-64727468D03*
%TO.P,MCU1,8*%
%TO.N,P024*%
X214841601Y-67267468D03*
%TO.P,MCU1,9*%
%TO.N,P100*%
X214841601Y-69807468D03*
%TO.P,MCU1,10*%
%TO.N,P011*%
X214841601Y-72347468D03*
%TO.P,MCU1,11*%
%TO.N,P104*%
X214841601Y-74887468D03*
%TO.P,MCU1,12*%
%TO.N,P106*%
X214841601Y-77427468D03*
%TO.P,MCU1,13*%
%TO.N,P009*%
X230081601Y-77427468D03*
%TO.P,MCU1,14*%
%TO.N,P010*%
X230081601Y-74887468D03*
%TO.P,MCU1,15*%
%TO.N,P111*%
X230081601Y-72347468D03*
%TO.P,MCU1,16*%
%TO.N,P113*%
X230081601Y-69807468D03*
%TO.P,MCU1,17*%
%TO.N,P115*%
X230081601Y-67267468D03*
%TO.P,MCU1,18*%
%TO.N,P002*%
X230081601Y-64727468D03*
%TO.P,MCU1,19*%
%TO.N,P029*%
X230081601Y-62187468D03*
%TO.P,MCU1,20*%
%TO.N,P031*%
X230081601Y-59647468D03*
%TO.P,MCU1,21*%
%TO.N,VCC*%
X230081601Y-57107468D03*
%TO.P,MCU1,22*%
%TO.N,RST*%
X230081601Y-54567468D03*
%TO.P,MCU1,23*%
%TO.N,GND*%
X230081601Y-52027468D03*
%TO.P,MCU1,24*%
%TO.N,RAW*%
X230081601Y-49487468D03*
%TD*%
D11*
%TO.P,D14,1*%
%TO.N,P020*%
X165271601Y-133457468D03*
D12*
X163111601Y-133457468D03*
%TO.P,D14,2*%
%TO.N,4rfvcol_asdrow*%
X159811601Y-133457468D03*
D13*
X157651601Y-133457468D03*
%TD*%
D10*
%TO.P,S2,1*%
%TO.N,P029*%
X103001601Y-121377468D03*
%TO.P,S2,2*%
%TO.N,1qazcol_asdrow*%
X96651601Y-123917468D03*
%TD*%
%TO.P,S10,1*%
%TO.N,P115*%
X141001601Y-121377468D03*
%TO.P,S10,2*%
%TO.N,3edccol_asdrow*%
X134651601Y-123917468D03*
%TD*%
D11*
%TO.P,D13,1*%
%TO.N,P022*%
X165271601Y-152457468D03*
D12*
X163111601Y-152457468D03*
%TO.P,D13,2*%
%TO.N,4rfvcol_zxcrow*%
X159811601Y-152457468D03*
D13*
X157651601Y-152457468D03*
%TD*%
D11*
%TO.P,D18,1*%
%TO.N,P020*%
X184271601Y-133457468D03*
D12*
X182111601Y-133457468D03*
%TO.P,D18,2*%
%TO.N,5tgbcol_asdrow*%
X178811601Y-133457468D03*
D13*
X176651601Y-133457468D03*
%TD*%
D11*
%TO.P,D4,1*%
%TO.N,P008*%
X108271601Y-95457468D03*
D12*
X106111601Y-95457468D03*
%TO.P,D4,2*%
%TO.N,1qazcol_numberrow*%
X102811601Y-95457468D03*
D13*
X100651601Y-95457468D03*
%TD*%
D10*
%TO.P,S6,1*%
%TO.N,P002*%
X122001601Y-121377468D03*
%TO.P,S6,2*%
%TO.N,2wsxcol_asdrow*%
X115651601Y-123917468D03*
%TD*%
%TO.P,S22,1*%
%TO.N,P031*%
X73001601Y-121377468D03*
%TO.P,S22,2*%
%TO.N,tabcapsshift_tab*%
X66651601Y-123917468D03*
%TD*%
D11*
%TO.P,D7,1*%
%TO.N,P017*%
X127271601Y-114457468D03*
D12*
X125111601Y-114457468D03*
%TO.P,D7,2*%
%TO.N,2wsxcol_qwerow*%
X121811601Y-114457468D03*
D13*
X119651601Y-114457468D03*
%TD*%
D10*
%TO.P,S57,1*%
%TO.N,P113*%
X160001601Y-59377468D03*
%TO.P,S57,2*%
%TO.N,f4_escaperow*%
X153651601Y-61917468D03*
%TD*%
D11*
%TO.P,D56,1*%
%TO.N,P006*%
X146271601Y-71457468D03*
D12*
X144111601Y-71457468D03*
%TO.P,D56,2*%
%TO.N,f3_escaperow*%
X140811601Y-71457468D03*
D13*
X138651601Y-71457468D03*
%TD*%
D10*
%TO.P,S63,1*%
%TO.N,P113*%
X198832703Y-190828059D03*
%TO.P,S63,2*%
%TO.N,ctrl2_thumbrow*%
X192063441Y-189852763D03*
%TD*%
%TO.P,S59,1*%
%TO.N,P031*%
X73001601Y-161377468D03*
%TO.P,S59,2*%
%TO.N,ctrl_thumbrow*%
X66651601Y-163917468D03*
%TD*%
%TO.P,S19,1*%
%TO.N,P111*%
X179001601Y-102377468D03*
%TO.P,S19,2*%
%TO.N,5tgbcol_qwerow*%
X172651601Y-104917468D03*
%TD*%
D11*
%TO.P,D15,1*%
%TO.N,P017*%
X165271601Y-114457468D03*
D12*
X163111601Y-114457468D03*
%TO.P,D15,2*%
%TO.N,4rfvcol_qwerow*%
X159811601Y-114457468D03*
D13*
X157651601Y-114457468D03*
%TD*%
D10*
%TO.P,S53,1*%
%TO.N,P031*%
X73001601Y-59377468D03*
%TO.P,S53,2*%
%TO.N,esc_escaperow*%
X66651601Y-61917468D03*
%TD*%
D11*
%TO.P,D2,1*%
%TO.N,P020*%
X108271601Y-133457468D03*
D12*
X106111601Y-133457468D03*
%TO.P,D2,2*%
%TO.N,1qazcol_asdrow*%
X102811601Y-133457468D03*
D13*
X100651601Y-133457468D03*
%TD*%
D10*
%TO.P,S18,1*%
%TO.N,P111*%
X179001601Y-121377468D03*
%TO.P,S18,2*%
%TO.N,5tgbcol_asdrow*%
X172651601Y-123917468D03*
%TD*%
D11*
%TO.P,D53,1*%
%TO.N,P006*%
X78271601Y-71457468D03*
D12*
X76111601Y-71457468D03*
%TO.P,D53,2*%
%TO.N,esc_escaperow*%
X72811601Y-71457468D03*
D13*
X70651601Y-71457468D03*
%TD*%
D14*
%TO.P,D64,1*%
%TO.N,P024*%
X223337419Y-218924646D03*
D15*
X221466804Y-217844646D03*
%TO.P,D64,2*%
%TO.N,thumbkey_thumbrow*%
X218608920Y-216194646D03*
D13*
X216738305Y-215114646D03*
%TD*%
D11*
%TO.P,D55,1*%
%TO.N,P006*%
X127271601Y-71457468D03*
D12*
X125111601Y-71457468D03*
%TO.P,D55,2*%
%TO.N,f2_escaperow*%
X121811601Y-71457468D03*
D13*
X119651601Y-71457468D03*
%TD*%
D10*
%TO.P,,1*%
%TO.N,GND*%
X207100000Y-96800000D03*
%TD*%
%TO.P,S9,1*%
%TO.N,P115*%
X141001601Y-140377468D03*
%TO.P,S9,2*%
%TO.N,3edccol_zxcrow*%
X134651601Y-142917468D03*
%TD*%
D11*
%TO.P,D24,1*%
%TO.N,P008*%
X78271601Y-95457468D03*
D12*
X76111601Y-95457468D03*
%TO.P,D24,2*%
%TO.N,tabcapsshift_shift*%
X72811601Y-95457468D03*
D13*
X70651601Y-95457468D03*
%TD*%
D10*
%TO.P,S5,1*%
%TO.N,P002*%
X122001601Y-140377468D03*
%TO.P,S5,2*%
%TO.N,2wsxcol_zxcrow*%
X115651601Y-142917468D03*
%TD*%
%TO.P,S61,1*%
%TO.N,P002*%
X133001601Y-161377468D03*
%TO.P,S61,2*%
%TO.N,alt_thumbrow*%
X126651601Y-163917468D03*
%TD*%
D11*
%TO.P,D19,1*%
%TO.N,P017*%
X184271601Y-114457468D03*
D12*
X182111601Y-114457468D03*
%TO.P,D19,2*%
%TO.N,5tgbcol_qwerow*%
X178811601Y-114457468D03*
D13*
X176651601Y-114457468D03*
%TD*%
D11*
%TO.P,D9,1*%
%TO.N,P022*%
X146271601Y-152457468D03*
D12*
X144111601Y-152457468D03*
%TO.P,D9,2*%
%TO.N,3edccol_zxcrow*%
X140811601Y-152457468D03*
D13*
X138651601Y-152457468D03*
%TD*%
D11*
%TO.P,D8,1*%
%TO.N,P008*%
X127271601Y-95457468D03*
D12*
X125111601Y-95457468D03*
%TO.P,D8,2*%
%TO.N,2wsxcol_numberrow*%
X121811601Y-95457468D03*
D13*
X119651601Y-95457468D03*
%TD*%
D11*
%TO.P,D10,1*%
%TO.N,P020*%
X146271601Y-133457468D03*
D12*
X144111601Y-133457468D03*
%TO.P,D10,2*%
%TO.N,3edccol_asdrow*%
X140811601Y-133457468D03*
D13*
X138651601Y-133457468D03*
%TD*%
D10*
%TO.P,S14,1*%
%TO.N,P113*%
X160001601Y-121377468D03*
%TO.P,S14,2*%
%TO.N,4rfvcol_asdrow*%
X153651601Y-123917468D03*
%TD*%
D11*
%TO.P,D1,1*%
%TO.N,P022*%
X108271601Y-152457468D03*
D12*
X106111601Y-152457468D03*
%TO.P,D1,2*%
%TO.N,1qazcol_zxcrow*%
X102811601Y-152457468D03*
D13*
X100651601Y-152457468D03*
%TD*%
D17*
%TO.P,T1,*%
%TO.N,*%
X243600000Y-54800000D03*
X243600000Y-51800000D03*
%TD*%
D18*
%TO.N,P029*%
X188100000Y-118300000D03*
X232200000Y-91100000D03*
%TO.N,P002*%
X188400000Y-99700000D03*
%TO.N,P115*%
X188000000Y-88100000D03*
%TO.N,P113*%
X210100000Y-75900000D03*
X210100000Y-85100000D03*
%TO.N,P031*%
X233500000Y-92400000D03*
X188900000Y-137700000D03*
%TO.N,GND*%
X207100000Y-57200000D03*
X207100000Y-69600000D03*
X238200000Y-59100000D03*
X240800000Y-59000000D03*
%TO.N,RST*%
X240200000Y-64900000D03*
X238500000Y-64900000D03*
%TD*%
D19*
%TO.N,P008*%
X106111601Y-95457468D02*
X108271601Y-95457468D01*
%TO.N,P024*%
X222257419Y-217844646D02*
X223337419Y-218924646D01*
X221466804Y-217844646D02*
X222257419Y-217844646D01*
%TO.N,thumbkey_thumbrow*%
X217528920Y-215114646D02*
X218608920Y-216194646D01*
X216738305Y-215114646D02*
X217528920Y-215114646D01*
%TO.N,P024*%
X195486042Y-202844646D02*
X196276657Y-202844646D01*
X196276657Y-202844646D02*
X197356657Y-203924646D01*
%TO.N,ctrl2_thumbrow*%
X191548158Y-200114646D02*
X192628158Y-201194646D01*
X190757543Y-200114646D02*
X191548158Y-200114646D01*
%TO.N,P024*%
X177111601Y-173457468D02*
X179271601Y-173457468D01*
%TO.N,space_thumbrow*%
X171651601Y-173457468D02*
X173811601Y-173457468D01*
%TO.N,P024*%
X136111601Y-173457468D02*
X138271601Y-173457468D01*
%TO.N,alt_thumbrow*%
X130651601Y-173457468D02*
X132811601Y-173457468D01*
%TO.N,P024*%
X106111601Y-173457468D02*
X108271601Y-173457468D01*
%TO.N,winkey_thumbrow*%
X100651601Y-173457468D02*
X102811601Y-173457468D01*
%TO.N,P024*%
X76111601Y-173457468D02*
X78271601Y-173457468D01*
%TO.N,ctrl_thumbrow*%
X70651601Y-173457468D02*
X72811601Y-173457468D01*
%TO.N,P022*%
X182111601Y-152457468D02*
X184271601Y-152457468D01*
%TO.N,5tgbcol_zxcrow*%
X176651601Y-152457468D02*
X178811601Y-152457468D01*
%TO.N,P022*%
X163111601Y-152457468D02*
X165271601Y-152457468D01*
%TO.N,4rfvcol_zxcrow*%
X157651601Y-152457468D02*
X159811601Y-152457468D01*
%TO.N,P022*%
X144111601Y-152457468D02*
X146271601Y-152457468D01*
%TO.N,3edccol_zxcrow*%
X138651601Y-152457468D02*
X140811601Y-152457468D01*
%TO.N,P022*%
X125111601Y-152457468D02*
X127271601Y-152457468D01*
%TO.N,2wsxcol_zxcrow*%
X119651601Y-152457468D02*
X121811601Y-152457468D01*
%TO.N,P022*%
X106111601Y-152457468D02*
X108271601Y-152457468D01*
%TO.N,1qazcol_zxcrow*%
X100651601Y-152457468D02*
X102811601Y-152457468D01*
%TO.N,P022*%
X76111601Y-152457468D02*
X78271601Y-152457468D01*
%TO.N,tabcapsshift_tylda*%
X70651601Y-152457468D02*
X72811601Y-152457468D01*
%TO.N,P020*%
X182111601Y-133457468D02*
X184271601Y-133457468D01*
%TO.N,5tgbcol_asdrow*%
X176651601Y-133457468D02*
X178811601Y-133457468D01*
%TO.N,P020*%
X163111601Y-133457468D02*
X165271601Y-133457468D01*
%TO.N,4rfvcol_asdrow*%
X157651601Y-133457468D02*
X159811601Y-133457468D01*
%TO.N,P020*%
X144111601Y-133457468D02*
X146271601Y-133457468D01*
%TO.N,3edccol_asdrow*%
X138651601Y-133457468D02*
X140811601Y-133457468D01*
%TO.N,P020*%
X125111601Y-133457468D02*
X127271601Y-133457468D01*
%TO.N,2wsxcol_asdrow*%
X119651601Y-133457468D02*
X121811601Y-133457468D01*
%TO.N,P020*%
X106111601Y-133457468D02*
X108271601Y-133457468D01*
%TO.N,1qazcol_asdrow*%
X100651601Y-133457468D02*
X102811601Y-133457468D01*
%TO.N,P020*%
X76111601Y-133457468D02*
X78271601Y-133457468D01*
%TO.N,tabcapsshift_tab*%
X70651601Y-133457468D02*
X72811601Y-133457468D01*
%TO.N,P017*%
X182111601Y-114457468D02*
X184271601Y-114457468D01*
%TO.N,5tgbcol_qwerow*%
X176651601Y-114457468D02*
X178811601Y-114457468D01*
%TO.N,P017*%
X163111601Y-114457468D02*
X165271601Y-114457468D01*
%TO.N,4rfvcol_qwerow*%
X157651601Y-114457468D02*
X159811601Y-114457468D01*
%TO.N,P017*%
X144111601Y-114457468D02*
X146271601Y-114457468D01*
%TO.N,3edccol_qwerow*%
X138651601Y-114457468D02*
X140811601Y-114457468D01*
%TO.N,P017*%
X125111601Y-114457468D02*
X127271601Y-114457468D01*
%TO.N,2wsxcol_qwerow*%
X119651601Y-114457468D02*
X121811601Y-114457468D01*
%TO.N,P017*%
X106111601Y-114457468D02*
X108271601Y-114457468D01*
%TO.N,1qazcol_qwerow*%
X100651601Y-114457468D02*
X102811601Y-114457468D01*
%TO.N,P017*%
X76111601Y-114457468D02*
X78271601Y-114457468D01*
%TO.N,tabcapsshift_caps*%
X70651601Y-114457468D02*
X72811601Y-114457468D01*
%TO.N,P008*%
X76111601Y-95457468D02*
X78271601Y-95457468D01*
%TO.N,tabcapsshift_shift*%
X70651601Y-95457468D02*
X72811601Y-95457468D01*
%TO.N,1qazcol_numberrow*%
X100651601Y-95457468D02*
X102811601Y-95457468D01*
%TO.N,2wsxcol_numberrow*%
X119651601Y-95457468D02*
X121811601Y-95457468D01*
%TO.N,P008*%
X125111601Y-95457468D02*
X127271601Y-95457468D01*
%TO.N,3edccol_numberrow*%
X138651601Y-95457468D02*
X140811601Y-95457468D01*
%TO.N,P008*%
X144111601Y-95457468D02*
X146271601Y-95457468D01*
%TO.N,4rfvcol_numberrow*%
X157651601Y-95457468D02*
X159811601Y-95457468D01*
%TO.N,P008*%
X163111601Y-95457468D02*
X165271601Y-95457468D01*
%TO.N,5tgbcol_numberrow*%
X176651601Y-95457468D02*
X178811601Y-95457468D01*
%TO.N,P008*%
X182111601Y-95457468D02*
X184271601Y-95457468D01*
%TO.N,P006*%
X182111601Y-71457468D02*
X184271601Y-71457468D01*
%TO.N,f5_escaperow*%
X176651601Y-71457468D02*
X178811601Y-71457468D01*
%TO.N,P006*%
X163111601Y-71457468D02*
X165271601Y-71457468D01*
%TO.N,f4_escaperow*%
X157651601Y-71457468D02*
X159811601Y-71457468D01*
%TO.N,P006*%
X144111601Y-71457468D02*
X146271601Y-71457468D01*
%TO.N,f3_escaperow*%
X138651601Y-71457468D02*
X140811601Y-71457468D01*
%TO.N,P006*%
X125111601Y-71457468D02*
X127271601Y-71457468D01*
%TO.N,f2_escaperow*%
X119651601Y-71457468D02*
X121811601Y-71457468D01*
%TO.N,P006*%
X106111601Y-71457468D02*
X108271601Y-71457468D01*
%TO.N,f1_escaperow*%
X100651601Y-71457468D02*
X102811601Y-71457468D01*
%TO.N,P006*%
X76111601Y-71457468D02*
X78271601Y-71457468D01*
%TO.N,esc_escaperow*%
X70757468Y-71457468D02*
X72811601Y-71457468D01*
X70700000Y-71400000D02*
X70757468Y-71457468D01*
X70651601Y-71448399D02*
X70700000Y-71400000D01*
X70651601Y-71457468D02*
X70651601Y-71448399D01*
%TO.N,P029*%
X99277468Y-102377468D02*
X103001601Y-102377468D01*
X93222532Y-102377468D02*
X93200000Y-102400000D01*
X93577468Y-140377468D02*
X93500000Y-140300000D01*
X93500000Y-151875868D02*
X94662066Y-153037934D01*
X103001601Y-102377468D02*
X93222532Y-102377468D01*
X97977468Y-121377468D02*
X103001601Y-121377468D01*
X93477468Y-121377468D02*
X93400000Y-121300000D01*
X93200000Y-116600000D02*
X97977468Y-121377468D01*
X93100000Y-60800000D02*
X93100000Y-73475867D01*
X93400000Y-121300000D02*
X93400000Y-130775867D01*
X93000000Y-96100000D02*
X99277468Y-102377468D01*
X93200000Y-102400000D02*
X93200000Y-116600000D01*
X93400000Y-130775867D02*
X103001601Y-140377468D01*
X103001601Y-83377468D02*
X93122532Y-83377468D01*
X103001601Y-161377468D02*
X103001601Y-161598399D01*
X93122532Y-83377468D02*
X93000000Y-83500000D01*
X94522532Y-59377468D02*
X93100000Y-60800000D01*
X103001601Y-59377468D02*
X94522532Y-59377468D01*
X188100000Y-118300000D02*
X201700000Y-118300000D01*
X201700000Y-91100000D02*
X232200000Y-91100000D01*
X201700000Y-118300000D02*
X201700000Y-91100000D01*
X93000000Y-83500000D02*
X93000000Y-96100000D01*
X94662066Y-153037934D02*
X103001601Y-161377468D01*
X103001601Y-140377468D02*
X93577468Y-140377468D01*
X103001601Y-121377468D02*
X93477468Y-121377468D01*
X93100000Y-73475867D02*
X103001601Y-83377468D01*
X103000000Y-161600000D02*
X103001601Y-161598399D01*
X93500000Y-140300000D02*
X93500000Y-151875868D01*
%TO.N,P002*%
X124850000Y-142550000D02*
X133001601Y-150701601D01*
X122001601Y-83377468D02*
X111500000Y-72875867D01*
X199400000Y-90000000D02*
X199500000Y-89900000D01*
X199200000Y-99700000D02*
X199400000Y-99500000D01*
X199400000Y-99500000D02*
X199400000Y-90000000D01*
X124850000Y-140750000D02*
X124850000Y-142550000D01*
X235900000Y-89900000D02*
X236600000Y-89200000D01*
X111622532Y-83377468D02*
X122001601Y-83377468D01*
X111722532Y-59377468D02*
X122001601Y-59377468D01*
X199500000Y-89900000D02*
X235900000Y-89900000D01*
X111500000Y-129875867D02*
X111500000Y-121400000D01*
X111500000Y-111000000D02*
X111624133Y-111000000D01*
X111522532Y-121377468D02*
X122001601Y-121377468D01*
X122001601Y-102377468D02*
X111500000Y-91875867D01*
X233427468Y-64727468D02*
X230081601Y-64727468D01*
X133001601Y-150701601D02*
X133001601Y-161377468D01*
X236600000Y-67900000D02*
X233427468Y-64727468D01*
X122001601Y-102377468D02*
X112322532Y-102377468D01*
X188400000Y-99700000D02*
X199200000Y-99700000D01*
X124477468Y-140377468D02*
X124850000Y-140750000D01*
X111500000Y-103200000D02*
X111500000Y-111000000D01*
X122001601Y-140377468D02*
X111500000Y-129875867D01*
X111500000Y-83500000D02*
X111622532Y-83377468D01*
X111500000Y-72875867D02*
X111500000Y-59600000D01*
X112322532Y-102377468D02*
X111500000Y-103200000D01*
X111500000Y-91875867D02*
X111500000Y-83500000D01*
X111624133Y-111000000D02*
X122001601Y-121377468D01*
X122001601Y-140377468D02*
X124477468Y-140377468D01*
X111500000Y-59600000D02*
X111722532Y-59377468D01*
X111500000Y-121400000D02*
X111522532Y-121377468D01*
X236600000Y-89200000D02*
X236600000Y-67900000D01*
%TO.N,P115*%
X149300000Y-146700000D02*
X142977468Y-140377468D01*
X141001601Y-83377468D02*
X130700000Y-73075867D01*
X141001601Y-121377468D02*
X132322532Y-121377468D01*
X131000000Y-83977468D02*
X131600000Y-83377468D01*
X235400000Y-88100000D02*
X235400000Y-68600000D01*
X131922532Y-102377468D02*
X131200000Y-103100000D01*
X131600000Y-83377468D02*
X141001601Y-83377468D01*
X132322532Y-121377468D02*
X131500000Y-122200000D01*
X131200000Y-111600000D02*
X131224134Y-111600000D01*
X141001601Y-102377468D02*
X131000000Y-92375867D01*
X131224134Y-111600000D02*
X133312067Y-113687933D01*
X150377468Y-161377468D02*
X149300000Y-160300000D01*
X149300000Y-160300000D02*
X149300000Y-146700000D01*
X141001601Y-102377468D02*
X131922532Y-102377468D01*
X142977468Y-140377468D02*
X141001601Y-140377468D01*
X131000000Y-92375867D02*
X131000000Y-83977468D01*
X234067468Y-67267468D02*
X230081601Y-67267468D01*
X130822532Y-59377468D02*
X141001601Y-59377468D01*
X174001601Y-161377468D02*
X150377468Y-161377468D01*
X131200000Y-103100000D02*
X131200000Y-111600000D01*
X130700000Y-73075867D02*
X130700000Y-59500000D01*
X131500000Y-130875867D02*
X141001601Y-140377468D01*
X131500000Y-122200000D02*
X131500000Y-130875867D01*
X188000000Y-88100000D02*
X235400000Y-88100000D01*
X133312067Y-113687933D02*
X141001601Y-121377468D01*
X235400000Y-68600000D02*
X234067468Y-67267468D01*
X130700000Y-59500000D02*
X130822532Y-59377468D01*
%TO.N,P113*%
X198832703Y-159932703D02*
X198832703Y-190828059D01*
X210000000Y-75700000D02*
X210100000Y-75800000D01*
X151300000Y-121377468D02*
X160001601Y-121377468D01*
X196200000Y-157300000D02*
X198832703Y-159932703D01*
X160001601Y-140377468D02*
X150622532Y-140377468D01*
X149300000Y-59600000D02*
X149300000Y-72675868D01*
X160001601Y-59377468D02*
X149522532Y-59377468D01*
X210100000Y-75800000D02*
X210100000Y-75900000D01*
X149912066Y-73287934D02*
X160001601Y-83377468D01*
X160001601Y-102377468D02*
X150122532Y-102377468D01*
X210100000Y-55200000D02*
X210100000Y-75600000D01*
X160001601Y-140377468D02*
X150024133Y-130400000D01*
X149500000Y-103000000D02*
X149500000Y-110875868D01*
X150024133Y-130400000D02*
X150000000Y-130400000D01*
X234200000Y-69800000D02*
X233900000Y-69800000D01*
X233892532Y-69807468D02*
X230081601Y-69807468D01*
X234200000Y-84900000D02*
X234200000Y-69800000D01*
X149522532Y-59377468D02*
X149300000Y-59600000D01*
X234000000Y-85100000D02*
X234200000Y-84900000D01*
X149812066Y-111187934D02*
X160001601Y-121377468D01*
X210100000Y-75600000D02*
X210000000Y-75700000D01*
X164179069Y-55200000D02*
X210100000Y-55200000D01*
X149424133Y-91800000D02*
X149400000Y-91800000D01*
X149300000Y-72675868D02*
X149912066Y-73287934D01*
X149500000Y-110875868D02*
X149812066Y-111187934D01*
X149400000Y-83700000D02*
X149722532Y-83377468D01*
X149722532Y-83377468D02*
X160001601Y-83377468D01*
X151300000Y-121400000D02*
X150000000Y-122700000D01*
X233900000Y-69800000D02*
X233892532Y-69807468D01*
X149400000Y-91800000D02*
X149400000Y-83700000D01*
X150500000Y-157100000D02*
X150700000Y-157300000D01*
X150122532Y-102377468D02*
X149500000Y-103000000D01*
X160001601Y-102377468D02*
X149424133Y-91800000D01*
X150000000Y-130400000D02*
X150000000Y-122700000D01*
X151300000Y-121377468D02*
X151300000Y-121400000D01*
X150700000Y-157300000D02*
X196200000Y-157300000D01*
X160001601Y-59377468D02*
X164179069Y-55200000D01*
X150622532Y-140377468D02*
X150500000Y-140500000D01*
X150500000Y-140500000D02*
X150500000Y-157100000D01*
X210100000Y-85100000D02*
X234000000Y-85100000D01*
%TO.N,P111*%
X169222532Y-121377468D02*
X179001601Y-121377468D01*
X168800000Y-111175867D02*
X168800000Y-102400000D01*
X168800000Y-102400000D02*
X168822532Y-102377468D01*
X232900000Y-72500000D02*
X232800000Y-72400000D01*
X232800000Y-72400000D02*
X232500000Y-72400000D01*
X179001601Y-140377468D02*
X187877468Y-140377468D01*
X177377468Y-140377468D02*
X168900000Y-131900000D01*
X168500000Y-60000000D02*
X168500000Y-72875867D01*
X188800000Y-141300000D02*
X188800000Y-156100000D01*
X232447468Y-72347468D02*
X230081601Y-72347468D01*
X168900000Y-84200000D02*
X168900000Y-92300000D01*
X183800000Y-81700000D02*
X232900000Y-81700000D01*
X168500000Y-72875867D02*
X179001601Y-83377468D01*
X168822532Y-102377468D02*
X179001601Y-102377468D01*
X179001601Y-121377468D02*
X168800000Y-111175867D01*
X182122532Y-83377468D02*
X183800000Y-81700000D01*
X168900000Y-92300000D02*
X168924133Y-92300000D01*
X169200000Y-121400000D02*
X169222532Y-121377468D01*
X232500000Y-72400000D02*
X232447468Y-72347468D01*
X232900000Y-81700000D02*
X232900000Y-72500000D01*
X179001601Y-83377468D02*
X182122532Y-83377468D01*
X179001601Y-140377468D02*
X177377468Y-140377468D01*
X224813465Y-157713465D02*
X224813465Y-205828059D01*
X179001601Y-59377468D02*
X169122532Y-59377468D01*
X179001601Y-83377468D02*
X169722532Y-83377468D01*
X168900000Y-121400000D02*
X169200000Y-121400000D01*
X168900000Y-131900000D02*
X168900000Y-121400000D01*
X169722532Y-83377468D02*
X168900000Y-84200000D01*
X187877468Y-140377468D02*
X188800000Y-141300000D01*
X168924133Y-92300000D02*
X179001601Y-102377468D01*
X188800000Y-156100000D02*
X223200000Y-156100000D01*
X169122532Y-59377468D02*
X168500000Y-60000000D01*
X223200000Y-156100000D02*
X224813465Y-157713465D01*
%TO.N,P031*%
X80900000Y-153479069D02*
X80900000Y-148275867D01*
X73001601Y-83377468D02*
X76822532Y-83377468D01*
X81200000Y-134100000D02*
X81200000Y-129575867D01*
X203300000Y-137400000D02*
X203300000Y-92500000D01*
X80900000Y-64900000D02*
X75377468Y-59377468D01*
X81200000Y-88200000D02*
X76377468Y-83377468D01*
X81100000Y-88300000D02*
X81200000Y-88200000D01*
X81100000Y-114895515D02*
X81100000Y-105900000D01*
X74618047Y-121377468D02*
X81100000Y-114895515D01*
X203300000Y-92500000D02*
X233400000Y-92500000D01*
X73001601Y-161377468D02*
X80900000Y-153479069D01*
X81100000Y-98800000D02*
X81100000Y-88300000D01*
X75377468Y-59377468D02*
X73001601Y-59377468D01*
X77577468Y-102377468D02*
X73001601Y-102377468D01*
X73001601Y-140377468D02*
X74922532Y-140377468D01*
X233400000Y-92500000D02*
X233500000Y-92400000D01*
X77522532Y-102377468D02*
X81100000Y-98800000D01*
X188900000Y-137700000D02*
X203000000Y-137700000D01*
X80900000Y-148275867D02*
X73001601Y-140377468D01*
X76822532Y-83377468D02*
X80900000Y-79300000D01*
X203000000Y-137700000D02*
X203300000Y-137400000D01*
X73001601Y-102377468D02*
X77522532Y-102377468D01*
X74922532Y-140377468D02*
X81200000Y-134100000D01*
X73001601Y-121377468D02*
X74618047Y-121377468D01*
X81100000Y-105900000D02*
X77577468Y-102377468D01*
X81200000Y-129575867D02*
X73001601Y-121377468D01*
X76377468Y-83377468D02*
X73001601Y-83377468D01*
X80900000Y-79300000D02*
X80900000Y-64900000D01*
%TO.N,GND*%
X207100000Y-69600000D02*
X207100000Y-57000000D01*
X238300000Y-59000000D02*
X238200000Y-59100000D01*
X240800000Y-59000000D02*
X238300000Y-59000000D01*
%TO.N,RST*%
X240200000Y-64900000D02*
X238500000Y-64900000D01*
%TD*%
M02*
