%TF.GenerationSoftware,KiCad,Pcbnew,8.0.5*%
%TF.CreationDate,2024-10-12T19:47:22+02:00*%
%TF.ProjectId,finishedleftpcb,66696e69-7368-4656-946c-656674706362,v1.0.0*%
%TF.SameCoordinates,Original*%
%TF.FileFunction,Legend,Top*%
%TF.FilePolarity,Positive*%
%FSLAX46Y46*%
G04 Gerber Fmt 4.6, Leading zero omitted, Abs format (unit mm)*
G04 Created by KiCad (PCBNEW 8.0.5) date 2024-10-12 19:47:22*
%MOMM*%
%LPD*%
G01*
G04 APERTURE LIST*
%ADD10C,0.150000*%
%ADD11C,0.300000*%
%ADD12C,0.100000*%
%ADD13C,0.120000*%
%ADD14C,0.381000*%
%ADD15C,1.752600*%
G04 APERTURE END LIST*
D10*
X216124411Y-51519763D02*
X216200601Y-51519763D01*
X216200601Y-51519763D02*
X216276792Y-51557858D01*
X216276792Y-51557858D02*
X216314887Y-51595953D01*
X216314887Y-51595953D02*
X216352982Y-51672144D01*
X216352982Y-51672144D02*
X216391077Y-51824525D01*
X216391077Y-51824525D02*
X216391077Y-52015001D01*
X216391077Y-52015001D02*
X216352982Y-52167382D01*
X216352982Y-52167382D02*
X216314887Y-52243572D01*
X216314887Y-52243572D02*
X216276792Y-52281668D01*
X216276792Y-52281668D02*
X216200601Y-52319763D01*
X216200601Y-52319763D02*
X216124411Y-52319763D01*
X216124411Y-52319763D02*
X216048220Y-52281668D01*
X216048220Y-52281668D02*
X216010125Y-52243572D01*
X216010125Y-52243572D02*
X215972030Y-52167382D01*
X215972030Y-52167382D02*
X215933934Y-52015001D01*
X215933934Y-52015001D02*
X215933934Y-51824525D01*
X215933934Y-51824525D02*
X215972030Y-51672144D01*
X215972030Y-51672144D02*
X216010125Y-51595953D01*
X216010125Y-51595953D02*
X216048220Y-51557858D01*
X216048220Y-51557858D02*
X216124411Y-51519763D01*
X216886316Y-51519763D02*
X216962506Y-51519763D01*
X216962506Y-51519763D02*
X217038697Y-51557858D01*
X217038697Y-51557858D02*
X217076792Y-51595953D01*
X217076792Y-51595953D02*
X217114887Y-51672144D01*
X217114887Y-51672144D02*
X217152982Y-51824525D01*
X217152982Y-51824525D02*
X217152982Y-52015001D01*
X217152982Y-52015001D02*
X217114887Y-52167382D01*
X217114887Y-52167382D02*
X217076792Y-52243572D01*
X217076792Y-52243572D02*
X217038697Y-52281668D01*
X217038697Y-52281668D02*
X216962506Y-52319763D01*
X216962506Y-52319763D02*
X216886316Y-52319763D01*
X216886316Y-52319763D02*
X216810125Y-52281668D01*
X216810125Y-52281668D02*
X216772030Y-52243572D01*
X216772030Y-52243572D02*
X216733935Y-52167382D01*
X216733935Y-52167382D02*
X216695839Y-52015001D01*
X216695839Y-52015001D02*
X216695839Y-51824525D01*
X216695839Y-51824525D02*
X216733935Y-51672144D01*
X216733935Y-51672144D02*
X216772030Y-51595953D01*
X216772030Y-51595953D02*
X216810125Y-51557858D01*
X216810125Y-51557858D02*
X216886316Y-51519763D01*
X217610125Y-51862620D02*
X217533935Y-51824525D01*
X217533935Y-51824525D02*
X217495840Y-51786429D01*
X217495840Y-51786429D02*
X217457744Y-51710239D01*
X217457744Y-51710239D02*
X217457744Y-51672144D01*
X217457744Y-51672144D02*
X217495840Y-51595953D01*
X217495840Y-51595953D02*
X217533935Y-51557858D01*
X217533935Y-51557858D02*
X217610125Y-51519763D01*
X217610125Y-51519763D02*
X217762506Y-51519763D01*
X217762506Y-51519763D02*
X217838697Y-51557858D01*
X217838697Y-51557858D02*
X217876792Y-51595953D01*
X217876792Y-51595953D02*
X217914887Y-51672144D01*
X217914887Y-51672144D02*
X217914887Y-51710239D01*
X217914887Y-51710239D02*
X217876792Y-51786429D01*
X217876792Y-51786429D02*
X217838697Y-51824525D01*
X217838697Y-51824525D02*
X217762506Y-51862620D01*
X217762506Y-51862620D02*
X217610125Y-51862620D01*
X217610125Y-51862620D02*
X217533935Y-51900715D01*
X217533935Y-51900715D02*
X217495840Y-51938810D01*
X217495840Y-51938810D02*
X217457744Y-52015001D01*
X217457744Y-52015001D02*
X217457744Y-52167382D01*
X217457744Y-52167382D02*
X217495840Y-52243572D01*
X217495840Y-52243572D02*
X217533935Y-52281668D01*
X217533935Y-52281668D02*
X217610125Y-52319763D01*
X217610125Y-52319763D02*
X217762506Y-52319763D01*
X217762506Y-52319763D02*
X217838697Y-52281668D01*
X217838697Y-52281668D02*
X217876792Y-52243572D01*
X217876792Y-52243572D02*
X217914887Y-52167382D01*
X217914887Y-52167382D02*
X217914887Y-52015001D01*
X217914887Y-52015001D02*
X217876792Y-51938810D01*
X217876792Y-51938810D02*
X217838697Y-51900715D01*
X217838697Y-51900715D02*
X217762506Y-51862620D01*
X216124411Y-61819763D02*
X216200601Y-61819763D01*
X216200601Y-61819763D02*
X216276792Y-61857858D01*
X216276792Y-61857858D02*
X216314887Y-61895953D01*
X216314887Y-61895953D02*
X216352982Y-61972144D01*
X216352982Y-61972144D02*
X216391077Y-62124525D01*
X216391077Y-62124525D02*
X216391077Y-62315001D01*
X216391077Y-62315001D02*
X216352982Y-62467382D01*
X216352982Y-62467382D02*
X216314887Y-62543572D01*
X216314887Y-62543572D02*
X216276792Y-62581668D01*
X216276792Y-62581668D02*
X216200601Y-62619763D01*
X216200601Y-62619763D02*
X216124411Y-62619763D01*
X216124411Y-62619763D02*
X216048220Y-62581668D01*
X216048220Y-62581668D02*
X216010125Y-62543572D01*
X216010125Y-62543572D02*
X215972030Y-62467382D01*
X215972030Y-62467382D02*
X215933934Y-62315001D01*
X215933934Y-62315001D02*
X215933934Y-62124525D01*
X215933934Y-62124525D02*
X215972030Y-61972144D01*
X215972030Y-61972144D02*
X216010125Y-61895953D01*
X216010125Y-61895953D02*
X216048220Y-61857858D01*
X216048220Y-61857858D02*
X216124411Y-61819763D01*
X216695839Y-61895953D02*
X216733935Y-61857858D01*
X216733935Y-61857858D02*
X216810125Y-61819763D01*
X216810125Y-61819763D02*
X217000601Y-61819763D01*
X217000601Y-61819763D02*
X217076792Y-61857858D01*
X217076792Y-61857858D02*
X217114887Y-61895953D01*
X217114887Y-61895953D02*
X217152982Y-61972144D01*
X217152982Y-61972144D02*
X217152982Y-62048334D01*
X217152982Y-62048334D02*
X217114887Y-62162620D01*
X217114887Y-62162620D02*
X216657744Y-62619763D01*
X216657744Y-62619763D02*
X217152982Y-62619763D01*
X217648221Y-61819763D02*
X217724411Y-61819763D01*
X217724411Y-61819763D02*
X217800602Y-61857858D01*
X217800602Y-61857858D02*
X217838697Y-61895953D01*
X217838697Y-61895953D02*
X217876792Y-61972144D01*
X217876792Y-61972144D02*
X217914887Y-62124525D01*
X217914887Y-62124525D02*
X217914887Y-62315001D01*
X217914887Y-62315001D02*
X217876792Y-62467382D01*
X217876792Y-62467382D02*
X217838697Y-62543572D01*
X217838697Y-62543572D02*
X217800602Y-62581668D01*
X217800602Y-62581668D02*
X217724411Y-62619763D01*
X217724411Y-62619763D02*
X217648221Y-62619763D01*
X217648221Y-62619763D02*
X217572030Y-62581668D01*
X217572030Y-62581668D02*
X217533935Y-62543572D01*
X217533935Y-62543572D02*
X217495840Y-62467382D01*
X217495840Y-62467382D02*
X217457744Y-62315001D01*
X217457744Y-62315001D02*
X217457744Y-62124525D01*
X217457744Y-62124525D02*
X217495840Y-61972144D01*
X217495840Y-61972144D02*
X217533935Y-61895953D01*
X217533935Y-61895953D02*
X217572030Y-61857858D01*
X217572030Y-61857858D02*
X217648221Y-61819763D01*
X227198792Y-74449763D02*
X227274982Y-74449763D01*
X227274982Y-74449763D02*
X227351173Y-74487858D01*
X227351173Y-74487858D02*
X227389268Y-74525953D01*
X227389268Y-74525953D02*
X227427363Y-74602144D01*
X227427363Y-74602144D02*
X227465458Y-74754525D01*
X227465458Y-74754525D02*
X227465458Y-74945001D01*
X227465458Y-74945001D02*
X227427363Y-75097382D01*
X227427363Y-75097382D02*
X227389268Y-75173572D01*
X227389268Y-75173572D02*
X227351173Y-75211668D01*
X227351173Y-75211668D02*
X227274982Y-75249763D01*
X227274982Y-75249763D02*
X227198792Y-75249763D01*
X227198792Y-75249763D02*
X227122601Y-75211668D01*
X227122601Y-75211668D02*
X227084506Y-75173572D01*
X227084506Y-75173572D02*
X227046411Y-75097382D01*
X227046411Y-75097382D02*
X227008315Y-74945001D01*
X227008315Y-74945001D02*
X227008315Y-74754525D01*
X227008315Y-74754525D02*
X227046411Y-74602144D01*
X227046411Y-74602144D02*
X227084506Y-74525953D01*
X227084506Y-74525953D02*
X227122601Y-74487858D01*
X227122601Y-74487858D02*
X227198792Y-74449763D01*
X228227363Y-75249763D02*
X227770220Y-75249763D01*
X227998792Y-75249763D02*
X227998792Y-74449763D01*
X227998792Y-74449763D02*
X227922601Y-74564048D01*
X227922601Y-74564048D02*
X227846411Y-74640239D01*
X227846411Y-74640239D02*
X227770220Y-74678334D01*
X228722602Y-74449763D02*
X228798792Y-74449763D01*
X228798792Y-74449763D02*
X228874983Y-74487858D01*
X228874983Y-74487858D02*
X228913078Y-74525953D01*
X228913078Y-74525953D02*
X228951173Y-74602144D01*
X228951173Y-74602144D02*
X228989268Y-74754525D01*
X228989268Y-74754525D02*
X228989268Y-74945001D01*
X228989268Y-74945001D02*
X228951173Y-75097382D01*
X228951173Y-75097382D02*
X228913078Y-75173572D01*
X228913078Y-75173572D02*
X228874983Y-75211668D01*
X228874983Y-75211668D02*
X228798792Y-75249763D01*
X228798792Y-75249763D02*
X228722602Y-75249763D01*
X228722602Y-75249763D02*
X228646411Y-75211668D01*
X228646411Y-75211668D02*
X228608316Y-75173572D01*
X228608316Y-75173572D02*
X228570221Y-75097382D01*
X228570221Y-75097382D02*
X228532125Y-74945001D01*
X228532125Y-74945001D02*
X228532125Y-74754525D01*
X228532125Y-74754525D02*
X228570221Y-74602144D01*
X228570221Y-74602144D02*
X228608316Y-74525953D01*
X228608316Y-74525953D02*
X228646411Y-74487858D01*
X228646411Y-74487858D02*
X228722602Y-74449763D01*
X216391077Y-56707858D02*
X216314887Y-56669763D01*
X216314887Y-56669763D02*
X216200601Y-56669763D01*
X216200601Y-56669763D02*
X216086315Y-56707858D01*
X216086315Y-56707858D02*
X216010125Y-56784048D01*
X216010125Y-56784048D02*
X215972030Y-56860239D01*
X215972030Y-56860239D02*
X215933934Y-57012620D01*
X215933934Y-57012620D02*
X215933934Y-57126906D01*
X215933934Y-57126906D02*
X215972030Y-57279287D01*
X215972030Y-57279287D02*
X216010125Y-57355477D01*
X216010125Y-57355477D02*
X216086315Y-57431668D01*
X216086315Y-57431668D02*
X216200601Y-57469763D01*
X216200601Y-57469763D02*
X216276792Y-57469763D01*
X216276792Y-57469763D02*
X216391077Y-57431668D01*
X216391077Y-57431668D02*
X216429173Y-57393572D01*
X216429173Y-57393572D02*
X216429173Y-57126906D01*
X216429173Y-57126906D02*
X216276792Y-57126906D01*
X216772030Y-57469763D02*
X216772030Y-56669763D01*
X216772030Y-56669763D02*
X217229173Y-57469763D01*
X217229173Y-57469763D02*
X217229173Y-56669763D01*
X217610125Y-57469763D02*
X217610125Y-56669763D01*
X217610125Y-56669763D02*
X217800601Y-56669763D01*
X217800601Y-56669763D02*
X217914887Y-56707858D01*
X217914887Y-56707858D02*
X217991077Y-56784048D01*
X217991077Y-56784048D02*
X218029172Y-56860239D01*
X218029172Y-56860239D02*
X218067268Y-57012620D01*
X218067268Y-57012620D02*
X218067268Y-57126906D01*
X218067268Y-57126906D02*
X218029172Y-57279287D01*
X218029172Y-57279287D02*
X217991077Y-57355477D01*
X217991077Y-57355477D02*
X217914887Y-57431668D01*
X217914887Y-57431668D02*
X217800601Y-57469763D01*
X217800601Y-57469763D02*
X217610125Y-57469763D01*
X216391077Y-75249763D02*
X215933934Y-75249763D01*
X216162506Y-75249763D02*
X216162506Y-74449763D01*
X216162506Y-74449763D02*
X216086315Y-74564048D01*
X216086315Y-74564048D02*
X216010125Y-74640239D01*
X216010125Y-74640239D02*
X215933934Y-74678334D01*
X216886316Y-74449763D02*
X216962506Y-74449763D01*
X216962506Y-74449763D02*
X217038697Y-74487858D01*
X217038697Y-74487858D02*
X217076792Y-74525953D01*
X217076792Y-74525953D02*
X217114887Y-74602144D01*
X217114887Y-74602144D02*
X217152982Y-74754525D01*
X217152982Y-74754525D02*
X217152982Y-74945001D01*
X217152982Y-74945001D02*
X217114887Y-75097382D01*
X217114887Y-75097382D02*
X217076792Y-75173572D01*
X217076792Y-75173572D02*
X217038697Y-75211668D01*
X217038697Y-75211668D02*
X216962506Y-75249763D01*
X216962506Y-75249763D02*
X216886316Y-75249763D01*
X216886316Y-75249763D02*
X216810125Y-75211668D01*
X216810125Y-75211668D02*
X216772030Y-75173572D01*
X216772030Y-75173572D02*
X216733935Y-75097382D01*
X216733935Y-75097382D02*
X216695839Y-74945001D01*
X216695839Y-74945001D02*
X216695839Y-74754525D01*
X216695839Y-74754525D02*
X216733935Y-74602144D01*
X216733935Y-74602144D02*
X216772030Y-74525953D01*
X216772030Y-74525953D02*
X216810125Y-74487858D01*
X216810125Y-74487858D02*
X216886316Y-74449763D01*
X217838697Y-74716429D02*
X217838697Y-75249763D01*
X217648221Y-74411668D02*
X217457744Y-74983096D01*
X217457744Y-74983096D02*
X217952983Y-74983096D01*
X227465458Y-72709763D02*
X227008315Y-72709763D01*
X227236887Y-72709763D02*
X227236887Y-71909763D01*
X227236887Y-71909763D02*
X227160696Y-72024048D01*
X227160696Y-72024048D02*
X227084506Y-72100239D01*
X227084506Y-72100239D02*
X227008315Y-72138334D01*
X228227363Y-72709763D02*
X227770220Y-72709763D01*
X227998792Y-72709763D02*
X227998792Y-71909763D01*
X227998792Y-71909763D02*
X227922601Y-72024048D01*
X227922601Y-72024048D02*
X227846411Y-72100239D01*
X227846411Y-72100239D02*
X227770220Y-72138334D01*
X228989268Y-72709763D02*
X228532125Y-72709763D01*
X228760697Y-72709763D02*
X228760697Y-71909763D01*
X228760697Y-71909763D02*
X228684506Y-72024048D01*
X228684506Y-72024048D02*
X228608316Y-72100239D01*
X228608316Y-72100239D02*
X228532125Y-72138334D01*
X226932125Y-56669763D02*
X227198792Y-57469763D01*
X227198792Y-57469763D02*
X227465458Y-56669763D01*
X228189268Y-57393572D02*
X228151172Y-57431668D01*
X228151172Y-57431668D02*
X228036887Y-57469763D01*
X228036887Y-57469763D02*
X227960696Y-57469763D01*
X227960696Y-57469763D02*
X227846410Y-57431668D01*
X227846410Y-57431668D02*
X227770220Y-57355477D01*
X227770220Y-57355477D02*
X227732125Y-57279287D01*
X227732125Y-57279287D02*
X227694029Y-57126906D01*
X227694029Y-57126906D02*
X227694029Y-57012620D01*
X227694029Y-57012620D02*
X227732125Y-56860239D01*
X227732125Y-56860239D02*
X227770220Y-56784048D01*
X227770220Y-56784048D02*
X227846410Y-56707858D01*
X227846410Y-56707858D02*
X227960696Y-56669763D01*
X227960696Y-56669763D02*
X228036887Y-56669763D01*
X228036887Y-56669763D02*
X228151172Y-56707858D01*
X228151172Y-56707858D02*
X228189268Y-56745953D01*
X228989268Y-57393572D02*
X228951172Y-57431668D01*
X228951172Y-57431668D02*
X228836887Y-57469763D01*
X228836887Y-57469763D02*
X228760696Y-57469763D01*
X228760696Y-57469763D02*
X228646410Y-57431668D01*
X228646410Y-57431668D02*
X228570220Y-57355477D01*
X228570220Y-57355477D02*
X228532125Y-57279287D01*
X228532125Y-57279287D02*
X228494029Y-57126906D01*
X228494029Y-57126906D02*
X228494029Y-57012620D01*
X228494029Y-57012620D02*
X228532125Y-56860239D01*
X228532125Y-56860239D02*
X228570220Y-56784048D01*
X228570220Y-56784048D02*
X228646410Y-56707858D01*
X228646410Y-56707858D02*
X228760696Y-56669763D01*
X228760696Y-56669763D02*
X228836887Y-56669763D01*
X228836887Y-56669763D02*
X228951172Y-56707858D01*
X228951172Y-56707858D02*
X228989268Y-56745953D01*
X227465458Y-70169763D02*
X227008315Y-70169763D01*
X227236887Y-70169763D02*
X227236887Y-69369763D01*
X227236887Y-69369763D02*
X227160696Y-69484048D01*
X227160696Y-69484048D02*
X227084506Y-69560239D01*
X227084506Y-69560239D02*
X227008315Y-69598334D01*
X228227363Y-70169763D02*
X227770220Y-70169763D01*
X227998792Y-70169763D02*
X227998792Y-69369763D01*
X227998792Y-69369763D02*
X227922601Y-69484048D01*
X227922601Y-69484048D02*
X227846411Y-69560239D01*
X227846411Y-69560239D02*
X227770220Y-69598334D01*
X228494030Y-69369763D02*
X228989268Y-69369763D01*
X228989268Y-69369763D02*
X228722602Y-69674525D01*
X228722602Y-69674525D02*
X228836887Y-69674525D01*
X228836887Y-69674525D02*
X228913078Y-69712620D01*
X228913078Y-69712620D02*
X228951173Y-69750715D01*
X228951173Y-69750715D02*
X228989268Y-69826906D01*
X228989268Y-69826906D02*
X228989268Y-70017382D01*
X228989268Y-70017382D02*
X228951173Y-70093572D01*
X228951173Y-70093572D02*
X228913078Y-70131668D01*
X228913078Y-70131668D02*
X228836887Y-70169763D01*
X228836887Y-70169763D02*
X228608316Y-70169763D01*
X228608316Y-70169763D02*
X228532125Y-70131668D01*
X228532125Y-70131668D02*
X228494030Y-70093572D01*
D11*
X217679886Y-76597796D02*
X217679886Y-77597796D01*
X217679886Y-76740653D02*
X217751315Y-76669225D01*
X217751315Y-76669225D02*
X217894172Y-76597796D01*
X217894172Y-76597796D02*
X218108458Y-76597796D01*
X218108458Y-76597796D02*
X218251315Y-76669225D01*
X218251315Y-76669225D02*
X218322744Y-76812082D01*
X218322744Y-76812082D02*
X218322744Y-77597796D01*
X219037029Y-77597796D02*
X219037029Y-76597796D01*
X219037029Y-76097796D02*
X218965601Y-76169225D01*
X218965601Y-76169225D02*
X219037029Y-76240653D01*
X219037029Y-76240653D02*
X219108458Y-76169225D01*
X219108458Y-76169225D02*
X219037029Y-76097796D01*
X219037029Y-76097796D02*
X219037029Y-76240653D01*
X220394173Y-77526368D02*
X220251315Y-77597796D01*
X220251315Y-77597796D02*
X219965601Y-77597796D01*
X219965601Y-77597796D02*
X219822744Y-77526368D01*
X219822744Y-77526368D02*
X219751315Y-77454939D01*
X219751315Y-77454939D02*
X219679887Y-77312082D01*
X219679887Y-77312082D02*
X219679887Y-76883510D01*
X219679887Y-76883510D02*
X219751315Y-76740653D01*
X219751315Y-76740653D02*
X219822744Y-76669225D01*
X219822744Y-76669225D02*
X219965601Y-76597796D01*
X219965601Y-76597796D02*
X220251315Y-76597796D01*
X220251315Y-76597796D02*
X220394173Y-76669225D01*
X221608458Y-77526368D02*
X221465601Y-77597796D01*
X221465601Y-77597796D02*
X221179887Y-77597796D01*
X221179887Y-77597796D02*
X221037029Y-77526368D01*
X221037029Y-77526368D02*
X220965601Y-77383510D01*
X220965601Y-77383510D02*
X220965601Y-76812082D01*
X220965601Y-76812082D02*
X221037029Y-76669225D01*
X221037029Y-76669225D02*
X221179887Y-76597796D01*
X221179887Y-76597796D02*
X221465601Y-76597796D01*
X221465601Y-76597796D02*
X221608458Y-76669225D01*
X221608458Y-76669225D02*
X221679887Y-76812082D01*
X221679887Y-76812082D02*
X221679887Y-76954939D01*
X221679887Y-76954939D02*
X220965601Y-77097796D01*
X222322743Y-77454939D02*
X222394172Y-77526368D01*
X222394172Y-77526368D02*
X222322743Y-77597796D01*
X222322743Y-77597796D02*
X222251315Y-77526368D01*
X222251315Y-77526368D02*
X222322743Y-77454939D01*
X222322743Y-77454939D02*
X222322743Y-77597796D01*
X222322743Y-77026368D02*
X222251315Y-76169225D01*
X222251315Y-76169225D02*
X222322743Y-76097796D01*
X222322743Y-76097796D02*
X222394172Y-76169225D01*
X222394172Y-76169225D02*
X222322743Y-77026368D01*
X222322743Y-77026368D02*
X222322743Y-76097796D01*
X223037029Y-76597796D02*
X223037029Y-77597796D01*
X223037029Y-76740653D02*
X223108458Y-76669225D01*
X223108458Y-76669225D02*
X223251315Y-76597796D01*
X223251315Y-76597796D02*
X223465601Y-76597796D01*
X223465601Y-76597796D02*
X223608458Y-76669225D01*
X223608458Y-76669225D02*
X223679887Y-76812082D01*
X223679887Y-76812082D02*
X223679887Y-77597796D01*
X225037030Y-77597796D02*
X225037030Y-76812082D01*
X225037030Y-76812082D02*
X224965601Y-76669225D01*
X224965601Y-76669225D02*
X224822744Y-76597796D01*
X224822744Y-76597796D02*
X224537030Y-76597796D01*
X224537030Y-76597796D02*
X224394172Y-76669225D01*
X225037030Y-77526368D02*
X224894172Y-77597796D01*
X224894172Y-77597796D02*
X224537030Y-77597796D01*
X224537030Y-77597796D02*
X224394172Y-77526368D01*
X224394172Y-77526368D02*
X224322744Y-77383510D01*
X224322744Y-77383510D02*
X224322744Y-77240653D01*
X224322744Y-77240653D02*
X224394172Y-77097796D01*
X224394172Y-77097796D02*
X224537030Y-77026368D01*
X224537030Y-77026368D02*
X224894172Y-77026368D01*
X224894172Y-77026368D02*
X225037030Y-76954939D01*
X225751315Y-76597796D02*
X225751315Y-77597796D01*
X225751315Y-76740653D02*
X225822744Y-76669225D01*
X225822744Y-76669225D02*
X225965601Y-76597796D01*
X225965601Y-76597796D02*
X226179887Y-76597796D01*
X226179887Y-76597796D02*
X226322744Y-76669225D01*
X226322744Y-76669225D02*
X226394173Y-76812082D01*
X226394173Y-76812082D02*
X226394173Y-77597796D01*
X227322744Y-77597796D02*
X227179887Y-77526368D01*
X227179887Y-77526368D02*
X227108458Y-77454939D01*
X227108458Y-77454939D02*
X227037030Y-77312082D01*
X227037030Y-77312082D02*
X227037030Y-76883510D01*
X227037030Y-76883510D02*
X227108458Y-76740653D01*
X227108458Y-76740653D02*
X227179887Y-76669225D01*
X227179887Y-76669225D02*
X227322744Y-76597796D01*
X227322744Y-76597796D02*
X227537030Y-76597796D01*
X227537030Y-76597796D02*
X227679887Y-76669225D01*
X227679887Y-76669225D02*
X227751316Y-76740653D01*
X227751316Y-76740653D02*
X227822744Y-76883510D01*
X227822744Y-76883510D02*
X227822744Y-77312082D01*
X227822744Y-77312082D02*
X227751316Y-77454939D01*
X227751316Y-77454939D02*
X227679887Y-77526368D01*
X227679887Y-77526368D02*
X227537030Y-77597796D01*
X227537030Y-77597796D02*
X227322744Y-77597796D01*
D10*
X227611506Y-54929763D02*
X227344839Y-54548810D01*
X227154363Y-54929763D02*
X227154363Y-54129763D01*
X227154363Y-54129763D02*
X227459125Y-54129763D01*
X227459125Y-54129763D02*
X227535315Y-54167858D01*
X227535315Y-54167858D02*
X227573410Y-54205953D01*
X227573410Y-54205953D02*
X227611506Y-54282144D01*
X227611506Y-54282144D02*
X227611506Y-54396429D01*
X227611506Y-54396429D02*
X227573410Y-54472620D01*
X227573410Y-54472620D02*
X227535315Y-54510715D01*
X227535315Y-54510715D02*
X227459125Y-54548810D01*
X227459125Y-54548810D02*
X227154363Y-54548810D01*
X227916267Y-54891668D02*
X228030553Y-54929763D01*
X228030553Y-54929763D02*
X228221029Y-54929763D01*
X228221029Y-54929763D02*
X228297220Y-54891668D01*
X228297220Y-54891668D02*
X228335315Y-54853572D01*
X228335315Y-54853572D02*
X228373410Y-54777382D01*
X228373410Y-54777382D02*
X228373410Y-54701191D01*
X228373410Y-54701191D02*
X228335315Y-54625001D01*
X228335315Y-54625001D02*
X228297220Y-54586906D01*
X228297220Y-54586906D02*
X228221029Y-54548810D01*
X228221029Y-54548810D02*
X228068648Y-54510715D01*
X228068648Y-54510715D02*
X227992458Y-54472620D01*
X227992458Y-54472620D02*
X227954363Y-54434525D01*
X227954363Y-54434525D02*
X227916267Y-54358334D01*
X227916267Y-54358334D02*
X227916267Y-54282144D01*
X227916267Y-54282144D02*
X227954363Y-54205953D01*
X227954363Y-54205953D02*
X227992458Y-54167858D01*
X227992458Y-54167858D02*
X228068648Y-54129763D01*
X228068648Y-54129763D02*
X228259125Y-54129763D01*
X228259125Y-54129763D02*
X228373410Y-54167858D01*
X228601982Y-54129763D02*
X229059125Y-54129763D01*
X228830553Y-54929763D02*
X228830553Y-54129763D01*
X227306744Y-51627858D02*
X227230554Y-51589763D01*
X227230554Y-51589763D02*
X227116268Y-51589763D01*
X227116268Y-51589763D02*
X227001982Y-51627858D01*
X227001982Y-51627858D02*
X226925792Y-51704048D01*
X226925792Y-51704048D02*
X226887697Y-51780239D01*
X226887697Y-51780239D02*
X226849601Y-51932620D01*
X226849601Y-51932620D02*
X226849601Y-52046906D01*
X226849601Y-52046906D02*
X226887697Y-52199287D01*
X226887697Y-52199287D02*
X226925792Y-52275477D01*
X226925792Y-52275477D02*
X227001982Y-52351668D01*
X227001982Y-52351668D02*
X227116268Y-52389763D01*
X227116268Y-52389763D02*
X227192459Y-52389763D01*
X227192459Y-52389763D02*
X227306744Y-52351668D01*
X227306744Y-52351668D02*
X227344840Y-52313572D01*
X227344840Y-52313572D02*
X227344840Y-52046906D01*
X227344840Y-52046906D02*
X227192459Y-52046906D01*
X227687697Y-52389763D02*
X227687697Y-51589763D01*
X227687697Y-51589763D02*
X228144840Y-52389763D01*
X228144840Y-52389763D02*
X228144840Y-51589763D01*
X228525792Y-52389763D02*
X228525792Y-51589763D01*
X228525792Y-51589763D02*
X228716268Y-51589763D01*
X228716268Y-51589763D02*
X228830554Y-51627858D01*
X228830554Y-51627858D02*
X228906744Y-51704048D01*
X228906744Y-51704048D02*
X228944839Y-51780239D01*
X228944839Y-51780239D02*
X228982935Y-51932620D01*
X228982935Y-51932620D02*
X228982935Y-52046906D01*
X228982935Y-52046906D02*
X228944839Y-52199287D01*
X228944839Y-52199287D02*
X228906744Y-52275477D01*
X228906744Y-52275477D02*
X228830554Y-52351668D01*
X228830554Y-52351668D02*
X228716268Y-52389763D01*
X228716268Y-52389763D02*
X228525792Y-52389763D01*
X227198792Y-64289763D02*
X227274982Y-64289763D01*
X227274982Y-64289763D02*
X227351173Y-64327858D01*
X227351173Y-64327858D02*
X227389268Y-64365953D01*
X227389268Y-64365953D02*
X227427363Y-64442144D01*
X227427363Y-64442144D02*
X227465458Y-64594525D01*
X227465458Y-64594525D02*
X227465458Y-64785001D01*
X227465458Y-64785001D02*
X227427363Y-64937382D01*
X227427363Y-64937382D02*
X227389268Y-65013572D01*
X227389268Y-65013572D02*
X227351173Y-65051668D01*
X227351173Y-65051668D02*
X227274982Y-65089763D01*
X227274982Y-65089763D02*
X227198792Y-65089763D01*
X227198792Y-65089763D02*
X227122601Y-65051668D01*
X227122601Y-65051668D02*
X227084506Y-65013572D01*
X227084506Y-65013572D02*
X227046411Y-64937382D01*
X227046411Y-64937382D02*
X227008315Y-64785001D01*
X227008315Y-64785001D02*
X227008315Y-64594525D01*
X227008315Y-64594525D02*
X227046411Y-64442144D01*
X227046411Y-64442144D02*
X227084506Y-64365953D01*
X227084506Y-64365953D02*
X227122601Y-64327858D01*
X227122601Y-64327858D02*
X227198792Y-64289763D01*
X227960697Y-64289763D02*
X228036887Y-64289763D01*
X228036887Y-64289763D02*
X228113078Y-64327858D01*
X228113078Y-64327858D02*
X228151173Y-64365953D01*
X228151173Y-64365953D02*
X228189268Y-64442144D01*
X228189268Y-64442144D02*
X228227363Y-64594525D01*
X228227363Y-64594525D02*
X228227363Y-64785001D01*
X228227363Y-64785001D02*
X228189268Y-64937382D01*
X228189268Y-64937382D02*
X228151173Y-65013572D01*
X228151173Y-65013572D02*
X228113078Y-65051668D01*
X228113078Y-65051668D02*
X228036887Y-65089763D01*
X228036887Y-65089763D02*
X227960697Y-65089763D01*
X227960697Y-65089763D02*
X227884506Y-65051668D01*
X227884506Y-65051668D02*
X227846411Y-65013572D01*
X227846411Y-65013572D02*
X227808316Y-64937382D01*
X227808316Y-64937382D02*
X227770220Y-64785001D01*
X227770220Y-64785001D02*
X227770220Y-64594525D01*
X227770220Y-64594525D02*
X227808316Y-64442144D01*
X227808316Y-64442144D02*
X227846411Y-64365953D01*
X227846411Y-64365953D02*
X227884506Y-64327858D01*
X227884506Y-64327858D02*
X227960697Y-64289763D01*
X228532125Y-64365953D02*
X228570221Y-64327858D01*
X228570221Y-64327858D02*
X228646411Y-64289763D01*
X228646411Y-64289763D02*
X228836887Y-64289763D01*
X228836887Y-64289763D02*
X228913078Y-64327858D01*
X228913078Y-64327858D02*
X228951173Y-64365953D01*
X228951173Y-64365953D02*
X228989268Y-64442144D01*
X228989268Y-64442144D02*
X228989268Y-64518334D01*
X228989268Y-64518334D02*
X228951173Y-64632620D01*
X228951173Y-64632620D02*
X228494030Y-65089763D01*
X228494030Y-65089763D02*
X228989268Y-65089763D01*
X216124411Y-59219763D02*
X216200601Y-59219763D01*
X216200601Y-59219763D02*
X216276792Y-59257858D01*
X216276792Y-59257858D02*
X216314887Y-59295953D01*
X216314887Y-59295953D02*
X216352982Y-59372144D01*
X216352982Y-59372144D02*
X216391077Y-59524525D01*
X216391077Y-59524525D02*
X216391077Y-59715001D01*
X216391077Y-59715001D02*
X216352982Y-59867382D01*
X216352982Y-59867382D02*
X216314887Y-59943572D01*
X216314887Y-59943572D02*
X216276792Y-59981668D01*
X216276792Y-59981668D02*
X216200601Y-60019763D01*
X216200601Y-60019763D02*
X216124411Y-60019763D01*
X216124411Y-60019763D02*
X216048220Y-59981668D01*
X216048220Y-59981668D02*
X216010125Y-59943572D01*
X216010125Y-59943572D02*
X215972030Y-59867382D01*
X215972030Y-59867382D02*
X215933934Y-59715001D01*
X215933934Y-59715001D02*
X215933934Y-59524525D01*
X215933934Y-59524525D02*
X215972030Y-59372144D01*
X215972030Y-59372144D02*
X216010125Y-59295953D01*
X216010125Y-59295953D02*
X216048220Y-59257858D01*
X216048220Y-59257858D02*
X216124411Y-59219763D01*
X217152982Y-60019763D02*
X216695839Y-60019763D01*
X216924411Y-60019763D02*
X216924411Y-59219763D01*
X216924411Y-59219763D02*
X216848220Y-59334048D01*
X216848220Y-59334048D02*
X216772030Y-59410239D01*
X216772030Y-59410239D02*
X216695839Y-59448334D01*
X217419649Y-59219763D02*
X217952983Y-59219763D01*
X217952983Y-59219763D02*
X217610125Y-60019763D01*
X227198792Y-61749763D02*
X227274982Y-61749763D01*
X227274982Y-61749763D02*
X227351173Y-61787858D01*
X227351173Y-61787858D02*
X227389268Y-61825953D01*
X227389268Y-61825953D02*
X227427363Y-61902144D01*
X227427363Y-61902144D02*
X227465458Y-62054525D01*
X227465458Y-62054525D02*
X227465458Y-62245001D01*
X227465458Y-62245001D02*
X227427363Y-62397382D01*
X227427363Y-62397382D02*
X227389268Y-62473572D01*
X227389268Y-62473572D02*
X227351173Y-62511668D01*
X227351173Y-62511668D02*
X227274982Y-62549763D01*
X227274982Y-62549763D02*
X227198792Y-62549763D01*
X227198792Y-62549763D02*
X227122601Y-62511668D01*
X227122601Y-62511668D02*
X227084506Y-62473572D01*
X227084506Y-62473572D02*
X227046411Y-62397382D01*
X227046411Y-62397382D02*
X227008315Y-62245001D01*
X227008315Y-62245001D02*
X227008315Y-62054525D01*
X227008315Y-62054525D02*
X227046411Y-61902144D01*
X227046411Y-61902144D02*
X227084506Y-61825953D01*
X227084506Y-61825953D02*
X227122601Y-61787858D01*
X227122601Y-61787858D02*
X227198792Y-61749763D01*
X227770220Y-61825953D02*
X227808316Y-61787858D01*
X227808316Y-61787858D02*
X227884506Y-61749763D01*
X227884506Y-61749763D02*
X228074982Y-61749763D01*
X228074982Y-61749763D02*
X228151173Y-61787858D01*
X228151173Y-61787858D02*
X228189268Y-61825953D01*
X228189268Y-61825953D02*
X228227363Y-61902144D01*
X228227363Y-61902144D02*
X228227363Y-61978334D01*
X228227363Y-61978334D02*
X228189268Y-62092620D01*
X228189268Y-62092620D02*
X227732125Y-62549763D01*
X227732125Y-62549763D02*
X228227363Y-62549763D01*
X228608316Y-62549763D02*
X228760697Y-62549763D01*
X228760697Y-62549763D02*
X228836887Y-62511668D01*
X228836887Y-62511668D02*
X228874983Y-62473572D01*
X228874983Y-62473572D02*
X228951173Y-62359287D01*
X228951173Y-62359287D02*
X228989268Y-62206906D01*
X228989268Y-62206906D02*
X228989268Y-61902144D01*
X228989268Y-61902144D02*
X228951173Y-61825953D01*
X228951173Y-61825953D02*
X228913078Y-61787858D01*
X228913078Y-61787858D02*
X228836887Y-61749763D01*
X228836887Y-61749763D02*
X228684506Y-61749763D01*
X228684506Y-61749763D02*
X228608316Y-61787858D01*
X228608316Y-61787858D02*
X228570221Y-61825953D01*
X228570221Y-61825953D02*
X228532125Y-61902144D01*
X228532125Y-61902144D02*
X228532125Y-62092620D01*
X228532125Y-62092620D02*
X228570221Y-62168810D01*
X228570221Y-62168810D02*
X228608316Y-62206906D01*
X228608316Y-62206906D02*
X228684506Y-62245001D01*
X228684506Y-62245001D02*
X228836887Y-62245001D01*
X228836887Y-62245001D02*
X228913078Y-62206906D01*
X228913078Y-62206906D02*
X228951173Y-62168810D01*
X228951173Y-62168810D02*
X228989268Y-62092620D01*
X227198792Y-59209763D02*
X227274982Y-59209763D01*
X227274982Y-59209763D02*
X227351173Y-59247858D01*
X227351173Y-59247858D02*
X227389268Y-59285953D01*
X227389268Y-59285953D02*
X227427363Y-59362144D01*
X227427363Y-59362144D02*
X227465458Y-59514525D01*
X227465458Y-59514525D02*
X227465458Y-59705001D01*
X227465458Y-59705001D02*
X227427363Y-59857382D01*
X227427363Y-59857382D02*
X227389268Y-59933572D01*
X227389268Y-59933572D02*
X227351173Y-59971668D01*
X227351173Y-59971668D02*
X227274982Y-60009763D01*
X227274982Y-60009763D02*
X227198792Y-60009763D01*
X227198792Y-60009763D02*
X227122601Y-59971668D01*
X227122601Y-59971668D02*
X227084506Y-59933572D01*
X227084506Y-59933572D02*
X227046411Y-59857382D01*
X227046411Y-59857382D02*
X227008315Y-59705001D01*
X227008315Y-59705001D02*
X227008315Y-59514525D01*
X227008315Y-59514525D02*
X227046411Y-59362144D01*
X227046411Y-59362144D02*
X227084506Y-59285953D01*
X227084506Y-59285953D02*
X227122601Y-59247858D01*
X227122601Y-59247858D02*
X227198792Y-59209763D01*
X227732125Y-59209763D02*
X228227363Y-59209763D01*
X228227363Y-59209763D02*
X227960697Y-59514525D01*
X227960697Y-59514525D02*
X228074982Y-59514525D01*
X228074982Y-59514525D02*
X228151173Y-59552620D01*
X228151173Y-59552620D02*
X228189268Y-59590715D01*
X228189268Y-59590715D02*
X228227363Y-59666906D01*
X228227363Y-59666906D02*
X228227363Y-59857382D01*
X228227363Y-59857382D02*
X228189268Y-59933572D01*
X228189268Y-59933572D02*
X228151173Y-59971668D01*
X228151173Y-59971668D02*
X228074982Y-60009763D01*
X228074982Y-60009763D02*
X227846411Y-60009763D01*
X227846411Y-60009763D02*
X227770220Y-59971668D01*
X227770220Y-59971668D02*
X227732125Y-59933572D01*
X228989268Y-60009763D02*
X228532125Y-60009763D01*
X228760697Y-60009763D02*
X228760697Y-59209763D01*
X228760697Y-59209763D02*
X228684506Y-59324048D01*
X228684506Y-59324048D02*
X228608316Y-59400239D01*
X228608316Y-59400239D02*
X228532125Y-59438334D01*
X216391077Y-70169763D02*
X215933934Y-70169763D01*
X216162506Y-70169763D02*
X216162506Y-69369763D01*
X216162506Y-69369763D02*
X216086315Y-69484048D01*
X216086315Y-69484048D02*
X216010125Y-69560239D01*
X216010125Y-69560239D02*
X215933934Y-69598334D01*
X216886316Y-69369763D02*
X216962506Y-69369763D01*
X216962506Y-69369763D02*
X217038697Y-69407858D01*
X217038697Y-69407858D02*
X217076792Y-69445953D01*
X217076792Y-69445953D02*
X217114887Y-69522144D01*
X217114887Y-69522144D02*
X217152982Y-69674525D01*
X217152982Y-69674525D02*
X217152982Y-69865001D01*
X217152982Y-69865001D02*
X217114887Y-70017382D01*
X217114887Y-70017382D02*
X217076792Y-70093572D01*
X217076792Y-70093572D02*
X217038697Y-70131668D01*
X217038697Y-70131668D02*
X216962506Y-70169763D01*
X216962506Y-70169763D02*
X216886316Y-70169763D01*
X216886316Y-70169763D02*
X216810125Y-70131668D01*
X216810125Y-70131668D02*
X216772030Y-70093572D01*
X216772030Y-70093572D02*
X216733935Y-70017382D01*
X216733935Y-70017382D02*
X216695839Y-69865001D01*
X216695839Y-69865001D02*
X216695839Y-69674525D01*
X216695839Y-69674525D02*
X216733935Y-69522144D01*
X216733935Y-69522144D02*
X216772030Y-69445953D01*
X216772030Y-69445953D02*
X216810125Y-69407858D01*
X216810125Y-69407858D02*
X216886316Y-69369763D01*
X217648221Y-69369763D02*
X217724411Y-69369763D01*
X217724411Y-69369763D02*
X217800602Y-69407858D01*
X217800602Y-69407858D02*
X217838697Y-69445953D01*
X217838697Y-69445953D02*
X217876792Y-69522144D01*
X217876792Y-69522144D02*
X217914887Y-69674525D01*
X217914887Y-69674525D02*
X217914887Y-69865001D01*
X217914887Y-69865001D02*
X217876792Y-70017382D01*
X217876792Y-70017382D02*
X217838697Y-70093572D01*
X217838697Y-70093572D02*
X217800602Y-70131668D01*
X217800602Y-70131668D02*
X217724411Y-70169763D01*
X217724411Y-70169763D02*
X217648221Y-70169763D01*
X217648221Y-70169763D02*
X217572030Y-70131668D01*
X217572030Y-70131668D02*
X217533935Y-70093572D01*
X217533935Y-70093572D02*
X217495840Y-70017382D01*
X217495840Y-70017382D02*
X217457744Y-69865001D01*
X217457744Y-69865001D02*
X217457744Y-69674525D01*
X217457744Y-69674525D02*
X217495840Y-69522144D01*
X217495840Y-69522144D02*
X217533935Y-69445953D01*
X217533935Y-69445953D02*
X217572030Y-69407858D01*
X217572030Y-69407858D02*
X217648221Y-69369763D01*
X216124411Y-49049763D02*
X216200601Y-49049763D01*
X216200601Y-49049763D02*
X216276792Y-49087858D01*
X216276792Y-49087858D02*
X216314887Y-49125953D01*
X216314887Y-49125953D02*
X216352982Y-49202144D01*
X216352982Y-49202144D02*
X216391077Y-49354525D01*
X216391077Y-49354525D02*
X216391077Y-49545001D01*
X216391077Y-49545001D02*
X216352982Y-49697382D01*
X216352982Y-49697382D02*
X216314887Y-49773572D01*
X216314887Y-49773572D02*
X216276792Y-49811668D01*
X216276792Y-49811668D02*
X216200601Y-49849763D01*
X216200601Y-49849763D02*
X216124411Y-49849763D01*
X216124411Y-49849763D02*
X216048220Y-49811668D01*
X216048220Y-49811668D02*
X216010125Y-49773572D01*
X216010125Y-49773572D02*
X215972030Y-49697382D01*
X215972030Y-49697382D02*
X215933934Y-49545001D01*
X215933934Y-49545001D02*
X215933934Y-49354525D01*
X215933934Y-49354525D02*
X215972030Y-49202144D01*
X215972030Y-49202144D02*
X216010125Y-49125953D01*
X216010125Y-49125953D02*
X216048220Y-49087858D01*
X216048220Y-49087858D02*
X216124411Y-49049763D01*
X216886316Y-49049763D02*
X216962506Y-49049763D01*
X216962506Y-49049763D02*
X217038697Y-49087858D01*
X217038697Y-49087858D02*
X217076792Y-49125953D01*
X217076792Y-49125953D02*
X217114887Y-49202144D01*
X217114887Y-49202144D02*
X217152982Y-49354525D01*
X217152982Y-49354525D02*
X217152982Y-49545001D01*
X217152982Y-49545001D02*
X217114887Y-49697382D01*
X217114887Y-49697382D02*
X217076792Y-49773572D01*
X217076792Y-49773572D02*
X217038697Y-49811668D01*
X217038697Y-49811668D02*
X216962506Y-49849763D01*
X216962506Y-49849763D02*
X216886316Y-49849763D01*
X216886316Y-49849763D02*
X216810125Y-49811668D01*
X216810125Y-49811668D02*
X216772030Y-49773572D01*
X216772030Y-49773572D02*
X216733935Y-49697382D01*
X216733935Y-49697382D02*
X216695839Y-49545001D01*
X216695839Y-49545001D02*
X216695839Y-49354525D01*
X216695839Y-49354525D02*
X216733935Y-49202144D01*
X216733935Y-49202144D02*
X216772030Y-49125953D01*
X216772030Y-49125953D02*
X216810125Y-49087858D01*
X216810125Y-49087858D02*
X216886316Y-49049763D01*
X217838697Y-49049763D02*
X217686316Y-49049763D01*
X217686316Y-49049763D02*
X217610125Y-49087858D01*
X217610125Y-49087858D02*
X217572030Y-49125953D01*
X217572030Y-49125953D02*
X217495840Y-49240239D01*
X217495840Y-49240239D02*
X217457744Y-49392620D01*
X217457744Y-49392620D02*
X217457744Y-49697382D01*
X217457744Y-49697382D02*
X217495840Y-49773572D01*
X217495840Y-49773572D02*
X217533935Y-49811668D01*
X217533935Y-49811668D02*
X217610125Y-49849763D01*
X217610125Y-49849763D02*
X217762506Y-49849763D01*
X217762506Y-49849763D02*
X217838697Y-49811668D01*
X217838697Y-49811668D02*
X217876792Y-49773572D01*
X217876792Y-49773572D02*
X217914887Y-49697382D01*
X217914887Y-49697382D02*
X217914887Y-49506906D01*
X217914887Y-49506906D02*
X217876792Y-49430715D01*
X217876792Y-49430715D02*
X217838697Y-49392620D01*
X217838697Y-49392620D02*
X217762506Y-49354525D01*
X217762506Y-49354525D02*
X217610125Y-49354525D01*
X217610125Y-49354525D02*
X217533935Y-49392620D01*
X217533935Y-49392620D02*
X217495840Y-49430715D01*
X217495840Y-49430715D02*
X217457744Y-49506906D01*
X227382935Y-49849763D02*
X227116268Y-49468810D01*
X226925792Y-49849763D02*
X226925792Y-49049763D01*
X226925792Y-49049763D02*
X227230554Y-49049763D01*
X227230554Y-49049763D02*
X227306744Y-49087858D01*
X227306744Y-49087858D02*
X227344839Y-49125953D01*
X227344839Y-49125953D02*
X227382935Y-49202144D01*
X227382935Y-49202144D02*
X227382935Y-49316429D01*
X227382935Y-49316429D02*
X227344839Y-49392620D01*
X227344839Y-49392620D02*
X227306744Y-49430715D01*
X227306744Y-49430715D02*
X227230554Y-49468810D01*
X227230554Y-49468810D02*
X226925792Y-49468810D01*
X227687696Y-49621191D02*
X228068649Y-49621191D01*
X227611506Y-49849763D02*
X227878173Y-49049763D01*
X227878173Y-49049763D02*
X228144839Y-49849763D01*
X228335315Y-49049763D02*
X228525791Y-49849763D01*
X228525791Y-49849763D02*
X228678172Y-49278334D01*
X228678172Y-49278334D02*
X228830553Y-49849763D01*
X228830553Y-49849763D02*
X229021030Y-49049763D01*
X216124411Y-64319763D02*
X216200601Y-64319763D01*
X216200601Y-64319763D02*
X216276792Y-64357858D01*
X216276792Y-64357858D02*
X216314887Y-64395953D01*
X216314887Y-64395953D02*
X216352982Y-64472144D01*
X216352982Y-64472144D02*
X216391077Y-64624525D01*
X216391077Y-64624525D02*
X216391077Y-64815001D01*
X216391077Y-64815001D02*
X216352982Y-64967382D01*
X216352982Y-64967382D02*
X216314887Y-65043572D01*
X216314887Y-65043572D02*
X216276792Y-65081668D01*
X216276792Y-65081668D02*
X216200601Y-65119763D01*
X216200601Y-65119763D02*
X216124411Y-65119763D01*
X216124411Y-65119763D02*
X216048220Y-65081668D01*
X216048220Y-65081668D02*
X216010125Y-65043572D01*
X216010125Y-65043572D02*
X215972030Y-64967382D01*
X215972030Y-64967382D02*
X215933934Y-64815001D01*
X215933934Y-64815001D02*
X215933934Y-64624525D01*
X215933934Y-64624525D02*
X215972030Y-64472144D01*
X215972030Y-64472144D02*
X216010125Y-64395953D01*
X216010125Y-64395953D02*
X216048220Y-64357858D01*
X216048220Y-64357858D02*
X216124411Y-64319763D01*
X216695839Y-64395953D02*
X216733935Y-64357858D01*
X216733935Y-64357858D02*
X216810125Y-64319763D01*
X216810125Y-64319763D02*
X217000601Y-64319763D01*
X217000601Y-64319763D02*
X217076792Y-64357858D01*
X217076792Y-64357858D02*
X217114887Y-64395953D01*
X217114887Y-64395953D02*
X217152982Y-64472144D01*
X217152982Y-64472144D02*
X217152982Y-64548334D01*
X217152982Y-64548334D02*
X217114887Y-64662620D01*
X217114887Y-64662620D02*
X216657744Y-65119763D01*
X216657744Y-65119763D02*
X217152982Y-65119763D01*
X217457744Y-64395953D02*
X217495840Y-64357858D01*
X217495840Y-64357858D02*
X217572030Y-64319763D01*
X217572030Y-64319763D02*
X217762506Y-64319763D01*
X217762506Y-64319763D02*
X217838697Y-64357858D01*
X217838697Y-64357858D02*
X217876792Y-64395953D01*
X217876792Y-64395953D02*
X217914887Y-64472144D01*
X217914887Y-64472144D02*
X217914887Y-64548334D01*
X217914887Y-64548334D02*
X217876792Y-64662620D01*
X217876792Y-64662620D02*
X217419649Y-65119763D01*
X217419649Y-65119763D02*
X217914887Y-65119763D01*
X227465458Y-67629763D02*
X227008315Y-67629763D01*
X227236887Y-67629763D02*
X227236887Y-66829763D01*
X227236887Y-66829763D02*
X227160696Y-66944048D01*
X227160696Y-66944048D02*
X227084506Y-67020239D01*
X227084506Y-67020239D02*
X227008315Y-67058334D01*
X228227363Y-67629763D02*
X227770220Y-67629763D01*
X227998792Y-67629763D02*
X227998792Y-66829763D01*
X227998792Y-66829763D02*
X227922601Y-66944048D01*
X227922601Y-66944048D02*
X227846411Y-67020239D01*
X227846411Y-67020239D02*
X227770220Y-67058334D01*
X228951173Y-66829763D02*
X228570221Y-66829763D01*
X228570221Y-66829763D02*
X228532125Y-67210715D01*
X228532125Y-67210715D02*
X228570221Y-67172620D01*
X228570221Y-67172620D02*
X228646411Y-67134525D01*
X228646411Y-67134525D02*
X228836887Y-67134525D01*
X228836887Y-67134525D02*
X228913078Y-67172620D01*
X228913078Y-67172620D02*
X228951173Y-67210715D01*
X228951173Y-67210715D02*
X228989268Y-67286906D01*
X228989268Y-67286906D02*
X228989268Y-67477382D01*
X228989268Y-67477382D02*
X228951173Y-67553572D01*
X228951173Y-67553572D02*
X228913078Y-67591668D01*
X228913078Y-67591668D02*
X228836887Y-67629763D01*
X228836887Y-67629763D02*
X228646411Y-67629763D01*
X228646411Y-67629763D02*
X228570221Y-67591668D01*
X228570221Y-67591668D02*
X228532125Y-67553572D01*
X216124411Y-66829763D02*
X216200601Y-66829763D01*
X216200601Y-66829763D02*
X216276792Y-66867858D01*
X216276792Y-66867858D02*
X216314887Y-66905953D01*
X216314887Y-66905953D02*
X216352982Y-66982144D01*
X216352982Y-66982144D02*
X216391077Y-67134525D01*
X216391077Y-67134525D02*
X216391077Y-67325001D01*
X216391077Y-67325001D02*
X216352982Y-67477382D01*
X216352982Y-67477382D02*
X216314887Y-67553572D01*
X216314887Y-67553572D02*
X216276792Y-67591668D01*
X216276792Y-67591668D02*
X216200601Y-67629763D01*
X216200601Y-67629763D02*
X216124411Y-67629763D01*
X216124411Y-67629763D02*
X216048220Y-67591668D01*
X216048220Y-67591668D02*
X216010125Y-67553572D01*
X216010125Y-67553572D02*
X215972030Y-67477382D01*
X215972030Y-67477382D02*
X215933934Y-67325001D01*
X215933934Y-67325001D02*
X215933934Y-67134525D01*
X215933934Y-67134525D02*
X215972030Y-66982144D01*
X215972030Y-66982144D02*
X216010125Y-66905953D01*
X216010125Y-66905953D02*
X216048220Y-66867858D01*
X216048220Y-66867858D02*
X216124411Y-66829763D01*
X216695839Y-66905953D02*
X216733935Y-66867858D01*
X216733935Y-66867858D02*
X216810125Y-66829763D01*
X216810125Y-66829763D02*
X217000601Y-66829763D01*
X217000601Y-66829763D02*
X217076792Y-66867858D01*
X217076792Y-66867858D02*
X217114887Y-66905953D01*
X217114887Y-66905953D02*
X217152982Y-66982144D01*
X217152982Y-66982144D02*
X217152982Y-67058334D01*
X217152982Y-67058334D02*
X217114887Y-67172620D01*
X217114887Y-67172620D02*
X216657744Y-67629763D01*
X216657744Y-67629763D02*
X217152982Y-67629763D01*
X217838697Y-67096429D02*
X217838697Y-67629763D01*
X217648221Y-66791668D02*
X217457744Y-67363096D01*
X217457744Y-67363096D02*
X217952983Y-67363096D01*
X216391077Y-54167858D02*
X216314887Y-54129763D01*
X216314887Y-54129763D02*
X216200601Y-54129763D01*
X216200601Y-54129763D02*
X216086315Y-54167858D01*
X216086315Y-54167858D02*
X216010125Y-54244048D01*
X216010125Y-54244048D02*
X215972030Y-54320239D01*
X215972030Y-54320239D02*
X215933934Y-54472620D01*
X215933934Y-54472620D02*
X215933934Y-54586906D01*
X215933934Y-54586906D02*
X215972030Y-54739287D01*
X215972030Y-54739287D02*
X216010125Y-54815477D01*
X216010125Y-54815477D02*
X216086315Y-54891668D01*
X216086315Y-54891668D02*
X216200601Y-54929763D01*
X216200601Y-54929763D02*
X216276792Y-54929763D01*
X216276792Y-54929763D02*
X216391077Y-54891668D01*
X216391077Y-54891668D02*
X216429173Y-54853572D01*
X216429173Y-54853572D02*
X216429173Y-54586906D01*
X216429173Y-54586906D02*
X216276792Y-54586906D01*
X216772030Y-54929763D02*
X216772030Y-54129763D01*
X216772030Y-54129763D02*
X217229173Y-54929763D01*
X217229173Y-54929763D02*
X217229173Y-54129763D01*
X217610125Y-54929763D02*
X217610125Y-54129763D01*
X217610125Y-54129763D02*
X217800601Y-54129763D01*
X217800601Y-54129763D02*
X217914887Y-54167858D01*
X217914887Y-54167858D02*
X217991077Y-54244048D01*
X217991077Y-54244048D02*
X218029172Y-54320239D01*
X218029172Y-54320239D02*
X218067268Y-54472620D01*
X218067268Y-54472620D02*
X218067268Y-54586906D01*
X218067268Y-54586906D02*
X218029172Y-54739287D01*
X218029172Y-54739287D02*
X217991077Y-54815477D01*
X217991077Y-54815477D02*
X217914887Y-54891668D01*
X217914887Y-54891668D02*
X217800601Y-54929763D01*
X217800601Y-54929763D02*
X217610125Y-54929763D01*
D12*
%TO.C,D60*%
X104211601Y-173057468D02*
X104811601Y-173457468D01*
X104211601Y-173457468D02*
X103711601Y-173457468D01*
X104211601Y-173857468D02*
X104211601Y-173057468D01*
X104811601Y-173457468D02*
X104211601Y-173857468D01*
X104811601Y-173457468D02*
X104811601Y-172907468D01*
X104811601Y-173457468D02*
X104811601Y-174007468D01*
X105211601Y-173457468D02*
X104811601Y-173457468D01*
%TO.C,D22*%
X74211601Y-133057468D02*
X74811601Y-133457468D01*
X74211601Y-133457468D02*
X73711601Y-133457468D01*
X74211601Y-133857468D02*
X74211601Y-133057468D01*
X74811601Y-133457468D02*
X74211601Y-133857468D01*
X74811601Y-133457468D02*
X74811601Y-132907468D01*
X74811601Y-133457468D02*
X74811601Y-134007468D01*
X75211601Y-133457468D02*
X74811601Y-133457468D01*
%TO.C,D3*%
X104211601Y-114057468D02*
X104811601Y-114457468D01*
X104211601Y-114457468D02*
X103711601Y-114457468D01*
X104211601Y-114857468D02*
X104211601Y-114057468D01*
X104811601Y-114457468D02*
X104211601Y-114857468D01*
X104811601Y-114457468D02*
X104811601Y-113907468D01*
X104811601Y-114457468D02*
X104811601Y-115007468D01*
X105211601Y-114457468D02*
X104811601Y-114457468D01*
%TO.C,D17*%
X180211601Y-152057468D02*
X180811601Y-152457468D01*
X180211601Y-152457468D02*
X179711601Y-152457468D01*
X180211601Y-152857468D02*
X180211601Y-152057468D01*
X180811601Y-152457468D02*
X180211601Y-152857468D01*
X180811601Y-152457468D02*
X180811601Y-151907468D01*
X180811601Y-152457468D02*
X180811601Y-153007468D01*
X181211601Y-152457468D02*
X180811601Y-152457468D01*
%TO.C,D12*%
X142211601Y-95057468D02*
X142811601Y-95457468D01*
X142211601Y-95457468D02*
X141711601Y-95457468D01*
X142211601Y-95857468D02*
X142211601Y-95057468D01*
X142811601Y-95457468D02*
X142211601Y-95857468D01*
X142811601Y-95457468D02*
X142811601Y-94907468D01*
X142811601Y-95457468D02*
X142811601Y-96007468D01*
X143211601Y-95457468D02*
X142811601Y-95457468D01*
%TO.C,D20*%
X180211601Y-95057468D02*
X180811601Y-95457468D01*
X180211601Y-95457468D02*
X179711601Y-95457468D01*
X180211601Y-95857468D02*
X180211601Y-95057468D01*
X180811601Y-95457468D02*
X180211601Y-95857468D01*
X180811601Y-95457468D02*
X180811601Y-94907468D01*
X180811601Y-95457468D02*
X180811601Y-96007468D01*
X181211601Y-95457468D02*
X180811601Y-95457468D01*
%TO.C,D23*%
X74211601Y-114057468D02*
X74811601Y-114457468D01*
X74211601Y-114457468D02*
X73711601Y-114457468D01*
X74211601Y-114857468D02*
X74211601Y-114057468D01*
X74811601Y-114457468D02*
X74211601Y-114857468D01*
X74811601Y-114457468D02*
X74811601Y-113907468D01*
X74811601Y-114457468D02*
X74811601Y-115007468D01*
X75211601Y-114457468D02*
X74811601Y-114457468D01*
%TO.C,D16*%
X161211601Y-95057468D02*
X161811601Y-95457468D01*
X161211601Y-95457468D02*
X160711601Y-95457468D01*
X161211601Y-95857468D02*
X161211601Y-95057468D01*
X161811601Y-95457468D02*
X161211601Y-95857468D01*
X161811601Y-95457468D02*
X161811601Y-94907468D01*
X161811601Y-95457468D02*
X161811601Y-96007468D01*
X162211601Y-95457468D02*
X161811601Y-95457468D01*
%TO.C,D61*%
X134211601Y-173057468D02*
X134811601Y-173457468D01*
X134211601Y-173457468D02*
X133711601Y-173457468D01*
X134211601Y-173857468D02*
X134211601Y-173057468D01*
X134811601Y-173457468D02*
X134211601Y-173857468D01*
X134811601Y-173457468D02*
X134811601Y-172907468D01*
X134811601Y-173457468D02*
X134811601Y-174007468D01*
X135211601Y-173457468D02*
X134811601Y-173457468D01*
%TO.C,D62*%
X175211601Y-173057468D02*
X175811601Y-173457468D01*
X175211601Y-173457468D02*
X174711601Y-173457468D01*
X175211601Y-173857468D02*
X175211601Y-173057468D01*
X175811601Y-173457468D02*
X175211601Y-173857468D01*
X175811601Y-173457468D02*
X175811601Y-172907468D01*
X175811601Y-173457468D02*
X175811601Y-174007468D01*
X176211601Y-173457468D02*
X175811601Y-173457468D01*
%TO.C,D58*%
X180211601Y-71057468D02*
X180811601Y-71457468D01*
X180211601Y-71457468D02*
X179711601Y-71457468D01*
X180211601Y-71857468D02*
X180211601Y-71057468D01*
X180811601Y-71457468D02*
X180211601Y-71857468D01*
X180811601Y-71457468D02*
X180811601Y-70907468D01*
X180811601Y-71457468D02*
X180811601Y-72007468D01*
X181211601Y-71457468D02*
X180811601Y-71457468D01*
%TO.C,D5*%
X123211601Y-152057468D02*
X123811601Y-152457468D01*
X123211601Y-152457468D02*
X122711601Y-152457468D01*
X123211601Y-152857468D02*
X123211601Y-152057468D01*
X123811601Y-152457468D02*
X123211601Y-152857468D01*
X123811601Y-152457468D02*
X123811601Y-151907468D01*
X123811601Y-152457468D02*
X123811601Y-153007468D01*
X124211601Y-152457468D02*
X123811601Y-152457468D01*
%TO.C,D63*%
X193640594Y-202241056D02*
X194040594Y-201548236D01*
X193840594Y-201894646D02*
X193407581Y-201644646D01*
X194040594Y-201548236D02*
X194360209Y-202194646D01*
X194360209Y-202194646D02*
X193640594Y-202241056D01*
X194360209Y-202194646D02*
X194085209Y-202670960D01*
X194360209Y-202194646D02*
X194635209Y-201718332D01*
X194706619Y-202394646D02*
X194360209Y-202194646D01*
%TO.C,D54*%
X104211601Y-71057468D02*
X104811601Y-71457468D01*
X104211601Y-71457468D02*
X103711601Y-71457468D01*
X104211601Y-71857468D02*
X104211601Y-71057468D01*
X104811601Y-71457468D02*
X104211601Y-71857468D01*
X104811601Y-71457468D02*
X104811601Y-70907468D01*
X104811601Y-71457468D02*
X104811601Y-72007468D01*
X105211601Y-71457468D02*
X104811601Y-71457468D01*
%TO.C,D21*%
X74211601Y-152057468D02*
X74811601Y-152457468D01*
X74211601Y-152457468D02*
X73711601Y-152457468D01*
X74211601Y-152857468D02*
X74211601Y-152057468D01*
X74811601Y-152457468D02*
X74211601Y-152857468D01*
X74811601Y-152457468D02*
X74811601Y-151907468D01*
X74811601Y-152457468D02*
X74811601Y-153007468D01*
X75211601Y-152457468D02*
X74811601Y-152457468D01*
%TO.C,D57*%
X161211601Y-71057468D02*
X161811601Y-71457468D01*
X161211601Y-71457468D02*
X160711601Y-71457468D01*
X161211601Y-71857468D02*
X161211601Y-71057468D01*
X161811601Y-71457468D02*
X161211601Y-71857468D01*
X161811601Y-71457468D02*
X161811601Y-70907468D01*
X161811601Y-71457468D02*
X161811601Y-72007468D01*
X162211601Y-71457468D02*
X161811601Y-71457468D01*
%TO.C,D59*%
X74211601Y-173057468D02*
X74811601Y-173457468D01*
X74211601Y-173457468D02*
X73711601Y-173457468D01*
X74211601Y-173857468D02*
X74211601Y-173057468D01*
X74811601Y-173457468D02*
X74211601Y-173857468D01*
X74811601Y-173457468D02*
X74811601Y-172907468D01*
X74811601Y-173457468D02*
X74811601Y-174007468D01*
X75211601Y-173457468D02*
X74811601Y-173457468D01*
D13*
%TO.C,REF\u002A\u002A*%
X240930000Y-60730000D02*
X241230000Y-60730000D01*
X240930000Y-64870000D02*
X240930000Y-60730000D01*
X241230000Y-64870000D02*
X240930000Y-64870000D01*
X243770000Y-60730000D02*
X244070000Y-60730000D01*
X244070000Y-60730000D02*
X244070000Y-64870000D01*
X244070000Y-64870000D02*
X243770000Y-64870000D01*
D12*
%TO.C,D11*%
X142211601Y-114057468D02*
X142811601Y-114457468D01*
X142211601Y-114457468D02*
X141711601Y-114457468D01*
X142211601Y-114857468D02*
X142211601Y-114057468D01*
X142811601Y-114457468D02*
X142211601Y-114857468D01*
X142811601Y-114457468D02*
X142811601Y-113907468D01*
X142811601Y-114457468D02*
X142811601Y-115007468D01*
X143211601Y-114457468D02*
X142811601Y-114457468D01*
%TO.C,D6*%
X123211601Y-133057468D02*
X123811601Y-133457468D01*
X123211601Y-133457468D02*
X122711601Y-133457468D01*
X123211601Y-133857468D02*
X123211601Y-133057468D01*
X123811601Y-133457468D02*
X123211601Y-133857468D01*
X123811601Y-133457468D02*
X123811601Y-132907468D01*
X123811601Y-133457468D02*
X123811601Y-134007468D01*
X124211601Y-133457468D02*
X123811601Y-133457468D01*
D14*
%TO.C,MCU1*%
X213571601Y-45677468D02*
X213571601Y-78697468D01*
X213571601Y-78697468D02*
X231351601Y-78697468D01*
X231351601Y-45677468D02*
X213571601Y-45677468D01*
X231351601Y-78697468D02*
X231351601Y-45677468D01*
D12*
%TO.C,D14*%
X161211601Y-133057468D02*
X161811601Y-133457468D01*
X161211601Y-133457468D02*
X160711601Y-133457468D01*
X161211601Y-133857468D02*
X161211601Y-133057468D01*
X161811601Y-133457468D02*
X161211601Y-133857468D01*
X161811601Y-133457468D02*
X161811601Y-132907468D01*
X161811601Y-133457468D02*
X161811601Y-134007468D01*
X162211601Y-133457468D02*
X161811601Y-133457468D01*
%TO.C,D13*%
X161211601Y-152057468D02*
X161811601Y-152457468D01*
X161211601Y-152457468D02*
X160711601Y-152457468D01*
X161211601Y-152857468D02*
X161211601Y-152057468D01*
X161811601Y-152457468D02*
X161211601Y-152857468D01*
X161811601Y-152457468D02*
X161811601Y-151907468D01*
X161811601Y-152457468D02*
X161811601Y-153007468D01*
X162211601Y-152457468D02*
X161811601Y-152457468D01*
%TO.C,D18*%
X180211601Y-133057468D02*
X180811601Y-133457468D01*
X180211601Y-133457468D02*
X179711601Y-133457468D01*
X180211601Y-133857468D02*
X180211601Y-133057468D01*
X180811601Y-133457468D02*
X180211601Y-133857468D01*
X180811601Y-133457468D02*
X180811601Y-132907468D01*
X180811601Y-133457468D02*
X180811601Y-134007468D01*
X181211601Y-133457468D02*
X180811601Y-133457468D01*
%TO.C,D4*%
X104211601Y-95057468D02*
X104811601Y-95457468D01*
X104211601Y-95457468D02*
X103711601Y-95457468D01*
X104211601Y-95857468D02*
X104211601Y-95057468D01*
X104811601Y-95457468D02*
X104211601Y-95857468D01*
X104811601Y-95457468D02*
X104811601Y-94907468D01*
X104811601Y-95457468D02*
X104811601Y-96007468D01*
X105211601Y-95457468D02*
X104811601Y-95457468D01*
%TO.C,D7*%
X123211601Y-114057468D02*
X123811601Y-114457468D01*
X123211601Y-114457468D02*
X122711601Y-114457468D01*
X123211601Y-114857468D02*
X123211601Y-114057468D01*
X123811601Y-114457468D02*
X123211601Y-114857468D01*
X123811601Y-114457468D02*
X123811601Y-113907468D01*
X123811601Y-114457468D02*
X123811601Y-115007468D01*
X124211601Y-114457468D02*
X123811601Y-114457468D01*
%TO.C,D56*%
X142211601Y-71057468D02*
X142811601Y-71457468D01*
X142211601Y-71457468D02*
X141711601Y-71457468D01*
X142211601Y-71857468D02*
X142211601Y-71057468D01*
X142811601Y-71457468D02*
X142211601Y-71857468D01*
X142811601Y-71457468D02*
X142811601Y-70907468D01*
X142811601Y-71457468D02*
X142811601Y-72007468D01*
X143211601Y-71457468D02*
X142811601Y-71457468D01*
%TO.C,D15*%
X161211601Y-114057468D02*
X161811601Y-114457468D01*
X161211601Y-114457468D02*
X160711601Y-114457468D01*
X161211601Y-114857468D02*
X161211601Y-114057468D01*
X161811601Y-114457468D02*
X161211601Y-114857468D01*
X161811601Y-114457468D02*
X161811601Y-113907468D01*
X161811601Y-114457468D02*
X161811601Y-115007468D01*
X162211601Y-114457468D02*
X161811601Y-114457468D01*
%TO.C,D2*%
X104211601Y-133057468D02*
X104811601Y-133457468D01*
X104211601Y-133457468D02*
X103711601Y-133457468D01*
X104211601Y-133857468D02*
X104211601Y-133057468D01*
X104811601Y-133457468D02*
X104211601Y-133857468D01*
X104811601Y-133457468D02*
X104811601Y-132907468D01*
X104811601Y-133457468D02*
X104811601Y-134007468D01*
X105211601Y-133457468D02*
X104811601Y-133457468D01*
%TO.C,D53*%
X74211601Y-71057468D02*
X74811601Y-71457468D01*
X74211601Y-71457468D02*
X73711601Y-71457468D01*
X74211601Y-71857468D02*
X74211601Y-71057468D01*
X74811601Y-71457468D02*
X74211601Y-71857468D01*
X74811601Y-71457468D02*
X74811601Y-70907468D01*
X74811601Y-71457468D02*
X74811601Y-72007468D01*
X75211601Y-71457468D02*
X74811601Y-71457468D01*
%TO.C,D64*%
X219621356Y-217241056D02*
X220021356Y-216548236D01*
X219821356Y-216894646D02*
X219388343Y-216644646D01*
X220021356Y-216548236D02*
X220340971Y-217194646D01*
X220340971Y-217194646D02*
X219621356Y-217241056D01*
X220340971Y-217194646D02*
X220065971Y-217670960D01*
X220340971Y-217194646D02*
X220615971Y-216718332D01*
X220687381Y-217394646D02*
X220340971Y-217194646D01*
%TO.C,D55*%
X123211601Y-71057468D02*
X123811601Y-71457468D01*
X123211601Y-71457468D02*
X122711601Y-71457468D01*
X123211601Y-71857468D02*
X123211601Y-71057468D01*
X123811601Y-71457468D02*
X123211601Y-71857468D01*
X123811601Y-71457468D02*
X123811601Y-70907468D01*
X123811601Y-71457468D02*
X123811601Y-72007468D01*
X124211601Y-71457468D02*
X123811601Y-71457468D01*
%TO.C,D24*%
X74211601Y-95057468D02*
X74811601Y-95457468D01*
X74211601Y-95457468D02*
X73711601Y-95457468D01*
X74211601Y-95857468D02*
X74211601Y-95057468D01*
X74811601Y-95457468D02*
X74211601Y-95857468D01*
X74811601Y-95457468D02*
X74811601Y-94907468D01*
X74811601Y-95457468D02*
X74811601Y-96007468D01*
X75211601Y-95457468D02*
X74811601Y-95457468D01*
%TO.C,D19*%
X180211601Y-114057468D02*
X180811601Y-114457468D01*
X180211601Y-114457468D02*
X179711601Y-114457468D01*
X180211601Y-114857468D02*
X180211601Y-114057468D01*
X180811601Y-114457468D02*
X180211601Y-114857468D01*
X180811601Y-114457468D02*
X180811601Y-113907468D01*
X180811601Y-114457468D02*
X180811601Y-115007468D01*
X181211601Y-114457468D02*
X180811601Y-114457468D01*
%TO.C,D9*%
X142211601Y-152057468D02*
X142811601Y-152457468D01*
X142211601Y-152457468D02*
X141711601Y-152457468D01*
X142211601Y-152857468D02*
X142211601Y-152057468D01*
X142811601Y-152457468D02*
X142211601Y-152857468D01*
X142811601Y-152457468D02*
X142811601Y-151907468D01*
X142811601Y-152457468D02*
X142811601Y-153007468D01*
X143211601Y-152457468D02*
X142811601Y-152457468D01*
%TO.C,D8*%
X123211601Y-95057468D02*
X123811601Y-95457468D01*
X123211601Y-95457468D02*
X122711601Y-95457468D01*
X123211601Y-95857468D02*
X123211601Y-95057468D01*
X123811601Y-95457468D02*
X123211601Y-95857468D01*
X123811601Y-95457468D02*
X123811601Y-94907468D01*
X123811601Y-95457468D02*
X123811601Y-96007468D01*
X124211601Y-95457468D02*
X123811601Y-95457468D01*
%TO.C,D10*%
X142211601Y-133057468D02*
X142811601Y-133457468D01*
X142211601Y-133457468D02*
X141711601Y-133457468D01*
X142211601Y-133857468D02*
X142211601Y-133057468D01*
X142811601Y-133457468D02*
X142211601Y-133857468D01*
X142811601Y-133457468D02*
X142811601Y-132907468D01*
X142811601Y-133457468D02*
X142811601Y-134007468D01*
X143211601Y-133457468D02*
X142811601Y-133457468D01*
%TO.C,D1*%
X104211601Y-152057468D02*
X104811601Y-152457468D01*
X104211601Y-152457468D02*
X103711601Y-152457468D01*
X104211601Y-152857468D02*
X104211601Y-152057468D01*
X104811601Y-152457468D02*
X104211601Y-152857468D01*
X104811601Y-152457468D02*
X104811601Y-151907468D01*
X104811601Y-152457468D02*
X104811601Y-153007468D01*
X105211601Y-152457468D02*
X104811601Y-152457468D01*
D10*
%TO.C,T1*%
X242100000Y-50000000D02*
X242100000Y-56600000D01*
X242100000Y-56600000D02*
X244950000Y-56600000D01*
X244950000Y-50000000D02*
X242100000Y-50000000D01*
X244950000Y-50000000D02*
X244950000Y-53300000D01*
X244950000Y-55250000D02*
X244950000Y-51350000D01*
X244950000Y-56600000D02*
X244950000Y-53300000D01*
%TD*%
D15*
%TO.C,MCU1*%
X214841601Y-49487468D03*
X214841601Y-52027468D03*
X214841601Y-54567468D03*
X214841601Y-57107468D03*
X214841601Y-59647468D03*
X214841601Y-62187468D03*
X214841601Y-64727468D03*
X214841601Y-67267468D03*
X214841601Y-69807468D03*
X214841601Y-72347468D03*
X214841601Y-74887468D03*
X214841601Y-77427468D03*
X230081601Y-77427468D03*
X230081601Y-74887468D03*
X230081601Y-72347468D03*
X230081601Y-69807468D03*
X230081601Y-67267468D03*
X230081601Y-64727468D03*
X230081601Y-62187468D03*
X230081601Y-59647468D03*
X230081601Y-57107468D03*
X230081601Y-54567468D03*
X230081601Y-52027468D03*
X230081601Y-49487468D03*
%TD*%
M02*
