%TF.GenerationSoftware,KiCad,Pcbnew,8.0.5*%
%TF.CreationDate,2024-10-12T19:47:22+02:00*%
%TF.ProjectId,finishedleftpcb,66696e69-7368-4656-946c-656674706362,v1.0.0*%
%TF.SameCoordinates,Original*%
%TF.FileFunction,Legend,Bot*%
%TF.FilePolarity,Positive*%
%FSLAX46Y46*%
G04 Gerber Fmt 4.6, Leading zero omitted, Abs format (unit mm)*
G04 Created by KiCad (PCBNEW 8.0.5) date 2024-10-12 19:47:22*
%MOMM*%
%LPD*%
G01*
G04 APERTURE LIST*
%ADD10C,0.150000*%
%ADD11C,0.100000*%
%ADD12C,0.381000*%
%ADD13C,1.752600*%
G04 APERTURE END LIST*
D10*
X228798791Y-61749763D02*
X228722601Y-61749763D01*
X228722601Y-61749763D02*
X228646410Y-61787858D01*
X228646410Y-61787858D02*
X228608315Y-61825953D01*
X228608315Y-61825953D02*
X228570220Y-61902144D01*
X228570220Y-61902144D02*
X228532125Y-62054525D01*
X228532125Y-62054525D02*
X228532125Y-62245001D01*
X228532125Y-62245001D02*
X228570220Y-62397382D01*
X228570220Y-62397382D02*
X228608315Y-62473572D01*
X228608315Y-62473572D02*
X228646410Y-62511668D01*
X228646410Y-62511668D02*
X228722601Y-62549763D01*
X228722601Y-62549763D02*
X228798791Y-62549763D01*
X228798791Y-62549763D02*
X228874982Y-62511668D01*
X228874982Y-62511668D02*
X228913077Y-62473572D01*
X228913077Y-62473572D02*
X228951172Y-62397382D01*
X228951172Y-62397382D02*
X228989268Y-62245001D01*
X228989268Y-62245001D02*
X228989268Y-62054525D01*
X228989268Y-62054525D02*
X228951172Y-61902144D01*
X228951172Y-61902144D02*
X228913077Y-61825953D01*
X228913077Y-61825953D02*
X228874982Y-61787858D01*
X228874982Y-61787858D02*
X228798791Y-61749763D01*
X228227363Y-61825953D02*
X228189267Y-61787858D01*
X228189267Y-61787858D02*
X228113077Y-61749763D01*
X228113077Y-61749763D02*
X227922601Y-61749763D01*
X227922601Y-61749763D02*
X227846410Y-61787858D01*
X227846410Y-61787858D02*
X227808315Y-61825953D01*
X227808315Y-61825953D02*
X227770220Y-61902144D01*
X227770220Y-61902144D02*
X227770220Y-61978334D01*
X227770220Y-61978334D02*
X227808315Y-62092620D01*
X227808315Y-62092620D02*
X228265458Y-62549763D01*
X228265458Y-62549763D02*
X227770220Y-62549763D01*
X227389267Y-62549763D02*
X227236886Y-62549763D01*
X227236886Y-62549763D02*
X227160696Y-62511668D01*
X227160696Y-62511668D02*
X227122600Y-62473572D01*
X227122600Y-62473572D02*
X227046410Y-62359287D01*
X227046410Y-62359287D02*
X227008315Y-62206906D01*
X227008315Y-62206906D02*
X227008315Y-61902144D01*
X227008315Y-61902144D02*
X227046410Y-61825953D01*
X227046410Y-61825953D02*
X227084505Y-61787858D01*
X227084505Y-61787858D02*
X227160696Y-61749763D01*
X227160696Y-61749763D02*
X227313077Y-61749763D01*
X227313077Y-61749763D02*
X227389267Y-61787858D01*
X227389267Y-61787858D02*
X227427362Y-61825953D01*
X227427362Y-61825953D02*
X227465458Y-61902144D01*
X227465458Y-61902144D02*
X227465458Y-62092620D01*
X227465458Y-62092620D02*
X227427362Y-62168810D01*
X227427362Y-62168810D02*
X227389267Y-62206906D01*
X227389267Y-62206906D02*
X227313077Y-62245001D01*
X227313077Y-62245001D02*
X227160696Y-62245001D01*
X227160696Y-62245001D02*
X227084505Y-62206906D01*
X227084505Y-62206906D02*
X227046410Y-62168810D01*
X227046410Y-62168810D02*
X227008315Y-62092620D01*
X228798791Y-59209763D02*
X228722601Y-59209763D01*
X228722601Y-59209763D02*
X228646410Y-59247858D01*
X228646410Y-59247858D02*
X228608315Y-59285953D01*
X228608315Y-59285953D02*
X228570220Y-59362144D01*
X228570220Y-59362144D02*
X228532125Y-59514525D01*
X228532125Y-59514525D02*
X228532125Y-59705001D01*
X228532125Y-59705001D02*
X228570220Y-59857382D01*
X228570220Y-59857382D02*
X228608315Y-59933572D01*
X228608315Y-59933572D02*
X228646410Y-59971668D01*
X228646410Y-59971668D02*
X228722601Y-60009763D01*
X228722601Y-60009763D02*
X228798791Y-60009763D01*
X228798791Y-60009763D02*
X228874982Y-59971668D01*
X228874982Y-59971668D02*
X228913077Y-59933572D01*
X228913077Y-59933572D02*
X228951172Y-59857382D01*
X228951172Y-59857382D02*
X228989268Y-59705001D01*
X228989268Y-59705001D02*
X228989268Y-59514525D01*
X228989268Y-59514525D02*
X228951172Y-59362144D01*
X228951172Y-59362144D02*
X228913077Y-59285953D01*
X228913077Y-59285953D02*
X228874982Y-59247858D01*
X228874982Y-59247858D02*
X228798791Y-59209763D01*
X228265458Y-59209763D02*
X227770220Y-59209763D01*
X227770220Y-59209763D02*
X228036886Y-59514525D01*
X228036886Y-59514525D02*
X227922601Y-59514525D01*
X227922601Y-59514525D02*
X227846410Y-59552620D01*
X227846410Y-59552620D02*
X227808315Y-59590715D01*
X227808315Y-59590715D02*
X227770220Y-59666906D01*
X227770220Y-59666906D02*
X227770220Y-59857382D01*
X227770220Y-59857382D02*
X227808315Y-59933572D01*
X227808315Y-59933572D02*
X227846410Y-59971668D01*
X227846410Y-59971668D02*
X227922601Y-60009763D01*
X227922601Y-60009763D02*
X228151172Y-60009763D01*
X228151172Y-60009763D02*
X228227363Y-59971668D01*
X228227363Y-59971668D02*
X228265458Y-59933572D01*
X227008315Y-60009763D02*
X227465458Y-60009763D01*
X227236886Y-60009763D02*
X227236886Y-59209763D01*
X227236886Y-59209763D02*
X227313077Y-59324048D01*
X227313077Y-59324048D02*
X227389267Y-59400239D01*
X227389267Y-59400239D02*
X227465458Y-59438334D01*
X217457744Y-75249763D02*
X217914887Y-75249763D01*
X217686315Y-75249763D02*
X217686315Y-74449763D01*
X217686315Y-74449763D02*
X217762506Y-74564048D01*
X217762506Y-74564048D02*
X217838696Y-74640239D01*
X217838696Y-74640239D02*
X217914887Y-74678334D01*
X216962505Y-74449763D02*
X216886315Y-74449763D01*
X216886315Y-74449763D02*
X216810124Y-74487858D01*
X216810124Y-74487858D02*
X216772029Y-74525953D01*
X216772029Y-74525953D02*
X216733934Y-74602144D01*
X216733934Y-74602144D02*
X216695839Y-74754525D01*
X216695839Y-74754525D02*
X216695839Y-74945001D01*
X216695839Y-74945001D02*
X216733934Y-75097382D01*
X216733934Y-75097382D02*
X216772029Y-75173572D01*
X216772029Y-75173572D02*
X216810124Y-75211668D01*
X216810124Y-75211668D02*
X216886315Y-75249763D01*
X216886315Y-75249763D02*
X216962505Y-75249763D01*
X216962505Y-75249763D02*
X217038696Y-75211668D01*
X217038696Y-75211668D02*
X217076791Y-75173572D01*
X217076791Y-75173572D02*
X217114886Y-75097382D01*
X217114886Y-75097382D02*
X217152982Y-74945001D01*
X217152982Y-74945001D02*
X217152982Y-74754525D01*
X217152982Y-74754525D02*
X217114886Y-74602144D01*
X217114886Y-74602144D02*
X217076791Y-74525953D01*
X217076791Y-74525953D02*
X217038696Y-74487858D01*
X217038696Y-74487858D02*
X216962505Y-74449763D01*
X216010124Y-74716429D02*
X216010124Y-75249763D01*
X216200600Y-74411668D02*
X216391077Y-74983096D01*
X216391077Y-74983096D02*
X215895838Y-74983096D01*
X228798791Y-64289763D02*
X228722601Y-64289763D01*
X228722601Y-64289763D02*
X228646410Y-64327858D01*
X228646410Y-64327858D02*
X228608315Y-64365953D01*
X228608315Y-64365953D02*
X228570220Y-64442144D01*
X228570220Y-64442144D02*
X228532125Y-64594525D01*
X228532125Y-64594525D02*
X228532125Y-64785001D01*
X228532125Y-64785001D02*
X228570220Y-64937382D01*
X228570220Y-64937382D02*
X228608315Y-65013572D01*
X228608315Y-65013572D02*
X228646410Y-65051668D01*
X228646410Y-65051668D02*
X228722601Y-65089763D01*
X228722601Y-65089763D02*
X228798791Y-65089763D01*
X228798791Y-65089763D02*
X228874982Y-65051668D01*
X228874982Y-65051668D02*
X228913077Y-65013572D01*
X228913077Y-65013572D02*
X228951172Y-64937382D01*
X228951172Y-64937382D02*
X228989268Y-64785001D01*
X228989268Y-64785001D02*
X228989268Y-64594525D01*
X228989268Y-64594525D02*
X228951172Y-64442144D01*
X228951172Y-64442144D02*
X228913077Y-64365953D01*
X228913077Y-64365953D02*
X228874982Y-64327858D01*
X228874982Y-64327858D02*
X228798791Y-64289763D01*
X228036886Y-64289763D02*
X227960696Y-64289763D01*
X227960696Y-64289763D02*
X227884505Y-64327858D01*
X227884505Y-64327858D02*
X227846410Y-64365953D01*
X227846410Y-64365953D02*
X227808315Y-64442144D01*
X227808315Y-64442144D02*
X227770220Y-64594525D01*
X227770220Y-64594525D02*
X227770220Y-64785001D01*
X227770220Y-64785001D02*
X227808315Y-64937382D01*
X227808315Y-64937382D02*
X227846410Y-65013572D01*
X227846410Y-65013572D02*
X227884505Y-65051668D01*
X227884505Y-65051668D02*
X227960696Y-65089763D01*
X227960696Y-65089763D02*
X228036886Y-65089763D01*
X228036886Y-65089763D02*
X228113077Y-65051668D01*
X228113077Y-65051668D02*
X228151172Y-65013572D01*
X228151172Y-65013572D02*
X228189267Y-64937382D01*
X228189267Y-64937382D02*
X228227363Y-64785001D01*
X228227363Y-64785001D02*
X228227363Y-64594525D01*
X228227363Y-64594525D02*
X228189267Y-64442144D01*
X228189267Y-64442144D02*
X228151172Y-64365953D01*
X228151172Y-64365953D02*
X228113077Y-64327858D01*
X228113077Y-64327858D02*
X228036886Y-64289763D01*
X227465458Y-64365953D02*
X227427362Y-64327858D01*
X227427362Y-64327858D02*
X227351172Y-64289763D01*
X227351172Y-64289763D02*
X227160696Y-64289763D01*
X227160696Y-64289763D02*
X227084505Y-64327858D01*
X227084505Y-64327858D02*
X227046410Y-64365953D01*
X227046410Y-64365953D02*
X227008315Y-64442144D01*
X227008315Y-64442144D02*
X227008315Y-64518334D01*
X227008315Y-64518334D02*
X227046410Y-64632620D01*
X227046410Y-64632620D02*
X227503553Y-65089763D01*
X227503553Y-65089763D02*
X227008315Y-65089763D01*
X217724410Y-51519763D02*
X217648220Y-51519763D01*
X217648220Y-51519763D02*
X217572029Y-51557858D01*
X217572029Y-51557858D02*
X217533934Y-51595953D01*
X217533934Y-51595953D02*
X217495839Y-51672144D01*
X217495839Y-51672144D02*
X217457744Y-51824525D01*
X217457744Y-51824525D02*
X217457744Y-52015001D01*
X217457744Y-52015001D02*
X217495839Y-52167382D01*
X217495839Y-52167382D02*
X217533934Y-52243572D01*
X217533934Y-52243572D02*
X217572029Y-52281668D01*
X217572029Y-52281668D02*
X217648220Y-52319763D01*
X217648220Y-52319763D02*
X217724410Y-52319763D01*
X217724410Y-52319763D02*
X217800601Y-52281668D01*
X217800601Y-52281668D02*
X217838696Y-52243572D01*
X217838696Y-52243572D02*
X217876791Y-52167382D01*
X217876791Y-52167382D02*
X217914887Y-52015001D01*
X217914887Y-52015001D02*
X217914887Y-51824525D01*
X217914887Y-51824525D02*
X217876791Y-51672144D01*
X217876791Y-51672144D02*
X217838696Y-51595953D01*
X217838696Y-51595953D02*
X217800601Y-51557858D01*
X217800601Y-51557858D02*
X217724410Y-51519763D01*
X216962505Y-51519763D02*
X216886315Y-51519763D01*
X216886315Y-51519763D02*
X216810124Y-51557858D01*
X216810124Y-51557858D02*
X216772029Y-51595953D01*
X216772029Y-51595953D02*
X216733934Y-51672144D01*
X216733934Y-51672144D02*
X216695839Y-51824525D01*
X216695839Y-51824525D02*
X216695839Y-52015001D01*
X216695839Y-52015001D02*
X216733934Y-52167382D01*
X216733934Y-52167382D02*
X216772029Y-52243572D01*
X216772029Y-52243572D02*
X216810124Y-52281668D01*
X216810124Y-52281668D02*
X216886315Y-52319763D01*
X216886315Y-52319763D02*
X216962505Y-52319763D01*
X216962505Y-52319763D02*
X217038696Y-52281668D01*
X217038696Y-52281668D02*
X217076791Y-52243572D01*
X217076791Y-52243572D02*
X217114886Y-52167382D01*
X217114886Y-52167382D02*
X217152982Y-52015001D01*
X217152982Y-52015001D02*
X217152982Y-51824525D01*
X217152982Y-51824525D02*
X217114886Y-51672144D01*
X217114886Y-51672144D02*
X217076791Y-51595953D01*
X217076791Y-51595953D02*
X217038696Y-51557858D01*
X217038696Y-51557858D02*
X216962505Y-51519763D01*
X216238696Y-51862620D02*
X216314886Y-51824525D01*
X216314886Y-51824525D02*
X216352981Y-51786429D01*
X216352981Y-51786429D02*
X216391077Y-51710239D01*
X216391077Y-51710239D02*
X216391077Y-51672144D01*
X216391077Y-51672144D02*
X216352981Y-51595953D01*
X216352981Y-51595953D02*
X216314886Y-51557858D01*
X216314886Y-51557858D02*
X216238696Y-51519763D01*
X216238696Y-51519763D02*
X216086315Y-51519763D01*
X216086315Y-51519763D02*
X216010124Y-51557858D01*
X216010124Y-51557858D02*
X215972029Y-51595953D01*
X215972029Y-51595953D02*
X215933934Y-51672144D01*
X215933934Y-51672144D02*
X215933934Y-51710239D01*
X215933934Y-51710239D02*
X215972029Y-51786429D01*
X215972029Y-51786429D02*
X216010124Y-51824525D01*
X216010124Y-51824525D02*
X216086315Y-51862620D01*
X216086315Y-51862620D02*
X216238696Y-51862620D01*
X216238696Y-51862620D02*
X216314886Y-51900715D01*
X216314886Y-51900715D02*
X216352981Y-51938810D01*
X216352981Y-51938810D02*
X216391077Y-52015001D01*
X216391077Y-52015001D02*
X216391077Y-52167382D01*
X216391077Y-52167382D02*
X216352981Y-52243572D01*
X216352981Y-52243572D02*
X216314886Y-52281668D01*
X216314886Y-52281668D02*
X216238696Y-52319763D01*
X216238696Y-52319763D02*
X216086315Y-52319763D01*
X216086315Y-52319763D02*
X216010124Y-52281668D01*
X216010124Y-52281668D02*
X215972029Y-52243572D01*
X215972029Y-52243572D02*
X215933934Y-52167382D01*
X215933934Y-52167382D02*
X215933934Y-52015001D01*
X215933934Y-52015001D02*
X215972029Y-51938810D01*
X215972029Y-51938810D02*
X216010124Y-51900715D01*
X216010124Y-51900715D02*
X216086315Y-51862620D01*
X228532125Y-70169763D02*
X228989268Y-70169763D01*
X228760696Y-70169763D02*
X228760696Y-69369763D01*
X228760696Y-69369763D02*
X228836887Y-69484048D01*
X228836887Y-69484048D02*
X228913077Y-69560239D01*
X228913077Y-69560239D02*
X228989268Y-69598334D01*
X227770220Y-70169763D02*
X228227363Y-70169763D01*
X227998791Y-70169763D02*
X227998791Y-69369763D01*
X227998791Y-69369763D02*
X228074982Y-69484048D01*
X228074982Y-69484048D02*
X228151172Y-69560239D01*
X228151172Y-69560239D02*
X228227363Y-69598334D01*
X227503553Y-69369763D02*
X227008315Y-69369763D01*
X227008315Y-69369763D02*
X227274981Y-69674525D01*
X227274981Y-69674525D02*
X227160696Y-69674525D01*
X227160696Y-69674525D02*
X227084505Y-69712620D01*
X227084505Y-69712620D02*
X227046410Y-69750715D01*
X227046410Y-69750715D02*
X227008315Y-69826906D01*
X227008315Y-69826906D02*
X227008315Y-70017382D01*
X227008315Y-70017382D02*
X227046410Y-70093572D01*
X227046410Y-70093572D02*
X227084505Y-70131668D01*
X227084505Y-70131668D02*
X227160696Y-70169763D01*
X227160696Y-70169763D02*
X227389267Y-70169763D01*
X227389267Y-70169763D02*
X227465458Y-70131668D01*
X227465458Y-70131668D02*
X227503553Y-70093572D01*
X217724410Y-66829763D02*
X217648220Y-66829763D01*
X217648220Y-66829763D02*
X217572029Y-66867858D01*
X217572029Y-66867858D02*
X217533934Y-66905953D01*
X217533934Y-66905953D02*
X217495839Y-66982144D01*
X217495839Y-66982144D02*
X217457744Y-67134525D01*
X217457744Y-67134525D02*
X217457744Y-67325001D01*
X217457744Y-67325001D02*
X217495839Y-67477382D01*
X217495839Y-67477382D02*
X217533934Y-67553572D01*
X217533934Y-67553572D02*
X217572029Y-67591668D01*
X217572029Y-67591668D02*
X217648220Y-67629763D01*
X217648220Y-67629763D02*
X217724410Y-67629763D01*
X217724410Y-67629763D02*
X217800601Y-67591668D01*
X217800601Y-67591668D02*
X217838696Y-67553572D01*
X217838696Y-67553572D02*
X217876791Y-67477382D01*
X217876791Y-67477382D02*
X217914887Y-67325001D01*
X217914887Y-67325001D02*
X217914887Y-67134525D01*
X217914887Y-67134525D02*
X217876791Y-66982144D01*
X217876791Y-66982144D02*
X217838696Y-66905953D01*
X217838696Y-66905953D02*
X217800601Y-66867858D01*
X217800601Y-66867858D02*
X217724410Y-66829763D01*
X217152982Y-66905953D02*
X217114886Y-66867858D01*
X217114886Y-66867858D02*
X217038696Y-66829763D01*
X217038696Y-66829763D02*
X216848220Y-66829763D01*
X216848220Y-66829763D02*
X216772029Y-66867858D01*
X216772029Y-66867858D02*
X216733934Y-66905953D01*
X216733934Y-66905953D02*
X216695839Y-66982144D01*
X216695839Y-66982144D02*
X216695839Y-67058334D01*
X216695839Y-67058334D02*
X216733934Y-67172620D01*
X216733934Y-67172620D02*
X217191077Y-67629763D01*
X217191077Y-67629763D02*
X216695839Y-67629763D01*
X216010124Y-67096429D02*
X216010124Y-67629763D01*
X216200600Y-66791668D02*
X216391077Y-67363096D01*
X216391077Y-67363096D02*
X215895838Y-67363096D01*
X217457744Y-70169763D02*
X217914887Y-70169763D01*
X217686315Y-70169763D02*
X217686315Y-69369763D01*
X217686315Y-69369763D02*
X217762506Y-69484048D01*
X217762506Y-69484048D02*
X217838696Y-69560239D01*
X217838696Y-69560239D02*
X217914887Y-69598334D01*
X216962505Y-69369763D02*
X216886315Y-69369763D01*
X216886315Y-69369763D02*
X216810124Y-69407858D01*
X216810124Y-69407858D02*
X216772029Y-69445953D01*
X216772029Y-69445953D02*
X216733934Y-69522144D01*
X216733934Y-69522144D02*
X216695839Y-69674525D01*
X216695839Y-69674525D02*
X216695839Y-69865001D01*
X216695839Y-69865001D02*
X216733934Y-70017382D01*
X216733934Y-70017382D02*
X216772029Y-70093572D01*
X216772029Y-70093572D02*
X216810124Y-70131668D01*
X216810124Y-70131668D02*
X216886315Y-70169763D01*
X216886315Y-70169763D02*
X216962505Y-70169763D01*
X216962505Y-70169763D02*
X217038696Y-70131668D01*
X217038696Y-70131668D02*
X217076791Y-70093572D01*
X217076791Y-70093572D02*
X217114886Y-70017382D01*
X217114886Y-70017382D02*
X217152982Y-69865001D01*
X217152982Y-69865001D02*
X217152982Y-69674525D01*
X217152982Y-69674525D02*
X217114886Y-69522144D01*
X217114886Y-69522144D02*
X217076791Y-69445953D01*
X217076791Y-69445953D02*
X217038696Y-69407858D01*
X217038696Y-69407858D02*
X216962505Y-69369763D01*
X216200600Y-69369763D02*
X216124410Y-69369763D01*
X216124410Y-69369763D02*
X216048219Y-69407858D01*
X216048219Y-69407858D02*
X216010124Y-69445953D01*
X216010124Y-69445953D02*
X215972029Y-69522144D01*
X215972029Y-69522144D02*
X215933934Y-69674525D01*
X215933934Y-69674525D02*
X215933934Y-69865001D01*
X215933934Y-69865001D02*
X215972029Y-70017382D01*
X215972029Y-70017382D02*
X216010124Y-70093572D01*
X216010124Y-70093572D02*
X216048219Y-70131668D01*
X216048219Y-70131668D02*
X216124410Y-70169763D01*
X216124410Y-70169763D02*
X216200600Y-70169763D01*
X216200600Y-70169763D02*
X216276791Y-70131668D01*
X216276791Y-70131668D02*
X216314886Y-70093572D01*
X216314886Y-70093572D02*
X216352981Y-70017382D01*
X216352981Y-70017382D02*
X216391077Y-69865001D01*
X216391077Y-69865001D02*
X216391077Y-69674525D01*
X216391077Y-69674525D02*
X216352981Y-69522144D01*
X216352981Y-69522144D02*
X216314886Y-69445953D01*
X216314886Y-69445953D02*
X216276791Y-69407858D01*
X216276791Y-69407858D02*
X216200600Y-69369763D01*
X228798791Y-74449763D02*
X228722601Y-74449763D01*
X228722601Y-74449763D02*
X228646410Y-74487858D01*
X228646410Y-74487858D02*
X228608315Y-74525953D01*
X228608315Y-74525953D02*
X228570220Y-74602144D01*
X228570220Y-74602144D02*
X228532125Y-74754525D01*
X228532125Y-74754525D02*
X228532125Y-74945001D01*
X228532125Y-74945001D02*
X228570220Y-75097382D01*
X228570220Y-75097382D02*
X228608315Y-75173572D01*
X228608315Y-75173572D02*
X228646410Y-75211668D01*
X228646410Y-75211668D02*
X228722601Y-75249763D01*
X228722601Y-75249763D02*
X228798791Y-75249763D01*
X228798791Y-75249763D02*
X228874982Y-75211668D01*
X228874982Y-75211668D02*
X228913077Y-75173572D01*
X228913077Y-75173572D02*
X228951172Y-75097382D01*
X228951172Y-75097382D02*
X228989268Y-74945001D01*
X228989268Y-74945001D02*
X228989268Y-74754525D01*
X228989268Y-74754525D02*
X228951172Y-74602144D01*
X228951172Y-74602144D02*
X228913077Y-74525953D01*
X228913077Y-74525953D02*
X228874982Y-74487858D01*
X228874982Y-74487858D02*
X228798791Y-74449763D01*
X227770220Y-75249763D02*
X228227363Y-75249763D01*
X227998791Y-75249763D02*
X227998791Y-74449763D01*
X227998791Y-74449763D02*
X228074982Y-74564048D01*
X228074982Y-74564048D02*
X228151172Y-74640239D01*
X228151172Y-74640239D02*
X228227363Y-74678334D01*
X227274981Y-74449763D02*
X227198791Y-74449763D01*
X227198791Y-74449763D02*
X227122600Y-74487858D01*
X227122600Y-74487858D02*
X227084505Y-74525953D01*
X227084505Y-74525953D02*
X227046410Y-74602144D01*
X227046410Y-74602144D02*
X227008315Y-74754525D01*
X227008315Y-74754525D02*
X227008315Y-74945001D01*
X227008315Y-74945001D02*
X227046410Y-75097382D01*
X227046410Y-75097382D02*
X227084505Y-75173572D01*
X227084505Y-75173572D02*
X227122600Y-75211668D01*
X227122600Y-75211668D02*
X227198791Y-75249763D01*
X227198791Y-75249763D02*
X227274981Y-75249763D01*
X227274981Y-75249763D02*
X227351172Y-75211668D01*
X227351172Y-75211668D02*
X227389267Y-75173572D01*
X227389267Y-75173572D02*
X227427362Y-75097382D01*
X227427362Y-75097382D02*
X227465458Y-74945001D01*
X227465458Y-74945001D02*
X227465458Y-74754525D01*
X227465458Y-74754525D02*
X227427362Y-74602144D01*
X227427362Y-74602144D02*
X227389267Y-74525953D01*
X227389267Y-74525953D02*
X227351172Y-74487858D01*
X227351172Y-74487858D02*
X227274981Y-74449763D01*
X217724410Y-59219763D02*
X217648220Y-59219763D01*
X217648220Y-59219763D02*
X217572029Y-59257858D01*
X217572029Y-59257858D02*
X217533934Y-59295953D01*
X217533934Y-59295953D02*
X217495839Y-59372144D01*
X217495839Y-59372144D02*
X217457744Y-59524525D01*
X217457744Y-59524525D02*
X217457744Y-59715001D01*
X217457744Y-59715001D02*
X217495839Y-59867382D01*
X217495839Y-59867382D02*
X217533934Y-59943572D01*
X217533934Y-59943572D02*
X217572029Y-59981668D01*
X217572029Y-59981668D02*
X217648220Y-60019763D01*
X217648220Y-60019763D02*
X217724410Y-60019763D01*
X217724410Y-60019763D02*
X217800601Y-59981668D01*
X217800601Y-59981668D02*
X217838696Y-59943572D01*
X217838696Y-59943572D02*
X217876791Y-59867382D01*
X217876791Y-59867382D02*
X217914887Y-59715001D01*
X217914887Y-59715001D02*
X217914887Y-59524525D01*
X217914887Y-59524525D02*
X217876791Y-59372144D01*
X217876791Y-59372144D02*
X217838696Y-59295953D01*
X217838696Y-59295953D02*
X217800601Y-59257858D01*
X217800601Y-59257858D02*
X217724410Y-59219763D01*
X216695839Y-60019763D02*
X217152982Y-60019763D01*
X216924410Y-60019763D02*
X216924410Y-59219763D01*
X216924410Y-59219763D02*
X217000601Y-59334048D01*
X217000601Y-59334048D02*
X217076791Y-59410239D01*
X217076791Y-59410239D02*
X217152982Y-59448334D01*
X216429172Y-59219763D02*
X215895838Y-59219763D01*
X215895838Y-59219763D02*
X216238696Y-60019763D01*
X217724410Y-64319763D02*
X217648220Y-64319763D01*
X217648220Y-64319763D02*
X217572029Y-64357858D01*
X217572029Y-64357858D02*
X217533934Y-64395953D01*
X217533934Y-64395953D02*
X217495839Y-64472144D01*
X217495839Y-64472144D02*
X217457744Y-64624525D01*
X217457744Y-64624525D02*
X217457744Y-64815001D01*
X217457744Y-64815001D02*
X217495839Y-64967382D01*
X217495839Y-64967382D02*
X217533934Y-65043572D01*
X217533934Y-65043572D02*
X217572029Y-65081668D01*
X217572029Y-65081668D02*
X217648220Y-65119763D01*
X217648220Y-65119763D02*
X217724410Y-65119763D01*
X217724410Y-65119763D02*
X217800601Y-65081668D01*
X217800601Y-65081668D02*
X217838696Y-65043572D01*
X217838696Y-65043572D02*
X217876791Y-64967382D01*
X217876791Y-64967382D02*
X217914887Y-64815001D01*
X217914887Y-64815001D02*
X217914887Y-64624525D01*
X217914887Y-64624525D02*
X217876791Y-64472144D01*
X217876791Y-64472144D02*
X217838696Y-64395953D01*
X217838696Y-64395953D02*
X217800601Y-64357858D01*
X217800601Y-64357858D02*
X217724410Y-64319763D01*
X217152982Y-64395953D02*
X217114886Y-64357858D01*
X217114886Y-64357858D02*
X217038696Y-64319763D01*
X217038696Y-64319763D02*
X216848220Y-64319763D01*
X216848220Y-64319763D02*
X216772029Y-64357858D01*
X216772029Y-64357858D02*
X216733934Y-64395953D01*
X216733934Y-64395953D02*
X216695839Y-64472144D01*
X216695839Y-64472144D02*
X216695839Y-64548334D01*
X216695839Y-64548334D02*
X216733934Y-64662620D01*
X216733934Y-64662620D02*
X217191077Y-65119763D01*
X217191077Y-65119763D02*
X216695839Y-65119763D01*
X216391077Y-64395953D02*
X216352981Y-64357858D01*
X216352981Y-64357858D02*
X216276791Y-64319763D01*
X216276791Y-64319763D02*
X216086315Y-64319763D01*
X216086315Y-64319763D02*
X216010124Y-64357858D01*
X216010124Y-64357858D02*
X215972029Y-64395953D01*
X215972029Y-64395953D02*
X215933934Y-64472144D01*
X215933934Y-64472144D02*
X215933934Y-64548334D01*
X215933934Y-64548334D02*
X215972029Y-64662620D01*
X215972029Y-64662620D02*
X216429172Y-65119763D01*
X216429172Y-65119763D02*
X215933934Y-65119763D01*
X217610124Y-54167858D02*
X217686314Y-54129763D01*
X217686314Y-54129763D02*
X217800600Y-54129763D01*
X217800600Y-54129763D02*
X217914886Y-54167858D01*
X217914886Y-54167858D02*
X217991076Y-54244048D01*
X217991076Y-54244048D02*
X218029171Y-54320239D01*
X218029171Y-54320239D02*
X218067267Y-54472620D01*
X218067267Y-54472620D02*
X218067267Y-54586906D01*
X218067267Y-54586906D02*
X218029171Y-54739287D01*
X218029171Y-54739287D02*
X217991076Y-54815477D01*
X217991076Y-54815477D02*
X217914886Y-54891668D01*
X217914886Y-54891668D02*
X217800600Y-54929763D01*
X217800600Y-54929763D02*
X217724409Y-54929763D01*
X217724409Y-54929763D02*
X217610124Y-54891668D01*
X217610124Y-54891668D02*
X217572028Y-54853572D01*
X217572028Y-54853572D02*
X217572028Y-54586906D01*
X217572028Y-54586906D02*
X217724409Y-54586906D01*
X217229171Y-54929763D02*
X217229171Y-54129763D01*
X217229171Y-54129763D02*
X216772028Y-54929763D01*
X216772028Y-54929763D02*
X216772028Y-54129763D01*
X216391076Y-54929763D02*
X216391076Y-54129763D01*
X216391076Y-54129763D02*
X216200600Y-54129763D01*
X216200600Y-54129763D02*
X216086314Y-54167858D01*
X216086314Y-54167858D02*
X216010124Y-54244048D01*
X216010124Y-54244048D02*
X215972029Y-54320239D01*
X215972029Y-54320239D02*
X215933933Y-54472620D01*
X215933933Y-54472620D02*
X215933933Y-54586906D01*
X215933933Y-54586906D02*
X215972029Y-54739287D01*
X215972029Y-54739287D02*
X216010124Y-54815477D01*
X216010124Y-54815477D02*
X216086314Y-54891668D01*
X216086314Y-54891668D02*
X216200600Y-54929763D01*
X216200600Y-54929763D02*
X216391076Y-54929763D01*
X228532125Y-67629763D02*
X228989268Y-67629763D01*
X228760696Y-67629763D02*
X228760696Y-66829763D01*
X228760696Y-66829763D02*
X228836887Y-66944048D01*
X228836887Y-66944048D02*
X228913077Y-67020239D01*
X228913077Y-67020239D02*
X228989268Y-67058334D01*
X227770220Y-67629763D02*
X228227363Y-67629763D01*
X227998791Y-67629763D02*
X227998791Y-66829763D01*
X227998791Y-66829763D02*
X228074982Y-66944048D01*
X228074982Y-66944048D02*
X228151172Y-67020239D01*
X228151172Y-67020239D02*
X228227363Y-67058334D01*
X227046410Y-66829763D02*
X227427362Y-66829763D01*
X227427362Y-66829763D02*
X227465458Y-67210715D01*
X227465458Y-67210715D02*
X227427362Y-67172620D01*
X227427362Y-67172620D02*
X227351172Y-67134525D01*
X227351172Y-67134525D02*
X227160696Y-67134525D01*
X227160696Y-67134525D02*
X227084505Y-67172620D01*
X227084505Y-67172620D02*
X227046410Y-67210715D01*
X227046410Y-67210715D02*
X227008315Y-67286906D01*
X227008315Y-67286906D02*
X227008315Y-67477382D01*
X227008315Y-67477382D02*
X227046410Y-67553572D01*
X227046410Y-67553572D02*
X227084505Y-67591668D01*
X227084505Y-67591668D02*
X227160696Y-67629763D01*
X227160696Y-67629763D02*
X227351172Y-67629763D01*
X227351172Y-67629763D02*
X227427362Y-67591668D01*
X227427362Y-67591668D02*
X227465458Y-67553572D01*
X229065458Y-56669763D02*
X228798791Y-57469763D01*
X228798791Y-57469763D02*
X228532125Y-56669763D01*
X227808315Y-57393572D02*
X227846411Y-57431668D01*
X227846411Y-57431668D02*
X227960696Y-57469763D01*
X227960696Y-57469763D02*
X228036887Y-57469763D01*
X228036887Y-57469763D02*
X228151173Y-57431668D01*
X228151173Y-57431668D02*
X228227363Y-57355477D01*
X228227363Y-57355477D02*
X228265458Y-57279287D01*
X228265458Y-57279287D02*
X228303554Y-57126906D01*
X228303554Y-57126906D02*
X228303554Y-57012620D01*
X228303554Y-57012620D02*
X228265458Y-56860239D01*
X228265458Y-56860239D02*
X228227363Y-56784048D01*
X228227363Y-56784048D02*
X228151173Y-56707858D01*
X228151173Y-56707858D02*
X228036887Y-56669763D01*
X228036887Y-56669763D02*
X227960696Y-56669763D01*
X227960696Y-56669763D02*
X227846411Y-56707858D01*
X227846411Y-56707858D02*
X227808315Y-56745953D01*
X227008315Y-57393572D02*
X227046411Y-57431668D01*
X227046411Y-57431668D02*
X227160696Y-57469763D01*
X227160696Y-57469763D02*
X227236887Y-57469763D01*
X227236887Y-57469763D02*
X227351173Y-57431668D01*
X227351173Y-57431668D02*
X227427363Y-57355477D01*
X227427363Y-57355477D02*
X227465458Y-57279287D01*
X227465458Y-57279287D02*
X227503554Y-57126906D01*
X227503554Y-57126906D02*
X227503554Y-57012620D01*
X227503554Y-57012620D02*
X227465458Y-56860239D01*
X227465458Y-56860239D02*
X227427363Y-56784048D01*
X227427363Y-56784048D02*
X227351173Y-56707858D01*
X227351173Y-56707858D02*
X227236887Y-56669763D01*
X227236887Y-56669763D02*
X227160696Y-56669763D01*
X227160696Y-56669763D02*
X227046411Y-56707858D01*
X227046411Y-56707858D02*
X227008315Y-56745953D01*
X228487696Y-49849763D02*
X228754363Y-49468810D01*
X228944839Y-49849763D02*
X228944839Y-49049763D01*
X228944839Y-49049763D02*
X228640077Y-49049763D01*
X228640077Y-49049763D02*
X228563887Y-49087858D01*
X228563887Y-49087858D02*
X228525792Y-49125953D01*
X228525792Y-49125953D02*
X228487696Y-49202144D01*
X228487696Y-49202144D02*
X228487696Y-49316429D01*
X228487696Y-49316429D02*
X228525792Y-49392620D01*
X228525792Y-49392620D02*
X228563887Y-49430715D01*
X228563887Y-49430715D02*
X228640077Y-49468810D01*
X228640077Y-49468810D02*
X228944839Y-49468810D01*
X228182935Y-49621191D02*
X227801982Y-49621191D01*
X228259125Y-49849763D02*
X227992458Y-49049763D01*
X227992458Y-49049763D02*
X227725792Y-49849763D01*
X227535316Y-49049763D02*
X227344840Y-49849763D01*
X227344840Y-49849763D02*
X227192459Y-49278334D01*
X227192459Y-49278334D02*
X227040078Y-49849763D01*
X227040078Y-49849763D02*
X226849602Y-49049763D01*
X217610124Y-56707858D02*
X217686314Y-56669763D01*
X217686314Y-56669763D02*
X217800600Y-56669763D01*
X217800600Y-56669763D02*
X217914886Y-56707858D01*
X217914886Y-56707858D02*
X217991076Y-56784048D01*
X217991076Y-56784048D02*
X218029171Y-56860239D01*
X218029171Y-56860239D02*
X218067267Y-57012620D01*
X218067267Y-57012620D02*
X218067267Y-57126906D01*
X218067267Y-57126906D02*
X218029171Y-57279287D01*
X218029171Y-57279287D02*
X217991076Y-57355477D01*
X217991076Y-57355477D02*
X217914886Y-57431668D01*
X217914886Y-57431668D02*
X217800600Y-57469763D01*
X217800600Y-57469763D02*
X217724409Y-57469763D01*
X217724409Y-57469763D02*
X217610124Y-57431668D01*
X217610124Y-57431668D02*
X217572028Y-57393572D01*
X217572028Y-57393572D02*
X217572028Y-57126906D01*
X217572028Y-57126906D02*
X217724409Y-57126906D01*
X217229171Y-57469763D02*
X217229171Y-56669763D01*
X217229171Y-56669763D02*
X216772028Y-57469763D01*
X216772028Y-57469763D02*
X216772028Y-56669763D01*
X216391076Y-57469763D02*
X216391076Y-56669763D01*
X216391076Y-56669763D02*
X216200600Y-56669763D01*
X216200600Y-56669763D02*
X216086314Y-56707858D01*
X216086314Y-56707858D02*
X216010124Y-56784048D01*
X216010124Y-56784048D02*
X215972029Y-56860239D01*
X215972029Y-56860239D02*
X215933933Y-57012620D01*
X215933933Y-57012620D02*
X215933933Y-57126906D01*
X215933933Y-57126906D02*
X215972029Y-57279287D01*
X215972029Y-57279287D02*
X216010124Y-57355477D01*
X216010124Y-57355477D02*
X216086314Y-57431668D01*
X216086314Y-57431668D02*
X216200600Y-57469763D01*
X216200600Y-57469763D02*
X216391076Y-57469763D01*
X228532125Y-72709763D02*
X228989268Y-72709763D01*
X228760696Y-72709763D02*
X228760696Y-71909763D01*
X228760696Y-71909763D02*
X228836887Y-72024048D01*
X228836887Y-72024048D02*
X228913077Y-72100239D01*
X228913077Y-72100239D02*
X228989268Y-72138334D01*
X227770220Y-72709763D02*
X228227363Y-72709763D01*
X227998791Y-72709763D02*
X227998791Y-71909763D01*
X227998791Y-71909763D02*
X228074982Y-72024048D01*
X228074982Y-72024048D02*
X228151172Y-72100239D01*
X228151172Y-72100239D02*
X228227363Y-72138334D01*
X227008315Y-72709763D02*
X227465458Y-72709763D01*
X227236886Y-72709763D02*
X227236886Y-71909763D01*
X227236886Y-71909763D02*
X227313077Y-72024048D01*
X227313077Y-72024048D02*
X227389267Y-72100239D01*
X227389267Y-72100239D02*
X227465458Y-72138334D01*
X228525791Y-51627858D02*
X228601981Y-51589763D01*
X228601981Y-51589763D02*
X228716267Y-51589763D01*
X228716267Y-51589763D02*
X228830553Y-51627858D01*
X228830553Y-51627858D02*
X228906743Y-51704048D01*
X228906743Y-51704048D02*
X228944838Y-51780239D01*
X228944838Y-51780239D02*
X228982934Y-51932620D01*
X228982934Y-51932620D02*
X228982934Y-52046906D01*
X228982934Y-52046906D02*
X228944838Y-52199287D01*
X228944838Y-52199287D02*
X228906743Y-52275477D01*
X228906743Y-52275477D02*
X228830553Y-52351668D01*
X228830553Y-52351668D02*
X228716267Y-52389763D01*
X228716267Y-52389763D02*
X228640076Y-52389763D01*
X228640076Y-52389763D02*
X228525791Y-52351668D01*
X228525791Y-52351668D02*
X228487695Y-52313572D01*
X228487695Y-52313572D02*
X228487695Y-52046906D01*
X228487695Y-52046906D02*
X228640076Y-52046906D01*
X228144838Y-52389763D02*
X228144838Y-51589763D01*
X228144838Y-51589763D02*
X227687695Y-52389763D01*
X227687695Y-52389763D02*
X227687695Y-51589763D01*
X227306743Y-52389763D02*
X227306743Y-51589763D01*
X227306743Y-51589763D02*
X227116267Y-51589763D01*
X227116267Y-51589763D02*
X227001981Y-51627858D01*
X227001981Y-51627858D02*
X226925791Y-51704048D01*
X226925791Y-51704048D02*
X226887696Y-51780239D01*
X226887696Y-51780239D02*
X226849600Y-51932620D01*
X226849600Y-51932620D02*
X226849600Y-52046906D01*
X226849600Y-52046906D02*
X226887696Y-52199287D01*
X226887696Y-52199287D02*
X226925791Y-52275477D01*
X226925791Y-52275477D02*
X227001981Y-52351668D01*
X227001981Y-52351668D02*
X227116267Y-52389763D01*
X227116267Y-52389763D02*
X227306743Y-52389763D01*
X217724410Y-49049763D02*
X217648220Y-49049763D01*
X217648220Y-49049763D02*
X217572029Y-49087858D01*
X217572029Y-49087858D02*
X217533934Y-49125953D01*
X217533934Y-49125953D02*
X217495839Y-49202144D01*
X217495839Y-49202144D02*
X217457744Y-49354525D01*
X217457744Y-49354525D02*
X217457744Y-49545001D01*
X217457744Y-49545001D02*
X217495839Y-49697382D01*
X217495839Y-49697382D02*
X217533934Y-49773572D01*
X217533934Y-49773572D02*
X217572029Y-49811668D01*
X217572029Y-49811668D02*
X217648220Y-49849763D01*
X217648220Y-49849763D02*
X217724410Y-49849763D01*
X217724410Y-49849763D02*
X217800601Y-49811668D01*
X217800601Y-49811668D02*
X217838696Y-49773572D01*
X217838696Y-49773572D02*
X217876791Y-49697382D01*
X217876791Y-49697382D02*
X217914887Y-49545001D01*
X217914887Y-49545001D02*
X217914887Y-49354525D01*
X217914887Y-49354525D02*
X217876791Y-49202144D01*
X217876791Y-49202144D02*
X217838696Y-49125953D01*
X217838696Y-49125953D02*
X217800601Y-49087858D01*
X217800601Y-49087858D02*
X217724410Y-49049763D01*
X216962505Y-49049763D02*
X216886315Y-49049763D01*
X216886315Y-49049763D02*
X216810124Y-49087858D01*
X216810124Y-49087858D02*
X216772029Y-49125953D01*
X216772029Y-49125953D02*
X216733934Y-49202144D01*
X216733934Y-49202144D02*
X216695839Y-49354525D01*
X216695839Y-49354525D02*
X216695839Y-49545001D01*
X216695839Y-49545001D02*
X216733934Y-49697382D01*
X216733934Y-49697382D02*
X216772029Y-49773572D01*
X216772029Y-49773572D02*
X216810124Y-49811668D01*
X216810124Y-49811668D02*
X216886315Y-49849763D01*
X216886315Y-49849763D02*
X216962505Y-49849763D01*
X216962505Y-49849763D02*
X217038696Y-49811668D01*
X217038696Y-49811668D02*
X217076791Y-49773572D01*
X217076791Y-49773572D02*
X217114886Y-49697382D01*
X217114886Y-49697382D02*
X217152982Y-49545001D01*
X217152982Y-49545001D02*
X217152982Y-49354525D01*
X217152982Y-49354525D02*
X217114886Y-49202144D01*
X217114886Y-49202144D02*
X217076791Y-49125953D01*
X217076791Y-49125953D02*
X217038696Y-49087858D01*
X217038696Y-49087858D02*
X216962505Y-49049763D01*
X216010124Y-49049763D02*
X216162505Y-49049763D01*
X216162505Y-49049763D02*
X216238696Y-49087858D01*
X216238696Y-49087858D02*
X216276791Y-49125953D01*
X216276791Y-49125953D02*
X216352981Y-49240239D01*
X216352981Y-49240239D02*
X216391077Y-49392620D01*
X216391077Y-49392620D02*
X216391077Y-49697382D01*
X216391077Y-49697382D02*
X216352981Y-49773572D01*
X216352981Y-49773572D02*
X216314886Y-49811668D01*
X216314886Y-49811668D02*
X216238696Y-49849763D01*
X216238696Y-49849763D02*
X216086315Y-49849763D01*
X216086315Y-49849763D02*
X216010124Y-49811668D01*
X216010124Y-49811668D02*
X215972029Y-49773572D01*
X215972029Y-49773572D02*
X215933934Y-49697382D01*
X215933934Y-49697382D02*
X215933934Y-49506906D01*
X215933934Y-49506906D02*
X215972029Y-49430715D01*
X215972029Y-49430715D02*
X216010124Y-49392620D01*
X216010124Y-49392620D02*
X216086315Y-49354525D01*
X216086315Y-49354525D02*
X216238696Y-49354525D01*
X216238696Y-49354525D02*
X216314886Y-49392620D01*
X216314886Y-49392620D02*
X216352981Y-49430715D01*
X216352981Y-49430715D02*
X216391077Y-49506906D01*
X228487695Y-54929763D02*
X228754362Y-54548810D01*
X228944838Y-54929763D02*
X228944838Y-54129763D01*
X228944838Y-54129763D02*
X228640076Y-54129763D01*
X228640076Y-54129763D02*
X228563886Y-54167858D01*
X228563886Y-54167858D02*
X228525791Y-54205953D01*
X228525791Y-54205953D02*
X228487695Y-54282144D01*
X228487695Y-54282144D02*
X228487695Y-54396429D01*
X228487695Y-54396429D02*
X228525791Y-54472620D01*
X228525791Y-54472620D02*
X228563886Y-54510715D01*
X228563886Y-54510715D02*
X228640076Y-54548810D01*
X228640076Y-54548810D02*
X228944838Y-54548810D01*
X228182934Y-54891668D02*
X228068648Y-54929763D01*
X228068648Y-54929763D02*
X227878172Y-54929763D01*
X227878172Y-54929763D02*
X227801981Y-54891668D01*
X227801981Y-54891668D02*
X227763886Y-54853572D01*
X227763886Y-54853572D02*
X227725791Y-54777382D01*
X227725791Y-54777382D02*
X227725791Y-54701191D01*
X227725791Y-54701191D02*
X227763886Y-54625001D01*
X227763886Y-54625001D02*
X227801981Y-54586906D01*
X227801981Y-54586906D02*
X227878172Y-54548810D01*
X227878172Y-54548810D02*
X228030553Y-54510715D01*
X228030553Y-54510715D02*
X228106743Y-54472620D01*
X228106743Y-54472620D02*
X228144838Y-54434525D01*
X228144838Y-54434525D02*
X228182934Y-54358334D01*
X228182934Y-54358334D02*
X228182934Y-54282144D01*
X228182934Y-54282144D02*
X228144838Y-54205953D01*
X228144838Y-54205953D02*
X228106743Y-54167858D01*
X228106743Y-54167858D02*
X228030553Y-54129763D01*
X228030553Y-54129763D02*
X227840076Y-54129763D01*
X227840076Y-54129763D02*
X227725791Y-54167858D01*
X227497219Y-54129763D02*
X227040076Y-54129763D01*
X227268648Y-54929763D02*
X227268648Y-54129763D01*
X217724410Y-61819763D02*
X217648220Y-61819763D01*
X217648220Y-61819763D02*
X217572029Y-61857858D01*
X217572029Y-61857858D02*
X217533934Y-61895953D01*
X217533934Y-61895953D02*
X217495839Y-61972144D01*
X217495839Y-61972144D02*
X217457744Y-62124525D01*
X217457744Y-62124525D02*
X217457744Y-62315001D01*
X217457744Y-62315001D02*
X217495839Y-62467382D01*
X217495839Y-62467382D02*
X217533934Y-62543572D01*
X217533934Y-62543572D02*
X217572029Y-62581668D01*
X217572029Y-62581668D02*
X217648220Y-62619763D01*
X217648220Y-62619763D02*
X217724410Y-62619763D01*
X217724410Y-62619763D02*
X217800601Y-62581668D01*
X217800601Y-62581668D02*
X217838696Y-62543572D01*
X217838696Y-62543572D02*
X217876791Y-62467382D01*
X217876791Y-62467382D02*
X217914887Y-62315001D01*
X217914887Y-62315001D02*
X217914887Y-62124525D01*
X217914887Y-62124525D02*
X217876791Y-61972144D01*
X217876791Y-61972144D02*
X217838696Y-61895953D01*
X217838696Y-61895953D02*
X217800601Y-61857858D01*
X217800601Y-61857858D02*
X217724410Y-61819763D01*
X217152982Y-61895953D02*
X217114886Y-61857858D01*
X217114886Y-61857858D02*
X217038696Y-61819763D01*
X217038696Y-61819763D02*
X216848220Y-61819763D01*
X216848220Y-61819763D02*
X216772029Y-61857858D01*
X216772029Y-61857858D02*
X216733934Y-61895953D01*
X216733934Y-61895953D02*
X216695839Y-61972144D01*
X216695839Y-61972144D02*
X216695839Y-62048334D01*
X216695839Y-62048334D02*
X216733934Y-62162620D01*
X216733934Y-62162620D02*
X217191077Y-62619763D01*
X217191077Y-62619763D02*
X216695839Y-62619763D01*
X216200600Y-61819763D02*
X216124410Y-61819763D01*
X216124410Y-61819763D02*
X216048219Y-61857858D01*
X216048219Y-61857858D02*
X216010124Y-61895953D01*
X216010124Y-61895953D02*
X215972029Y-61972144D01*
X215972029Y-61972144D02*
X215933934Y-62124525D01*
X215933934Y-62124525D02*
X215933934Y-62315001D01*
X215933934Y-62315001D02*
X215972029Y-62467382D01*
X215972029Y-62467382D02*
X216010124Y-62543572D01*
X216010124Y-62543572D02*
X216048219Y-62581668D01*
X216048219Y-62581668D02*
X216124410Y-62619763D01*
X216124410Y-62619763D02*
X216200600Y-62619763D01*
X216200600Y-62619763D02*
X216276791Y-62581668D01*
X216276791Y-62581668D02*
X216314886Y-62543572D01*
X216314886Y-62543572D02*
X216352981Y-62467382D01*
X216352981Y-62467382D02*
X216391077Y-62315001D01*
X216391077Y-62315001D02*
X216391077Y-62124525D01*
X216391077Y-62124525D02*
X216352981Y-61972144D01*
X216352981Y-61972144D02*
X216314886Y-61895953D01*
X216314886Y-61895953D02*
X216276791Y-61857858D01*
X216276791Y-61857858D02*
X216200600Y-61819763D01*
D11*
%TO.C,D60*%
X104211601Y-173057468D02*
X104811601Y-173457468D01*
X104211601Y-173457468D02*
X103711601Y-173457468D01*
X104211601Y-173857468D02*
X104211601Y-173057468D01*
X104811601Y-173457468D02*
X104211601Y-173857468D01*
X104811601Y-173457468D02*
X104811601Y-172907468D01*
X104811601Y-173457468D02*
X104811601Y-174007468D01*
X105211601Y-173457468D02*
X104811601Y-173457468D01*
%TO.C,D22*%
X74211601Y-133057468D02*
X74811601Y-133457468D01*
X74211601Y-133457468D02*
X73711601Y-133457468D01*
X74211601Y-133857468D02*
X74211601Y-133057468D01*
X74811601Y-133457468D02*
X74211601Y-133857468D01*
X74811601Y-133457468D02*
X74811601Y-132907468D01*
X74811601Y-133457468D02*
X74811601Y-134007468D01*
X75211601Y-133457468D02*
X74811601Y-133457468D01*
%TO.C,D3*%
X104211601Y-114057468D02*
X104811601Y-114457468D01*
X104211601Y-114457468D02*
X103711601Y-114457468D01*
X104211601Y-114857468D02*
X104211601Y-114057468D01*
X104811601Y-114457468D02*
X104211601Y-114857468D01*
X104811601Y-114457468D02*
X104811601Y-113907468D01*
X104811601Y-114457468D02*
X104811601Y-115007468D01*
X105211601Y-114457468D02*
X104811601Y-114457468D01*
%TO.C,D17*%
X180211601Y-152057468D02*
X180811601Y-152457468D01*
X180211601Y-152457468D02*
X179711601Y-152457468D01*
X180211601Y-152857468D02*
X180211601Y-152057468D01*
X180811601Y-152457468D02*
X180211601Y-152857468D01*
X180811601Y-152457468D02*
X180811601Y-151907468D01*
X180811601Y-152457468D02*
X180811601Y-153007468D01*
X181211601Y-152457468D02*
X180811601Y-152457468D01*
%TO.C,D12*%
X142211601Y-95057468D02*
X142811601Y-95457468D01*
X142211601Y-95457468D02*
X141711601Y-95457468D01*
X142211601Y-95857468D02*
X142211601Y-95057468D01*
X142811601Y-95457468D02*
X142211601Y-95857468D01*
X142811601Y-95457468D02*
X142811601Y-94907468D01*
X142811601Y-95457468D02*
X142811601Y-96007468D01*
X143211601Y-95457468D02*
X142811601Y-95457468D01*
%TO.C,D20*%
X180211601Y-95057468D02*
X180811601Y-95457468D01*
X180211601Y-95457468D02*
X179711601Y-95457468D01*
X180211601Y-95857468D02*
X180211601Y-95057468D01*
X180811601Y-95457468D02*
X180211601Y-95857468D01*
X180811601Y-95457468D02*
X180811601Y-94907468D01*
X180811601Y-95457468D02*
X180811601Y-96007468D01*
X181211601Y-95457468D02*
X180811601Y-95457468D01*
%TO.C,D23*%
X74211601Y-114057468D02*
X74811601Y-114457468D01*
X74211601Y-114457468D02*
X73711601Y-114457468D01*
X74211601Y-114857468D02*
X74211601Y-114057468D01*
X74811601Y-114457468D02*
X74211601Y-114857468D01*
X74811601Y-114457468D02*
X74811601Y-113907468D01*
X74811601Y-114457468D02*
X74811601Y-115007468D01*
X75211601Y-114457468D02*
X74811601Y-114457468D01*
%TO.C,D16*%
X161211601Y-95057468D02*
X161811601Y-95457468D01*
X161211601Y-95457468D02*
X160711601Y-95457468D01*
X161211601Y-95857468D02*
X161211601Y-95057468D01*
X161811601Y-95457468D02*
X161211601Y-95857468D01*
X161811601Y-95457468D02*
X161811601Y-94907468D01*
X161811601Y-95457468D02*
X161811601Y-96007468D01*
X162211601Y-95457468D02*
X161811601Y-95457468D01*
%TO.C,D61*%
X134211601Y-173057468D02*
X134811601Y-173457468D01*
X134211601Y-173457468D02*
X133711601Y-173457468D01*
X134211601Y-173857468D02*
X134211601Y-173057468D01*
X134811601Y-173457468D02*
X134211601Y-173857468D01*
X134811601Y-173457468D02*
X134811601Y-172907468D01*
X134811601Y-173457468D02*
X134811601Y-174007468D01*
X135211601Y-173457468D02*
X134811601Y-173457468D01*
%TO.C,D62*%
X175211601Y-173057468D02*
X175811601Y-173457468D01*
X175211601Y-173457468D02*
X174711601Y-173457468D01*
X175211601Y-173857468D02*
X175211601Y-173057468D01*
X175811601Y-173457468D02*
X175211601Y-173857468D01*
X175811601Y-173457468D02*
X175811601Y-172907468D01*
X175811601Y-173457468D02*
X175811601Y-174007468D01*
X176211601Y-173457468D02*
X175811601Y-173457468D01*
%TO.C,D58*%
X180211601Y-71057468D02*
X180811601Y-71457468D01*
X180211601Y-71457468D02*
X179711601Y-71457468D01*
X180211601Y-71857468D02*
X180211601Y-71057468D01*
X180811601Y-71457468D02*
X180211601Y-71857468D01*
X180811601Y-71457468D02*
X180811601Y-70907468D01*
X180811601Y-71457468D02*
X180811601Y-72007468D01*
X181211601Y-71457468D02*
X180811601Y-71457468D01*
%TO.C,D5*%
X123211601Y-152057468D02*
X123811601Y-152457468D01*
X123211601Y-152457468D02*
X122711601Y-152457468D01*
X123211601Y-152857468D02*
X123211601Y-152057468D01*
X123811601Y-152457468D02*
X123211601Y-152857468D01*
X123811601Y-152457468D02*
X123811601Y-151907468D01*
X123811601Y-152457468D02*
X123811601Y-153007468D01*
X124211601Y-152457468D02*
X123811601Y-152457468D01*
%TO.C,D63*%
X193640594Y-202241056D02*
X194040594Y-201548236D01*
X193840594Y-201894646D02*
X193407581Y-201644646D01*
X194040594Y-201548236D02*
X194360209Y-202194646D01*
X194360209Y-202194646D02*
X193640594Y-202241056D01*
X194360209Y-202194646D02*
X194085209Y-202670960D01*
X194360209Y-202194646D02*
X194635209Y-201718332D01*
X194706619Y-202394646D02*
X194360209Y-202194646D01*
%TO.C,D54*%
X104211601Y-71057468D02*
X104811601Y-71457468D01*
X104211601Y-71457468D02*
X103711601Y-71457468D01*
X104211601Y-71857468D02*
X104211601Y-71057468D01*
X104811601Y-71457468D02*
X104211601Y-71857468D01*
X104811601Y-71457468D02*
X104811601Y-70907468D01*
X104811601Y-71457468D02*
X104811601Y-72007468D01*
X105211601Y-71457468D02*
X104811601Y-71457468D01*
%TO.C,D21*%
X74211601Y-152057468D02*
X74811601Y-152457468D01*
X74211601Y-152457468D02*
X73711601Y-152457468D01*
X74211601Y-152857468D02*
X74211601Y-152057468D01*
X74811601Y-152457468D02*
X74211601Y-152857468D01*
X74811601Y-152457468D02*
X74811601Y-151907468D01*
X74811601Y-152457468D02*
X74811601Y-153007468D01*
X75211601Y-152457468D02*
X74811601Y-152457468D01*
%TO.C,D57*%
X161211601Y-71057468D02*
X161811601Y-71457468D01*
X161211601Y-71457468D02*
X160711601Y-71457468D01*
X161211601Y-71857468D02*
X161211601Y-71057468D01*
X161811601Y-71457468D02*
X161211601Y-71857468D01*
X161811601Y-71457468D02*
X161811601Y-70907468D01*
X161811601Y-71457468D02*
X161811601Y-72007468D01*
X162211601Y-71457468D02*
X161811601Y-71457468D01*
%TO.C,D59*%
X74211601Y-173057468D02*
X74811601Y-173457468D01*
X74211601Y-173457468D02*
X73711601Y-173457468D01*
X74211601Y-173857468D02*
X74211601Y-173057468D01*
X74811601Y-173457468D02*
X74211601Y-173857468D01*
X74811601Y-173457468D02*
X74811601Y-172907468D01*
X74811601Y-173457468D02*
X74811601Y-174007468D01*
X75211601Y-173457468D02*
X74811601Y-173457468D01*
%TO.C,D11*%
X142211601Y-114057468D02*
X142811601Y-114457468D01*
X142211601Y-114457468D02*
X141711601Y-114457468D01*
X142211601Y-114857468D02*
X142211601Y-114057468D01*
X142811601Y-114457468D02*
X142211601Y-114857468D01*
X142811601Y-114457468D02*
X142811601Y-113907468D01*
X142811601Y-114457468D02*
X142811601Y-115007468D01*
X143211601Y-114457468D02*
X142811601Y-114457468D01*
%TO.C,D6*%
X123211601Y-133057468D02*
X123811601Y-133457468D01*
X123211601Y-133457468D02*
X122711601Y-133457468D01*
X123211601Y-133857468D02*
X123211601Y-133057468D01*
X123811601Y-133457468D02*
X123211601Y-133857468D01*
X123811601Y-133457468D02*
X123811601Y-132907468D01*
X123811601Y-133457468D02*
X123811601Y-134007468D01*
X124211601Y-133457468D02*
X123811601Y-133457468D01*
D12*
%TO.C,MCU1*%
X213571601Y-45677468D02*
X213571601Y-78697468D01*
X213571601Y-78697468D02*
X231351601Y-78697468D01*
X231351601Y-45677468D02*
X213571601Y-45677468D01*
X231351601Y-78697468D02*
X231351601Y-45677468D01*
D11*
%TO.C,D14*%
X161211601Y-133057468D02*
X161811601Y-133457468D01*
X161211601Y-133457468D02*
X160711601Y-133457468D01*
X161211601Y-133857468D02*
X161211601Y-133057468D01*
X161811601Y-133457468D02*
X161211601Y-133857468D01*
X161811601Y-133457468D02*
X161811601Y-132907468D01*
X161811601Y-133457468D02*
X161811601Y-134007468D01*
X162211601Y-133457468D02*
X161811601Y-133457468D01*
%TO.C,D13*%
X161211601Y-152057468D02*
X161811601Y-152457468D01*
X161211601Y-152457468D02*
X160711601Y-152457468D01*
X161211601Y-152857468D02*
X161211601Y-152057468D01*
X161811601Y-152457468D02*
X161211601Y-152857468D01*
X161811601Y-152457468D02*
X161811601Y-151907468D01*
X161811601Y-152457468D02*
X161811601Y-153007468D01*
X162211601Y-152457468D02*
X161811601Y-152457468D01*
%TO.C,D18*%
X180211601Y-133057468D02*
X180811601Y-133457468D01*
X180211601Y-133457468D02*
X179711601Y-133457468D01*
X180211601Y-133857468D02*
X180211601Y-133057468D01*
X180811601Y-133457468D02*
X180211601Y-133857468D01*
X180811601Y-133457468D02*
X180811601Y-132907468D01*
X180811601Y-133457468D02*
X180811601Y-134007468D01*
X181211601Y-133457468D02*
X180811601Y-133457468D01*
%TO.C,D4*%
X104211601Y-95057468D02*
X104811601Y-95457468D01*
X104211601Y-95457468D02*
X103711601Y-95457468D01*
X104211601Y-95857468D02*
X104211601Y-95057468D01*
X104811601Y-95457468D02*
X104211601Y-95857468D01*
X104811601Y-95457468D02*
X104811601Y-94907468D01*
X104811601Y-95457468D02*
X104811601Y-96007468D01*
X105211601Y-95457468D02*
X104811601Y-95457468D01*
%TO.C,D7*%
X123211601Y-114057468D02*
X123811601Y-114457468D01*
X123211601Y-114457468D02*
X122711601Y-114457468D01*
X123211601Y-114857468D02*
X123211601Y-114057468D01*
X123811601Y-114457468D02*
X123211601Y-114857468D01*
X123811601Y-114457468D02*
X123811601Y-113907468D01*
X123811601Y-114457468D02*
X123811601Y-115007468D01*
X124211601Y-114457468D02*
X123811601Y-114457468D01*
%TO.C,D56*%
X142211601Y-71057468D02*
X142811601Y-71457468D01*
X142211601Y-71457468D02*
X141711601Y-71457468D01*
X142211601Y-71857468D02*
X142211601Y-71057468D01*
X142811601Y-71457468D02*
X142211601Y-71857468D01*
X142811601Y-71457468D02*
X142811601Y-70907468D01*
X142811601Y-71457468D02*
X142811601Y-72007468D01*
X143211601Y-71457468D02*
X142811601Y-71457468D01*
%TO.C,D15*%
X161211601Y-114057468D02*
X161811601Y-114457468D01*
X161211601Y-114457468D02*
X160711601Y-114457468D01*
X161211601Y-114857468D02*
X161211601Y-114057468D01*
X161811601Y-114457468D02*
X161211601Y-114857468D01*
X161811601Y-114457468D02*
X161811601Y-113907468D01*
X161811601Y-114457468D02*
X161811601Y-115007468D01*
X162211601Y-114457468D02*
X161811601Y-114457468D01*
%TO.C,D2*%
X104211601Y-133057468D02*
X104811601Y-133457468D01*
X104211601Y-133457468D02*
X103711601Y-133457468D01*
X104211601Y-133857468D02*
X104211601Y-133057468D01*
X104811601Y-133457468D02*
X104211601Y-133857468D01*
X104811601Y-133457468D02*
X104811601Y-132907468D01*
X104811601Y-133457468D02*
X104811601Y-134007468D01*
X105211601Y-133457468D02*
X104811601Y-133457468D01*
%TO.C,D53*%
X74211601Y-71057468D02*
X74811601Y-71457468D01*
X74211601Y-71457468D02*
X73711601Y-71457468D01*
X74211601Y-71857468D02*
X74211601Y-71057468D01*
X74811601Y-71457468D02*
X74211601Y-71857468D01*
X74811601Y-71457468D02*
X74811601Y-70907468D01*
X74811601Y-71457468D02*
X74811601Y-72007468D01*
X75211601Y-71457468D02*
X74811601Y-71457468D01*
%TO.C,D64*%
X219621356Y-217241056D02*
X220021356Y-216548236D01*
X219821356Y-216894646D02*
X219388343Y-216644646D01*
X220021356Y-216548236D02*
X220340971Y-217194646D01*
X220340971Y-217194646D02*
X219621356Y-217241056D01*
X220340971Y-217194646D02*
X220065971Y-217670960D01*
X220340971Y-217194646D02*
X220615971Y-216718332D01*
X220687381Y-217394646D02*
X220340971Y-217194646D01*
%TO.C,D55*%
X123211601Y-71057468D02*
X123811601Y-71457468D01*
X123211601Y-71457468D02*
X122711601Y-71457468D01*
X123211601Y-71857468D02*
X123211601Y-71057468D01*
X123811601Y-71457468D02*
X123211601Y-71857468D01*
X123811601Y-71457468D02*
X123811601Y-70907468D01*
X123811601Y-71457468D02*
X123811601Y-72007468D01*
X124211601Y-71457468D02*
X123811601Y-71457468D01*
%TO.C,D24*%
X74211601Y-95057468D02*
X74811601Y-95457468D01*
X74211601Y-95457468D02*
X73711601Y-95457468D01*
X74211601Y-95857468D02*
X74211601Y-95057468D01*
X74811601Y-95457468D02*
X74211601Y-95857468D01*
X74811601Y-95457468D02*
X74811601Y-94907468D01*
X74811601Y-95457468D02*
X74811601Y-96007468D01*
X75211601Y-95457468D02*
X74811601Y-95457468D01*
%TO.C,D19*%
X180211601Y-114057468D02*
X180811601Y-114457468D01*
X180211601Y-114457468D02*
X179711601Y-114457468D01*
X180211601Y-114857468D02*
X180211601Y-114057468D01*
X180811601Y-114457468D02*
X180211601Y-114857468D01*
X180811601Y-114457468D02*
X180811601Y-113907468D01*
X180811601Y-114457468D02*
X180811601Y-115007468D01*
X181211601Y-114457468D02*
X180811601Y-114457468D01*
%TO.C,D9*%
X142211601Y-152057468D02*
X142811601Y-152457468D01*
X142211601Y-152457468D02*
X141711601Y-152457468D01*
X142211601Y-152857468D02*
X142211601Y-152057468D01*
X142811601Y-152457468D02*
X142211601Y-152857468D01*
X142811601Y-152457468D02*
X142811601Y-151907468D01*
X142811601Y-152457468D02*
X142811601Y-153007468D01*
X143211601Y-152457468D02*
X142811601Y-152457468D01*
%TO.C,D8*%
X123211601Y-95057468D02*
X123811601Y-95457468D01*
X123211601Y-95457468D02*
X122711601Y-95457468D01*
X123211601Y-95857468D02*
X123211601Y-95057468D01*
X123811601Y-95457468D02*
X123211601Y-95857468D01*
X123811601Y-95457468D02*
X123811601Y-94907468D01*
X123811601Y-95457468D02*
X123811601Y-96007468D01*
X124211601Y-95457468D02*
X123811601Y-95457468D01*
%TO.C,D10*%
X142211601Y-133057468D02*
X142811601Y-133457468D01*
X142211601Y-133457468D02*
X141711601Y-133457468D01*
X142211601Y-133857468D02*
X142211601Y-133057468D01*
X142811601Y-133457468D02*
X142211601Y-133857468D01*
X142811601Y-133457468D02*
X142811601Y-132907468D01*
X142811601Y-133457468D02*
X142811601Y-134007468D01*
X143211601Y-133457468D02*
X142811601Y-133457468D01*
%TO.C,D1*%
X104211601Y-152057468D02*
X104811601Y-152457468D01*
X104211601Y-152457468D02*
X103711601Y-152457468D01*
X104211601Y-152857468D02*
X104211601Y-152057468D01*
X104811601Y-152457468D02*
X104211601Y-152857468D01*
X104811601Y-152457468D02*
X104811601Y-151907468D01*
X104811601Y-152457468D02*
X104811601Y-153007468D01*
X105211601Y-152457468D02*
X104811601Y-152457468D01*
%TD*%
D13*
%TO.C,MCU1*%
X214841601Y-49487468D03*
X214841601Y-52027468D03*
X214841601Y-54567468D03*
X214841601Y-57107468D03*
X214841601Y-59647468D03*
X214841601Y-62187468D03*
X214841601Y-64727468D03*
X214841601Y-67267468D03*
X214841601Y-69807468D03*
X214841601Y-72347468D03*
X214841601Y-74887468D03*
X214841601Y-77427468D03*
X230081601Y-77427468D03*
X230081601Y-74887468D03*
X230081601Y-72347468D03*
X230081601Y-69807468D03*
X230081601Y-67267468D03*
X230081601Y-64727468D03*
X230081601Y-62187468D03*
X230081601Y-59647468D03*
X230081601Y-57107468D03*
X230081601Y-54567468D03*
X230081601Y-52027468D03*
X230081601Y-49487468D03*
%TD*%
M02*
