%TF.GenerationSoftware,KiCad,Pcbnew,8.0.5*%
%TF.CreationDate,2024-10-12T19:47:22+02:00*%
%TF.ProjectId,finishedleftpcb,66696e69-7368-4656-946c-656674706362,v1.0.0*%
%TF.SameCoordinates,Original*%
%TF.FileFunction,Copper,L1,Top*%
%TF.FilePolarity,Positive*%
%FSLAX46Y46*%
G04 Gerber Fmt 4.6, Leading zero omitted, Abs format (unit mm)*
G04 Created by KiCad (PCBNEW 8.0.5) date 2024-10-12 19:47:22*
%MOMM*%
%LPD*%
G01*
G04 APERTURE LIST*
G04 Aperture macros list*
%AMRoundRect*
0 Rectangle with rounded corners*
0 $1 Rounding radius*
0 $2 $3 $4 $5 $6 $7 $8 $9 X,Y pos of 4 corners*
0 Add a 4 corners polygon primitive as box body*
4,1,4,$2,$3,$4,$5,$6,$7,$8,$9,$2,$3,0*
0 Add four circle primitives for the rounded corners*
1,1,$1+$1,$2,$3*
1,1,$1+$1,$4,$5*
1,1,$1+$1,$6,$7*
1,1,$1+$1,$8,$9*
0 Add four rect primitives between the rounded corners*
20,1,$1+$1,$2,$3,$4,$5,0*
20,1,$1+$1,$4,$5,$6,$7,0*
20,1,$1+$1,$6,$7,$8,$9,0*
20,1,$1+$1,$8,$9,$2,$3,0*%
%AMRotRect*
0 Rectangle, with rotation*
0 The origin of the aperture is its center*
0 $1 length*
0 $2 width*
0 $3 Rotation angle, in degrees counterclockwise*
0 Add horizontal line*
21,1,$1,$2,0,0,$3*%
G04 Aperture macros list end*
%ADD10C,0.300000*%
%TA.AperFunction,NonConductor*%
%ADD11C,0.300000*%
%TD*%
%TA.AperFunction,ComponentPad*%
%ADD12C,2.286000*%
%TD*%
%TA.AperFunction,ComponentPad*%
%ADD13R,1.778000X1.778000*%
%TD*%
%TA.AperFunction,SMDPad,CuDef*%
%ADD14R,0.900000X1.200000*%
%TD*%
%TA.AperFunction,ComponentPad*%
%ADD15C,1.905000*%
%TD*%
%TA.AperFunction,ComponentPad*%
%ADD16RotRect,1.778000X1.778000X150.000000*%
%TD*%
%TA.AperFunction,SMDPad,CuDef*%
%ADD17RotRect,0.900000X1.200000X150.000000*%
%TD*%
%TA.AperFunction,SMDPad,CuDef*%
%ADD18RoundRect,0.200000X0.800000X-0.200000X0.800000X0.200000X-0.800000X0.200000X-0.800000X-0.200000X0*%
%TD*%
%TA.AperFunction,ComponentPad*%
%ADD19C,1.752600*%
%TD*%
%TA.AperFunction,SMDPad,CuDef*%
%ADD20R,0.900000X0.900000*%
%TD*%
%TA.AperFunction,WasherPad*%
%ADD21C,1.000000*%
%TD*%
%TA.AperFunction,SMDPad,CuDef*%
%ADD22R,1.250000X0.900000*%
%TD*%
%TA.AperFunction,ViaPad*%
%ADD23C,0.800000*%
%TD*%
%TA.AperFunction,Conductor*%
%ADD24C,0.250000*%
%TD*%
G04 APERTURE END LIST*
D10*
D11*
X224654510Y-99715114D02*
X224868796Y-99786542D01*
X224868796Y-99786542D02*
X224940225Y-99857971D01*
X224940225Y-99857971D02*
X225011653Y-100000828D01*
X225011653Y-100000828D02*
X225011653Y-100215114D01*
X225011653Y-100215114D02*
X224940225Y-100357971D01*
X224940225Y-100357971D02*
X224868796Y-100429400D01*
X224868796Y-100429400D02*
X224725939Y-100500828D01*
X224725939Y-100500828D02*
X224154510Y-100500828D01*
X224154510Y-100500828D02*
X224154510Y-99000828D01*
X224154510Y-99000828D02*
X224654510Y-99000828D01*
X224654510Y-99000828D02*
X224797368Y-99072257D01*
X224797368Y-99072257D02*
X224868796Y-99143685D01*
X224868796Y-99143685D02*
X224940225Y-99286542D01*
X224940225Y-99286542D02*
X224940225Y-99429400D01*
X224940225Y-99429400D02*
X224868796Y-99572257D01*
X224868796Y-99572257D02*
X224797368Y-99643685D01*
X224797368Y-99643685D02*
X224654510Y-99715114D01*
X224654510Y-99715114D02*
X224154510Y-99715114D01*
X226297368Y-100500828D02*
X226297368Y-99715114D01*
X226297368Y-99715114D02*
X226225939Y-99572257D01*
X226225939Y-99572257D02*
X226083082Y-99500828D01*
X226083082Y-99500828D02*
X225797368Y-99500828D01*
X225797368Y-99500828D02*
X225654510Y-99572257D01*
X226297368Y-100429400D02*
X226154510Y-100500828D01*
X226154510Y-100500828D02*
X225797368Y-100500828D01*
X225797368Y-100500828D02*
X225654510Y-100429400D01*
X225654510Y-100429400D02*
X225583082Y-100286542D01*
X225583082Y-100286542D02*
X225583082Y-100143685D01*
X225583082Y-100143685D02*
X225654510Y-100000828D01*
X225654510Y-100000828D02*
X225797368Y-99929400D01*
X225797368Y-99929400D02*
X226154510Y-99929400D01*
X226154510Y-99929400D02*
X226297368Y-99857971D01*
X226797368Y-99500828D02*
X227368796Y-99500828D01*
X227011653Y-99000828D02*
X227011653Y-100286542D01*
X227011653Y-100286542D02*
X227083082Y-100429400D01*
X227083082Y-100429400D02*
X227225939Y-100500828D01*
X227225939Y-100500828D02*
X227368796Y-100500828D01*
X227654511Y-99500828D02*
X228225939Y-99500828D01*
X227868796Y-99000828D02*
X227868796Y-100286542D01*
X227868796Y-100286542D02*
X227940225Y-100429400D01*
X227940225Y-100429400D02*
X228083082Y-100500828D01*
X228083082Y-100500828D02*
X228225939Y-100500828D01*
X229297368Y-100429400D02*
X229154511Y-100500828D01*
X229154511Y-100500828D02*
X228868797Y-100500828D01*
X228868797Y-100500828D02*
X228725939Y-100429400D01*
X228725939Y-100429400D02*
X228654511Y-100286542D01*
X228654511Y-100286542D02*
X228654511Y-99715114D01*
X228654511Y-99715114D02*
X228725939Y-99572257D01*
X228725939Y-99572257D02*
X228868797Y-99500828D01*
X228868797Y-99500828D02*
X229154511Y-99500828D01*
X229154511Y-99500828D02*
X229297368Y-99572257D01*
X229297368Y-99572257D02*
X229368797Y-99715114D01*
X229368797Y-99715114D02*
X229368797Y-99857971D01*
X229368797Y-99857971D02*
X228654511Y-100000828D01*
X230011653Y-100500828D02*
X230011653Y-99500828D01*
X230011653Y-99786542D02*
X230083082Y-99643685D01*
X230083082Y-99643685D02*
X230154511Y-99572257D01*
X230154511Y-99572257D02*
X230297368Y-99500828D01*
X230297368Y-99500828D02*
X230440225Y-99500828D01*
X230797367Y-99500828D02*
X231154510Y-100500828D01*
X231511653Y-99500828D02*
X231154510Y-100500828D01*
X231154510Y-100500828D02*
X231011653Y-100857971D01*
X231011653Y-100857971D02*
X230940224Y-100929400D01*
X230940224Y-100929400D02*
X230797367Y-101000828D01*
X233225938Y-99500828D02*
X233225938Y-101000828D01*
X233225938Y-99572257D02*
X233368796Y-99500828D01*
X233368796Y-99500828D02*
X233654510Y-99500828D01*
X233654510Y-99500828D02*
X233797367Y-99572257D01*
X233797367Y-99572257D02*
X233868796Y-99643685D01*
X233868796Y-99643685D02*
X233940224Y-99786542D01*
X233940224Y-99786542D02*
X233940224Y-100215114D01*
X233940224Y-100215114D02*
X233868796Y-100357971D01*
X233868796Y-100357971D02*
X233797367Y-100429400D01*
X233797367Y-100429400D02*
X233654510Y-100500828D01*
X233654510Y-100500828D02*
X233368796Y-100500828D01*
X233368796Y-100500828D02*
X233225938Y-100429400D01*
X234797367Y-100500828D02*
X234654510Y-100429400D01*
X234654510Y-100429400D02*
X234583081Y-100286542D01*
X234583081Y-100286542D02*
X234583081Y-99000828D01*
X236011653Y-99500828D02*
X236011653Y-100500828D01*
X235368795Y-99500828D02*
X235368795Y-100286542D01*
X235368795Y-100286542D02*
X235440224Y-100429400D01*
X235440224Y-100429400D02*
X235583081Y-100500828D01*
X235583081Y-100500828D02*
X235797367Y-100500828D01*
X235797367Y-100500828D02*
X235940224Y-100429400D01*
X235940224Y-100429400D02*
X236011653Y-100357971D01*
X236654510Y-100429400D02*
X236797367Y-100500828D01*
X236797367Y-100500828D02*
X237083081Y-100500828D01*
X237083081Y-100500828D02*
X237225938Y-100429400D01*
X237225938Y-100429400D02*
X237297367Y-100286542D01*
X237297367Y-100286542D02*
X237297367Y-100215114D01*
X237297367Y-100215114D02*
X237225938Y-100072257D01*
X237225938Y-100072257D02*
X237083081Y-100000828D01*
X237083081Y-100000828D02*
X236868796Y-100000828D01*
X236868796Y-100000828D02*
X236725938Y-99929400D01*
X236725938Y-99929400D02*
X236654510Y-99786542D01*
X236654510Y-99786542D02*
X236654510Y-99715114D01*
X236654510Y-99715114D02*
X236725938Y-99572257D01*
X236725938Y-99572257D02*
X236868796Y-99500828D01*
X236868796Y-99500828D02*
X237083081Y-99500828D01*
X237083081Y-99500828D02*
X237225938Y-99572257D01*
D10*
D11*
X206240225Y-99372257D02*
X206097368Y-99300828D01*
X206097368Y-99300828D02*
X205883082Y-99300828D01*
X205883082Y-99300828D02*
X205668796Y-99372257D01*
X205668796Y-99372257D02*
X205525939Y-99515114D01*
X205525939Y-99515114D02*
X205454510Y-99657971D01*
X205454510Y-99657971D02*
X205383082Y-99943685D01*
X205383082Y-99943685D02*
X205383082Y-100157971D01*
X205383082Y-100157971D02*
X205454510Y-100443685D01*
X205454510Y-100443685D02*
X205525939Y-100586542D01*
X205525939Y-100586542D02*
X205668796Y-100729400D01*
X205668796Y-100729400D02*
X205883082Y-100800828D01*
X205883082Y-100800828D02*
X206025939Y-100800828D01*
X206025939Y-100800828D02*
X206240225Y-100729400D01*
X206240225Y-100729400D02*
X206311653Y-100657971D01*
X206311653Y-100657971D02*
X206311653Y-100157971D01*
X206311653Y-100157971D02*
X206025939Y-100157971D01*
X206954510Y-100800828D02*
X206954510Y-99300828D01*
X206954510Y-99300828D02*
X207811653Y-100800828D01*
X207811653Y-100800828D02*
X207811653Y-99300828D01*
X208525939Y-100800828D02*
X208525939Y-99300828D01*
X208525939Y-99300828D02*
X208883082Y-99300828D01*
X208883082Y-99300828D02*
X209097368Y-99372257D01*
X209097368Y-99372257D02*
X209240225Y-99515114D01*
X209240225Y-99515114D02*
X209311654Y-99657971D01*
X209311654Y-99657971D02*
X209383082Y-99943685D01*
X209383082Y-99943685D02*
X209383082Y-100157971D01*
X209383082Y-100157971D02*
X209311654Y-100443685D01*
X209311654Y-100443685D02*
X209240225Y-100586542D01*
X209240225Y-100586542D02*
X209097368Y-100729400D01*
X209097368Y-100729400D02*
X208883082Y-100800828D01*
X208883082Y-100800828D02*
X208525939Y-100800828D01*
D12*
%TO.P,S58,1*%
%TO.N,P111*%
X179001601Y-59377468D03*
%TO.P,S58,2*%
%TO.N,f5_escaperow*%
X172651601Y-61917468D03*
%TD*%
%TO.P,S64,1*%
%TO.N,P111*%
X224813465Y-205828059D03*
%TO.P,S64,2*%
%TO.N,thumbkey_thumbrow*%
X218044203Y-204852763D03*
%TD*%
D13*
%TO.P,D60,1*%
%TO.N,P024*%
X108271601Y-173457468D03*
D14*
X106111601Y-173457468D03*
%TO.P,D60,2*%
%TO.N,winkey_thumbrow*%
X102811601Y-173457468D03*
D15*
X100651601Y-173457468D03*
%TD*%
D13*
%TO.P,D22,1*%
%TO.N,P020*%
X78271601Y-133457468D03*
D14*
X76111601Y-133457468D03*
%TO.P,D22,2*%
%TO.N,tabcapsshift_tab*%
X72811601Y-133457468D03*
D15*
X70651601Y-133457468D03*
%TD*%
D12*
%TO.P,S13,1*%
%TO.N,P113*%
X160001601Y-140377468D03*
%TO.P,S13,2*%
%TO.N,4rfvcol_zxcrow*%
X153651601Y-142917468D03*
%TD*%
D13*
%TO.P,D3,1*%
%TO.N,P017*%
X108271601Y-114457468D03*
D14*
X106111601Y-114457468D03*
%TO.P,D3,2*%
%TO.N,1qazcol_qwerow*%
X102811601Y-114457468D03*
D15*
X100651601Y-114457468D03*
%TD*%
D12*
%TO.P,S24,1*%
%TO.N,P031*%
X73001601Y-83377468D03*
%TO.P,S24,2*%
%TO.N,tabcapsshift_shift*%
X66651601Y-85917468D03*
%TD*%
D13*
%TO.P,D17,1*%
%TO.N,P022*%
X184271601Y-152457468D03*
D14*
X182111601Y-152457468D03*
%TO.P,D17,2*%
%TO.N,5tgbcol_zxcrow*%
X178811601Y-152457468D03*
D15*
X176651601Y-152457468D03*
%TD*%
D12*
%TO.P,S1,1*%
%TO.N,P029*%
X103001601Y-140377468D03*
%TO.P,S1,2*%
%TO.N,1qazcol_zxcrow*%
X96651601Y-142917468D03*
%TD*%
%TO.P,S54,1*%
%TO.N,P029*%
X103001601Y-59377468D03*
%TO.P,S54,2*%
%TO.N,f1_escaperow*%
X96651601Y-61917468D03*
%TD*%
D13*
%TO.P,D12,1*%
%TO.N,P008*%
X146271601Y-95457468D03*
D14*
X144111601Y-95457468D03*
%TO.P,D12,2*%
%TO.N,3edccol_numberrow*%
X140811601Y-95457468D03*
D15*
X138651601Y-95457468D03*
%TD*%
D12*
%TO.P,S15,1*%
%TO.N,P113*%
X160001601Y-102377468D03*
%TO.P,S15,2*%
%TO.N,4rfvcol_qwerow*%
X153651601Y-104917468D03*
%TD*%
%TO.P,S23,1*%
%TO.N,P031*%
X73001601Y-102377468D03*
%TO.P,S23,2*%
%TO.N,tabcapsshift_caps*%
X66651601Y-104917468D03*
%TD*%
%TO.P,S11,1*%
%TO.N,P115*%
X141001601Y-102377468D03*
%TO.P,S11,2*%
%TO.N,3edccol_qwerow*%
X134651601Y-104917468D03*
%TD*%
D13*
%TO.P,D20,1*%
%TO.N,P008*%
X184271601Y-95457468D03*
D14*
X182111601Y-95457468D03*
%TO.P,D20,2*%
%TO.N,5tgbcol_numberrow*%
X178811601Y-95457468D03*
D15*
X176651601Y-95457468D03*
%TD*%
D12*
%TO.P,S16,1*%
%TO.N,P113*%
X160001601Y-83377468D03*
%TO.P,S16,2*%
%TO.N,4rfvcol_numberrow*%
X153651601Y-85917468D03*
%TD*%
%TO.P,,1*%
%TO.N,batteryplus*%
X230500000Y-96700000D03*
%TD*%
D13*
%TO.P,D23,1*%
%TO.N,P017*%
X78271601Y-114457468D03*
D14*
X76111601Y-114457468D03*
%TO.P,D23,2*%
%TO.N,tabcapsshift_caps*%
X72811601Y-114457468D03*
D15*
X70651601Y-114457468D03*
%TD*%
D13*
%TO.P,D16,1*%
%TO.N,P008*%
X165271601Y-95457468D03*
D14*
X163111601Y-95457468D03*
%TO.P,D16,2*%
%TO.N,4rfvcol_numberrow*%
X159811601Y-95457468D03*
D15*
X157651601Y-95457468D03*
%TD*%
D12*
%TO.P,S56,1*%
%TO.N,P115*%
X141001601Y-59377468D03*
%TO.P,S56,2*%
%TO.N,f3_escaperow*%
X134651601Y-61917468D03*
%TD*%
%TO.P,S17,1*%
%TO.N,P111*%
X179001601Y-140377468D03*
%TO.P,S17,2*%
%TO.N,5tgbcol_zxcrow*%
X172651601Y-142917468D03*
%TD*%
D13*
%TO.P,D61,1*%
%TO.N,P024*%
X138271601Y-173457468D03*
D14*
X136111601Y-173457468D03*
%TO.P,D61,2*%
%TO.N,alt_thumbrow*%
X132811601Y-173457468D03*
D15*
X130651601Y-173457468D03*
%TD*%
D12*
%TO.P,S7,1*%
%TO.N,P002*%
X122001601Y-102377468D03*
%TO.P,S7,2*%
%TO.N,2wsxcol_qwerow*%
X115651601Y-104917468D03*
%TD*%
%TO.P,S55,1*%
%TO.N,P002*%
X122001601Y-59377468D03*
%TO.P,S55,2*%
%TO.N,f2_escaperow*%
X115651601Y-61917468D03*
%TD*%
D13*
%TO.P,D62,1*%
%TO.N,P024*%
X179271601Y-173457468D03*
D14*
X177111601Y-173457468D03*
%TO.P,D62,2*%
%TO.N,space_thumbrow*%
X173811601Y-173457468D03*
D15*
X171651601Y-173457468D03*
%TD*%
D12*
%TO.P,S20,1*%
%TO.N,P111*%
X179001601Y-83377468D03*
%TO.P,S20,2*%
%TO.N,5tgbcol_numberrow*%
X172651601Y-85917468D03*
%TD*%
D13*
%TO.P,D58,1*%
%TO.N,P006*%
X184271601Y-71457468D03*
D14*
X182111601Y-71457468D03*
%TO.P,D58,2*%
%TO.N,f5_escaperow*%
X178811601Y-71457468D03*
D15*
X176651601Y-71457468D03*
%TD*%
D12*
%TO.P,S60,1*%
%TO.N,P029*%
X103001601Y-161377468D03*
%TO.P,S60,2*%
%TO.N,winkey_thumbrow*%
X96651601Y-163917468D03*
%TD*%
D13*
%TO.P,D5,1*%
%TO.N,P022*%
X127271601Y-152457468D03*
D14*
X125111601Y-152457468D03*
%TO.P,D5,2*%
%TO.N,2wsxcol_zxcrow*%
X121811601Y-152457468D03*
D15*
X119651601Y-152457468D03*
%TD*%
D16*
%TO.P,D63,1*%
%TO.N,P024*%
X197356657Y-203924646D03*
D17*
X195486042Y-202844646D03*
%TO.P,D63,2*%
%TO.N,ctrl2_thumbrow*%
X192628158Y-201194646D03*
D15*
X190757543Y-200114646D03*
%TD*%
D12*
%TO.P,S62,1*%
%TO.N,P115*%
X174001601Y-161377468D03*
%TO.P,S62,2*%
%TO.N,space_thumbrow*%
X167651601Y-163917468D03*
%TD*%
D13*
%TO.P,D54,1*%
%TO.N,P006*%
X108271601Y-71457468D03*
D14*
X106111601Y-71457468D03*
%TO.P,D54,2*%
%TO.N,f1_escaperow*%
X102811601Y-71457468D03*
D15*
X100651601Y-71457468D03*
%TD*%
D12*
%TO.P,S4,1*%
%TO.N,P029*%
X103001601Y-83377468D03*
%TO.P,S4,2*%
%TO.N,1qazcol_numberrow*%
X96651601Y-85917468D03*
%TD*%
D13*
%TO.P,D21,1*%
%TO.N,P022*%
X78271601Y-152457468D03*
D14*
X76111601Y-152457468D03*
%TO.P,D21,2*%
%TO.N,tabcapsshift_tylda*%
X72811601Y-152457468D03*
D15*
X70651601Y-152457468D03*
%TD*%
D12*
%TO.P,S8,1*%
%TO.N,P002*%
X122001601Y-83377468D03*
%TO.P,S8,2*%
%TO.N,2wsxcol_numberrow*%
X115651601Y-85917468D03*
%TD*%
D13*
%TO.P,D57,1*%
%TO.N,P006*%
X165271601Y-71457468D03*
D14*
X163111601Y-71457468D03*
%TO.P,D57,2*%
%TO.N,f4_escaperow*%
X159811601Y-71457468D03*
D15*
X157651601Y-71457468D03*
%TD*%
D12*
%TO.P,S21,1*%
%TO.N,P031*%
X73001601Y-140377468D03*
%TO.P,S21,2*%
%TO.N,tabcapsshift_tylda*%
X66651601Y-142917468D03*
%TD*%
%TO.P,S12,1*%
%TO.N,P115*%
X141001601Y-83377468D03*
%TO.P,S12,2*%
%TO.N,3edccol_numberrow*%
X134651601Y-85917468D03*
%TD*%
D13*
%TO.P,D59,1*%
%TO.N,P024*%
X78271601Y-173457468D03*
D14*
X76111601Y-173457468D03*
%TO.P,D59,2*%
%TO.N,ctrl_thumbrow*%
X72811601Y-173457468D03*
D15*
X70651601Y-173457468D03*
%TD*%
D18*
%TO.P,REF\u002A\u002A,1*%
%TO.N,RST*%
X242500000Y-64900000D03*
%TO.P,REF\u002A\u002A,2*%
%TO.N,GND*%
X242500000Y-60700000D03*
%TD*%
D12*
%TO.P,S3,1*%
%TO.N,P029*%
X103001601Y-102377468D03*
%TO.P,S3,2*%
%TO.N,1qazcol_qwerow*%
X96651601Y-104917468D03*
%TD*%
D13*
%TO.P,D11,1*%
%TO.N,P017*%
X146271601Y-114457468D03*
D14*
X144111601Y-114457468D03*
%TO.P,D11,2*%
%TO.N,3edccol_qwerow*%
X140811601Y-114457468D03*
D15*
X138651601Y-114457468D03*
%TD*%
D13*
%TO.P,D6,1*%
%TO.N,P020*%
X127271601Y-133457468D03*
D14*
X125111601Y-133457468D03*
%TO.P,D6,2*%
%TO.N,2wsxcol_asdrow*%
X121811601Y-133457468D03*
D15*
X119651601Y-133457468D03*
%TD*%
D19*
%TO.P,MCU1,1*%
%TO.N,P006*%
X214841601Y-49487468D03*
%TO.P,MCU1,2*%
%TO.N,P008*%
X214841601Y-52027468D03*
%TO.P,MCU1,3*%
%TO.N,GND*%
X214841601Y-54567468D03*
%TO.P,MCU1,4*%
X214841601Y-57107468D03*
%TO.P,MCU1,5*%
%TO.N,P017*%
X214841601Y-59647468D03*
%TO.P,MCU1,6*%
%TO.N,P020*%
X214841601Y-62187468D03*
%TO.P,MCU1,7*%
%TO.N,P022*%
X214841601Y-64727468D03*
%TO.P,MCU1,8*%
%TO.N,P024*%
X214841601Y-67267468D03*
%TO.P,MCU1,9*%
%TO.N,P100*%
X214841601Y-69807468D03*
%TO.P,MCU1,10*%
%TO.N,P011*%
X214841601Y-72347468D03*
%TO.P,MCU1,11*%
%TO.N,P104*%
X214841601Y-74887468D03*
%TO.P,MCU1,12*%
%TO.N,P106*%
X214841601Y-77427468D03*
%TO.P,MCU1,13*%
%TO.N,P009*%
X230081601Y-77427468D03*
%TO.P,MCU1,14*%
%TO.N,P010*%
X230081601Y-74887468D03*
%TO.P,MCU1,15*%
%TO.N,P111*%
X230081601Y-72347468D03*
%TO.P,MCU1,16*%
%TO.N,P113*%
X230081601Y-69807468D03*
%TO.P,MCU1,17*%
%TO.N,P115*%
X230081601Y-67267468D03*
%TO.P,MCU1,18*%
%TO.N,P002*%
X230081601Y-64727468D03*
%TO.P,MCU1,19*%
%TO.N,P029*%
X230081601Y-62187468D03*
%TO.P,MCU1,20*%
%TO.N,P031*%
X230081601Y-59647468D03*
%TO.P,MCU1,21*%
%TO.N,VCC*%
X230081601Y-57107468D03*
%TO.P,MCU1,22*%
%TO.N,RST*%
X230081601Y-54567468D03*
%TO.P,MCU1,23*%
%TO.N,GND*%
X230081601Y-52027468D03*
%TO.P,MCU1,24*%
%TO.N,RAW*%
X230081601Y-49487468D03*
%TD*%
D13*
%TO.P,D14,1*%
%TO.N,P020*%
X165271601Y-133457468D03*
D14*
X163111601Y-133457468D03*
%TO.P,D14,2*%
%TO.N,4rfvcol_asdrow*%
X159811601Y-133457468D03*
D15*
X157651601Y-133457468D03*
%TD*%
D12*
%TO.P,S2,1*%
%TO.N,P029*%
X103001601Y-121377468D03*
%TO.P,S2,2*%
%TO.N,1qazcol_asdrow*%
X96651601Y-123917468D03*
%TD*%
%TO.P,S10,1*%
%TO.N,P115*%
X141001601Y-121377468D03*
%TO.P,S10,2*%
%TO.N,3edccol_asdrow*%
X134651601Y-123917468D03*
%TD*%
D13*
%TO.P,D13,1*%
%TO.N,P022*%
X165271601Y-152457468D03*
D14*
X163111601Y-152457468D03*
%TO.P,D13,2*%
%TO.N,4rfvcol_zxcrow*%
X159811601Y-152457468D03*
D15*
X157651601Y-152457468D03*
%TD*%
D13*
%TO.P,D18,1*%
%TO.N,P020*%
X184271601Y-133457468D03*
D14*
X182111601Y-133457468D03*
%TO.P,D18,2*%
%TO.N,5tgbcol_asdrow*%
X178811601Y-133457468D03*
D15*
X176651601Y-133457468D03*
%TD*%
D13*
%TO.P,D4,1*%
%TO.N,P008*%
X108271601Y-95457468D03*
D14*
X106111601Y-95457468D03*
%TO.P,D4,2*%
%TO.N,1qazcol_numberrow*%
X102811601Y-95457468D03*
D15*
X100651601Y-95457468D03*
%TD*%
D12*
%TO.P,S6,1*%
%TO.N,P002*%
X122001601Y-121377468D03*
%TO.P,S6,2*%
%TO.N,2wsxcol_asdrow*%
X115651601Y-123917468D03*
%TD*%
%TO.P,S22,1*%
%TO.N,P031*%
X73001601Y-121377468D03*
%TO.P,S22,2*%
%TO.N,tabcapsshift_tab*%
X66651601Y-123917468D03*
%TD*%
D13*
%TO.P,D7,1*%
%TO.N,P017*%
X127271601Y-114457468D03*
D14*
X125111601Y-114457468D03*
%TO.P,D7,2*%
%TO.N,2wsxcol_qwerow*%
X121811601Y-114457468D03*
D15*
X119651601Y-114457468D03*
%TD*%
D12*
%TO.P,S57,1*%
%TO.N,P113*%
X160001601Y-59377468D03*
%TO.P,S57,2*%
%TO.N,f4_escaperow*%
X153651601Y-61917468D03*
%TD*%
D13*
%TO.P,D56,1*%
%TO.N,P006*%
X146271601Y-71457468D03*
D14*
X144111601Y-71457468D03*
%TO.P,D56,2*%
%TO.N,f3_escaperow*%
X140811601Y-71457468D03*
D15*
X138651601Y-71457468D03*
%TD*%
D12*
%TO.P,S63,1*%
%TO.N,P113*%
X198832703Y-190828059D03*
%TO.P,S63,2*%
%TO.N,ctrl2_thumbrow*%
X192063441Y-189852763D03*
%TD*%
%TO.P,S59,1*%
%TO.N,P031*%
X73001601Y-161377468D03*
%TO.P,S59,2*%
%TO.N,ctrl_thumbrow*%
X66651601Y-163917468D03*
%TD*%
%TO.P,S19,1*%
%TO.N,P111*%
X179001601Y-102377468D03*
%TO.P,S19,2*%
%TO.N,5tgbcol_qwerow*%
X172651601Y-104917468D03*
%TD*%
D13*
%TO.P,D15,1*%
%TO.N,P017*%
X165271601Y-114457468D03*
D14*
X163111601Y-114457468D03*
%TO.P,D15,2*%
%TO.N,4rfvcol_qwerow*%
X159811601Y-114457468D03*
D15*
X157651601Y-114457468D03*
%TD*%
D12*
%TO.P,S53,1*%
%TO.N,P031*%
X73001601Y-59377468D03*
%TO.P,S53,2*%
%TO.N,esc_escaperow*%
X66651601Y-61917468D03*
%TD*%
D13*
%TO.P,D2,1*%
%TO.N,P020*%
X108271601Y-133457468D03*
D14*
X106111601Y-133457468D03*
%TO.P,D2,2*%
%TO.N,1qazcol_asdrow*%
X102811601Y-133457468D03*
D15*
X100651601Y-133457468D03*
%TD*%
D12*
%TO.P,S18,1*%
%TO.N,P111*%
X179001601Y-121377468D03*
%TO.P,S18,2*%
%TO.N,5tgbcol_asdrow*%
X172651601Y-123917468D03*
%TD*%
D13*
%TO.P,D53,1*%
%TO.N,P006*%
X78271601Y-71457468D03*
D14*
X76111601Y-71457468D03*
%TO.P,D53,2*%
%TO.N,esc_escaperow*%
X72811601Y-71457468D03*
D15*
X70651601Y-71457468D03*
%TD*%
D16*
%TO.P,D64,1*%
%TO.N,P024*%
X223337419Y-218924646D03*
D17*
X221466804Y-217844646D03*
%TO.P,D64,2*%
%TO.N,thumbkey_thumbrow*%
X218608920Y-216194646D03*
D15*
X216738305Y-215114646D03*
%TD*%
D13*
%TO.P,D55,1*%
%TO.N,P006*%
X127271601Y-71457468D03*
D14*
X125111601Y-71457468D03*
%TO.P,D55,2*%
%TO.N,f2_escaperow*%
X121811601Y-71457468D03*
D15*
X119651601Y-71457468D03*
%TD*%
D12*
%TO.P,,1*%
%TO.N,GND*%
X207100000Y-96800000D03*
%TD*%
%TO.P,S9,1*%
%TO.N,P115*%
X141001601Y-140377468D03*
%TO.P,S9,2*%
%TO.N,3edccol_zxcrow*%
X134651601Y-142917468D03*
%TD*%
D13*
%TO.P,D24,1*%
%TO.N,P008*%
X78271601Y-95457468D03*
D14*
X76111601Y-95457468D03*
%TO.P,D24,2*%
%TO.N,tabcapsshift_shift*%
X72811601Y-95457468D03*
D15*
X70651601Y-95457468D03*
%TD*%
D12*
%TO.P,S5,1*%
%TO.N,P002*%
X122001601Y-140377468D03*
%TO.P,S5,2*%
%TO.N,2wsxcol_zxcrow*%
X115651601Y-142917468D03*
%TD*%
%TO.P,S61,1*%
%TO.N,P002*%
X133001601Y-161377468D03*
%TO.P,S61,2*%
%TO.N,alt_thumbrow*%
X126651601Y-163917468D03*
%TD*%
D13*
%TO.P,D19,1*%
%TO.N,P017*%
X184271601Y-114457468D03*
D14*
X182111601Y-114457468D03*
%TO.P,D19,2*%
%TO.N,5tgbcol_qwerow*%
X178811601Y-114457468D03*
D15*
X176651601Y-114457468D03*
%TD*%
D13*
%TO.P,D9,1*%
%TO.N,P022*%
X146271601Y-152457468D03*
D14*
X144111601Y-152457468D03*
%TO.P,D9,2*%
%TO.N,3edccol_zxcrow*%
X140811601Y-152457468D03*
D15*
X138651601Y-152457468D03*
%TD*%
D13*
%TO.P,D8,1*%
%TO.N,P008*%
X127271601Y-95457468D03*
D14*
X125111601Y-95457468D03*
%TO.P,D8,2*%
%TO.N,2wsxcol_numberrow*%
X121811601Y-95457468D03*
D15*
X119651601Y-95457468D03*
%TD*%
D13*
%TO.P,D10,1*%
%TO.N,P020*%
X146271601Y-133457468D03*
D14*
X144111601Y-133457468D03*
%TO.P,D10,2*%
%TO.N,3edccol_asdrow*%
X140811601Y-133457468D03*
D15*
X138651601Y-133457468D03*
%TD*%
D12*
%TO.P,S14,1*%
%TO.N,P113*%
X160001601Y-121377468D03*
%TO.P,S14,2*%
%TO.N,4rfvcol_asdrow*%
X153651601Y-123917468D03*
%TD*%
D13*
%TO.P,D1,1*%
%TO.N,P022*%
X108271601Y-152457468D03*
D14*
X106111601Y-152457468D03*
%TO.P,D1,2*%
%TO.N,1qazcol_zxcrow*%
X102811601Y-152457468D03*
D15*
X100651601Y-152457468D03*
%TD*%
D20*
%TO.P,T1,*%
%TO.N,*%
X242500000Y-57000000D03*
X244700000Y-57000000D03*
D21*
X243600000Y-54800000D03*
X243600000Y-51800000D03*
D20*
X242500000Y-49600000D03*
X244700000Y-49600000D03*
D22*
%TO.P,T1,1*%
%TO.N,batteryplus*%
X241525000Y-55550000D03*
%TO.P,T1,2*%
%TO.N,RAW*%
X241525000Y-52550000D03*
%TO.P,T1,3*%
%TO.N,N/C*%
X241525000Y-51050000D03*
%TD*%
D23*
%TO.N,P029*%
X188100000Y-118300000D03*
X232200000Y-91100000D03*
%TO.N,P002*%
X188400000Y-99700000D03*
%TO.N,P115*%
X188000000Y-88100000D03*
%TO.N,P113*%
X210100000Y-75900000D03*
X210100000Y-85100000D03*
%TO.N,P031*%
X233500000Y-92400000D03*
X188900000Y-137700000D03*
%TO.N,GND*%
X207100000Y-57200000D03*
X207100000Y-69600000D03*
X238200000Y-59100000D03*
X240800000Y-59000000D03*
%TO.N,RST*%
X240200000Y-64900000D03*
X238500000Y-64900000D03*
%TD*%
D24*
%TO.N,P008*%
X106111601Y-95457468D02*
X108271601Y-95457468D01*
%TO.N,P029*%
X108500000Y-118500000D02*
X187900000Y-118500000D01*
X232200000Y-63400000D02*
X232200000Y-62600000D01*
X187900000Y-118500000D02*
X188100000Y-118300000D01*
X103001601Y-121377468D02*
X105879069Y-118500000D01*
X108500000Y-118500000D02*
X108700000Y-118500000D01*
X232200000Y-62600000D02*
X231787468Y-62187468D01*
X232200000Y-91100000D02*
X232200000Y-63400000D01*
X231787468Y-62187468D02*
X230081601Y-62187468D01*
X105879069Y-118500000D02*
X108500000Y-118500000D01*
%TO.N,1qazcol_zxcrow*%
X100651601Y-152457468D02*
X102811601Y-152457468D01*
X96651601Y-143551601D02*
X97600000Y-144500000D01*
X96651601Y-142917468D02*
X96651601Y-143551601D01*
X97600000Y-144500000D02*
X97600000Y-149405867D01*
X97600000Y-149405867D02*
X100651601Y-152457468D01*
%TO.N,1qazcol_asdrow*%
X96651601Y-123917468D02*
X96651601Y-124451601D01*
X97700000Y-125500000D02*
X97700000Y-130505867D01*
X97700000Y-130505867D02*
X100651601Y-133457468D01*
X96651601Y-124451601D02*
X97700000Y-125500000D01*
X100651601Y-133457468D02*
X102811601Y-133457468D01*
%TO.N,1qazcol_qwerow*%
X97500000Y-106500000D02*
X97500000Y-111305867D01*
X100651601Y-114457468D02*
X102811601Y-114457468D01*
X97300000Y-106300000D02*
X97500000Y-106500000D01*
X96651601Y-104917468D02*
X97300000Y-105565867D01*
X97500000Y-111305867D02*
X100651601Y-114457468D01*
X97300000Y-105565867D02*
X97300000Y-106300000D01*
%TO.N,1qazcol_numberrow*%
X99057468Y-95457468D02*
X100651601Y-95457468D01*
X100651601Y-95457468D02*
X102811601Y-95457468D01*
X97400000Y-87200000D02*
X97400000Y-93800000D01*
X96651601Y-86451601D02*
X97400000Y-87200000D01*
X97400000Y-93800000D02*
X99057468Y-95457468D01*
X96651601Y-85917468D02*
X96651601Y-86451601D01*
%TO.N,P002*%
X124679069Y-99700000D02*
X188400000Y-99700000D01*
X122001601Y-102377468D02*
X124679069Y-99700000D01*
%TO.N,2wsxcol_zxcrow*%
X119651601Y-152457468D02*
X121811601Y-152457468D01*
X115651601Y-142917468D02*
X116200000Y-143465867D01*
X116200000Y-143465867D02*
X116200000Y-149005867D01*
X116200000Y-149005867D02*
X119651601Y-152457468D01*
%TO.N,2wsxcol_asdrow*%
X115651601Y-124651601D02*
X116500000Y-125500000D01*
X116500000Y-130305867D02*
X119651601Y-133457468D01*
X115651601Y-123917468D02*
X115651601Y-124651601D01*
X116500000Y-125500000D02*
X116500000Y-130305867D01*
X119651601Y-133457468D02*
X121811601Y-133457468D01*
%TO.N,2wsxcol_qwerow*%
X116600000Y-106300000D02*
X116600000Y-111405867D01*
X115651601Y-105351601D02*
X116600000Y-106300000D01*
X119651601Y-114457468D02*
X121811601Y-114457468D01*
X116600000Y-111405867D02*
X119651601Y-114457468D01*
X115651601Y-104917468D02*
X115651601Y-105351601D01*
%TO.N,2wsxcol_numberrow*%
X115651601Y-86651601D02*
X116500000Y-87500000D01*
X119651601Y-95457468D02*
X121811601Y-95457468D01*
X118494133Y-94300000D02*
X119651601Y-95457468D01*
X116500000Y-93400000D02*
X117400000Y-94300000D01*
X115651601Y-85917468D02*
X115651601Y-86651601D01*
X116500000Y-87500000D02*
X116500000Y-93400000D01*
X117400000Y-94300000D02*
X118494133Y-94300000D01*
%TO.N,P115*%
X141001601Y-83377468D02*
X147079069Y-77300000D01*
X147079069Y-77300000D02*
X147500000Y-77300000D01*
X187900000Y-77300000D02*
X188000000Y-77200000D01*
X147500000Y-77300000D02*
X187900000Y-77300000D01*
X188000000Y-77200000D02*
X188000000Y-88100000D01*
%TO.N,3edccol_zxcrow*%
X138651601Y-152457468D02*
X140811601Y-152457468D01*
X134651601Y-143751601D02*
X135600000Y-144700000D01*
X135600000Y-149405867D02*
X138651601Y-152457468D01*
X135600000Y-144700000D02*
X135600000Y-149405867D01*
X134651601Y-142917468D02*
X134651601Y-143751601D01*
%TO.N,3edccol_asdrow*%
X135700000Y-130505867D02*
X138651601Y-133457468D01*
X134651601Y-124751601D02*
X135700000Y-125800000D01*
X138651601Y-133457468D02*
X140811601Y-133457468D01*
X134651601Y-123917468D02*
X134651601Y-124751601D01*
X135700000Y-125800000D02*
X135700000Y-130505867D01*
%TO.N,3edccol_qwerow*%
X134651601Y-105351601D02*
X135600000Y-106300000D01*
X134651601Y-104917468D02*
X134651601Y-105351601D01*
X138651601Y-114457468D02*
X140811601Y-114457468D01*
X135600000Y-106300000D02*
X135600000Y-111405867D01*
X135600000Y-111405867D02*
X138651601Y-114457468D01*
%TO.N,3edccol_numberrow*%
X135500000Y-87400000D02*
X135500000Y-92305867D01*
X134651601Y-86551601D02*
X135500000Y-87400000D01*
X135500000Y-92305867D02*
X138651601Y-95457468D01*
X134651601Y-85917468D02*
X134651601Y-86551601D01*
X138651601Y-95457468D02*
X140811601Y-95457468D01*
%TO.N,P113*%
X210100000Y-75900000D02*
X210100000Y-85100000D01*
%TO.N,4rfvcol_zxcrow*%
X154500000Y-144900000D02*
X154500000Y-149305867D01*
X154500000Y-149305867D02*
X157651601Y-152457468D01*
X153651601Y-142917468D02*
X153651601Y-144051601D01*
X153651601Y-144051601D02*
X154500000Y-144900000D01*
X157651601Y-152457468D02*
X159811601Y-152457468D01*
%TO.N,4rfvcol_asdrow*%
X157651601Y-133457468D02*
X159811601Y-133457468D01*
X153651601Y-124951601D02*
X154700000Y-126000000D01*
X154700000Y-126000000D02*
X154700000Y-130505867D01*
X153651601Y-123917468D02*
X153651601Y-124951601D01*
X154700000Y-130505867D02*
X157651601Y-133457468D01*
%TO.N,4rfvcol_qwerow*%
X154500000Y-106400000D02*
X154500000Y-111305867D01*
X153651601Y-104917468D02*
X153651601Y-105551601D01*
X154500000Y-111305867D02*
X157651601Y-114457468D01*
X153651601Y-105551601D02*
X154500000Y-106400000D01*
X157651601Y-114457468D02*
X159811601Y-114457468D01*
%TO.N,4rfvcol_numberrow*%
X157651601Y-95457468D02*
X159811601Y-95457468D01*
X153651601Y-86451601D02*
X154600000Y-87400000D01*
X154600000Y-87400000D02*
X154600000Y-92405867D01*
X154600000Y-92405867D02*
X157651601Y-95457468D01*
X153651601Y-85917468D02*
X153651601Y-86451601D01*
%TO.N,5tgbcol_zxcrow*%
X172651601Y-142917468D02*
X172651601Y-143951601D01*
X172651601Y-143951601D02*
X173300000Y-144600000D01*
X173300000Y-144600000D02*
X173300000Y-149105867D01*
X176651601Y-152457468D02*
X178811601Y-152457468D01*
X173300000Y-149105867D02*
X176651601Y-152457468D01*
%TO.N,5tgbcol_asdrow*%
X176651601Y-133457468D02*
X178811601Y-133457468D01*
X172651601Y-125151601D02*
X173700000Y-126200000D01*
X173700000Y-130505867D02*
X176651601Y-133457468D01*
X172651601Y-123917468D02*
X172651601Y-125151601D01*
X173700000Y-126200000D02*
X173700000Y-130505867D01*
%TO.N,5tgbcol_qwerow*%
X173500000Y-111305867D02*
X176651601Y-114457468D01*
X173500000Y-106100000D02*
X173500000Y-111305867D01*
X172651601Y-105251601D02*
X173500000Y-106100000D01*
X176651601Y-114457468D02*
X178811601Y-114457468D01*
X172651601Y-104917468D02*
X172651601Y-105251601D01*
%TO.N,5tgbcol_numberrow*%
X173400000Y-92205867D02*
X176651601Y-95457468D01*
X173400000Y-86665867D02*
X173400000Y-92205867D01*
X172651601Y-85917468D02*
X173400000Y-86665867D01*
X176651601Y-95457468D02*
X178811601Y-95457468D01*
%TO.N,P031*%
X231334133Y-60900000D02*
X230081601Y-59647468D01*
X75679069Y-137700000D02*
X188900000Y-137700000D01*
X73001601Y-140377468D02*
X75679069Y-137700000D01*
X233500000Y-61100000D02*
X233300000Y-60900000D01*
X233300000Y-60900000D02*
X231334133Y-60900000D01*
X233500000Y-92400000D02*
X233500000Y-61100000D01*
%TO.N,tabcapsshift_tylda*%
X67400000Y-144500000D02*
X67400000Y-149205867D01*
X70651601Y-152457468D02*
X72811601Y-152457468D01*
X67400000Y-149205867D02*
X70651601Y-152457468D01*
X66651601Y-142917468D02*
X66651601Y-143751601D01*
X66651601Y-143751601D02*
X67400000Y-144500000D01*
%TO.N,tabcapsshift_tab*%
X66651601Y-124251601D02*
X67600000Y-125200000D01*
X67600000Y-130405867D02*
X70651601Y-133457468D01*
X67600000Y-125200000D02*
X67600000Y-130405867D01*
X66651601Y-123917468D02*
X66651601Y-124251601D01*
X70651601Y-133457468D02*
X72811601Y-133457468D01*
%TO.N,tabcapsshift_caps*%
X70651601Y-114457468D02*
X72811601Y-114457468D01*
X66651601Y-105151601D02*
X67600000Y-106100000D01*
X66651601Y-104917468D02*
X66651601Y-105151601D01*
X67600000Y-111405867D02*
X70651601Y-114457468D01*
X67600000Y-106100000D02*
X67600000Y-111405867D01*
%TO.N,tabcapsshift_shift*%
X70651601Y-95457468D02*
X72811601Y-95457468D01*
X67300000Y-87400000D02*
X67300000Y-92105867D01*
X66651601Y-86751601D02*
X67300000Y-87400000D01*
X67300000Y-92105867D02*
X70651601Y-95457468D01*
X66651601Y-85917468D02*
X66651601Y-86751601D01*
%TO.N,P006*%
X112071601Y-75257468D02*
X125161601Y-75257468D01*
X78271601Y-71457468D02*
X81771601Y-74957468D01*
X106111601Y-71457468D02*
X108271601Y-71457468D01*
X146271601Y-73547468D02*
X146271601Y-71457468D01*
X144461601Y-75357468D02*
X146271601Y-73547468D01*
X108271601Y-72647468D02*
X108271601Y-71457468D01*
X191074133Y-49487468D02*
X190561601Y-50000000D01*
X144111601Y-71457468D02*
X146271601Y-71457468D01*
X214841601Y-49487468D02*
X191074133Y-49487468D01*
X81771601Y-74957468D02*
X105961600Y-74957468D01*
X108271601Y-71457468D02*
X112071601Y-75257468D01*
X165271601Y-71457468D02*
X165271601Y-73647468D01*
X168561602Y-75257468D02*
X167702067Y-74397933D01*
X131261601Y-75357468D02*
X144461601Y-75357468D01*
X163111601Y-71457468D02*
X165271601Y-71457468D01*
X105961600Y-74957468D02*
X106509534Y-74409534D01*
X182111601Y-71457468D02*
X184271601Y-71457468D01*
X182861601Y-75257468D02*
X168561602Y-75257468D01*
X125111601Y-71457468D02*
X127271601Y-71457468D01*
X190561601Y-50000000D02*
X190561601Y-71457468D01*
X167702067Y-74397933D02*
X165271601Y-71967468D01*
X190561601Y-71457468D02*
X184271601Y-71457468D01*
X76111601Y-71457468D02*
X78271601Y-71457468D01*
X165271601Y-73647468D02*
X163361601Y-75557468D01*
X163361601Y-75557468D02*
X150371601Y-75557468D01*
X184271601Y-73847468D02*
X182861601Y-75257468D01*
X127271601Y-71457468D02*
X127361601Y-71457468D01*
X165271601Y-71967468D02*
X165271601Y-71457468D01*
X184271601Y-71457468D02*
X184271601Y-73847468D01*
X125161601Y-75257468D02*
X127271601Y-73147468D01*
X106509534Y-74409534D02*
X108271601Y-72647468D01*
X150371601Y-75557468D02*
X146271601Y-71457468D01*
X127271601Y-73147468D02*
X127271601Y-71457468D01*
X127361601Y-71457468D02*
X131261601Y-75357468D01*
%TO.N,P008*%
X145500000Y-98000000D02*
X146271601Y-97228399D01*
X80514133Y-97700000D02*
X106300000Y-97700000D01*
X110714133Y-97900000D02*
X125600000Y-97900000D01*
X146271601Y-95457468D02*
X147257468Y-95457468D01*
X192572532Y-52027468D02*
X191700000Y-52900000D01*
X164400000Y-98100000D02*
X165271601Y-97228399D01*
X165271601Y-95457468D02*
X165357468Y-95457468D01*
X163111601Y-95457468D02*
X165271601Y-95457468D01*
X108271601Y-95457468D02*
X110714133Y-97900000D01*
X184271601Y-96928399D02*
X184271601Y-95457468D01*
X168000000Y-98100000D02*
X183100000Y-98100000D01*
X147257468Y-95457468D02*
X149900000Y-98100000D01*
X131000000Y-98000000D02*
X145500000Y-98000000D01*
X125600000Y-97900000D02*
X127271601Y-96228399D01*
X146271601Y-97228399D02*
X146271601Y-95457468D01*
X191642532Y-95457468D02*
X184271601Y-95457468D01*
X191700000Y-95400000D02*
X191642532Y-95457468D01*
X128457468Y-95457468D02*
X131000000Y-98000000D01*
X76111601Y-95457468D02*
X78271601Y-95457468D01*
X191700000Y-52900000D02*
X191700000Y-95400000D01*
X165271601Y-97228399D02*
X165271601Y-95457468D01*
X106300000Y-97700000D02*
X108271601Y-95728399D01*
X144111601Y-95457468D02*
X146271601Y-95457468D01*
X125111601Y-95457468D02*
X127271601Y-95457468D01*
X127271601Y-96228399D02*
X127271601Y-95457468D01*
X108271601Y-95728399D02*
X108271601Y-95457468D01*
X165357468Y-95457468D02*
X168000000Y-98100000D01*
X214841601Y-52027468D02*
X192572532Y-52027468D01*
X149900000Y-98100000D02*
X164400000Y-98100000D01*
X127271601Y-95457468D02*
X128457468Y-95457468D01*
X183100000Y-98100000D02*
X184271601Y-96928399D01*
X78271601Y-95457468D02*
X80514133Y-97700000D01*
X182111601Y-95457468D02*
X184271601Y-95457468D01*
%TO.N,P017*%
X182300000Y-116900000D02*
X182400000Y-117000000D01*
X163100000Y-116900000D02*
X165271601Y-114728399D01*
X108271601Y-114571601D02*
X110500000Y-116800000D01*
X106111601Y-114457468D02*
X108271601Y-114457468D01*
X163111601Y-114457468D02*
X165271601Y-114457468D01*
X125000000Y-116729069D02*
X127271601Y-114457468D01*
X165271601Y-114457468D02*
X165271601Y-114471601D01*
X182111601Y-114457468D02*
X184271601Y-114457468D01*
X146271601Y-114457468D02*
X146357468Y-114457468D01*
X110500000Y-116800000D02*
X125000000Y-116800000D01*
X78271601Y-114457468D02*
X80714133Y-116900000D01*
X193100000Y-59700000D02*
X193100000Y-114157468D01*
X125000000Y-116800000D02*
X125000000Y-116729069D01*
X76111601Y-114457468D02*
X78271601Y-114457468D01*
X193100000Y-114157468D02*
X192800000Y-114457468D01*
X148800000Y-116900000D02*
X163100000Y-116900000D01*
X127457468Y-114457468D02*
X129800000Y-116800000D01*
X125111601Y-114457468D02*
X127271601Y-114457468D01*
X144111601Y-114457468D02*
X146271601Y-114457468D01*
X192800000Y-114457468D02*
X184271601Y-114457468D01*
X193152532Y-59647468D02*
X193100000Y-59700000D01*
X214841601Y-59647468D02*
X193152532Y-59647468D01*
X165271601Y-114471601D02*
X167700000Y-116900000D01*
X184271601Y-115128399D02*
X184271601Y-114457468D01*
X146271601Y-115028399D02*
X146271601Y-114457468D01*
X105829069Y-116900000D02*
X108271601Y-114457468D01*
X127271601Y-114457468D02*
X127457468Y-114457468D01*
X129800000Y-116800000D02*
X144500000Y-116800000D01*
X165271601Y-114728399D02*
X165271601Y-114457468D01*
X80714133Y-116900000D02*
X105829069Y-116900000D01*
X182400000Y-117000000D02*
X184271601Y-115128399D01*
X167700000Y-116900000D02*
X182300000Y-116900000D01*
X144500000Y-116800000D02*
X146271601Y-115028399D01*
X146357468Y-114457468D02*
X148800000Y-116900000D01*
X108271601Y-114457468D02*
X108271601Y-114571601D01*
%TO.N,P020*%
X144111601Y-133457468D02*
X146271601Y-133457468D01*
X195112532Y-62187468D02*
X214841601Y-62187468D01*
X148700000Y-136000000D02*
X163500000Y-136000000D01*
X127271601Y-133457468D02*
X127271601Y-133471601D01*
X165271601Y-133871601D02*
X167400000Y-136000000D01*
X127271601Y-133471601D02*
X129700000Y-135900000D01*
X146271601Y-133457468D02*
X146271601Y-133571601D01*
X145300000Y-135900000D02*
X146271601Y-134928399D01*
X194842532Y-133457468D02*
X194900000Y-133400000D01*
X106200000Y-136000000D02*
X108271601Y-133928399D01*
X194900000Y-133400000D02*
X194900000Y-62400000D01*
X78271601Y-133457468D02*
X80814133Y-136000000D01*
X108357468Y-133457468D02*
X110900000Y-136000000D01*
X106111601Y-133457468D02*
X108271601Y-133457468D01*
X110900000Y-136000000D02*
X126000000Y-136000000D01*
X146271601Y-133571601D02*
X148700000Y-136000000D01*
X125111601Y-133457468D02*
X127271601Y-133457468D01*
X182111601Y-133457468D02*
X184271601Y-133457468D01*
X184271601Y-134828399D02*
X184271601Y-133457468D01*
X163500000Y-136000000D02*
X165271601Y-134228399D01*
X184271601Y-133457468D02*
X194842532Y-133457468D01*
X194900000Y-62400000D02*
X195112532Y-62187468D01*
X163111601Y-133457468D02*
X165271601Y-133457468D01*
X146271601Y-134928399D02*
X146271601Y-133457468D01*
X165271601Y-133457468D02*
X165271601Y-133871601D01*
X165271601Y-134228399D02*
X165271601Y-133457468D01*
X108271601Y-133928399D02*
X108271601Y-133457468D01*
X129700000Y-135900000D02*
X145300000Y-135900000D01*
X80814133Y-136000000D02*
X106200000Y-136000000D01*
X167400000Y-136000000D02*
X183100000Y-136000000D01*
X126000000Y-136000000D02*
X127271601Y-134728399D01*
X127271601Y-134728399D02*
X127271601Y-133457468D01*
X108271601Y-133457468D02*
X108357468Y-133457468D01*
X76111601Y-133457468D02*
X78271601Y-133457468D01*
X183100000Y-136000000D02*
X184271601Y-134828399D01*
%TO.N,P022*%
X162500000Y-156000000D02*
X165271601Y-153228399D01*
X196372532Y-64727468D02*
X196000000Y-65100000D01*
X76111601Y-152457468D02*
X78271601Y-152457468D01*
X182111601Y-152457468D02*
X184271601Y-152457468D01*
X125500000Y-155600000D02*
X127271601Y-153828399D01*
X184271601Y-154128399D02*
X184271601Y-152457468D01*
X146271601Y-152471601D02*
X149800000Y-156000000D01*
X168814133Y-156000000D02*
X182400000Y-156000000D01*
X81200000Y-155400000D02*
X106700000Y-155400000D01*
X143700000Y-155800000D02*
X146271601Y-153228399D01*
X125111601Y-152457468D02*
X127271601Y-152457468D01*
X214841601Y-64727468D02*
X196372532Y-64727468D01*
X127271601Y-153828399D02*
X127271601Y-152457468D01*
X194900000Y-152457468D02*
X184271601Y-152457468D01*
X165271601Y-152457468D02*
X168814133Y-156000000D01*
X146271601Y-153228399D02*
X146271601Y-152457468D01*
X78271601Y-152457468D02*
X78271601Y-152471601D01*
X108271601Y-153828399D02*
X108271601Y-152457468D01*
X106700000Y-155400000D02*
X108271601Y-153828399D01*
X106111601Y-152457468D02*
X108271601Y-152457468D01*
X111414133Y-155600000D02*
X125500000Y-155600000D01*
X165271601Y-153228399D02*
X165271601Y-152457468D01*
X182400000Y-156000000D02*
X184271601Y-154128399D01*
X196000000Y-65100000D02*
X196000000Y-151357468D01*
X146271601Y-152457468D02*
X146271601Y-152471601D01*
X196000000Y-151357468D02*
X194900000Y-152457468D01*
X163111601Y-152457468D02*
X165271601Y-152457468D01*
X149800000Y-156000000D02*
X162500000Y-156000000D01*
X78271601Y-152471601D02*
X81200000Y-155400000D01*
X108271601Y-152457468D02*
X111414133Y-155600000D01*
X130614133Y-155800000D02*
X143700000Y-155800000D01*
X127271601Y-152457468D02*
X130614133Y-155800000D01*
X144111601Y-152457468D02*
X146271601Y-152457468D01*
%TO.N,P024*%
X179271601Y-202500000D02*
X183871601Y-207100000D01*
X197500000Y-170600000D02*
X197500000Y-67300000D01*
X177111601Y-173457468D02*
X179271601Y-173457468D01*
X176000000Y-177100000D02*
X179271601Y-173828399D01*
X194181303Y-207100000D02*
X197356657Y-203924646D01*
X138271601Y-174628399D02*
X138271601Y-173457468D01*
X179271601Y-173457468D02*
X179271601Y-173271601D01*
X108271601Y-173471601D02*
X111800000Y-177000000D01*
X179271601Y-173271601D02*
X179200000Y-173200000D01*
X105600000Y-176900000D02*
X108271601Y-174228399D01*
X81400000Y-176585867D02*
X81400000Y-176900000D01*
X197356657Y-203924646D02*
X197356657Y-207756657D01*
X197356657Y-207756657D02*
X211900000Y-222300000D01*
X179271601Y-173828399D02*
X179271601Y-173457468D01*
X211900000Y-222300000D02*
X221800000Y-222300000D01*
X81400000Y-176900000D02*
X105600000Y-176900000D01*
X106111601Y-173457468D02*
X108271601Y-173457468D01*
X222257419Y-217844646D02*
X223337419Y-218924646D01*
X136111601Y-173457468D02*
X138271601Y-173457468D01*
X223337419Y-220762581D02*
X223337419Y-218924646D01*
X196276657Y-202844646D02*
X197356657Y-203924646D01*
X194900000Y-173200000D02*
X197500000Y-170600000D01*
X221466804Y-217844646D02*
X222257419Y-217844646D01*
X179271601Y-173457468D02*
X179271601Y-202500000D01*
X197500000Y-67300000D02*
X197532532Y-67267468D01*
X135900000Y-177000000D02*
X138271601Y-174628399D01*
X183871601Y-207100000D02*
X194181303Y-207100000D01*
X142000000Y-177100000D02*
X176000000Y-177100000D01*
X76111601Y-173457468D02*
X78271601Y-173457468D01*
X195486042Y-202844646D02*
X196276657Y-202844646D01*
X179200000Y-173200000D02*
X194900000Y-173200000D01*
X111800000Y-177000000D02*
X135900000Y-177000000D01*
X108271601Y-173457468D02*
X108271601Y-173471601D01*
X138271601Y-173457468D02*
X138357468Y-173457468D01*
X221800000Y-222300000D02*
X223337419Y-220762581D01*
X138357468Y-173457468D02*
X142000000Y-177100000D01*
X197532532Y-67267468D02*
X214841601Y-67267468D01*
X108271601Y-174228399D02*
X108271601Y-173457468D01*
X78271601Y-173457468D02*
X81400000Y-176585867D01*
%TO.N,esc_escaperow*%
X67461601Y-63457468D02*
X67461601Y-70519069D01*
X66651601Y-62647468D02*
X67461601Y-63457468D01*
X68400000Y-71457468D02*
X70651601Y-71457468D01*
X66651601Y-61917468D02*
X66651601Y-62647468D01*
X70651601Y-71457468D02*
X72811601Y-71457468D01*
X67461601Y-70519069D02*
X68400000Y-71457468D01*
%TO.N,f1_escaperow*%
X100651601Y-71457468D02*
X102811601Y-71457468D01*
X97361601Y-63557468D02*
X97361601Y-68167468D01*
X97361601Y-68167468D02*
X100651601Y-71457468D01*
X96651601Y-61917468D02*
X96651601Y-62847468D01*
X96651601Y-62847468D02*
X97361601Y-63557468D01*
%TO.N,f2_escaperow*%
X116461601Y-70957468D02*
X116961601Y-71457468D01*
X116961601Y-71457468D02*
X119651601Y-71457468D01*
X119651601Y-71457468D02*
X121811601Y-71457468D01*
X115651601Y-62647468D02*
X116361601Y-63357468D01*
X115651601Y-61917468D02*
X115651601Y-62647468D01*
X116361601Y-63357468D02*
X116361601Y-70957468D01*
X116361601Y-70957468D02*
X116461601Y-70957468D01*
%TO.N,f3_escaperow*%
X138651601Y-71457468D02*
X140811601Y-71457468D01*
X135361601Y-62627468D02*
X135361601Y-70357468D01*
X134651601Y-61917468D02*
X135361601Y-62627468D01*
X135361601Y-70357468D02*
X136461601Y-71457468D01*
X136461601Y-71457468D02*
X138651601Y-71457468D01*
%TO.N,f4_escaperow*%
X153651601Y-61917468D02*
X154461601Y-62727468D01*
X157651601Y-71457468D02*
X159811601Y-71457468D01*
X154461601Y-62727468D02*
X154461601Y-68267468D01*
X154461601Y-68267468D02*
X157651601Y-71457468D01*
%TO.N,f5_escaperow*%
X173461601Y-68267468D02*
X176651601Y-71457468D01*
X176651601Y-71457468D02*
X178811601Y-71457468D01*
X173461601Y-62727468D02*
X173461601Y-68267468D01*
X172651601Y-61917468D02*
X173461601Y-62727468D01*
%TO.N,ctrl_thumbrow*%
X66651601Y-164651601D02*
X67400000Y-165400000D01*
X70651601Y-173457468D02*
X72811601Y-173457468D01*
X67400000Y-170205867D02*
X70651601Y-173457468D01*
X66651601Y-163917468D02*
X66651601Y-164651601D01*
X67400000Y-165400000D02*
X67400000Y-170205867D01*
%TO.N,winkey_thumbrow*%
X97600000Y-165400000D02*
X97600000Y-170405867D01*
X100651601Y-173457468D02*
X102811601Y-173457468D01*
X96651601Y-163917468D02*
X96651601Y-164451601D01*
X96651601Y-164451601D02*
X97600000Y-165400000D01*
X97600000Y-170405867D02*
X100651601Y-173457468D01*
%TO.N,alt_thumbrow*%
X127200000Y-164465867D02*
X127200000Y-170005867D01*
X126651601Y-163917468D02*
X126651601Y-164851601D01*
X127200000Y-170005867D02*
X130651601Y-173457468D01*
X126651601Y-163917468D02*
X127200000Y-164465867D01*
X130651601Y-173457468D02*
X132811601Y-173457468D01*
%TO.N,space_thumbrow*%
X167651601Y-163917468D02*
X168100000Y-164365867D01*
X168100000Y-169905867D02*
X171651601Y-173457468D01*
X171651601Y-173457468D02*
X173811601Y-173457468D01*
X168100000Y-164365867D02*
X168100000Y-169905867D01*
%TO.N,ctrl2_thumbrow*%
X190700000Y-193700000D02*
X190757543Y-193757543D01*
X190700000Y-192832650D02*
X190700000Y-193700000D01*
X192063441Y-189852763D02*
X192063441Y-191469209D01*
X190757543Y-193757543D02*
X190757543Y-200114646D01*
X190757543Y-200114646D02*
X191548158Y-200114646D01*
X191548158Y-200114646D02*
X192628158Y-201194646D01*
X192063441Y-191469209D02*
X190700000Y-192832650D01*
%TO.N,thumbkey_thumbrow*%
X218044203Y-206455797D02*
X217100000Y-207400000D01*
X217100000Y-207400000D02*
X217100000Y-207700000D01*
X218044203Y-204852763D02*
X218044203Y-206455797D01*
X217528920Y-215114646D02*
X218608920Y-216194646D01*
X216738305Y-215114646D02*
X217528920Y-215114646D01*
X216738305Y-208061695D02*
X216738305Y-215114646D01*
X217100000Y-207700000D02*
X216738305Y-208061695D01*
%TO.N,GND*%
X217381601Y-52027468D02*
X214841601Y-54567468D01*
X207900000Y-57107468D02*
X207192532Y-57107468D01*
X207192532Y-57107468D02*
X207100000Y-57200000D01*
X207100000Y-96800000D02*
X207100000Y-69600000D01*
X207807468Y-57107468D02*
X207900000Y-57107468D01*
X230081601Y-52027468D02*
X217381601Y-52027468D01*
X207900000Y-57107468D02*
X214841601Y-57107468D01*
X214841601Y-54567468D02*
X214841601Y-57107468D01*
X233027468Y-52027468D02*
X230081601Y-52027468D01*
X238100000Y-59000000D02*
X238100000Y-52500000D01*
X233500000Y-52500000D02*
X233027468Y-52027468D01*
X238200000Y-59100000D02*
X238100000Y-59000000D01*
X238100000Y-52500000D02*
X233500000Y-52500000D01*
X242500000Y-60700000D02*
X240800000Y-59000000D01*
%TO.N,RST*%
X237000000Y-54600000D02*
X236800000Y-54600000D01*
X237000000Y-63400000D02*
X237000000Y-54600000D01*
X242500000Y-64900000D02*
X240200000Y-64900000D01*
X238500000Y-64900000D02*
X237000000Y-63400000D01*
X236800000Y-54600000D02*
X236767468Y-54567468D01*
X236767468Y-54567468D02*
X230081601Y-54567468D01*
%TO.N,RAW*%
X241525000Y-52550000D02*
X239550000Y-52550000D01*
X230287468Y-49487468D02*
X230081601Y-49487468D01*
X230300000Y-49500000D02*
X230287468Y-49487468D01*
X239550000Y-52550000D02*
X236500000Y-49500000D01*
X236500000Y-49500000D02*
X230300000Y-49500000D01*
%TO.N,batteryplus*%
X230500000Y-96700000D02*
X239300000Y-96700000D01*
X239450000Y-55550000D02*
X241525000Y-55550000D01*
X239400000Y-96600000D02*
X239400000Y-55600000D01*
X239300000Y-96700000D02*
X239400000Y-96600000D01*
X239400000Y-55600000D02*
X239450000Y-55550000D01*
%TD*%
M02*
