0
SECTION
2
HEADER
9
$INSUNITS
70
4
0
ENDSEC
0
SECTION
2
TABLES
0
TABLE
2
LTYPE
0
LTYPE
72
65
70
64
2
CONTINUOUS
3
______
73
0
40
0
0
ENDTAB
0
TABLE
2
LAYER
0
ENDTAB
0
ENDSEC
0
SECTION
2
ENTITIES
0
LINE
8
0
10
196
20
-78.5991455
11
196
21
98
0
LINE
8
0
10
198
20
100
11
461
21
100
0
LINE
8
0
10
463
20
-47.4240739
11
463
21
98
0
LINE
8
0
10
461.4677866
20
-49.3685985
11
251.5854111
21
-99.85917
0
LINE
8
0
10
250.4341384
20
-99.7942321
11
197.3165138
21
-80.4787323
0
ARC
8
0
10
198
20
98
40
2
50
90
51
180
0
ARC
8
0
10
461
20
98
40
2
50
0
51
90
0
ARC
8
0
10
461
20
-47.4240739
40
2
50
283.5263952
51
0
0
ARC
8
0
10
251.1176245
20
-97.9146454
40
2
50
250.016891
51
283.5263952
0
ARC
8
0
10
198
20
-78.5991455
40
2
50
180
51
250.016891
0
ENDSEC
0
EOF