0
SECTION
2
HEADER
9
$INSUNITS
70
4
0
ENDSEC
0
SECTION
2
TABLES
0
TABLE
2
LTYPE
0
LTYPE
72
65
70
64
2
CONTINUOUS
3
______
73
0
40
0
0
ENDTAB
0
TABLE
2
LAYER
0
ENDTAB
0
ENDSEC
0
SECTION
2
ENTITIES
0
LINE
8
0
10
-49
20
-38.6559408
11
-49
21
98
0
LINE
8
0
10
-47
20
100
11
143
21
100
0
LINE
8
0
10
145
20
98
11
145
21
38.0098586
0
LINE
8
0
10
144.9999027
20
37.9901344
11
143.8768954
21
-75.8751981
0
LINE
8
0
10
142.2672186
20
-77.8170354
11
76.5893696
21
-90.8827529
0
LINE
8
0
10
75.4436088
20
-90.7729924
11
-47.7555348
21
-40.5077418
0
ARC
8
0
10
-47
20
98
40
2
50
90
51
180
0
ARC
8
0
10
143
20
98
40
2
50
0
51
90
0
ARC
8
0
10
143
20
38.0098586
40
2
50
359.4349342
51
0
0
ARC
8
0
10
141.8769927
20
-75.8554739
40
2
50
281.2513245
51
359.4349342
0
ARC
8
0
10
76.1991436
20
-88.9211914
40
2
50
247.8045407
51
281.2513245
0
ARC
8
0
10
-47
20
-38.6559408
40
2
50
180
51
247.8045407
0
ENDSEC
0
EOF