0
SECTION
2
HEADER
9
$INSUNITS
70
4
0
ENDSEC
0
SECTION
2
TABLES
0
TABLE
2
LTYPE
0
LTYPE
72
65
70
64
2
CONTINUOUS
3
______
73
0
40
0
0
ENDTAB
0
TABLE
2
LAYER
0
ENDTAB
0
ENDSEC
0
SECTION
2
ENTITIES
0
LINE
8
0
10
-9.5
20
-9.5
11
85.5
21
-9.5
0
LINE
8
0
10
-9.5
20
-9.5
11
-9.5
21
66.5
0
LINE
8
0
10
-9.5
20
66.5
11
85.5
21
66.5
0
LINE
8
0
10
85.5
20
-9.5
11
85.5
21
66.5
0
LINE
8
0
10
-39.5
20
-9.5
11
-20.5
21
-9.5
0
LINE
8
0
10
-20.5
20
-9.5
11
-20.5
21
66.5
0
LINE
8
0
10
-39.5
20
-9.5
11
-39.5
21
66.5
0
LINE
8
0
10
-20.5
20
66.5
11
-39.5
21
66.5
0
LINE
8
0
10
260.5
20
-9.5
11
393.5
21
-9.5
0
LINE
8
0
10
260.5
20
-9.5
11
260.5
21
66.5
0
LINE
8
0
10
260.5
20
66.5
11
393.5
21
66.5
0
LINE
8
0
10
393.5
20
-9.5
11
393.5
21
66.5
0
LINE
8
0
10
-39.5
20
71.5
11
-20.5
21
71.5
0
LINE
8
0
10
-20.5
20
71.5
11
-20.5
21
90.5
0
LINE
8
0
10
-20.5
20
90.5
11
-39.5
21
90.5
0
LINE
8
0
10
-39.5
20
90.5
11
-39.5
21
71.5
0
LINE
8
0
10
-9.5
20
71.5
11
85.5
21
71.5
0
LINE
8
0
10
-9.5
20
90.5
11
85.5
21
90.5
0
LINE
8
0
10
-9.5
20
90.5
11
-9.5
21
71.5
0
LINE
8
0
10
85.5
20
71.5
11
85.5
21
90.5
0
LINE
8
0
10
-39.5
20
-30.5
11
-20.5
21
-30.5
0
LINE
8
0
10
-20.5
20
-30.5
11
-20.5
21
-11.5
0
LINE
8
0
10
-20.5
20
-11.5
11
-39.5
21
-11.5
0
LINE
8
0
10
-39.5
20
-11.5
11
-39.5
21
-30.5
0
LINE
8
0
10
-9.5
20
-30.5
11
9.5
21
-30.5
0
LINE
8
0
10
9.5
20
-30.5
11
9.5
21
-11.5
0
LINE
8
0
10
9.5
20
-11.5
11
-9.5
21
-11.5
0
LINE
8
0
10
-9.5
20
-11.5
11
-9.5
21
-30.5
0
LINE
8
0
10
20.5
20
-30.5
11
39.5
21
-30.5
0
LINE
8
0
10
39.5
20
-30.5
11
39.5
21
-11.5
0
LINE
8
0
10
39.5
20
-11.5
11
20.5
21
-11.5
0
LINE
8
0
10
20.5
20
-11.5
11
20.5
21
-30.5
0
LINE
8
0
10
61.5
20
-30.5
11
80.5
21
-30.5
0
LINE
8
0
10
80.5
20
-30.5
11
80.5
21
-11.5
0
LINE
8
0
10
80.5
20
-11.5
11
61.5
21
-11.5
0
LINE
8
0
10
61.5
20
-11.5
11
61.5
21
-30.5
0
LINE
8
0
10
80.6541559
20
-51.9772413
11
97.1086385
21
-61.4772413
0
LINE
8
0
10
97.1086385
20
-61.4772413
11
106.6086385
21
-45.0227587
0
LINE
8
0
10
106.6086385
20
-45.0227587
11
90.1541559
21
-35.5227587
0
LINE
8
0
10
90.1541559
20
-35.5227587
11
80.6541559
21
-51.9772413
0
LINE
8
0
10
106.634918
20
-66.9772413
11
123.0894006
21
-76.4772413
0
LINE
8
0
10
123.0894006
20
-76.4772413
11
132.5894006
21
-60.0227587
0
LINE
8
0
10
132.5894006
20
-60.0227587
11
116.134918
21
-50.5227587
0
LINE
8
0
10
116.134918
20
-50.5227587
11
106.634918
21
-66.9772413
0
LINE
8
0
10
260.5
20
71.5
11
393.5
21
71.5
0
LINE
8
0
10
260.5
20
90.5
11
393.5
21
90.5
0
LINE
8
0
10
260.5
20
90.5
11
260.5
21
71.5
0
LINE
8
0
10
393.5
20
71.5
11
393.5
21
90.5
0
LINE
8
0
10
396.5
20
-28.5
11
453.5
21
-28.5
0
LINE
8
0
10
415.5
20
-9.5
11
396.5
21
-9.5
0
LINE
8
0
10
396.5
20
-9.5
11
396.5
21
-28.5
0
LINE
8
0
10
396.5
20
28.5
11
453.5
21
28.5
0
LINE
8
0
10
396.5
20
28.5
11
396.5
21
85.5
0
LINE
8
0
10
396.5
20
85.5
11
453.5
21
85.5
0
LINE
8
0
10
434.5
20
-9.5
11
434.5
21
9.5
0
LINE
8
0
10
434.5
20
9.5
11
415.5
21
9.5
0
LINE
8
0
10
415.5
20
9.5
11
415.5
21
-9.5
0
LINE
8
0
10
453.5
20
-28.5
11
453.5
21
-9.5
0
LINE
8
0
10
453.5
20
-9.5
11
434.5
21
-9.5
0
LINE
8
0
10
453.5
20
28.5
11
453.5
21
85.5
0
LINE
8
0
10
360.5
20
-30.5
11
379.5
21
-30.5
0
LINE
8
0
10
379.5
20
-30.5
11
379.5
21
-11.5
0
LINE
8
0
10
379.5
20
-11.5
11
360.5
21
-11.5
0
LINE
8
0
10
360.5
20
-11.5
11
360.5
21
-30.5
0
LINE
8
0
10
330.5
20
-30.5
11
349.5
21
-30.5
0
LINE
8
0
10
349.5
20
-30.5
11
349.5
21
-11.5
0
LINE
8
0
10
349.5
20
-11.5
11
330.5
21
-11.5
0
LINE
8
0
10
330.5
20
-11.5
11
330.5
21
-30.5
0
LINE
8
0
10
300.5
20
-30.5
11
319.5
21
-30.5
0
LINE
8
0
10
319.5
20
-30.5
11
319.5
21
-11.5
0
LINE
8
0
10
319.5
20
-11.5
11
300.5
21
-11.5
0
LINE
8
0
10
300.5
20
-11.5
11
300.5
21
-30.5
0
LINE
8
0
10
259.5
20
-30.5
11
278.5
21
-30.5
0
LINE
8
0
10
278.5
20
-30.5
11
278.5
21
-11.5
0
LINE
8
0
10
278.5
20
-11.5
11
259.5
21
-11.5
0
LINE
8
0
10
259.5
20
-11.5
11
259.5
21
-30.5
0
LINE
8
0
10
242.8913615
20
-61.4772413
11
259.3458441
21
-51.9772413
0
LINE
8
0
10
259.3458441
20
-51.9772413
11
249.8458441
21
-35.5227587
0
LINE
8
0
10
249.8458441
20
-35.5227587
11
233.3913615
21
-45.0227587
0
LINE
8
0
10
233.3913615
20
-45.0227587
11
242.8913615
21
-61.4772413
0
LINE
8
0
10
216.9105994
20
-76.4772413
11
233.365082
21
-66.9772413
0
LINE
8
0
10
233.365082
20
-66.9772413
11
223.865082
21
-50.5227587
0
LINE
8
0
10
223.865082
20
-50.5227587
11
207.4105994
21
-60.0227587
0
LINE
8
0
10
207.4105994
20
-60.0227587
11
216.9105994
21
-76.4772413
0
LINE
8
0
10
-59
20
-121
11
-59
21
110
0
LINE
8
0
10
-59
20
110
11
155
21
110
0
LINE
8
0
10
155
20
110
11
155
21
38
0
LINE
8
0
10
155
20
38
11
154.2531755
21
-83.5
0
LINE
8
0
10
154.2531755
20
-83.5
11
76
21
-122
0
LINE
8
0
10
76
20
-122
11
-59
21
-121
0
LINE
8
0
10
186
20
-80
11
186
21
110
0
LINE
8
0
10
186
20
110
11
473
21
110
0
LINE
8
0
10
473
20
110
11
473
21
-38
0
LINE
8
0
10
473
20
-38
11
463
21
-119
0
LINE
8
0
10
463
20
-119
11
251
21
-120
0
LINE
8
0
10
251
20
-120
11
186
21
-80
0
ENDSEC
0
EOF