0
SECTION
2
HEADER
9
$INSUNITS
70
4
0
ENDSEC
0
SECTION
2
TABLES
0
TABLE
2
LTYPE
0
LTYPE
72
65
70
64
2
CONTINUOUS
3
______
73
0
40
0
0
ENDTAB
0
TABLE
2
LAYER
0
ENDTAB
0
ENDSEC
0
SECTION
2
ENTITIES
0
LINE
8
0
10
-7.5
20
-9.5
11
83.5
21
-9.5
0
LINE
8
0
10
-9.5
20
-7.5
11
-9.5
21
64.5
0
LINE
8
0
10
-7.5
20
66.5
11
83.5
21
66.5
0
LINE
8
0
10
85.5
20
-7.5
11
85.5
21
64.5
0
LINE
8
0
10
-37.5
20
-9.5
11
-22.5
21
-9.5
0
LINE
8
0
10
-20.5
20
-7.5
11
-20.5
21
64.5
0
LINE
8
0
10
-39.5
20
-7.5
11
-39.5
21
64.5
0
LINE
8
0
10
-22.5
20
66.5
11
-37.5
21
66.5
0
LINE
8
0
10
262.5
20
-9.5
11
391.5
21
-9.5
0
LINE
8
0
10
260.5
20
-7.5
11
260.5
21
64.5
0
LINE
8
0
10
262.5
20
66.5
11
391.5
21
66.5
0
LINE
8
0
10
393.5
20
-7.5
11
393.5
21
64.5
0
LINE
8
0
10
-37.5
20
71.5
11
-22.5
21
71.5
0
LINE
8
0
10
-20.5
20
73.5
11
-20.5
21
88.5
0
LINE
8
0
10
-22.5
20
90.5
11
-37.5
21
90.5
0
LINE
8
0
10
-39.5
20
88.5
11
-39.5
21
73.5
0
LINE
8
0
10
-7.5
20
71.5
11
83.5
21
71.5
0
LINE
8
0
10
-7.5
20
90.5
11
83.5
21
90.5
0
LINE
8
0
10
-9.5
20
88.5
11
-9.5
21
73.5
0
LINE
8
0
10
85.5
20
73.5
11
85.5
21
88.5
0
LINE
8
0
10
-37.5
20
-30.5
11
-22.5
21
-30.5
0
LINE
8
0
10
-20.5
20
-28.5
11
-20.5
21
-13.5
0
LINE
8
0
10
-22.5
20
-11.5
11
-37.5
21
-11.5
0
LINE
8
0
10
-39.5
20
-13.5
11
-39.5
21
-28.5
0
LINE
8
0
10
-7.5
20
-30.5
11
7.5
21
-30.5
0
LINE
8
0
10
9.5
20
-28.5
11
9.5
21
-13.5
0
LINE
8
0
10
7.5
20
-11.5
11
-7.5
21
-11.5
0
LINE
8
0
10
-9.5
20
-13.5
11
-9.5
21
-28.5
0
LINE
8
0
10
22.5
20
-30.5
11
37.5
21
-30.5
0
LINE
8
0
10
39.5
20
-28.5
11
39.5
21
-13.5
0
LINE
8
0
10
37.5
20
-11.5
11
22.5
21
-11.5
0
LINE
8
0
10
20.5
20
-13.5
11
20.5
21
-28.5
0
LINE
8
0
10
63.5
20
-30.5
11
78.5
21
-30.5
0
LINE
8
0
10
80.5
20
-28.5
11
80.5
21
-13.5
0
LINE
8
0
10
78.5
20
-11.5
11
63.5
21
-11.5
0
LINE
8
0
10
61.5
20
-13.5
11
61.5
21
-28.5
0
LINE
8
0
10
82.3862067
20
-52.9772413
11
95.3765877
21
-60.4772413
0
LINE
8
0
10
98.1086385
20
-59.7451905
11
105.6086385
21
-46.7548095
0
LINE
8
0
10
104.8765877
20
-44.0227587
11
91.8862067
21
-36.5227587
0
LINE
8
0
10
89.1541559
20
-37.2548095
11
81.6541559
21
-50.2451905
0
LINE
8
0
10
108.3669688
20
-67.9772413
11
121.3573498
21
-75.4772413
0
LINE
8
0
10
124.0894006
20
-74.7451905
11
131.5894006
21
-61.7548095
0
LINE
8
0
10
130.8573498
20
-59.0227587
11
117.8669688
21
-51.5227587
0
LINE
8
0
10
115.134918
20
-52.2548095
11
107.634918
21
-65.2451905
0
LINE
8
0
10
262.5
20
71.5
11
391.5
21
71.5
0
LINE
8
0
10
262.5
20
90.5
11
391.5
21
90.5
0
LINE
8
0
10
260.5
20
88.5
11
260.5
21
73.5
0
LINE
8
0
10
393.5
20
73.5
11
393.5
21
88.5
0
LINE
8
0
10
398.5
20
-28.5
11
451.5
21
-28.5
0
LINE
8
0
10
413.5
20
-9.5
11
398.5
21
-9.5
0
LINE
8
0
10
396.5
20
-11.5
11
396.5
21
-26.5
0
LINE
8
0
10
398.5
20
28.5
11
451.5
21
28.5
0
LINE
8
0
10
396.5
20
30.5
11
396.5
21
83.5
0
LINE
8
0
10
398.5
20
85.5
11
451.5
21
85.5
0
LINE
8
0
10
434.5
20
-7.5
11
434.5
21
7.5
0
LINE
8
0
10
432.5
20
9.5
11
417.5
21
9.5
0
LINE
8
0
10
415.5
20
7.5
11
415.5
21
-7.5
0
LINE
8
0
10
453.5
20
-26.5
11
453.5
21
-11.5
0
LINE
8
0
10
451.5
20
-9.5
11
436.5
21
-9.5
0
LINE
8
0
10
453.5
20
30.5
11
453.5
21
83.5
0
LINE
8
0
10
362.5
20
-30.5
11
377.5
21
-30.5
0
LINE
8
0
10
379.5
20
-28.5
11
379.5
21
-13.5
0
LINE
8
0
10
377.5
20
-11.5
11
362.5
21
-11.5
0
LINE
8
0
10
360.5
20
-13.5
11
360.5
21
-28.5
0
LINE
8
0
10
332.5
20
-30.5
11
347.5
21
-30.5
0
LINE
8
0
10
349.5
20
-28.5
11
349.5
21
-13.5
0
LINE
8
0
10
347.5
20
-11.5
11
332.5
21
-11.5
0
LINE
8
0
10
330.5
20
-13.5
11
330.5
21
-28.5
0
LINE
8
0
10
302.5
20
-30.5
11
317.5
21
-30.5
0
LINE
8
0
10
319.5
20
-28.5
11
319.5
21
-13.5
0
LINE
8
0
10
317.5
20
-11.5
11
302.5
21
-11.5
0
LINE
8
0
10
300.5
20
-13.5
11
300.5
21
-28.5
0
LINE
8
0
10
261.5
20
-30.5
11
276.5
21
-30.5
0
LINE
8
0
10
278.5
20
-28.5
11
278.5
21
-13.5
0
LINE
8
0
10
276.5
20
-11.5
11
261.5
21
-11.5
0
LINE
8
0
10
259.5
20
-13.5
11
259.5
21
-28.5
0
LINE
8
0
10
244.6234123
20
-60.4772413
11
257.6137933
21
-52.9772413
0
LINE
8
0
10
258.3458441
20
-50.2451905
11
250.8458441
21
-37.2548095
0
LINE
8
0
10
248.1137933
20
-36.5227587
11
235.1234123
21
-44.0227587
0
LINE
8
0
10
234.3913615
20
-46.7548095
11
241.8913615
21
-59.7451905
0
LINE
8
0
10
218.6426502
20
-75.4772413
11
231.6330312
21
-67.9772413
0
LINE
8
0
10
232.365082
20
-65.2451905
11
224.865082
21
-52.2548095
0
LINE
8
0
10
222.1330312
20
-51.5227587
11
209.1426502
21
-59.0227587
0
LINE
8
0
10
208.4105994
20
-61.7548095
11
215.9105994
21
-74.7451905
0
ARC
8
0
10
391.5
20
-7.5
40
2
50
270
51
0
0
ARC
8
0
10
391.5
20
64.5
40
2
50
0
51
90
0
ARC
8
0
10
262.5
20
64.5
40
2
50
90
51
180
0
ARC
8
0
10
262.5
20
-7.5
40
2
50
180
51
270
0
ARC
8
0
10
83.5
20
-7.5
40
2
50
270
51
0
0
ARC
8
0
10
83.5
20
64.5
40
2
50
0
51
90
0
ARC
8
0
10
-7.5
20
64.5
40
2
50
90
51
180
0
ARC
8
0
10
-7.5
20
-7.5
40
2
50
180
51
270
0
ARC
8
0
10
391.5
20
73.5
40
2
50
270
51
0
0
ARC
8
0
10
391.5
20
88.5
40
2
50
0
51
90
0
ARC
8
0
10
262.5
20
88.5
40
2
50
90
51
180
0
ARC
8
0
10
262.5
20
73.5
40
2
50
180
51
270
0
ARC
8
0
10
83.5
20
73.5
40
2
50
270
51
0
0
ARC
8
0
10
83.5
20
88.5
40
2
50
0
51
90
0
ARC
8
0
10
-7.5
20
88.5
40
2
50
90
51
180
0
ARC
8
0
10
-7.5
20
73.5
40
2
50
180
51
270
0
ARC
8
0
10
451.5
20
30.5
40
2
50
270
51
0
0
ARC
8
0
10
451.5
20
83.5
40
2
50
0
51
90
0
ARC
8
0
10
398.5
20
83.5
40
2
50
90
51
180
0
ARC
8
0
10
398.5
20
30.5
40
2
50
180
51
270
0
ARC
8
0
10
-22.5
20
-7.5
40
2
50
270
51
0
0
ARC
8
0
10
-22.5
20
64.5
40
2
50
0
51
90
0
ARC
8
0
10
-37.5
20
64.5
40
2
50
90
51
180
0
ARC
8
0
10
-37.5
20
-7.5
40
2
50
180
51
270
0
ARC
8
0
10
451.5
20
-26.5
40
2
50
270
51
0
0
ARC
8
0
10
451.5
20
-11.5
40
2
50
0
51
90
0
ARC
8
0
10
436.5
20
-7.5
40
2
50
180
51
270
0
ARC
8
0
10
432.5
20
7.5
40
2
50
0
51
90
0
ARC
8
0
10
417.5
20
7.5
40
2
50
90
51
180
0
ARC
8
0
10
413.5
20
-7.5
40
2
50
270
51
0
0
ARC
8
0
10
398.5
20
-11.5
40
2
50
90
51
180
0
ARC
8
0
10
398.5
20
-26.5
40
2
50
180
51
270
0
ARC
8
0
10
-22.5
20
73.5
40
2
50
270
51
0
0
ARC
8
0
10
-22.5
20
88.5
40
2
50
0
51
90
0
ARC
8
0
10
-37.5
20
88.5
40
2
50
90
51
180
0
ARC
8
0
10
-37.5
20
73.5
40
2
50
180
51
270
0
ARC
8
0
10
-22.5
20
-28.5
40
2
50
270
51
0
0
ARC
8
0
10
-22.5
20
-13.5
40
2
50
0
51
90
0
ARC
8
0
10
-37.5
20
-13.5
40
2
50
90
51
180
0
ARC
8
0
10
-37.5
20
-28.5
40
2
50
180
51
270
0
ARC
8
0
10
7.5
20
-28.5
40
2
50
270
51
0
0
ARC
8
0
10
7.5
20
-13.5
40
2
50
0
51
90
0
ARC
8
0
10
-7.5
20
-13.5
40
2
50
90
51
180
0
ARC
8
0
10
-7.5
20
-28.5
40
2
50
180
51
270
0
ARC
8
0
10
37.5
20
-28.5
40
2
50
270
51
0
0
ARC
8
0
10
37.5
20
-13.5
40
2
50
0
51
90
0
ARC
8
0
10
22.5
20
-13.5
40
2
50
90
51
180
0
ARC
8
0
10
22.5
20
-28.5
40
2
50
180
51
270
0
ARC
8
0
10
78.5
20
-28.5
40
2
50
270
51
0
0
ARC
8
0
10
78.5
20
-13.5
40
2
50
0
51
90
0
ARC
8
0
10
63.5
20
-13.5
40
2
50
90
51
180
0
ARC
8
0
10
63.5
20
-28.5
40
2
50
180
51
270
0
ARC
8
0
10
377.5
20
-28.5
40
2
50
270
51
0
0
ARC
8
0
10
377.5
20
-13.5
40
2
50
0
51
90
0
ARC
8
0
10
362.5
20
-13.5
40
2
50
90
51
180
0
ARC
8
0
10
362.5
20
-28.5
40
2
50
180
51
270
0
ARC
8
0
10
347.5
20
-28.5
40
2
50
270
51
0
0
ARC
8
0
10
347.5
20
-13.5
40
2
50
0
51
90
0
ARC
8
0
10
332.5
20
-13.5
40
2
50
90
51
180
0
ARC
8
0
10
332.5
20
-28.5
40
2
50
180
51
270
0
ARC
8
0
10
317.5
20
-28.5
40
2
50
270
51
0
0
ARC
8
0
10
317.5
20
-13.5
40
2
50
0
51
90
0
ARC
8
0
10
302.5
20
-13.5
40
2
50
90
51
180
0
ARC
8
0
10
302.5
20
-28.5
40
2
50
180
51
270
0
ARC
8
0
10
276.5
20
-28.5
40
2
50
270
51
0
0
ARC
8
0
10
276.5
20
-13.5
40
2
50
0
51
90
0
ARC
8
0
10
261.5
20
-13.5
40
2
50
90
51
180
0
ARC
8
0
10
261.5
20
-28.5
40
2
50
180
51
270
0
ARC
8
0
10
96.3765877
20
-58.7451905
40
2
50
239.9999999
51
329.9999999
0
ARC
8
0
10
103.8765877
20
-45.7548095
40
2
50
329.9999999
51
59.9999999
0
ARC
8
0
10
90.8862067
20
-38.2548095
40
2
50
59.9999999
51
149.9999999
0
ARC
8
0
10
83.3862067
20
-51.2451905
40
2
50
149.9999999
51
239.9999999
0
ARC
8
0
10
122.3573498
20
-73.7451905
40
2
50
239.9999999
51
329.9999999
0
ARC
8
0
10
129.8573498
20
-60.7548095
40
2
50
329.9999999
51
59.9999999
0
ARC
8
0
10
116.8669688
20
-53.2548095
40
2
50
59.9999999
51
149.9999999
0
ARC
8
0
10
109.3669688
20
-66.2451905
40
2
50
149.9999999
51
239.9999999
0
ARC
8
0
10
230.6330312
20
-66.2451905
40
2
50
300.0000001
51
30.0000001
0
ARC
8
0
10
223.1330312
20
-53.2548095
40
2
50
30.0000001
51
120.0000001
0
ARC
8
0
10
210.1426502
20
-60.7548095
40
2
50
120.0000001
51
210.0000001
0
ARC
8
0
10
217.6426502
20
-73.7451905
40
2
50
210.0000001
51
300.0000001
0
ARC
8
0
10
256.6137933
20
-51.2451905
40
2
50
300.0000001
51
30.0000001
0
ARC
8
0
10
249.1137933
20
-38.2548095
40
2
50
30.0000001
51
120.0000001
0
ARC
8
0
10
236.1234123
20
-45.7548095
40
2
50
120.0000001
51
210.0000001
0
ARC
8
0
10
243.6234123
20
-58.7451905
40
2
50
210.0000001
51
300.0000001
0
LINE
8
0
10
-59
20
-119.01476
11
-59
21
108
0
LINE
8
0
10
-57
20
110
11
153
21
110
0
LINE
8
0
10
155
20
108
11
155
21
38.0061436
0
LINE
8
0
10
154.9999622
20
37.9938504
11
154.2607755
21
-82.2635689
0
LINE
8
0
10
153.1437265
20
-84.0458409
11
76.4245688
21
-121.7911152
0
LINE
8
0
10
75.5268412
20
-121.9964951
11
-57.0148144
21
-121.0147051
0
ARC
8
0
10
-57
20
108
40
2
50
90
51
180
0
ARC
8
0
10
153
20
108
40
2
50
0
51
90
0
ARC
8
0
10
153
20
38.0061436
40
2
50
359.6478235
51
0
0
ARC
8
0
10
152.2608133
20
-82.2512757
40
2
50
296.196855
51
359.6478235
0
ARC
8
0
10
75.5416556
20
-119.99655
40
2
50
269.5755948
51
296.196855
0
ARC
8
0
10
-57
20
-119.01476
40
2
50
180
51
269.5755948
0
LINE
8
0
10
186
20
-78.8824096
11
186
21
108
0
LINE
8
0
10
188
20
110
11
471
21
110
0
LINE
8
0
10
473
20
-117.0089887
11
473
21
108
0
LINE
8
0
10
471.009009
20
-119.0089684
11
251.5709471
21
-119.9974282
0
LINE
8
0
10
250.5137433
20
-119.7007651
11
186.9518052
21
-80.5857263
0
ARC
8
0
10
188
20
108
40
2
50
90
51
180
0
ARC
8
0
10
471
20
108
40
2
50
0
51
90
0
ARC
8
0
10
471
20
-117.0089887
40
2
50
270.2580897
51
0
0
ARC
8
0
10
251.5619381
20
-117.9974485
40
2
50
238.3924985
51
270.2580897
0
ARC
8
0
10
188
20
-78.8824096
40
2
50
180
51
238.3924985
0
ENDSEC
0
EOF